<svg width="1440" height="914" viewBox="0 0 1440 914" fill="none" xmlns="http://www.w3.org/2000/svg">
<path d="M1782.06 298.665C1748.09 257.64 1701.1 219.435 1642.4 185.122C1560.2 137.077 1456.31 97.3425 1333.62 67.0125C1242.07 44.3775 1140.63 27.1575 1032.14 15.8025C931.755 5.325 826.74 0 719.992 0C613.245 0 508.23 5.325 407.85 15.81C299.355 27.165 197.91 44.385 106.365 67.02C-16.32 97.3425 -120.203 137.085 -202.402 185.13C-261.112 219.443 -308.107 257.64 -342.075 298.68C-383.827 349.133 -405 402.33 -405 456.817C-405 511.305 -383.827 564.51 -342.067 614.963C-308.1 655.995 -261.112 694.193 -202.395 728.505C-120.195 776.55 -16.3125 816.285 106.372 846.615C197.917 869.25 299.363 886.47 407.858 897.825C508.238 908.325 613.253 913.635 720 913.635C826.748 913.635 931.762 908.325 1032.14 897.825C1140.64 886.47 1242.08 869.25 1333.64 846.615C1456.31 816.292 1560.2 776.55 1642.4 728.505C1701.1 694.193 1748.09 655.995 1782.06 614.955C1823.82 564.51 1845 511.305 1845 456.817C1845 402.33 1823.82 349.125 1782.06 298.672V298.665ZM1629.86 529.995C1626.26 535.777 1622.53 540.922 1619.05 545.37C1618.56 550.425 1617.81 555.997 1616.67 561.893C1611.92 586.448 1601.84 608.145 1586.72 626.415C1565.97 651.495 1541.05 663.577 1522.24 670.417C1511.95 686.745 1495.88 707.198 1469.65 722.535C1436.37 741.983 1402.42 748.32 1375.14 753.42C1362.43 755.79 1350.41 758.04 1342.55 760.912C1338.61 762.375 1328.17 768.652 1320.55 773.242C1298.43 786.555 1268.11 804.795 1229.59 814.312C1204.03 820.628 1180.35 821.355 1164.76 821.355C1155.44 821.355 1146.76 821.07 1138.37 820.785C1131.31 820.545 1124.64 820.32 1118.66 820.32C1112.04 820.32 1106.93 820.62 1103.44 821.182C1097.95 822.097 1085.21 827.025 1074.98 830.985C1050.73 840.367 1020.55 852.038 984.075 855.848C975.397 856.755 966.323 857.22 957.105 857.22C932.512 857.22 910.2 854.047 890.527 851.25C876.57 849.27 863.392 847.402 853.837 847.402C852.825 847.402 851.865 847.425 850.995 847.462C842.445 847.89 827.985 851.46 813.99 854.917C788.25 861.277 756.233 869.182 720 869.182C683.767 869.182 651.75 861.27 626.01 854.917C612.023 851.467 597.555 847.89 589.02 847.462C588.143 847.425 587.168 847.402 586.155 847.402C576.6 847.402 563.423 849.27 549.473 851.25C529.793 854.047 507.487 857.22 482.902 857.22C473.677 857.22 464.602 856.755 455.917 855.848C419.445 852.038 389.265 840.367 365.017 830.985C354.78 827.025 342.045 822.097 336.54 821.182C333.075 820.612 327.953 820.32 321.33 820.32C315.353 820.32 308.678 820.553 301.613 820.785C293.228 821.063 284.55 821.355 275.235 821.355C259.642 821.355 235.965 820.628 210.412 814.312C171.878 804.787 141.57 786.555 119.438 773.242C111.818 768.652 101.378 762.39 97.4625 760.912C89.595 758.04 77.5725 755.797 64.86 753.42C37.5825 748.327 3.63 741.99 -29.6475 722.535C-55.8825 707.205 -71.955 686.745 -82.2375 670.417C-101.04 663.57 -125.962 651.495 -146.723 626.415C-161.842 608.145 -171.915 586.448 -176.67 561.893C-177.818 555.99 -178.553 550.417 -179.048 545.37C-182.528 540.922 -186.262 535.785 -189.862 529.995C-204.157 507.06 -211.41 482.437 -211.41 456.817C-211.41 431.197 -204.157 406.582 -189.862 383.64C-186.262 377.857 -182.528 372.712 -179.048 368.265C-178.553 363.21 -177.818 357.652 -176.67 351.75C-171.915 327.195 -161.842 305.483 -146.723 287.22C-125.97 262.147 -101.047 250.057 -82.2375 243.225C-71.9475 226.89 -55.8825 206.43 -29.6475 191.1C3.63 171.652 37.5825 165.315 64.86 160.215C77.5725 157.845 89.5875 155.595 97.455 152.722C101.385 151.26 111.825 144.982 119.445 140.393C141.585 127.08 171.9 108.84 210.412 99.3225C235.972 93.0075 259.65 92.28 275.242 92.28C284.557 92.28 293.227 92.565 301.628 92.85C308.693 93.09 315.36 93.315 321.338 93.315C327.968 93.315 333.075 93.03 336.562 92.4525C342.052 91.5375 354.787 86.61 365.025 82.65C389.272 73.2675 419.445 61.5975 455.925 57.7875C464.603 56.88 473.677 56.415 482.895 56.415C507.488 56.415 529.8 59.5875 549.473 62.385C563.43 64.365 576.608 66.2325 586.163 66.2325C587.175 66.2325 588.135 66.21 589.005 66.1725C597.555 65.745 612.015 62.175 626.01 58.7175C651.75 52.3575 683.767 44.4525 720 44.4525C756.233 44.4525 788.25 52.365 813.99 58.7175C827.978 62.1675 842.445 65.745 850.98 66.1725C851.865 66.21 852.817 66.2325 853.837 66.2325C863.4 66.2325 876.57 64.365 890.527 62.385C910.208 59.5875 932.512 56.415 957.105 56.415C966.315 56.415 975.39 56.88 984.075 57.7875C1020.55 61.5975 1050.73 73.2675 1074.98 82.65C1085.21 86.61 1097.95 91.5375 1103.45 92.4525C1106.93 93.03 1112.04 93.315 1118.66 93.315C1124.64 93.315 1131.31 93.0825 1138.38 92.85C1146.77 92.5725 1155.44 92.28 1164.76 92.28C1180.35 92.28 1204.03 93.0075 1229.59 99.3225C1268.11 108.847 1298.41 127.08 1320.55 140.393C1328.17 144.982 1338.61 151.26 1342.53 152.722C1350.41 155.595 1362.42 157.845 1375.13 160.215C1402.41 165.307 1436.36 171.645 1469.64 191.1C1495.88 206.43 1511.95 226.89 1522.23 243.225C1541.03 250.057 1565.96 262.147 1586.72 287.22C1601.83 305.49 1611.91 327.188 1616.66 351.742C1617.81 357.645 1618.55 363.217 1619.04 368.265C1622.52 372.712 1626.26 377.842 1629.85 383.64C1644.15 406.582 1651.4 431.197 1651.4 456.817C1651.4 482.437 1644.15 507.06 1629.85 529.995H1629.86Z" fill="#F0C31A"/>
<path d="M1511.25 411.135C1505.12 396.548 1511.91 372.728 1500.32 358.74C1489.45 345.615 1463.4 346.073 1448.02 333.9C1434.55 323.243 1429.81 297.728 1413.05 287.933C1383.96 270.93 1342.27 272.055 1304.01 258.053C1271.56 246.18 1241.31 217.755 1202.66 208.208C1190.62 205.23 1177.89 204.435 1164.76 204.435C1149.76 204.435 1134.24 205.47 1118.66 205.47C1107.46 205.47 1096.21 204.93 1085.1 203.093C1048.35 197.003 1012.36 173.513 972.412 169.335C967.335 168.81 962.235 168.578 957.097 168.578C923.497 168.578 888.518 178.395 853.823 178.395C851.025 178.395 848.22 178.328 845.422 178.185C804.082 176.145 762.487 156.615 719.977 156.615C677.467 156.615 635.872 176.145 594.532 178.185C591.735 178.328 588.937 178.395 586.132 178.395C551.437 178.395 516.458 168.578 482.858 168.578C477.72 168.578 472.62 168.81 467.542 169.335C427.597 173.513 391.612 197.003 354.855 203.093C343.74 204.93 332.512 205.47 321.292 205.47C305.715 205.47 290.197 204.435 275.197 204.435C262.072 204.435 249.33 205.23 237.292 208.208C198.652 217.763 168.405 246.188 135.945 258.053C97.6799 272.055 55.9949 270.93 26.9024 287.933C10.1474 297.735 5.39994 323.243 -8.07006 333.9C-23.4451 346.08 -49.5 345.623 -60.3675 358.74C-71.9475 372.728 -65.16 396.548 -71.2951 411.135C-78.0901 427.29 -99.3 440.168 -99.3 456.81C-99.3 473.453 -78.0901 486.33 -71.2951 502.485C-65.1676 517.073 -71.955 540.893 -60.3675 554.88C-49.5 568.005 -23.4451 567.548 -8.07006 579.72C5.39994 590.385 10.1474 615.893 26.9024 625.688C55.9949 642.69 97.6799 641.565 135.945 655.568C168.397 667.44 198.645 695.865 237.292 705.413C249.337 708.39 262.065 709.185 275.197 709.185C290.197 709.185 305.715 708.15 321.3 708.15C332.505 708.15 343.747 708.69 354.847 710.528C391.597 716.618 427.59 740.108 467.535 744.285C472.612 744.81 477.713 745.043 482.858 745.043C516.45 745.043 551.43 735.225 586.125 735.225C588.922 735.225 591.727 735.293 594.525 735.435C635.865 737.475 677.46 757.013 719.97 757.013C762.48 757.013 804.075 737.475 845.415 735.435C848.212 735.293 851.018 735.225 853.815 735.225C888.51 735.225 923.49 745.043 957.09 745.043C962.227 745.043 967.328 744.81 972.405 744.285C1012.35 740.108 1048.34 716.618 1085.09 710.528C1096.21 708.69 1107.45 708.15 1118.66 708.15C1134.23 708.15 1149.75 709.185 1164.75 709.185C1177.88 709.185 1190.62 708.39 1202.66 705.413C1241.3 695.865 1271.54 667.433 1304 655.568C1342.27 641.565 1383.95 642.69 1413.05 625.688C1429.8 615.9 1434.55 590.378 1448.02 579.72C1463.39 567.54 1489.45 567.998 1500.31 554.88C1511.89 540.893 1505.11 517.073 1511.24 502.485C1518.04 486.33 1539.25 473.453 1539.25 456.81C1539.25 440.168 1518.04 427.29 1511.24 411.135H1511.25ZM1367.48 531.188C1357.65 545.408 1345.11 557.655 1330.2 567.593C1316.1 576.998 1300.41 584.13 1280.84 590.025C1260.07 596.295 1236.55 600.653 1209.31 605.708C1201.06 607.238 1192.55 608.813 1183.84 610.5C1180.29 611.513 1171.49 615.09 1165 617.7C1140.62 627.578 1107.21 641.093 1065.72 645.518C1057.87 646.35 1049.68 646.778 1041.4 646.778C1018.24 646.778 997.778 643.605 979.733 640.8C968.07 638.993 957.06 637.29 950.01 637.275C949.493 637.275 949.028 637.298 948.608 637.313C944.333 637.808 932.865 641.13 924.472 643.56C900.412 650.513 870.48 659.183 834.503 660.203C832.335 660.263 830.122 660.293 827.932 660.293C797.1 660.293 770.138 654.203 748.485 649.305C738.578 647.055 725.017 643.995 719.992 643.995C714.967 643.995 701.407 647.063 691.507 649.305C669.847 654.203 642.892 660.293 612.052 660.293C609.87 660.293 607.665 660.263 605.497 660.203C569.512 659.175 539.572 650.513 515.527 643.56C507.127 641.13 495.667 637.808 491.392 637.313C491.062 637.29 490.597 637.275 489.99 637.275C482.947 637.275 471.93 638.985 460.26 640.8C442.215 643.605 421.747 646.778 398.602 646.778C390.315 646.778 382.125 646.35 374.265 645.518C332.775 641.1 299.377 627.578 274.987 617.708C268.507 615.083 259.702 611.52 256.155 610.493C247.447 608.798 238.935 607.23 230.685 605.7C203.452 600.645 179.932 596.288 159.157 590.018C139.575 584.115 123.885 576.998 109.785 567.585C94.8824 557.648 82.3425 545.4 72.5175 531.18C57.285 509.153 49.2375 483.435 49.2375 456.81C49.2375 430.185 57.2849 404.475 72.5099 382.44C82.3425 368.22 94.8824 355.973 109.792 346.035C123.892 336.63 139.582 329.498 159.15 323.603C179.925 317.348 203.445 312.975 230.685 307.92C238.92 306.398 247.44 304.815 256.147 303.135C259.71 302.108 268.507 298.545 274.995 295.92C299.377 286.05 332.783 272.528 374.272 268.103C382.125 267.27 390.307 266.843 398.61 266.843C421.755 266.843 442.215 270.023 460.267 272.82C471.93 274.628 482.94 276.345 489.99 276.345C490.507 276.345 490.972 276.338 491.392 276.315C495.667 275.805 507.135 272.483 515.527 270.06C539.587 263.108 569.52 254.438 605.497 253.418C607.665 253.358 609.877 253.328 612.067 253.328C642.907 253.328 669.862 259.418 691.515 264.323C701.422 266.558 714.982 269.625 720.007 269.625C725.032 269.625 738.593 266.558 748.5 264.323C770.153 259.418 797.1 253.328 827.948 253.328C830.13 253.328 832.335 253.358 834.503 253.418C870.487 254.445 900.427 263.108 924.472 270.06C932.872 272.49 944.333 275.813 948.608 276.315C948.938 276.323 949.402 276.345 950.01 276.345C957.052 276.345 968.07 274.635 979.74 272.82C997.785 270.015 1018.25 266.843 1041.4 266.843C1049.68 266.843 1057.88 267.27 1065.73 268.103C1107.22 272.528 1140.62 286.043 1165.01 295.92C1171.49 298.538 1180.3 302.1 1183.84 303.12C1192.55 304.815 1201.06 306.383 1209.31 307.913C1236.55 312.968 1260.07 317.325 1280.84 323.595C1300.43 329.498 1316.12 336.63 1330.22 346.028C1345.12 355.965 1357.67 368.213 1367.5 382.433C1382.72 404.46 1390.77 430.178 1390.77 456.803C1390.77 483.428 1382.72 509.145 1367.5 531.173L1367.48 531.188Z" fill="#F0C31A"/>
</svg>
