<svg width="169" height="180" viewBox="0 0 169 180" fill="none" xmlns="http://www.w3.org/2000/svg">
<g clip-path="url(#clip0_2090_15234)">
<path d="M169 121.491C168.978 121.27 168.671 120.96 168.462 121.225L168.715 121.945L169 121.491Z" fill="white"/>
<path d="M166.465 121.713C166.377 122.222 166.399 122.986 166.991 123.384C166.871 122.598 167.123 122.775 166.947 121.857C167.156 121.591 167.54 121.702 167.65 121.956C167.628 121.735 168.144 121.779 168.012 121.314C167.343 121.115 166.904 121.414 166.739 122.122C166.552 122.067 166.53 121.846 166.465 121.713Z" fill="white"/>
<path d="M140.649 139.799L140.857 139.744C140.78 139.744 140.714 139.755 140.649 139.799Z" fill="white"/>
<path d="M124.832 151.245C124.942 151.145 124.942 151.046 124.909 150.99C124.832 151.112 124.766 151.212 124.832 151.245Z" fill="white"/>
<path d="M121.693 152.605C121.759 152.583 121.813 152.549 121.879 152.527C121.781 152.527 121.693 152.527 121.693 152.605Z" fill="white"/>
<path d="M140.649 139.799L140.1 139.932C140.21 140.142 140.418 139.91 140.649 139.799Z" fill="white"/>
<path d="M164.05 125.741C164.116 125.652 164.149 125.542 164.16 125.42C164.105 125.497 164.05 125.575 163.995 125.641C164.017 125.675 164.028 125.708 164.05 125.741Z" fill="white"/>
<path d="M147.168 134.132L147.289 134.032C147.278 133.932 147.256 133.833 147.212 133.711L147.157 134.12L147.168 134.132Z" fill="white"/>
<path d="M152.371 130.059C152.239 130.125 152.569 130.656 152.678 130.911C152.591 130.656 152.613 130.49 152.678 130.369C152.613 130.269 152.514 130.169 152.36 130.059H152.371Z" fill="white"/>
<path d="M161.372 124.624L161.47 124.447C161.47 124.447 161.394 124.569 161.372 124.624Z" fill="white"/>
<path d="M143.316 136.876C143.25 136.81 143.184 136.755 143.14 136.732C143.184 136.799 143.25 136.843 143.316 136.876Z" fill="white"/>
<path d="M4.26973 97.7923C4.26973 97.7923 4.32461 97.748 4.34657 97.7148C4.26973 97.7259 4.23681 97.748 4.26973 97.7923Z" fill="white"/>
<path d="M1.53668 89.9675L1.63547 90.0228C1.73425 89.9564 1.82206 89.89 1.90987 89.8125L1.53668 89.9675Z" fill="white"/>
<path d="M116.358 155.65C116.358 155.65 116.38 155.65 116.391 155.65C116.479 155.495 116.413 155.561 116.358 155.65Z" fill="white"/>
<path d="M74.2209 163.73C74.2867 164.572 72.9915 163.52 73.244 164.638C73.3537 164.406 74.5282 164.55 74.2209 163.73Z" fill="white"/>
<path d="M163.863 125.785C163.797 125.841 163.731 125.907 163.655 125.951C163.764 125.896 163.83 125.841 163.863 125.785Z" fill="white"/>
<path d="M73.244 164.637L73.2769 164.747C73.2659 164.703 73.2549 164.67 73.2549 164.637H73.244Z" fill="white"/>
<path d="M105.36 164.428C105.448 164.494 105.547 164.527 105.635 164.561C105.591 164.516 105.525 164.472 105.36 164.428Z" fill="white"/>
<path d="M114.251 158.814L113.998 158.903C114.119 158.892 114.196 158.848 114.251 158.814Z" fill="white"/>
<path d="M101.552 168.4C101.409 168.445 101.321 168.4 101.222 168.589C101.255 168.6 101.277 168.611 101.31 168.611C101.31 168.5 101.365 168.411 101.552 168.4Z" fill="white"/>
<path d="M97.0623 171.766C97.0623 171.766 97.161 171.799 97.2159 171.811C97.2488 171.766 97.3037 171.722 97.3367 171.678L97.0623 171.766Z" fill="white"/>
<path d="M15.9374 110.523C15.9813 110.313 16.0691 110.124 16.1679 109.947C15.9045 110.313 15.224 109.792 15.9374 110.523Z" fill="white"/>
<path d="M163.841 125.465C163.907 125.609 163.918 125.697 163.863 125.786C163.907 125.742 163.951 125.697 163.995 125.642C163.951 125.553 163.907 125.487 163.841 125.465Z" fill="white"/>
<path d="M104.285 172.475L103.516 172.939C103.758 172.84 104.032 172.663 104.285 172.475Z" fill="white"/>
<path d="M43.7401 140.297L43.5425 140.197C43.5864 140.264 43.6522 140.308 43.7401 140.297Z" fill="white"/>
<path d="M101.442 174.622C101.178 174.544 100.959 174.544 100.772 174.589C100.772 174.655 100.761 174.71 100.772 174.777L101.431 174.611L101.442 174.622Z" fill="white"/>
<path d="M11.1189 106.504C11.6787 107.157 11.975 106.272 12.447 106.095C13.3031 106.704 12.3153 106.847 12.2384 107.39C12.8202 107.722 13.6983 107.589 13.9946 107.965C13.9178 108.087 13.9507 108.187 13.7531 108.22C14.6861 108.286 15.1252 109.692 16.2447 109.736C16.2338 109.825 16.2008 109.891 16.1679 109.947C16.3874 109.581 16.6728 109.283 16.9143 109.106C17.1777 109.382 17.7704 109.294 17.4741 109.759C17.3314 109.57 17.1558 109.703 16.9582 109.736L17.3972 109.88C17.0789 110.666 16.8375 109.648 16.4204 110.035C17.1338 110.456 18.2095 110.71 18.4509 111.308C17.979 111.906 17.3204 110.434 17.3753 111.474L16.9582 110.589C16.563 111.917 16.6399 110.113 16.146 111.452C16.8045 112.515 17.3424 112.216 18.0009 113.278C18.4949 113.201 18.3961 112.791 18.89 112.714C20.6132 113.5 18.429 115.005 20.0205 115.271C20.6132 115.182 21.3926 114.629 21.634 115.647L20.7998 115.99C21.5352 116.931 22.1499 115.669 22.567 116.975C22.1719 117.042 21.7328 116.477 21.7767 116.677C21.8316 117.728 22.5121 116.776 22.9292 117.23L22.4682 117.839C23.4012 118.702 24.7513 119.355 25.794 120.285C25.5745 120.385 25.2452 120.362 25.3001 120.761C26.7709 121.801 27.7917 123.606 28.6258 125.155L29.5369 125.188C29.6357 125.299 29.5149 125.598 29.3173 125.565C29.5918 126.218 29.6357 125.31 30.0418 125.366C30.3272 125.609 30.1076 125.985 29.8113 125.941C31.0077 126.417 32.9395 127.579 33.2907 128.952L32.9834 128.908C33.4554 129.793 34.6847 128.786 34.8603 129.848L34.6627 129.804C35.8921 131.52 37.9007 132.793 38.2958 134.619C39.1739 134.187 39.4264 136.401 40.4472 135.593C40.8094 136.899 40.4033 136.822 41.2594 138.338C41.5228 138.703 42.3022 138.261 42.7851 138.559L42.3131 139.046L43.3449 139.091L43.0376 139.943L43.5205 140.198C43.4107 140.021 43.4327 139.666 43.5973 139.556C44.3766 139.921 44.6401 141.316 44.3986 141.57L46.1438 142.555C45.9243 142.721 45.6279 142.555 45.3316 142.489C46.5389 142.743 44.9474 143.12 46.056 143.352C46.0779 143.153 46.3963 143.12 46.506 143.031C46.5389 143.662 47.2743 144.426 47.9549 144.869L47.5158 145.09C48.4268 146.197 49.7769 147.082 50.8855 148.234C50.6331 147.669 51.3026 147.193 51.6868 147.47L51.3136 148.112C51.8404 148.012 51.1599 147.569 51.9831 147.636C52.3453 148.123 51.6868 148.499 51.2807 148.422L51.9612 148.765C51.8404 148.942 51.6429 148.909 51.4124 149.064C51.9392 148.964 51.7856 150.469 52.6307 150.226L52.51 150.403C53.6296 151.543 54.321 151.886 55.254 152.783C55.704 152.362 55.9675 152.816 56.5931 152.739C57.12 153.558 57.5371 154.664 58.3932 155.439C59.1835 155.793 58.931 155.229 59.4469 155.229C59.0957 155.672 59.9408 156.447 59.2384 156.314C60.2811 157.232 60.5665 157.487 62.1251 158.395C62.1471 158.096 62.0702 157.874 62.2897 157.808C62.5751 157.963 62.63 158.483 62.4105 158.649L62.3117 158.627C64.2984 159.402 64.3972 162.999 66.329 163.254L66.2302 163.232L67.8108 163.929C68.2827 164.516 67.1961 163.929 67.3498 164.56C69.2596 165.102 69.2376 166.586 70.7085 167.139C70.3572 169.131 73.6281 169.818 73.9794 171.633L74.1879 171.29C74.7367 171.29 74.3745 171.777 74.5172 172.042C74.6928 171.788 74.4513 171.489 74.7806 171.511C76.1526 172.496 77.2173 173.747 78.3588 175.153C79.5113 176.547 80.8065 178.141 82.7054 179.326C83.4189 179.746 83.8579 179.359 84.253 179.082C84.6701 178.805 85.0104 178.639 85.8556 179.337C85.6141 179.536 85.3726 179.713 85.1092 179.89C86.8544 179.934 88.5008 180.045 90.1033 179.846C91.6949 179.658 93.1876 179.204 94.3072 178.296C94.2194 178.518 94.3072 178.717 94.0438 178.828C94.8341 179.104 96.0414 177.909 95.8329 177.521C96.228 177.367 96.1073 177.82 96.4366 177.887C97.1061 177.865 97.3366 176.581 97.8525 176.868C97.9403 176.913 97.8086 177.101 97.7428 177.189C97.9293 176.78 99.2026 176.315 98.5769 175.994C99.5538 175.684 99.927 174.71 100.739 174.555C100.739 173.703 102.199 173.869 101.749 172.994C102.287 173.836 103.505 172.673 103.692 171.954C103.714 172.308 104.285 171.899 104.35 172.374C104.866 171.965 105.239 171.456 104.844 171.113C106.524 171.334 106.216 168.866 107.676 169.685C108.916 168.069 110.146 166.685 111.419 165.434C111.957 166.276 109.926 166.685 110.607 167.482C111.693 166.143 111.957 164.881 113.428 164.073C113.856 163.918 113.494 164.571 113.472 164.792C114.558 163.453 116.106 162.922 116.962 161.582C117.017 161.66 116.951 161.837 116.874 161.992C117.094 161.793 117.5 161.704 117.203 161.35L117.05 161.616C116.281 161.372 117.16 159.811 116.995 159.502C117.368 160.841 118.367 158.882 118.707 160.664C118.806 160.476 118.872 160.166 118.663 159.944C118.949 159.845 119.124 159.933 119.091 160.376C119.783 159.546 119.201 159.38 119.959 158.815C120.09 158.992 119.98 159.181 120.057 159.446C120.189 158.815 120.321 158.173 121.067 157.841C121.111 157.974 121.287 158.063 121.089 158.195C122.154 157.31 122.285 155.86 123.745 155.284C123.954 156.314 124.338 155.229 124.898 155.838L125.403 155.152L124.898 155.03C125.48 154.609 125.622 153.746 126.27 153.591L126.05 154.177L127.027 153.248L126.237 153.458C126.555 152.683 125.556 152.672 126.445 152.285C126.347 152.473 127.016 151.864 127.609 152.03C127.73 151.61 127.861 151.167 128.399 151.012C128.663 151.145 128.86 151.809 129.036 151.897C128.904 151.134 130.254 150.735 130.166 149.883C130.155 150.115 130.408 150.458 130.496 150.503L130.397 149.872C130.77 149.816 130.858 149.861 131.022 150.171C131.879 149.65 130.144 149.518 131.352 149.174C131.308 149.263 131.396 149.307 131.286 149.495C132.373 148.964 132.899 147.835 133.931 147.392C134.678 147.868 133.295 148.134 134.008 148.466C135.171 147.403 136.006 145.71 137.334 144.946L137.048 145.046C136.522 143.983 138.3 144.824 138.585 143.928C138.486 144.116 138.772 144.603 138.739 144.459C139.683 143.983 140.264 142.943 141.296 141.703L141.318 142.057C141.966 141.902 142.701 141.205 143.305 140.917C143.283 140.563 143.612 140.364 143.173 140.153C145.818 140.297 145.731 137.065 148.025 137.121C147.849 137.253 147.772 137.641 147.904 137.541L148.969 136.39C148.562 136.058 148.628 136.268 148.123 136.135C148.101 135.77 148.31 135.327 148.606 135.095C148.255 135.781 149.1 135.748 149.506 135.792C149.375 135.693 149.353 135.493 149.232 135.383C150.417 135.626 148.727 134.475 149.967 134.309L150.077 134.564C150.319 134.209 150.417 133.689 150.812 133.49C151.306 133.855 150.626 133.977 150.889 134.387C151.361 133.988 151.208 132.748 152.009 132.881C151.899 133.169 151.592 133.401 151.482 133.7C152.382 133.888 152.338 133.7 152.766 133.512H152.722L153.754 133.147H153.425C153.128 131.453 154.522 131.974 154.764 130.535C154.522 131.918 154.961 131.077 155.291 131.664C155.62 131.653 156.07 131.575 156.081 131.796C156.158 131.066 156.992 131.641 157.091 130.579C157.245 130.734 157.53 130.28 157.76 130.778C158.178 130.258 157.42 130.568 157.299 130.324C157.651 129.129 159.703 129.627 160.241 127.956C160.976 126.882 160.724 126.162 161.426 125.177C161.942 125.222 161.646 125.996 161.646 125.996C162.337 125.875 162.678 125.543 162.996 124.989C163.018 125.211 163.205 125.266 163.49 125.354C163.83 125.022 163.27 124.535 163.962 124.414C164.017 124.668 164.138 125.067 164.105 125.388C164.434 124.89 164.632 124.237 164.972 123.738C165.312 123.949 165.038 124.403 165.016 124.724C165.433 124.192 166.146 123.44 165.96 122.842L165.499 122.919C165.674 122.753 165.905 123.251 165.828 123.451C165.663 124.159 165.071 123.772 164.917 123.617L165.158 123.262C164.072 122.499 163.962 124.414 163.259 124.856L162.985 123.916L162.766 125.033C162.48 124.945 162.074 124.613 162.316 124.259C161.569 124.259 162.096 124.834 161.383 124.735C161.295 124.701 161.284 124.657 161.306 124.591L161.009 125.155C160.987 124.934 160.548 124.69 160.911 124.591C159.769 124.79 159.989 126.151 159.264 125.83L159.297 125.731C158.331 126.849 159.593 126.351 159.198 127.646L157.629 126.749L157.914 127.38C157.782 127.446 157.519 127.59 157.398 127.336C157.234 128.044 157.651 127.513 157.651 128.055C156.718 127.989 156.246 129.472 155.477 128.708C155.576 129.273 156.257 128.609 155.862 129.361C154.994 128.564 155.28 130.048 154.435 130.025C154.237 129.428 154.918 129.306 154.083 129.273C154.369 130.324 152.942 129.859 152.613 130.346C153.074 131.011 151.855 131.343 151.274 132.106C151.164 131.852 149.627 132.804 148.76 133.091L148.705 132.97C149.056 133.722 148.255 134.132 147.838 134.652C147.564 134.243 147.553 134.021 147.695 133.634L147.212 133.999C147.256 134.298 147.179 134.519 146.927 134.829L146.685 134.254C146.06 134.763 145.807 135.803 144.743 136.113C145.028 136.6 146.345 136.877 145.687 137.84C145.467 137.619 145.127 137.22 145.281 136.954C145.226 137.043 145.16 137.364 144.94 137.375L144.984 136.7C144.468 136.8 145.039 137.198 144.71 137.386C144.457 137.032 144.304 137.309 144.139 136.999C144.194 136.91 144.512 136.943 144.523 136.722C144.139 136.921 143.568 137.021 143.239 136.855C143.415 137.032 143.59 137.331 143.371 137.563C142.745 138.072 142.833 137.309 142.328 137.408C142.35 137.774 141.757 137.829 142.13 138.36C141.944 138.504 141.724 138.283 141.549 138.194C141.384 138.681 140.034 139.434 140.824 139.711L140.934 139.677C140.934 139.677 140.912 139.711 140.901 139.744C140.199 141.094 138.409 141.161 137.487 142.212L137.356 142.035C136.851 142.721 136.006 143.242 135.819 143.972C135.632 144.116 135.128 143.994 135.062 143.729C134.667 144.238 134.754 144.47 133.821 144.725C134.096 144.038 133.448 144.581 134.162 144.116C133.404 144.448 133.053 144.282 132.713 145.278C132.614 144.647 131.813 145.079 131.604 145.444L132.296 145.422C131.999 145.743 131.67 145.931 131.341 146.13L131.066 145.411C129.211 145.688 129.596 148.422 127.708 147.979C127.664 148.654 128.641 147.724 128.685 148.444C128.015 148.82 126.764 148.444 126.566 148.599C125.49 148.898 126.434 150.049 125.403 150.481C125.666 150.602 126.193 151.089 125.688 151.776C125.029 152.152 124.283 151.455 124.547 151.001C124.678 150.868 124.799 150.89 124.843 150.968C124.986 150.746 125.172 150.458 124.766 150.414L124.843 150.68C124.382 150.691 123.57 151.344 123.504 150.857C123.196 151.399 123.559 151.355 123.987 151.2C122.988 151.488 122.768 152.108 121.813 152.506C122.022 152.528 122.329 152.683 122.198 152.783C120.826 153.414 121.978 153.569 121.254 154.266C120.562 154.288 120.848 153.381 120.244 154.255C119.596 154.41 119.728 153.779 119.794 153.458C119.366 154.41 118.235 154.222 117.763 154.465L118.027 154C117.873 154.277 117.686 154.41 117.489 154.554L118.016 154.808C117.73 154.908 117.544 155.052 117.423 154.875C117.39 155.329 118.125 155.439 117.939 156.17C117.478 156.181 117.193 157.089 116.677 156.613C117.763 156.092 116.161 156.126 116.885 155.439C116.775 155.627 116.589 155.76 116.303 155.86C116.227 155.827 116.249 155.716 116.292 155.639C115.019 155.827 116.347 156.579 115.392 157.277C115.283 156.867 114.734 156.845 114.624 157.022C115.008 156.745 115.195 157.41 115.03 157.908C114.251 158.118 114.514 158.583 114.174 158.793L114.624 158.638C114.734 159.048 114.405 159.236 114.053 159.645C113.834 159.424 114.306 159.192 114.075 159.192C114.02 160.099 112.593 159.413 112.22 160.276C111.759 160.287 111.748 159.712 111.386 159.767C110.958 160.73 110.278 159.933 109.762 160.852C110.299 161.107 110.256 160.974 110.025 161.793L111.057 160.542L110.706 161.771C111.09 161.494 111.309 160.896 111.595 160.797C111.463 161.428 111.43 161.295 111.869 161.505C110.881 161.261 111.112 162.656 110.201 162.678L109.443 161.616C108.192 161.826 108.236 163.365 106.875 163.984L107.391 163.885C107.544 164.416 106.71 164.494 106.458 164.947C106.238 164.571 105.898 164.626 105.58 164.527C105.788 164.77 104.702 165.147 105.119 165.932L104.252 165.866C103.165 166.397 103.911 167.681 102.913 168.246C102.913 167.659 102.309 167.726 102.715 166.995C102.408 167.216 102.089 167.36 102.265 167.604C101.925 167.515 101.771 168.711 101.244 168.589C101.233 168.844 101.464 169.242 101.101 169.463C101.014 169.419 100.97 169.286 100.97 169.286C101.101 169.463 100.608 169.928 101.2 170.083C99.455 169.696 98.6428 172.153 97.15 171.777C96.5793 172.363 95.8549 173.028 95.2621 173.426C95.2292 173.293 95.1524 173.238 95.2841 173.205C94.2413 173.36 95.4048 174.621 94.1755 174.776C93.3413 174.422 94.5267 174.157 94.0877 174.09C93.2974 172.884 92.9901 174.898 91.9912 174.378L92.112 174.234C91.4644 173.991 91.1022 175.208 90.2131 175.308C90.2131 175.308 90.2241 175.175 90.1692 175.097C89.7741 175.961 88.6106 176.326 87.7105 176.437C88.0288 175.894 88.1057 176.171 87.9959 175.584C87.6227 175.629 88.0618 176.514 87.2495 176.603C87.03 176.237 86.5361 175.894 86.6349 175.275C86.8434 175.319 87.0629 175.33 87.2825 175.374C87.1068 174.544 86.4702 175.252 86.1629 174.987L86.3166 174.677C85.4055 174.455 84.9884 175.219 83.9786 174.544L83.9457 174.832C82.903 175.175 83.7372 174.123 82.8261 174.245L83.1884 173.426C82.7164 173.337 81.4322 173.083 80.6968 172.618C81.487 172.474 82.42 172.862 83.1005 172.906C82.7713 172.64 81.9261 171.987 81.4541 172.142C81.6517 172.208 81.959 172.197 82.0029 172.419C81.1358 172.563 80.3455 172.297 79.676 171.633C80.9492 170.526 78.1942 169.607 78.5893 168.179C76.9539 167.471 76.3722 165.689 74.9123 164.394C74.5062 165.822 74.4733 164.029 73.6281 165.08C73.2439 164.826 73.1342 164.693 73.1671 164.593L72.739 163.055C72.772 162.545 73.2549 163.143 73.4305 162.9C72.7939 162.136 73.5293 162.191 73.3098 161.483C73.0683 161.926 72.5854 161.737 72.3 161.206L72.4427 162.213C70.9499 161.76 72.3659 160.564 70.8731 160.088H71.4878C70.7963 159.767 69.6108 158.229 68.3486 158.505C68.3705 158.306 68.5023 157.919 68.7986 158.074C67.69 156.745 65.2643 156.214 64.7923 154.786L65.1106 154.642C64.8143 154.487 64.2874 154.687 64.2325 154.166C64.3423 154.089 64.5508 154.022 64.463 153.901C64.2654 153.856 63.4532 153.713 63.2886 153.27H63.8045C62.9264 151.764 61.3458 152.085 60.1933 151.255C60.8738 150.569 60.1713 149.407 59.8201 148.831L59.9299 148.754C58.6457 147.282 57.0322 146.972 55.4955 145.953C55.4516 144.404 53.1466 142.921 52.3124 141.216C52.3783 141.537 51.7416 141.714 51.4453 141.559C51.2916 141.116 50.1501 141.194 50.8306 140.618L50.9184 140.74C51.3136 139.899 50.5452 139.434 50.0952 138.925L49.1842 139.666C49.1623 137.198 45.5072 136.755 45.9133 134.995C45.4084 134.885 45.0462 134.497 44.5413 134.398L45.0023 133.977C44.2998 133.003 43.9486 132.527 42.818 131.564L43.3449 131.475C42.8071 130.845 41.3253 131.974 40.7765 131.442L41.2923 130.634C40.2825 129.594 39.8764 127.967 38.2849 127.513C38.3946 127.435 38.6251 127.28 38.8117 127.424C38.3617 126.915 37.4617 125.078 36.7043 126.14C37.297 125.554 35.7384 125 34.9481 124.679L35.475 124.347C34.4542 124.403 34.2896 124.535 33.4993 124.015C33.4115 123.805 33.7298 123.539 33.8066 123.86C33.5432 123.107 32.9944 123.849 32.6321 122.975L33.1371 122.941C32.6651 122.366 32.5443 122.554 31.9407 122.565C31.4357 122.388 31.0845 121.425 31.4138 120.96C31.0955 121.115 30.4918 121.126 30.3052 120.695C30.415 120.506 30.6235 120.54 30.7223 120.551C30.1845 119.344 28.9442 119.665 28.8015 118.625C28.9332 118.47 28.9771 118.359 28.9661 118.27C29.6247 119.012 30.1406 119.621 30.0637 119.599C30.4808 119.211 30.0088 118.558 31.0077 118.492C30.2613 118.315 28.8344 118.138 28.5051 117.374C28.5161 117.307 28.538 117.241 28.5819 117.164H28.6807C28.6039 117.009 28.4502 116.92 28.2746 116.876C28.1758 116.632 28.1209 116.466 27.9563 116.278C28.2307 115.891 27.5173 115.426 27.2648 115.116C26.8367 115.559 26.5514 115.116 26.5074 115.824C26.5074 115.747 26.6172 115.824 26.8148 116.012C26.8697 116.046 26.9245 116.09 26.9794 116.09C26.9575 116.09 26.9465 116.09 26.9245 116.112C27.1111 116.3 27.3526 116.544 27.627 116.82C27.188 116.798 26.7709 116.743 26.716 116.178C26.2879 116.3 25.8379 116.411 25.6074 116.444C25.8708 115.459 25.4976 114.352 25.794 113.887C24.7183 113.223 23.6866 111.917 22.3146 112.138C21.9743 111.983 22.2926 111.618 22.3365 111.397C22.556 111.463 22.7097 111.651 22.8963 111.618C22.2048 111.308 21.4255 110.179 20.712 110.6C20.3937 109.703 21.5901 110.456 20.6901 109.659L20.9864 109.615C20.3608 106.98 16.8814 108.154 16.3655 105.076C16.4094 105.276 16.4423 105.375 16.3655 105.497C14.9276 102.763 11.7445 101.346 10.6688 98.3467C10.2957 97.5608 9.84564 97.8375 9.20902 97.7158L9.58221 97.1402L8.42971 96.9963C7.1894 96.4318 8.23214 94.2955 6.4101 93.8085L6.20155 94.2623C5.89422 93.7753 4.82953 93.089 5.27955 92.8123C5.18077 92.8123 4.80758 92.9784 4.8405 92.6574L5.09296 92.4138L3.73191 91.7608C3.21603 90.7757 4.88441 90.9749 3.90753 89.7463C3.42458 89.3921 2.05256 89.1596 2.03061 89.4806C2.1733 89.6688 2.26111 90.0783 2.00865 90.3219L1.5257 90.0341C0.691514 90.6318 -0.373173 91.0192 -0.0438884 92.4803L1.03178 92.757L0.845181 93.3104L0.318325 92.7459C0.252468 93.3879 0.746395 93.3215 1.16349 93.3658C1.00982 93.5982 0.954942 93.8196 0.998847 94.0188L2.32696 94.052C2.09646 94.3952 1.47082 94.2734 1.69035 94.8711C2.30501 94.8932 2.09646 93.9745 2.77699 94.2955C2.71113 94.9375 2.34892 95.0925 2.98553 95.2142C2.83187 95.4467 2.6343 95.4688 2.41477 95.3913C2.9526 95.5242 3.30384 96.2215 3.8746 96.0333C3.74289 96.7639 4.99417 97.0959 4.24779 97.7047C4.51122 97.6604 5.34541 97.8043 5.65274 98.0921C4.28072 98.2914 6.64059 99.3207 5.57591 99.9959C6.7284 99.7303 7.27721 101.236 8.37483 101.601C8.27604 101.612 8.07847 101.645 8.05652 101.546C8.36385 102.033 8.24312 102.365 8.33092 102.774C9.02242 102.254 9.75783 102.774 10.4713 102.774C10.3176 103.848 9.43952 103.139 8.98949 103.837C9.48342 103.339 10.3066 104.268 10.592 103.704C10.5591 104.446 10.7128 104.213 10.3615 104.899C11.2286 104.246 10.8225 105.143 11.6128 105.032C11.7226 105.962 10.9981 105.862 11.7994 106.272C11.8213 106.792 11.042 106.493 11.042 106.493L11.1189 106.504ZM25.9696 120.141C25.8379 120.019 25.7281 119.92 25.6623 119.864C25.7281 119.92 25.816 119.997 25.9806 120.141H25.9696ZM27.1111 121.37C26.9904 121.204 26.8148 121.015 26.6282 120.816C26.7489 120.628 26.9465 120.528 27.0563 120.65C26.8916 120.683 27.0672 121.06 27.1111 121.37ZM27.8356 115.813C28.077 115.946 28.0551 116.101 27.9783 116.212C27.8904 116.123 27.7697 116.035 27.6051 115.924C27.5831 115.924 27.5502 115.946 27.5282 115.957C27.627 115.891 27.7368 115.835 27.8246 115.824L27.8356 115.813Z" fill="white"/>
<path d="M26.9245 116.024C26.9245 116.024 26.8587 116.002 26.8148 115.969C26.8148 116.046 26.8148 116.113 26.8148 116.179C26.8806 116.157 26.9574 116.135 27.0233 116.113C26.9904 116.079 26.9574 116.046 26.9245 116.013V116.024Z" fill="white"/>
<path d="M140.901 139.732H140.868C140.868 139.732 140.945 139.743 140.978 139.766C140.945 139.766 140.934 139.743 140.901 139.732Z" fill="white"/>
<path d="M42.2143 139.157L42.3241 139.046L42.1265 139.035L42.2143 139.157Z" fill="white"/>
<path d="M149.561 135.859C149.561 135.859 149.671 135.915 149.748 135.915C149.715 135.882 149.649 135.87 149.561 135.859Z" fill="white"/>
<path d="M152.832 133.557L153.414 133.391C153.139 133.435 152.964 133.501 152.832 133.557Z" fill="white"/>
<path d="M155.466 131.952C155.433 131.841 155.39 131.764 155.357 131.697L155.477 131.952H155.466Z" fill="white"/>
<path d="M116.896 162.025C116.896 162.025 116.841 162.081 116.819 162.114C116.666 162.38 116.797 162.225 116.896 162.025Z" fill="white"/>
<path d="M127.642 152.086C127.587 152.274 127.532 152.451 127.444 152.606C127.675 152.484 127.85 152.374 127.642 152.086Z" fill="white"/>
<path d="M104.372 172.418L104.296 172.473L104.383 172.418H104.372Z" fill="white"/>
<path d="M126.895 153.004C127.181 152.949 127.334 152.794 127.444 152.605C127.247 152.705 127.016 152.805 126.895 153.004Z" fill="white"/>
<path d="M166.278 124.137L166.41 124.071C166.41 124.071 166.366 124.005 166.366 123.982L166.278 124.137Z" fill="white"/>
<path d="M166.366 123.981L166.454 123.826C166.388 123.87 166.344 123.915 166.366 123.981Z" fill="white"/>
<path d="M166.629 123.484L166.443 123.816C166.541 123.75 166.673 123.673 166.629 123.484Z" fill="white"/>
<path d="M162.853 126.361L162.952 126.572C162.952 126.572 162.919 126.45 162.853 126.361Z" fill="white"/>
<path d="M161.909 127.159C162.173 127.026 162.788 127.092 163.029 126.738L162.952 126.572C162.996 126.96 161.898 126.683 161.909 127.159Z" fill="white"/>
<path d="M156.125 128.044L157.058 127.568C156.773 127.48 156.388 127.369 156.729 127.037C155.258 127.247 157.267 127.303 156.125 128.044Z" fill="white"/>
<path d="M153.359 129.705C153.732 129.285 153.15 129.428 153.085 129.307C152.931 129.694 152.898 129.794 153.359 129.705Z" fill="white"/>
<path d="M134.82 143.706L134.524 143.219C134.228 143.54 134.656 143.396 134.82 143.706Z" fill="white"/>
<path d="M133.02 148.732L133.558 148.754L133.404 148.223L133.02 148.732Z" fill="white"/>
<path d="M128.52 147.083L128.63 146.906L128.18 147.504L128.52 147.083Z" fill="white"/>
<path d="M97.5342 170.748L98.0501 171.235C98.2037 170.958 97.7866 170.294 97.5342 170.748Z" fill="white"/>
<path d="M84.3628 174.322C84.4067 173.934 84.1982 173.536 83.7921 173.669C84.0335 173.901 84.1652 174.311 84.3628 174.322Z" fill="white"/>
<path d="M49.3049 138.482L49.7001 138.559L49.1183 138.238L49.3049 138.482Z" fill="white"/>
<path d="M87.0849 165.035C87.2715 165.124 87.6996 165.068 87.6227 164.836L86.8983 164.67L87.0959 165.046L87.0849 165.035Z" fill="white"/>
<path d="M88.424 163.429C88.0728 163.152 87.4581 162.82 86.7886 163.008C87.491 163.285 87.1947 163.351 88.0289 163.65C88.1167 163.894 87.7984 164.071 87.524 164.027C87.7106 164.115 87.3593 164.403 87.8203 164.525C88.3801 164.215 88.4021 163.816 87.9411 163.407C88.1057 163.318 88.2923 163.407 88.424 163.429Z" fill="white"/>
<path d="M89.5655 140.029L89.4777 140.184C89.4777 140.184 89.5546 140.096 89.5655 140.029Z" fill="white"/>
<path d="M89.9607 125.531C89.9826 125.641 90.0485 125.686 90.1144 125.697C90.0705 125.597 90.0266 125.509 89.9607 125.531Z" fill="white"/>
<path d="M90.7619 123.051C90.7619 123.051 90.729 123.15 90.718 123.195C90.7839 123.139 90.8168 123.084 90.7619 123.051Z" fill="white"/>
<path d="M89.5655 140.03L89.796 139.642C89.5545 139.62 89.6204 139.841 89.5655 140.03Z" fill="white"/>
<path d="M86.6788 160.197C86.7117 160.275 86.7776 160.341 86.8654 160.408C86.8324 160.341 86.8105 160.275 86.7885 160.208C86.7446 160.208 86.7117 160.208 86.6788 160.197Z" fill="white"/>
<path d="M90.1473 146.416V146.538C90.2351 146.571 90.3339 146.604 90.4436 146.637L90.1473 146.427V146.416Z" fill="white"/>
<path d="M90.257 151.321C90.279 151.21 89.6643 151.166 89.4009 151.133C89.6533 151.199 89.7741 151.277 89.8289 151.376C89.9497 151.376 90.0814 151.365 90.268 151.321H90.257Z" fill="white"/>
<path d="M89.1813 159.102L89.2691 159.234C89.2691 159.234 89.2143 159.135 89.1813 159.102Z" fill="white"/>
<path d="M90.279 142.908C90.3668 142.908 90.4546 142.885 90.4985 142.863C90.4217 142.863 90.3448 142.885 90.279 142.908Z" fill="white"/>
<path d="M85.647 5.71045C85.647 5.71045 85.7239 5.71045 85.7568 5.71045C85.6909 5.67725 85.647 5.67725 85.647 5.71045Z" fill="white"/>
<path d="M88.6984 0.0214844L88.7313 0.0989656C88.8521 0.0989656 88.9618 0.121103 89.0716 0.121103L88.6874 0.0214844H88.6984Z" fill="white"/>
<path d="M91.5522 118.523C91.5522 118.523 91.5522 118.535 91.5413 118.546C91.6071 118.667 91.5961 118.601 91.5522 118.523Z" fill="white"/>
<path d="M91.0912 76.928C90.5424 77.404 90.3777 76.1643 89.774 76.8727C90.0155 76.8063 90.7399 77.5147 91.0912 76.928Z" fill="white"/>
<path d="M86.7556 160.076C86.7556 160.01 86.7446 159.943 86.7556 159.877C86.7336 159.966 86.7336 160.032 86.7556 160.076Z" fill="white"/>
<path d="M89.7741 76.8711L89.7192 76.9486C89.7192 76.9486 89.7631 76.9043 89.785 76.8711H89.7741Z" fill="white"/>
<path d="M91.179 108.086C91.0692 108.108 90.9924 108.152 90.9046 108.197C90.9705 108.197 91.0473 108.174 91.179 108.086Z" fill="white"/>
<path d="M90.3009 115.856L90.3887 115.668C90.3338 115.745 90.3119 115.801 90.3009 115.856Z" fill="white"/>
<path d="M90.3119 104.046C90.3558 103.946 90.4436 103.902 90.3558 103.758C90.3229 103.769 90.3009 103.78 90.279 103.802C90.3668 103.857 90.3997 103.924 90.3009 104.046H90.3119Z" fill="white"/>
<path d="M90.3009 99.8398C90.3009 99.8398 90.2131 99.8952 90.1802 99.9173C90.1912 99.9616 90.2021 100.006 90.2131 100.05L90.3009 99.8398Z" fill="white"/>
<path d="M85.9434 18.4839C86.119 18.3954 86.3056 18.34 86.4922 18.2847C86.0532 18.3511 85.8995 17.7312 85.9434 18.4839Z" fill="white"/>
<path d="M87.019 160.198C86.8654 160.176 86.7885 160.143 86.7556 160.076C86.7556 160.12 86.7776 160.176 86.7885 160.22C86.8764 160.231 86.9642 160.231 87.019 160.209V160.198Z" fill="white"/>
<path d="M85.4385 103.869L85.5263 103.205C85.4714 103.393 85.4385 103.637 85.4385 103.869Z" fill="white"/>
<path d="M86.0312 48.6354L85.9543 48.4805C85.9434 48.5358 85.9543 48.5912 86.0312 48.6354Z" fill="white"/>
<path d="M85.4385 101.223C85.658 101.102 85.7787 100.98 85.8666 100.847C85.8226 100.825 85.7787 100.792 85.7019 100.77L85.4385 101.223Z" fill="white"/>
<path d="M85.0433 13.8897C85.0214 14.5206 85.8336 14.1886 86.3056 14.3214C86.5361 15.0852 85.7129 14.6756 85.2958 14.9302C85.5153 15.4061 86.2507 15.7714 86.2288 16.1256C86.097 16.1478 86.0422 16.2252 85.8775 16.1367C86.5251 16.6348 85.9105 17.6199 86.7227 18.2065C86.6459 18.2508 86.58 18.273 86.5251 18.284C86.9312 18.1844 87.3483 18.1733 87.6337 18.1955C87.6447 18.4833 88.1496 18.7268 87.6118 18.8375C87.6227 18.6604 87.4142 18.6493 87.2495 18.5607L87.48 18.8596C86.7227 19.1252 87.2166 18.4501 86.6568 18.4501C86.9093 19.0367 87.5349 19.7119 87.3154 20.1546C86.569 20.2432 87.063 19.1142 86.4044 19.7008L86.6898 19.0146C85.5153 19.5459 86.7666 18.594 85.5153 19.081C85.2958 19.9886 85.8995 20.0993 85.68 21.0069C86.097 21.2062 86.2946 20.9405 86.7117 21.1398C87.4581 22.4237 84.8348 22.1581 85.8336 23.0989C86.3275 23.3424 87.2715 23.4421 86.7776 24.1173L85.9324 23.8848C85.8446 24.7703 87.1398 24.3829 86.58 25.3127C86.2507 25.1467 86.3056 24.6154 86.1958 24.7592C85.5263 25.357 86.6788 25.1799 86.6788 25.6447L85.9324 25.7444C86.0531 26.6852 86.591 27.7146 86.7227 28.7551C86.5032 28.6997 86.2617 28.5226 86.0422 28.7551C86.4154 30.0612 85.9544 31.5444 85.5043 32.8173L86.1519 33.3043C86.1519 33.415 85.8556 33.5146 85.7348 33.3929C85.4934 33.8799 86.141 33.415 86.3934 33.6585C86.4373 33.9352 86.0202 34.0238 85.8336 33.8467C86.3824 34.71 87.0081 36.3261 86.3166 37.2337L86.13 37.0566C85.8666 37.765 87.4471 37.8646 86.8544 38.5177L86.7446 38.3959C86.4702 39.9456 87.052 41.6502 86.0861 42.8345C87.0191 43.0559 85.669 44.362 86.9642 44.4616C86.3276 45.3471 86.0861 45.0925 85.658 46.3322C85.6031 46.6643 86.4702 46.8303 86.602 47.2399H85.9214L86.6349 47.8044L85.8227 48.1032L85.9983 48.4906C86.0422 48.3357 86.3056 48.1697 86.4922 48.1918C86.7995 48.7895 86.0202 49.6529 85.669 49.675L86.2397 51.1029C85.9653 51.0697 85.8775 50.8372 85.7019 50.649C86.3934 51.4128 84.9885 50.7819 85.6251 51.4792C85.7787 51.3907 86.0312 51.5345 86.1629 51.5456C85.7568 51.8887 85.7458 52.6857 85.9214 53.2723L85.4604 53.1617C85.3397 54.2132 85.68 55.3865 85.68 56.5708C85.8995 56.1502 86.7007 56.2388 86.7885 56.593L86.0751 56.7369C86.5141 56.9582 86.3495 56.3716 86.8873 56.8365C86.7995 57.2792 86.0751 57.1353 85.8446 56.8808L86.0971 57.4231C85.8885 57.4563 85.7678 57.3235 85.5043 57.2903C85.9434 57.5117 84.7909 58.2201 85.5592 58.5411L85.3507 58.5743C85.3507 59.7586 85.5922 60.301 85.6251 61.264C86.2397 61.2861 86.108 61.6625 86.602 61.9502C86.4044 62.6586 85.9214 63.4445 85.9763 64.2968C86.2836 64.8945 86.5032 64.4739 86.8654 64.7396C86.3056 64.7838 86.3605 65.6361 85.9544 65.1934C86.0422 66.2228 86.0641 66.4995 86.5251 67.7945C86.7556 67.6507 86.8544 67.4957 87.052 67.5732C87.1398 67.8056 86.8215 68.1045 86.5471 68.0713L86.4922 68.0048C87.3374 69.4659 84.8567 71.3697 86.0202 72.5209L85.9653 72.4545L86.58 73.661C86.4812 74.2144 86.1629 73.3289 85.8117 73.7385C86.7446 75.0335 85.68 75.7862 86.3056 76.8598C84.6482 77.69 86.4263 79.7931 85.3616 80.911L85.7568 80.8446C86.141 81.1324 85.5373 81.1988 85.4385 81.4091C85.7458 81.3759 85.7897 81.0992 85.9983 81.2763C86.4702 83.7225 85.4275 86.3126 85.0763 88.8252C84.9665 89.7439 87.0959 89.3454 86.1629 90.4966L85.4385 90.1645C86.3056 92.013 85.4056 93.9389 86.1519 95.7542C85.9873 95.6435 85.7678 95.6435 85.7678 95.4664C85.2409 95.8538 85.7458 96.8832 86.1739 96.8832C86.13 97.1599 85.7897 96.9496 85.5702 97.1267C85.2629 97.5141 86.2397 98.0897 85.7239 98.2889C85.6361 98.3222 85.5482 98.1783 85.5153 98.1118C85.7678 98.3664 85.4495 99.2741 86.0531 99.0416C85.7678 99.7168 86.3276 100.337 85.9653 100.879C86.6459 101.233 85.6361 102.041 86.602 102.152C85.6141 102.108 85.8007 103.347 86.2727 103.768C85.9763 103.624 85.9653 104.144 85.5482 103.978C85.5592 104.465 85.7458 104.919 86.2617 104.831C85.0763 105.738 87.2166 106.646 85.6909 107.155C86.2288 108.616 86.591 109.955 86.8215 111.273C85.8336 111.228 86.7227 109.823 85.68 109.878C86.0861 111.118 86.9422 111.837 86.7007 113.066C86.569 113.387 86.2727 112.889 86.0971 112.778C86.5032 114.018 86.0092 115.18 86.5471 116.287C86.4593 116.287 86.3495 116.165 86.2836 116.054C86.3166 116.276 86.141 116.563 86.591 116.541L86.4702 116.331C87.1288 115.988 87.8313 117.194 88.1825 117.239C86.8873 116.873 87.8532 118.334 86.2288 117.748C86.3166 117.892 86.5251 118.069 86.8325 118.036C86.7446 118.246 86.569 118.312 86.2288 118.102C86.4702 118.877 86.9532 118.6 86.9422 119.309C86.7227 119.309 86.6349 119.165 86.3824 119.087C86.8105 119.441 87.2276 119.807 87.052 120.404C86.9203 120.371 86.7446 120.438 86.7556 120.26C86.8215 121.29 87.8862 122.009 87.48 123.127C86.5361 122.795 87.1727 123.515 86.3495 123.57L86.591 124.179L86.9861 123.935C86.9751 124.467 87.5679 124.931 87.3044 125.385L86.9642 124.987L87.1178 125.983L87.4252 125.418C87.8423 125.95 88.4569 125.363 88.2374 126.072C88.1496 125.928 88.2374 126.603 87.7435 126.88C88.0069 127.145 88.2813 127.411 88.0728 127.798C87.8093 127.898 87.1617 127.721 86.9971 127.787C87.6776 128.042 87.1837 129.027 87.9191 129.359C87.7435 129.248 87.3154 129.248 87.2276 129.281L87.7874 129.503C87.6118 129.746 87.524 129.78 87.1837 129.746C87.0849 130.488 88.2264 129.514 87.7764 130.388C87.7325 130.322 87.6447 130.355 87.5679 130.211C87.3374 131.086 87.9191 131.916 87.6447 132.724C86.8215 132.967 87.4471 132.015 86.7446 132.292C86.8983 133.454 87.7325 134.705 87.5349 135.834L87.6227 135.624C88.7862 135.779 87.052 136.465 87.6008 137.03C87.513 136.886 86.9532 136.841 87.0849 136.886C86.8983 137.66 87.3703 138.469 87.7325 139.631L87.4361 139.487C87.1727 139.941 87.2825 140.682 87.1508 141.18C87.4471 141.324 87.4032 141.612 87.8313 141.435C86.13 142.951 88.7423 144.324 87.3264 145.674C87.3264 145.508 87.063 145.287 87.063 145.42L87.3374 146.571C87.8423 146.482 87.6447 146.416 88.0398 146.183C88.3362 146.327 88.5777 146.648 88.5777 146.936C88.2374 146.416 87.7654 146.936 87.48 147.169C87.6337 147.135 87.8093 147.213 87.963 147.191C87.063 147.788 88.9838 147.29 88.3801 148.109L88.1167 148.065C88.2484 148.375 88.5996 148.652 88.5338 148.984C87.952 149.117 88.2594 148.663 87.7764 148.641C87.8093 149.106 88.885 149.559 88.3033 149.969C88.1386 149.77 88.1386 149.493 87.974 149.294C87.2825 149.748 87.4581 149.803 87.3483 150.146V150.113L87.052 150.899L87.2386 150.699C88.7643 151.275 87.513 151.884 88.5228 152.659C87.5788 151.895 87.974 152.537 87.3044 152.47C87.1178 152.67 86.9093 152.969 86.7227 152.891C87.2605 153.256 86.2946 153.511 87.0849 154.031C86.8654 154.053 87.063 154.43 86.5251 154.341C86.6898 154.817 86.8983 154.23 87.1617 154.264C87.8971 155.005 86.2727 156.001 87.2825 157.064C87.6996 157.983 88.413 158.149 88.7752 159.001C88.435 159.289 87.9959 158.769 87.9959 158.769C87.6776 159.233 87.7435 159.577 87.985 160.019C87.7984 159.931 87.6447 160.019 87.4032 160.152C87.4581 160.506 88.1825 160.385 87.8642 160.85C87.6227 160.772 87.2386 160.672 87.0081 160.495C87.2056 160.905 87.6008 161.314 87.7984 161.746C87.4252 161.857 87.2276 161.491 86.9861 161.337C87.1508 161.812 87.3264 162.587 87.9191 162.731L88.1276 162.421C88.1606 162.598 87.6227 162.51 87.513 162.377C87.052 161.967 87.7215 161.779 87.9301 161.757L88.0618 162.067C89.3131 161.757 87.8642 160.838 87.9301 160.23L88.8411 160.484L88.0837 159.853C88.3252 159.72 88.8301 159.632 88.9728 159.931C89.4228 159.488 88.6435 159.543 89.1484 159.167C89.2253 159.123 89.2692 159.145 89.3021 159.178L89.0277 158.746C89.2143 158.835 89.6753 158.68 89.5436 158.935C90.0704 158.16 88.863 157.695 89.5436 157.396L89.5984 157.462C89.2911 156.389 88.9289 157.363 88.1386 156.555L89.796 156.012L89.1265 155.902C89.1484 155.791 89.2033 155.57 89.4667 155.614C89.0057 155.204 89.1704 155.68 88.7423 155.448C89.357 154.917 88.4569 153.987 89.5216 153.865C89.0167 153.677 89.1265 154.374 88.7752 153.81C89.9277 153.644 88.5777 153.157 89.1045 152.67C89.6972 152.814 89.3789 153.278 89.9168 152.791C88.9179 152.504 90.1363 151.851 89.9497 151.441C89.1484 151.419 89.6204 150.556 89.346 149.869C89.6094 149.914 89.785 148.574 90.0704 147.943L90.2021 147.965C89.4009 147.844 89.5436 147.18 89.3789 146.704C89.8619 146.726 90.0485 146.814 90.268 147.069V146.615C90.0046 146.504 89.8729 146.372 89.7741 146.073L90.3778 146.183C90.3448 145.586 89.6643 144.977 90.0704 144.202C89.5106 144.158 88.5008 144.822 88.1276 144.003C88.435 143.97 88.9509 143.948 89.0716 144.158C89.0277 144.091 88.8191 143.903 88.9509 143.77L89.4667 144.091C89.6863 143.737 89.0387 143.903 89.0826 143.627C89.5216 143.627 89.3899 143.416 89.7411 143.461C89.785 143.527 89.5655 143.704 89.7411 143.815C89.818 143.494 90.0704 143.117 90.3997 142.985C90.1582 143.007 89.818 142.985 89.7631 142.752C89.7302 142.154 90.2899 142.542 90.5095 142.199C90.2131 142.055 90.5095 141.667 89.8728 141.656C89.8728 141.479 90.1802 141.446 90.3558 141.38C90.0704 141.07 90.279 139.93 89.5875 140.284L89.5436 140.361C89.5436 140.361 89.5326 140.328 89.5106 140.306C88.863 139.288 89.8728 138.192 89.5984 137.185H89.818C89.5655 136.587 89.6753 135.845 89.2033 135.414C89.2033 135.236 89.5985 134.993 89.8619 135.07C89.6972 134.606 89.4558 134.561 89.818 133.886C90.1912 134.351 90.1582 133.731 90.0924 134.362C90.279 133.764 90.6302 133.631 90.0375 132.978C90.5973 133.2 90.74 132.525 90.5753 132.248L90.1802 132.668C90.1034 132.347 90.1473 132.071 90.1912 131.783L90.9266 131.938C91.8156 130.709 89.4119 129.724 90.9046 128.794C90.3887 128.473 90.5424 129.459 89.9497 129.171C90.0485 128.606 91.0912 128.02 91.1022 127.843C91.5083 127.068 90.0375 127.123 90.3119 126.315C90.0485 126.415 89.357 126.514 89.1155 125.917C89.2143 125.352 90.2131 125.219 90.4217 125.584C90.4436 125.717 90.3558 125.784 90.268 125.784C90.3668 125.961 90.4765 126.204 90.7619 125.983L90.4985 125.905C90.7619 125.629 90.74 124.854 91.168 125.031C90.9156 124.599 90.74 124.854 90.6083 125.164C90.9814 124.444 90.6192 124.035 90.8717 123.293C90.729 123.415 90.4217 123.526 90.4217 123.404C90.74 122.308 89.9277 122.928 89.818 122.186C90.2131 121.766 90.7619 122.341 90.4326 121.589C90.707 121.135 91.1241 121.489 91.3327 121.677C90.8278 121.002 91.662 120.404 91.7498 120.017L91.9583 120.371C91.8376 120.161 91.8376 119.984 91.8376 119.807L91.3217 120.006C91.4095 119.796 91.4095 119.618 91.629 119.618C91.2888 119.397 90.7619 119.784 90.3009 119.353C90.5643 119.076 90.0155 118.5 90.707 118.401C90.4765 119.286 91.3985 118.301 91.5083 119.054C91.4205 118.91 91.4315 118.733 91.5193 118.523C91.5961 118.489 91.662 118.556 91.7059 118.611C92.3205 117.77 90.9266 118.224 90.9375 117.349C91.3217 117.46 91.6729 117.15 91.5961 117.006C91.5961 117.36 90.9485 117.172 90.6522 116.851C90.9595 116.287 90.4217 116.242 90.4656 115.955L90.3229 116.287C89.9387 116.176 89.9826 115.888 89.8619 115.501C90.1692 115.468 90.0704 115.855 90.2021 115.711C89.5216 115.279 90.9156 114.737 90.4546 114.128C90.718 113.852 91.19 114.106 91.3656 113.852C90.8607 113.176 91.9034 113.121 91.4863 112.402C90.9595 112.612 91.0912 112.645 90.5753 112.136L90.9485 113.309L90.1912 112.557C90.1912 112.911 90.5204 113.298 90.4326 113.508C90.0046 113.154 90.1363 113.187 89.6972 113.354C90.4875 112.866 89.2362 112.391 89.7741 111.837L91.0693 111.859C91.651 111.018 90.3997 110.365 90.729 109.28L90.4985 109.634C89.9826 109.491 90.4217 108.959 90.2131 108.605C90.6522 108.638 90.8058 108.417 91.0693 108.262C90.7509 108.284 91.1022 107.465 90.2351 107.365L90.8058 106.878C91.0363 105.993 89.5765 105.871 89.7192 105.03C90.1912 105.284 90.4985 104.897 90.8388 105.473C90.8388 105.185 90.9266 104.93 90.6192 104.93C90.8936 104.764 90.0375 104.144 90.4436 103.89C90.257 103.768 89.796 103.735 89.8399 103.414C89.9277 103.381 90.0485 103.414 90.0485 103.414C89.8399 103.414 89.7521 102.916 89.2801 103.192C90.6302 102.318 89.1814 100.757 90.3448 100.005C90.2021 99.3848 90.0594 98.6432 90.0265 98.0897C90.1582 98.1229 90.246 98.0897 90.2021 98.2004C90.6083 97.4256 88.9618 97.7244 89.4119 96.85C90.1143 96.3962 89.796 97.3149 90.0595 97.0382C91.4864 96.9164 89.8619 95.9756 90.6961 95.3889L90.7839 95.5328C91.2668 95.079 90.246 94.426 90.3448 93.6954C90.3448 93.6954 90.4656 93.7286 90.5644 93.6954C89.8399 93.1863 89.5985 92.2343 89.3899 91.5259C89.9497 91.7473 89.6863 91.8469 90.257 91.7141C90.1802 91.3931 89.346 91.8027 89.1923 91.1717C89.4997 90.9614 89.7631 90.5076 90.3668 90.4412L90.3997 91.0389C91.179 90.729 90.3778 90.2641 90.5095 89.9431L90.8497 89.9874C90.74 89.0687 89.8729 89.0576 89.9387 88.0725L89.6753 88.1721C88.8191 87.6297 90.1582 87.7183 89.5216 87.1759L90.3887 87.0099C90.1802 86.6557 89.5545 85.7591 89.3899 85.1282C90.0375 85.4935 90.3558 86.2351 90.74 86.7C90.74 86.3458 90.6741 85.5045 90.246 85.3164C90.3339 85.4603 90.5424 85.6374 90.4107 85.7813C89.7302 85.3496 89.3899 84.774 89.4119 84.0767C91.0912 84.1984 89.8399 82.2393 91.1351 81.7301C90.5095 80.4904 91.3985 79.2618 91.2998 77.8118C89.9936 78.3209 91.2668 77.3912 89.9168 77.4797C89.8289 77.1366 89.8509 77.0148 89.9387 76.9816L90.74 75.9633C91.1351 75.7198 91.0363 76.2843 91.3327 76.2511C91.4315 75.5095 91.9034 75.9411 92.2547 75.4541C91.7717 75.5537 91.5632 75.1995 91.7498 74.7789L91.1351 75.3766C90.4217 74.3472 92.2657 74.4801 91.5522 73.4396L91.9693 73.7717C91.7168 73.2404 91.9693 71.8014 90.9046 71.2701C91.0583 71.1705 91.4315 71.0488 91.5193 71.2812C91.6839 70.0083 90.3668 68.4365 91.0363 67.4403L91.3656 67.54C91.2668 67.2964 90.7509 67.1304 91.0802 66.8316C91.2119 66.8426 91.4095 66.9312 91.4315 66.8205C91.3217 66.6987 90.8607 66.1896 91.0473 65.8686L91.4205 66.1342C91.8486 64.8835 90.5204 64.2193 90.3009 63.1789C91.2668 63.1789 91.5851 62.2048 91.7388 61.7067L91.8705 61.7289C91.9912 60.2789 91.0693 59.2605 90.6851 57.9212C91.7388 57.0911 91.1241 55.0987 91.7168 53.7594C91.5412 53.9697 90.9595 53.7262 90.8717 53.4827C91.0693 53.1727 90.2021 52.6082 91.0912 52.6636L91.0693 52.7743C91.9364 52.5418 91.7059 51.8888 91.7278 51.3907L90.5644 51.3021C92.2547 49.9849 89.9497 47.8376 91.4534 47.1181C91.168 46.7971 91.168 46.4097 90.8827 46.0887L91.5083 46.1109C91.662 45.2254 91.7498 44.7826 91.5961 43.6979L92.0352 43.9193C92.0791 43.2994 90.246 43.1444 90.2021 42.5689L91.1351 42.4028C91.1241 41.3292 91.9364 40.2444 91.0912 39.1818C91.2229 39.204 91.4973 39.2261 91.5303 39.4032C91.5522 38.894 92.1559 37.444 90.8827 37.6322C91.7169 37.6211 90.9595 36.5253 90.5973 35.9387L91.2119 36.0272C90.4326 35.5402 90.2131 35.5181 90.0046 34.8429C90.0814 34.6768 90.4985 34.699 90.3339 34.9204C90.6522 34.378 89.7521 34.4997 90.0814 33.8467L90.4765 34.0902C90.5204 33.5368 90.3119 33.581 89.8619 33.2711C89.6204 32.9169 90.0155 32.2196 90.5644 32.131C90.2241 32.0535 89.7741 31.7547 89.9387 31.4226C90.1473 31.3784 90.279 31.5001 90.3448 31.5555C90.7619 30.6257 89.6314 30.1719 90.2351 29.5409C90.4326 29.5299 90.5424 29.4856 90.5973 29.4303C90.5863 30.1719 90.5534 30.7585 90.5095 30.7032C91.0693 30.7032 91.168 30.1054 91.9473 30.5814C91.5193 30.1054 90.5973 29.2864 90.8607 28.6997C90.9156 28.6665 90.9705 28.6444 91.0583 28.6222L91.1241 28.6776C91.179 28.5448 91.1241 28.423 91.0363 28.3123C91.1241 28.1241 91.201 28.0135 91.201 27.8364C91.662 27.7699 91.4534 27.1501 91.4754 26.8512C90.8607 26.8734 90.9595 26.486 90.4436 26.8512C90.4875 26.807 90.5204 26.9066 90.5424 27.1058C90.5643 27.1501 90.5644 27.2054 90.6083 27.2276C90.5863 27.2276 90.5753 27.2165 90.5534 27.2054C90.5753 27.4047 90.5863 27.6593 90.5973 27.947C90.279 27.7146 90.0155 27.4711 90.3668 27.139C89.9716 26.9841 89.5655 26.818 89.3679 26.7295C90.2241 26.3199 90.6961 25.5341 91.2229 25.4344C90.8717 24.5268 90.9924 23.2982 89.8399 22.7226C89.6863 22.468 90.1692 22.4237 90.3558 22.3241C90.4765 22.468 90.4546 22.6451 90.6192 22.7337C90.3229 22.2134 90.4985 21.2062 89.6972 21.0844C90.0594 20.4314 90.4436 21.4497 90.3119 20.5531L90.5644 20.6749C91.8595 18.9149 88.5008 17.8191 90.1582 15.871C90.0594 16.0039 90.0046 16.0703 89.8728 16.1035C90.6083 13.8787 89.1814 11.521 90.3448 9.32941C90.5753 8.70956 90.0594 8.64314 89.6643 8.25574L90.3229 8.12291L89.5545 7.46986C88.9948 6.55115 91.179 5.87596 90.1253 4.70267L89.6753 4.85763C89.7631 4.43702 89.4119 3.52938 89.9277 3.59579C89.8509 3.55152 89.4667 3.46297 89.6972 3.29694H90.0485L89.4558 2.25648C89.7082 1.45953 90.8278 2.37823 90.9046 1.21601C90.7729 0.784332 89.8948 -0.0126176 89.6643 0.142345C89.6424 0.319445 89.4448 0.585095 89.1045 0.607232L88.9289 0.208757C87.9081 0.142345 86.8654 -0.16758 86.141 0.80647L86.7666 1.48166L86.2727 1.70304L86.2397 1.12746C85.7787 1.44846 86.1849 1.65876 86.4702 1.88014C86.2068 1.93548 86.0202 2.0351 85.9214 2.16793L86.8983 2.83205C86.5032 2.90953 86.108 2.53319 85.8885 2.97594C86.3385 3.28587 86.7885 2.67709 87.0849 3.19732C86.6239 3.51831 86.2397 3.42976 86.6349 3.8061C86.3715 3.86144 86.2068 3.78396 86.0861 3.629C86.4044 3.97213 86.2178 4.52557 86.7666 4.70267C86.1958 5.0458 86.9203 5.84275 85.9434 5.80954C86.1739 5.92023 86.7007 6.40726 86.7446 6.71718C85.5812 6.15268 86.6788 7.8794 85.4385 7.73551C86.4812 8.15612 85.8995 9.25193 86.4812 10.0046C86.3934 9.96033 86.2288 9.88284 86.2836 9.81643C86.1958 10.237 85.8885 10.3588 85.6909 10.6245C86.5471 10.6798 86.7446 11.3329 87.2825 11.6871C86.4483 12.1962 86.2727 11.3771 85.4714 11.5321C86.1739 11.5099 86.1629 12.4287 86.7446 12.2516C86.2288 12.65 86.4922 12.5947 85.7787 12.7939C86.8544 12.8603 85.9653 13.1592 86.6239 13.4913C86.097 14.0558 85.6141 13.6351 85.9434 14.2661C85.6141 14.5649 85.2299 14.0115 85.2299 14.0115L85.0433 13.8897ZM86.8983 28.744H86.8873C86.8764 28.6112 86.8654 28.5115 86.8544 28.4341C86.8544 28.5005 86.8764 28.589 86.8983 28.744ZM86.9093 29.9948C86.9312 29.8398 86.9422 29.6516 86.9312 29.4524C87.1398 29.4081 87.3593 29.4524 87.3483 29.5852C87.2056 29.5188 87.0849 29.8066 86.8983 29.9948H86.9093ZM91.19 27.3493C91.2778 27.5486 91.1571 27.615 91.0254 27.6371C91.0254 27.5486 90.9924 27.4379 90.9485 27.294C90.9266 27.294 90.9046 27.2718 90.8717 27.2718C90.9924 27.294 91.1022 27.3161 91.179 27.3493H91.19Z" fill="white"/>
<path d="M90.3778 26.9954C90.3778 26.9954 90.3339 26.9512 90.3339 26.918C90.279 26.9622 90.2351 26.9955 90.1912 27.0397C90.257 27.0619 90.3229 27.084 90.3887 27.1061C90.3887 27.0729 90.3887 27.0287 90.3887 26.9954H90.3778Z" fill="white"/>
<path d="M89.4557 140.208V140.186C89.4557 140.186 89.4228 140.23 89.3789 140.241C89.4118 140.219 89.4228 140.219 89.4557 140.208Z" fill="white"/>
<path d="M85.7239 47.2415H85.8885L85.7458 47.1309L85.7239 47.2415Z" fill="white"/>
<path d="M87.3484 147.08C87.3484 147.08 87.2386 147.124 87.1947 147.169C87.2386 147.169 87.2935 147.124 87.3484 147.08Z" fill="white"/>
<path d="M87.2057 150.047L86.9861 150.467C87.1069 150.29 87.1727 150.158 87.2057 150.047Z" fill="white"/>
<path d="M86.8983 152.338C87.0081 152.371 87.0849 152.371 87.1617 152.382L86.8983 152.338Z" fill="white"/>
<path d="M86.1739 116.01C86.1739 116.01 86.1629 115.944 86.141 115.922C86.0202 115.712 86.0642 115.855 86.1739 116.01Z" fill="white"/>
<path d="M87.6118 126.826C87.502 126.715 87.3923 126.593 87.3154 126.482C87.2715 126.671 87.2605 126.826 87.6118 126.826Z" fill="white"/>
<path d="M87.3373 125.973C87.2166 126.161 87.2386 126.327 87.3373 126.471C87.3813 126.316 87.4471 126.128 87.3373 125.973Z" fill="white"/>
<path d="M86.613 162.234L86.591 162.345C86.591 162.345 86.6678 162.345 86.6898 162.356L86.613 162.234Z" fill="white"/>
<path d="M86.6898 162.355L86.7666 162.477C86.7666 162.422 86.7666 162.378 86.6898 162.355Z" fill="white"/>
<path d="M86.9203 162.743L86.7666 162.488C86.7666 162.577 86.7447 162.688 86.9203 162.743Z" fill="white"/>
<path d="M86.9093 159.213L86.6898 159.18C86.6898 159.18 86.8105 159.213 86.9093 159.213Z" fill="white"/>
<path d="M86.8434 158.293C86.7885 158.514 86.3605 158.846 86.5031 159.145L86.6788 159.178C86.3495 159.035 87.2166 158.503 86.8434 158.293Z" fill="white"/>
<path d="M89.6095 154.463L89.4338 155.238C89.6753 155.105 89.9936 154.928 90.0485 155.271C90.762 154.297 89.5107 155.47 89.6095 154.463Z" fill="white"/>
<path d="M89.9497 152.073C90.0595 152.482 90.3009 152.073 90.4327 152.095C90.2131 151.829 90.1583 151.774 89.9497 152.073Z" fill="white"/>
<path d="M89.9497 134.817L90.5095 134.861C90.4327 134.54 90.29 134.861 89.9497 134.817Z" fill="white"/>
<path d="M87.052 131.518L86.7007 131.828L87.2166 131.971L87.052 131.518Z" fill="white"/>
<path d="M91.0473 129.57L91.1351 129.703L90.9266 129.172L91.0473 129.57Z" fill="white"/>
<path d="M90.8498 100.592L90.1583 100.691C90.279 100.902 91.0583 100.957 90.8498 100.592Z" fill="white"/>
<path d="M90.1473 88.0736C90.4875 87.9408 90.718 87.5866 90.3778 87.3652C90.3339 87.642 90.0595 87.9297 90.1473 88.0736Z" fill="white"/>
<path d="M91.2778 50.5612L91.5083 50.8047L91.3108 50.3398L91.2778 50.5612Z" fill="white"/>
</g>
<defs>
<clipPath id="clip0_2090_15234">
<rect width="169" height="180" fill="white"/>
</clipPath>
</defs>
</svg>
