<svg width="1440" height="427" viewBox="0 0 1440 427" fill="none" xmlns="http://www.w3.org/2000/svg">
<path d="M1440 1C1350 1 1350 32.3412 1260 32.3412C1170 32.3412 1169.99 1 1080 1C989.999 1 989.992 32.3412 899.994 32.3412C809.997 32.3412 809.99 1 719.992 1C629.995 1 629.995 32.3412 539.998 32.3412C450.001 32.3412 450.001 1 359.996 1C269.992 1 269.999 32.3412 179.994 32.3412C89.9897 32.3412 89.9972 1 0 1V426.183H1440V1Z" fill="black"/>
<path d="M0 1C89.9972 1 89.9972 32.3412 180.002 32.3412C270.007 32.3412 269.999 1 359.996 1C449.993 1 449.993 32.3412 539.998 32.3412C630.003 32.3412 629.995 1 719.992 1C809.99 1 809.99 32.3412 899.994 32.3412C989.999 32.3412 989.992 1 1080 1C1170 1 1170 32.3412 1260 32.3412C1350 32.3412 1350 1 1440 1" stroke="#F9F8F8" stroke-width="2" stroke-miterlimit="10"/>
<path d="M0 161.602C89.9972 161.602 89.9972 192.943 180.002 192.943C270.007 192.943 269.999 161.602 359.996 161.602C449.993 161.602 449.993 192.943 539.998 192.943C630.003 192.943 629.995 161.602 719.992 161.602C809.99 161.602 809.99 192.943 899.994 192.943C989.999 192.943 989.992 161.602 1080 161.602C1170 161.602 1170 192.943 1260 192.943C1350 192.943 1350 161.602 1440 161.602" stroke="#F9F8F8" stroke-width="2" stroke-miterlimit="10"/>
</svg>
