<svg width="1440" height="427" viewBox="0 0 1440 427" fill="none" xmlns="http://www.w3.org/2000/svg">
<path d="M1440 1C1350 1 1350 32.3412 1260 32.3412C1170 32.3412 1169.99 1 1080 1C989.999 1 989.992 32.3412 899.994 32.3412C809.997 32.3412 809.99 1 719.992 1C629.995 1 629.995 32.3412 539.998 32.3412C450.001 32.3412 450.001 1 359.996 1C269.992 1 269.999 32.3412 179.994 32.3412C89.9897 32.3412 89.9972 1 0 1V426.183H1440V1Z" fill="black"/>
<path d="M0 1C89.9972 1 89.9972 32.3412 180.002 32.3412C270.007 32.3412 269.999 1 359.996 1C449.993 1 449.993 32.3412 539.998 32.3412C630.003 32.3412 629.995 1 719.992 1C809.99 1 809.99 32.3412 899.994 32.3412C989.999 32.3412 989.992 1 1080 1C1170 1 1170 32.3412 1260 32.3412C1350 32.3412 1350 1 1440 1" stroke="#F9F8F8" stroke-width="2" stroke-miterlimit="10"/>
<path d="M0 161.6C89.9972 161.6 89.9972 192.941 180.002 192.941C270.007 192.941 269.999 161.6 359.996 161.6C449.993 161.6 449.993 192.941 539.998 192.941C630.003 192.941 629.995 161.6 719.992 161.6C809.99 161.6 809.99 192.941 899.994 192.941C989.999 192.941 989.992 161.6 1080 161.6C1170 161.6 1170 192.941 1260 192.941C1350 192.941 1350 161.6 1440 161.6" stroke="#F9F8F8" stroke-width="2" stroke-miterlimit="10"/>
</svg>
