<svg width="1440" height="787" viewBox="0 0 1440 787" fill="none" xmlns="http://www.w3.org/2000/svg">
<path d="M1440 1C1350 1 1350 32.3412 1260 32.3412C1170 32.3412 1169.99 1 1080 1C989.999 1 989.992 32.3412 899.994 32.3412C809.997 32.3412 809.99 1 719.992 1C629.995 1 629.995 32.3412 539.998 32.3412C450.001 32.3412 450.001 1 359.996 1C269.992 1 269.999 32.3412 179.994 32.3412C89.9897 32.3412 89.9972 1 0 1V426.183H1440V1Z" fill="black"/>
<path d="M0 1C89.9972 1 89.9972 32.3412 180.002 32.3412C270.007 32.3412 269.999 1 359.996 1C449.993 1 449.993 32.3412 539.998 32.3412C630.003 32.3412 629.995 1 719.992 1C809.99 1 809.99 32.3412 899.994 32.3412C989.999 32.3412 989.992 1 1080 1C1170 1 1170 32.3412 1260 32.3412C1350 32.3412 1350 1 1440 1" stroke="#F9F8F8" stroke-width="2" stroke-miterlimit="10"/>
<path d="M0 182.461C89.9972 182.461 89.9972 213.802 180.002 213.802C270.007 213.802 269.999 182.461 359.996 182.461C449.993 182.461 449.993 213.802 539.998 213.802C630.003 213.802 629.995 182.461 719.992 182.461C809.99 182.461 809.99 213.802 899.994 213.802C989.999 213.802 989.992 182.461 1080 182.461C1170 182.461 1170 213.802 1260 213.802C1350 213.802 1350 182.461 1440 182.461" stroke="#F9F8F8" stroke-width="2" stroke-miterlimit="10"/>
<path d="M1440 361C1350 361 1350 392.341 1260 392.341C1170 392.341 1169.99 361 1080 361C989.999 361 989.992 392.341 899.994 392.341C809.997 392.341 809.99 361 719.992 361C629.995 361 629.995 392.341 539.998 392.341C450.001 392.341 450.001 361 359.996 361C269.992 361 269.999 392.341 179.994 392.341C89.9897 392.341 89.9972 361 0 361V786.183H1440V361Z" fill="black"/>
<path d="M0 361C89.9972 361 89.9972 392.341 180.002 392.341C270.007 392.341 269.999 361 359.996 361C449.993 361 449.993 392.341 539.998 392.341C630.003 392.341 629.995 361 719.992 361C809.99 361 809.99 392.341 899.994 392.341C989.999 392.341 989.992 361 1080 361C1170 361 1170 392.341 1260 392.341C1350 392.341 1350 361 1440 361" stroke="#F9F8F8" stroke-width="2" stroke-miterlimit="10"/>
<path d="M0 542.461C89.9972 542.461 89.9972 573.802 180.002 573.802C270.007 573.802 269.999 542.461 359.996 542.461C449.993 542.461 449.993 573.802 539.998 573.802C630.003 573.802 629.995 542.461 719.992 542.461C809.99 542.461 809.99 573.802 899.994 573.802C989.999 573.802 989.992 542.461 1080 542.461C1170 542.461 1170 573.802 1260 573.802C1350 573.802 1350 542.461 1440 542.461" stroke="#F9F8F8" stroke-width="2" stroke-miterlimit="10"/>
</svg>
