<svg width="1440" height="986" viewBox="0 0 1440 986" fill="none" xmlns="http://www.w3.org/2000/svg">
<mask id="mask0_2090_8227" style="mask-type:luminance" maskUnits="userSpaceOnUse" x="0" y="0" width="1440" height="986">
<path d="M1440 0H0V986H1440V0Z" fill="white"/>
</mask>
<g mask="url(#mask0_2090_8227)">
<path d="M1782.03 333.95C1748.06 292.925 1701.07 254.72 1642.37 220.408C1560.17 172.363 1456.28 132.628 1333.59 102.298C1242.04 79.6627 1140.6 62.4427 1032.1 51.0877C931.725 40.6102 826.71 35.2852 719.962 35.2852C613.215 35.2852 508.2 40.6102 407.82 51.0952C299.325 62.4502 197.88 79.6702 106.335 102.305C-16.35 132.628 -120.233 172.37 -202.433 220.415C-261.143 254.728 -308.138 292.925 -342.105 333.965C-383.858 384.418 -405.03 437.615 -405.03 492.103C-405.03 546.59 -383.858 599.795 -342.098 650.248C-308.13 691.28 -261.143 729.478 -202.425 763.79C-120.225 811.835 -16.3425 851.57 106.342 881.9C197.887 904.535 299.333 921.755 407.828 933.11C508.208 943.61 613.222 948.92 719.97 948.92C826.718 948.92 931.732 943.61 1032.11 933.11C1140.61 921.755 1242.05 904.535 1333.6 881.9C1456.28 851.578 1560.17 811.835 1642.37 763.79C1701.07 729.478 1748.06 691.28 1782.03 650.24C1823.79 599.795 1844.97 546.59 1844.97 492.103C1844.97 437.615 1823.79 384.41 1782.03 333.958V333.95ZM1629.83 565.28C1626.23 571.063 1622.5 576.208 1619.02 580.655C1618.53 585.71 1617.78 591.283 1616.64 597.178C1611.89 621.733 1601.81 643.43 1586.69 661.7C1565.94 686.78 1541.02 698.863 1522.21 705.703C1511.92 722.03 1495.85 742.483 1469.62 757.82C1436.34 777.268 1402.39 783.605 1375.11 788.705C1362.4 791.075 1350.38 793.325 1342.52 796.198C1338.58 797.66 1328.14 803.938 1320.52 808.528C1298.4 821.84 1268.08 840.08 1229.56 849.598C1204 855.913 1180.32 856.64 1164.73 856.64C1155.41 856.64 1146.73 856.355 1138.34 856.07C1131.28 855.83 1124.61 855.605 1118.63 855.605C1112.01 855.605 1106.9 855.905 1103.41 856.468C1097.92 857.383 1085.18 862.31 1074.95 866.27C1050.7 875.653 1020.52 887.323 984.045 891.133C975.367 892.04 966.292 892.505 957.075 892.505C932.482 892.505 910.17 889.333 890.497 886.535C876.54 884.555 863.362 882.688 853.807 882.688C852.795 882.688 851.835 882.71 850.965 882.748C842.415 883.175 827.955 886.745 813.96 890.203C788.22 896.563 756.203 904.468 719.97 904.468C683.737 904.468 651.72 896.555 625.98 890.203C611.992 886.753 597.525 883.175 588.99 882.748C588.112 882.71 587.138 882.688 586.125 882.688C576.57 882.688 563.393 884.555 549.443 886.535C529.763 889.333 507.457 892.505 482.872 892.505C473.647 892.505 464.572 892.04 455.887 891.133C419.415 887.323 389.235 875.653 364.987 866.27C354.75 862.31 342.015 857.383 336.51 856.468C333.045 855.898 327.922 855.605 321.3 855.605C315.323 855.605 308.648 855.838 301.583 856.07C293.198 856.348 284.52 856.64 275.205 856.64C259.612 856.64 235.935 855.913 210.382 849.598C171.847 840.073 141.54 821.84 119.407 808.528C111.787 803.938 101.348 797.675 97.4325 796.198C89.565 793.325 77.5424 791.083 64.83 788.705C37.5525 783.613 3.59998 777.275 -29.6775 757.82C-55.9125 742.49 -71.985 722.03 -82.2675 705.703C-101.07 698.855 -125.993 686.78 -146.753 661.7C-161.873 643.43 -171.945 621.733 -176.7 597.178C-177.848 591.275 -178.583 585.703 -179.078 580.655C-182.558 576.208 -186.293 571.07 -189.893 565.28C-204.188 542.345 -211.44 517.723 -211.44 492.103C-211.44 466.483 -204.188 441.868 -189.893 418.925C-186.293 413.143 -182.558 407.998 -179.078 403.55C-178.583 398.495 -177.848 392.938 -176.7 387.035C-171.945 362.48 -161.873 340.768 -146.753 322.505C-126 297.433 -101.078 285.343 -82.2675 278.51C-71.9775 262.175 -55.9125 241.715 -29.6775 226.385C3.59998 206.938 37.5525 200.6 64.83 195.5C77.5424 193.13 89.5575 190.88 97.425 188.008C101.355 186.545 111.795 180.268 119.415 175.678C141.555 162.365 171.87 144.125 210.382 134.608C235.942 128.293 259.62 127.565 275.212 127.565C284.527 127.565 293.197 127.85 301.597 128.135C308.662 128.375 315.33 128.6 321.307 128.6C327.938 128.6 333.045 128.315 336.532 127.738C342.022 126.823 354.757 121.895 364.995 117.935C389.242 108.553 419.415 96.8827 455.895 93.0727C464.573 92.1652 473.647 91.7002 482.865 91.7002C507.458 91.7002 529.77 94.8727 549.443 97.6702C563.4 99.6502 576.578 101.518 586.133 101.518C587.145 101.518 588.105 101.495 588.975 101.458C597.525 101.03 611.985 97.4602 625.98 94.0027C651.72 87.6427 683.737 79.7377 719.97 79.7377C756.203 79.7377 788.22 87.6502 813.96 94.0027C827.948 97.4527 842.415 101.03 850.95 101.458C851.835 101.495 852.787 101.518 853.807 101.518C863.37 101.518 876.54 99.6502 890.497 97.6702C910.177 94.8727 932.482 91.7002 957.075 91.7002C966.285 91.7002 975.36 92.1652 984.045 93.0727C1020.52 96.8827 1050.7 108.553 1074.95 117.935C1085.18 121.895 1097.92 126.823 1103.42 127.738C1106.9 128.315 1112.01 128.6 1118.63 128.6C1124.61 128.6 1131.28 128.368 1138.35 128.135C1146.74 127.858 1155.41 127.565 1164.73 127.565C1180.32 127.565 1204 128.293 1229.56 134.608C1268.08 144.133 1298.38 162.365 1320.52 175.678C1328.14 180.268 1338.58 186.545 1342.5 188.008C1350.38 190.88 1362.39 193.13 1375.1 195.5C1402.38 200.593 1436.33 206.93 1469.61 226.385C1495.84 241.715 1511.92 262.175 1522.2 278.51C1541 285.343 1565.93 297.433 1586.69 322.505C1601.8 340.775 1611.88 362.473 1616.63 387.028C1617.78 392.93 1618.52 398.503 1619.01 403.55C1622.49 407.998 1626.22 413.128 1629.82 418.925C1644.12 441.868 1651.37 466.483 1651.37 492.103C1651.37 517.723 1644.12 542.345 1629.82 565.28H1629.83Z" fill="#E0C096"/>
<path d="M1511.22 446.42C1505.09 431.833 1511.88 408.013 1500.29 394.025C1489.42 380.9 1463.37 381.358 1447.99 369.185C1434.52 358.528 1429.78 333.013 1413.02 323.218C1383.93 306.215 1342.24 307.34 1303.98 293.338C1271.53 281.465 1241.28 253.04 1202.63 243.493C1190.59 240.515 1177.86 239.72 1164.73 239.72C1149.73 239.72 1134.21 240.755 1118.63 240.755C1107.43 240.755 1096.18 240.215 1085.07 238.378C1048.32 232.288 1012.33 208.798 972.382 204.62C967.305 204.095 962.205 203.863 957.067 203.863C923.467 203.863 888.487 213.68 853.792 213.68C850.995 213.68 848.19 213.613 845.392 213.47C804.052 211.43 762.457 191.9 719.947 191.9C677.437 191.9 635.842 211.43 594.502 213.47C591.705 213.613 588.907 213.68 586.102 213.68C551.407 213.68 516.427 203.863 482.828 203.863C477.69 203.863 472.59 204.095 467.512 204.62C427.567 208.798 391.582 232.288 354.825 238.378C343.71 240.215 332.482 240.755 321.262 240.755C305.685 240.755 290.167 239.72 275.167 239.72C262.042 239.72 249.3 240.515 237.262 243.493C198.622 253.048 168.375 281.473 135.915 293.338C97.6499 307.34 55.9649 306.215 26.8724 323.218C10.1174 333.02 5.36991 358.528 -8.10009 369.185C-23.4751 381.365 -49.5301 380.908 -60.3976 394.025C-71.9776 408.013 -65.1901 431.833 -71.3251 446.42C-78.1201 462.575 -99.3301 475.453 -99.3301 492.095C-99.3301 508.738 -78.1201 521.615 -71.3251 537.77C-65.1976 552.358 -71.9851 576.178 -60.3976 590.165C-49.5301 603.29 -23.4751 602.833 -8.10009 615.005C5.36991 625.67 10.1174 651.178 26.8724 660.973C55.9649 677.975 97.6499 676.85 135.915 690.853C168.367 702.725 198.615 731.15 237.262 740.698C249.307 743.675 262.035 744.47 275.167 744.47C290.167 744.47 305.685 743.435 321.27 743.435C332.475 743.435 343.717 743.975 354.817 745.813C391.567 751.903 427.56 775.393 467.505 779.57C472.582 780.095 477.682 780.328 482.828 780.328C516.42 780.328 551.4 770.51 586.095 770.51C588.892 770.51 591.697 770.578 594.495 770.72C635.835 772.76 677.43 792.298 719.94 792.298C762.45 792.298 804.045 772.76 845.385 770.72C848.182 770.578 850.987 770.51 853.785 770.51C888.48 770.51 923.46 780.328 957.06 780.328C962.197 780.328 967.297 780.095 972.375 779.57C1012.32 775.393 1048.3 751.903 1085.06 745.813C1096.18 743.975 1107.42 743.435 1118.62 743.435C1134.2 743.435 1149.72 744.47 1164.72 744.47C1177.85 744.47 1190.59 743.675 1202.62 740.698C1241.27 731.15 1271.51 702.718 1303.97 690.853C1342.24 676.85 1383.92 677.975 1413.02 660.973C1429.77 651.185 1434.52 625.663 1447.99 615.005C1463.36 602.825 1489.42 603.283 1500.28 590.165C1511.86 576.178 1505.08 552.358 1511.21 537.77C1518.01 521.615 1539.22 508.738 1539.22 492.095C1539.22 475.453 1518.01 462.575 1511.21 446.42H1511.22ZM1367.45 566.473C1357.62 580.693 1345.08 592.94 1330.17 602.878C1316.07 612.283 1300.38 619.415 1280.81 625.31C1260.04 631.58 1236.52 635.938 1209.28 640.993C1201.03 642.523 1192.52 644.098 1183.81 645.785C1180.26 646.798 1171.45 650.375 1164.97 652.985C1140.58 662.863 1107.18 676.378 1065.69 680.803C1057.84 681.635 1049.65 682.063 1041.37 682.063C1018.21 682.063 997.747 678.89 979.703 676.085C968.04 674.278 957.03 672.575 949.98 672.56C949.463 672.56 948.997 672.583 948.578 672.598C944.302 673.093 932.835 676.415 924.442 678.845C900.382 685.798 870.45 694.468 834.472 695.488C832.305 695.548 830.092 695.578 827.902 695.578C797.07 695.578 770.107 689.488 748.455 684.59C738.547 682.34 724.987 679.28 719.962 679.28C714.937 679.28 701.377 682.348 691.477 684.59C669.817 689.488 642.862 695.578 612.022 695.578C609.84 695.578 607.635 695.548 605.467 695.488C569.482 694.46 539.542 685.798 515.497 678.845C507.097 676.415 495.637 673.093 491.362 672.598C491.032 672.575 490.567 672.56 489.96 672.56C482.917 672.56 471.9 674.27 460.23 676.085C442.185 678.89 421.717 682.063 398.572 682.063C390.285 682.063 382.095 681.635 374.235 680.803C332.745 676.385 299.347 662.863 274.957 652.993C268.477 650.368 259.672 646.805 256.125 645.778C247.417 644.083 238.905 642.515 230.655 640.985C203.422 635.93 179.902 631.573 159.127 625.303C139.545 619.4 123.855 612.283 109.755 602.87C94.8524 592.933 82.3124 580.685 72.4874 566.465C57.2549 544.438 49.2074 518.72 49.2074 492.095C49.2074 465.47 57.2549 439.76 72.4799 417.725C82.3124 403.505 94.8524 391.258 109.762 381.32C123.862 371.915 139.552 364.783 159.12 358.888C179.895 352.633 203.415 348.26 230.655 343.205C238.89 341.683 247.41 340.1 256.117 338.42C259.68 337.393 268.477 333.83 274.965 331.205C299.347 321.335 332.752 307.813 374.242 303.388C382.095 302.555 390.277 302.128 398.58 302.128C421.725 302.128 442.185 305.308 460.237 308.105C471.9 309.913 482.91 311.63 489.96 311.63C490.477 311.63 490.942 311.623 491.362 311.6C495.637 311.09 507.105 307.768 515.497 305.345C539.557 298.393 569.49 289.723 605.467 288.703C607.635 288.643 609.847 288.613 612.037 288.613C642.877 288.613 669.832 294.703 691.485 299.608C701.392 301.843 714.952 304.91 719.977 304.91C725.002 304.91 738.562 301.843 748.47 299.608C770.122 294.703 797.07 288.613 827.917 288.613C830.1 288.613 832.305 288.643 834.472 288.703C870.457 289.73 900.397 298.393 924.442 305.345C932.842 307.775 944.302 311.098 948.578 311.6C948.907 311.608 949.372 311.63 949.98 311.63C957.022 311.63 968.04 309.92 979.71 308.105C997.755 305.3 1018.22 302.128 1041.37 302.128C1049.65 302.128 1057.84 302.555 1065.7 303.388C1107.19 307.813 1140.59 321.328 1164.98 331.205C1171.46 333.823 1180.27 337.385 1183.81 338.405C1192.52 340.1 1201.03 341.668 1209.28 343.198C1236.52 348.253 1260.04 352.61 1280.81 358.88C1300.4 364.783 1316.09 371.915 1330.19 381.313C1345.09 391.25 1357.64 403.498 1367.47 417.718C1382.69 439.745 1390.74 465.463 1390.74 492.088C1390.74 518.713 1382.69 544.43 1367.47 566.458L1367.45 566.473Z" fill="#E0C096"/>
<path d="M1159.69 458.593C1129 452.645 1094.67 429.74 1052.72 425.27C1048.99 424.873 1045.2 424.693 1041.36 424.693C1013.09 424.693 981.975 434.188 949.973 434.188C946.935 434.188 943.882 434.105 940.83 433.918C905.775 431.758 869.535 412.31 830.977 411.215C829.95 411.185 828.93 411.178 827.902 411.178C793.088 411.178 756.832 427.475 719.962 427.475C683.092 427.475 646.837 411.178 612.022 411.178C610.995 411.178 609.975 411.185 608.947 411.215C570.39 412.31 534.15 431.758 499.087 433.918C496.035 434.105 492.99 434.188 489.945 434.188C457.95 434.188 426.832 424.693 398.557 424.693C394.725 424.693 390.937 424.873 387.217 425.27C345.262 429.74 310.913 452.638 280.245 458.593C218.58 470.54 171.78 476.375 171.78 492.103C171.78 507.83 218.58 513.665 280.245 525.613C310.928 531.56 345.262 554.465 387.217 558.935C390.945 559.333 394.732 559.513 398.572 559.513C426.84 559.513 457.957 550.018 489.96 550.018C492.997 550.018 496.05 550.1 499.103 550.288C534.158 552.448 570.397 571.895 608.955 572.99C609.982 573.02 611.002 573.043 612.03 573.043C646.845 573.043 683.1 556.738 719.97 556.738C756.84 556.738 793.095 573.043 827.91 573.043C828.938 573.043 829.957 573.02 830.985 572.99C869.542 571.895 905.782 552.448 940.845 550.288C943.897 550.1 946.942 550.018 949.987 550.018C981.982 550.018 1013.1 559.513 1041.37 559.513C1045.21 559.513 1048.99 559.333 1052.72 558.935C1094.67 554.465 1129.02 531.568 1159.69 525.613C1221.35 513.665 1268.15 507.83 1268.15 492.103C1268.15 476.375 1221.35 470.54 1159.69 458.593ZM719.962 512C582.592 512 471.225 503.098 471.225 492.103C471.225 481.108 582.585 472.205 719.962 472.205C857.34 472.205 968.7 481.108 968.7 492.103C968.7 503.098 857.34 512 719.962 512Z" fill="#E0C096"/>
</g>
</svg>
