<svg width="355" height="1416" viewBox="0 0 355 1416" fill="none" xmlns="http://www.w3.org/2000/svg">
<g clip-path="url(#clip0_2204_1331)">
<path d="M237.432 1311.59C237.397 1311.5 237.37 1311.61 237.343 1311.59C237.379 1312.14 237.406 1312.3 237.432 1311.59Z" fill="white"/>
<path d="M264.776 1414.68L263.825 1413.5C263.655 1413.43 263.475 1413.35 263.403 1413.42L264.776 1414.69V1414.68Z" fill="white"/>
<path d="M205.245 1081.92C206.474 1083.24 207.183 1084.1 207.712 1084.81C207.021 1083.69 215.947 1091.7 205.245 1081.92Z" fill="white"/>
<path d="M207.738 1084.82L207.721 1084.8C207.721 1084.8 207.721 1084.8 207.738 1084.82Z" fill="white"/>
<path d="M255.966 1154.82C254.244 1148.73 253.661 1147.35 253.347 1147.21C253.069 1147.06 253.167 1148.08 252.521 1146.9C249.92 1139.89 249.095 1138.38 249.112 1137.83C249.077 1137.3 249.615 1137.87 248.718 1135.47C246.574 1131.31 244.448 1127.75 242.277 1124.62C241.747 1123.82 241.236 1123.04 240.725 1122.27C240.186 1121.53 239.657 1120.8 239.128 1120.07C238.078 1118.63 237.091 1117.2 236.096 1115.78C235.871 1115.31 235.1 1114.21 236.159 1115.39C233.028 1111.61 228.641 1105.82 223.563 1100.38C222.935 1099.7 222.325 1098.98 221.688 1098.31C221.043 1097.64 220.397 1096.97 219.751 1096.31C218.45 1094.99 217.203 1093.65 215.92 1092.43C213.337 1090.01 210.932 1087.71 208.708 1085.95C208.124 1085.34 207.855 1085.01 207.73 1084.83C208.86 1086.32 208.833 1086.75 208.394 1086.68C204.366 1082.91 200.499 1080.19 199.234 1078.5C201.773 1080.71 202.096 1080.77 203.379 1081.71L198.902 1078.06C195.404 1074.18 204.985 1083.06 205.281 1082.73C200.975 1079.13 196.301 1075.22 191.887 1071.52C187.447 1067.85 183.239 1064.43 180.01 1061.59C179.516 1060.78 183.392 1063.98 186.343 1066.42C189.286 1068.86 191.295 1070.54 187.097 1066.6C190.434 1069.54 193.762 1072.51 197.019 1075.52C193.529 1071.78 195.027 1073.13 196.624 1074.55C198.194 1075.97 199.853 1077.45 196.722 1073.95C183.607 1062.22 181.481 1061.51 168.491 1049.93C165.342 1047.58 169.128 1051.16 165.97 1048.82C161.279 1044.8 158.184 1041.8 155.977 1039.4C153.761 1037.01 152.388 1035.26 151.177 1033.65C149.984 1032.03 148.908 1030.59 147.463 1028.65C147.096 1028.17 146.701 1027.66 146.279 1027.11C145.867 1026.56 145.418 1025.97 144.925 1025.33C144.422 1024.7 143.893 1024 143.337 1023.24C142.781 1022.47 142.135 1021.67 141.507 1020.75C140.08 1018.93 139.013 1017.7 137.586 1015.5C136.896 1014.38 136.097 1013.03 135.263 1011.17C134.402 1009.33 133.523 1006.97 132.652 1003.91L133.657 1005.86L134.16 1006.82L134.716 1007.76C133.289 1003.91 132.599 1001.37 132.105 999.524C131.872 998.595 131.666 997.838 131.477 997.171C131.325 996.495 131.181 995.901 131.047 995.306C130.921 994.702 130.76 994.098 130.652 993.386C130.553 992.674 130.455 991.854 130.356 990.844C130.203 988.816 130.096 985.977 130.562 981.678C130.562 982.065 130.517 982.552 130.517 983.111C130.517 983.67 130.517 984.301 130.517 984.959C130.473 986.275 130.544 987.726 130.589 988.996C130.598 990.276 130.76 991.358 130.804 991.98C130.867 992.602 130.894 992.746 130.858 992.124C130.697 986.536 130.894 984.58 130.742 982.922C130.769 981.272 130.526 979.902 131.298 975.63C131.576 975.071 131.944 974.539 132.258 973.999C133.119 969.69 134.438 965.337 136.025 960.974C136.779 958.784 137.721 956.63 138.609 954.431C139.596 952.277 140.529 950.078 141.632 947.932C145.858 939.28 151.097 930.817 156.82 922.687C156.336 923.696 154.532 926.589 157.358 922.894C160.965 917.774 164.912 912.628 169.092 907.563C173.282 902.497 177.749 897.54 182.306 892.718C191.448 883.083 201.127 874.133 210.313 866.264C212.52 864.11 214.727 861.947 216.979 859.829C218.629 858.45 220.19 857.449 218.468 859.027C225.842 853.15 218.62 858.441 221.993 855.394C226.147 851.987 227.699 851.167 225.151 853.43C228.318 850.726 232.211 847.526 236.571 844.119C238.751 842.424 240.967 840.586 243.263 838.747C245.56 836.927 247.919 835.097 250.306 833.276C259.851 826.021 269.826 819.135 277.272 814.466L274.518 816.512C285.983 809.04 286.763 807.003 297.699 800.495L295.707 801.901C308.266 793.907 321.481 785.488 333.95 777.548C346.411 769.562 358.064 761.919 367.528 755.52C369.071 753.951 375.091 749.634 380.626 745.137C386.197 740.684 391.14 735.898 391.445 734.826C393.041 733.383 394.288 732.068 395.419 730.986C396.495 729.841 397.401 728.877 398.218 728.03C399.025 727.173 399.671 726.353 400.317 725.605C400.64 725.226 400.954 724.857 401.268 724.487C401.564 724.091 401.86 723.703 402.156 723.298C403.385 721.693 404.677 719.837 406.255 716.898C406.632 716.15 407.036 715.348 407.475 714.474C407.87 713.573 408.247 712.581 408.687 711.517C408.92 710.986 409.099 710.418 409.279 709.814C409.467 709.21 409.655 708.588 409.853 707.939C410.077 707.299 410.203 706.605 410.364 705.884C410.517 705.163 410.687 704.424 410.849 703.649C411.333 700.296 411.351 697.754 411.082 695.068C411.019 694.401 410.947 693.716 410.875 693.004C410.786 692.301 410.642 691.571 410.535 690.796C410.337 689.237 409.934 687.551 409.566 685.542L410.059 685.235C409.09 681.63 407.807 678.16 406.327 674.807C405.78 672.932 405.287 671.012 404.614 669.165C404.058 668.029 403.501 666.884 402.873 665.785C402.254 664.676 401.68 663.549 401.016 662.477C402.47 665.127 403.788 668.272 403.43 667.93C400.765 662.648 397.06 656.51 393.903 651.733C390.763 646.938 388.224 643.477 388.26 643.261C385.335 639.665 382.285 636.195 379.154 632.815C376.033 629.417 372.812 626.136 369.547 622.9C370.139 623.18 373.422 626.433 375.997 629.038C370.749 623.846 370.354 623.306 370.112 622.819C369.843 622.359 369.744 621.936 364.756 617.384C365.958 618.745 363.832 616.933 363.536 616.798C362.388 615.581 360.836 613.968 359.024 612.193C358.118 611.309 357.14 610.363 356.126 609.38C355.121 608.38 354.081 607.343 353.004 606.28C348.671 602.035 343.827 597.501 339.691 593.68L341.522 594.887C334.183 587.848 326.334 580.574 318.727 572.715C314.932 568.776 311.2 564.693 307.701 560.385C304.212 556.077 300.955 551.534 298.282 546.694C298.748 547.568 299.134 548.316 299.448 548.938C299.789 549.551 300.058 550.047 300.246 550.425C300.623 551.191 300.713 551.516 300.551 551.453C300.255 551.318 298.91 549.668 297.304 546.802C297.026 545.955 296.847 545.072 296.631 544.215C294.442 540.601 299.457 550.434 295.223 542.863C293.581 539.024 293.411 537.618 293.644 537.789C293.77 537.87 294.03 538.339 294.353 539.051C294.694 539.763 295.205 540.691 295.689 541.764C294.245 538.762 293.213 535.608 292.433 532.408C292.478 532.102 292.585 532.525 292.801 533.066C293.016 533.616 293.276 534.292 293.456 534.553C293.285 534.076 293.106 533.463 292.908 532.742C292.783 532.002 292.648 531.164 292.496 530.254C292.262 528.415 292.155 526.261 292.298 524.08C292.415 521.899 292.774 519.681 293.24 517.69C293.402 516.68 293.743 515.752 293.967 514.877C294.2 514.003 294.389 513.192 294.622 512.507L294.999 512.065C297.044 507.126 299.762 503.187 302.364 499.826C303.063 499.014 303.754 498.221 304.427 497.455C304.768 497.067 305.082 496.68 305.432 496.31C305.79 495.95 306.14 495.598 306.49 495.247C307.19 494.544 307.872 493.85 308.545 493.165C309.235 492.489 309.962 491.867 310.653 491.227C316.286 486.171 322.019 481.907 329.77 477.004C329.797 476.707 331.313 475.58 333.457 474.228C335.601 472.876 338.292 471.191 340.624 469.722C352.583 463.313 366.47 457.41 381.657 451.344C392.306 446.999 384.645 449.739 389.372 447.612C389.848 447.675 393.929 446.314 396.908 445.332C399.886 444.359 401.779 443.809 397.823 445.35C407.09 442.087 413.046 440.104 419.649 438.013C421.3 437.491 422.986 436.95 424.78 436.382C426.575 435.832 428.476 435.255 430.54 434.624C434.657 433.344 439.475 431.965 445.449 430.253C442.794 430.758 439.842 431.497 441.323 430.929C445.656 429.631 451.316 428.522 450.733 428.874L449.594 429.216C463.023 425.377 478.839 422.141 494.009 419.536C509.187 416.904 523.72 414.922 534.665 412.957L533.436 413.173C541.007 411.875 548.677 410.992 556.276 409.667C566.816 408.279 550.005 410.893 557.837 410.091C570.127 408.054 579.887 406.963 589.127 406.125C598.367 405.25 607.069 404.62 617.269 403.574C625.235 403.664 639.265 402.709 654.013 401.898C668.761 401.068 684.227 400.329 694.956 400.383L693.709 400.104C699.236 399.599 700.411 400.05 704.501 399.987C703.909 399.752 698.482 399.906 701.918 399.608C725.377 398.59 749.607 398.067 774.008 396.859C786.208 396.228 798.463 395.453 810.672 393.966C816.772 393.263 822.863 392.29 828.91 391.055C834.956 389.811 840.958 388.198 846.816 385.692C851.077 383.817 853.58 381.997 855.32 380.554C856.172 379.797 856.881 379.175 857.464 378.517C857.76 378.202 858.038 377.896 858.316 377.589C858.576 377.274 858.837 376.958 859.097 376.634C860.128 375.345 861.259 373.93 862.802 371.505C864.282 369.072 866.282 365.566 867.556 359.779C867.359 362.014 866.946 364.268 866.264 366.476C868.005 361.924 868.642 357.057 868.552 352.316C868.48 347.566 867.718 342.897 866.596 338.373C864.327 329.315 860.694 320.752 856.594 312.55C848.296 296.155 838.078 281.085 827.51 267.142C828.856 268.746 829.035 268.683 831.036 271.459C829.053 268.323 825.007 262.807 821.329 258.147C819.499 255.803 817.759 253.721 816.503 252.189C815.256 250.648 814.431 249.683 814.341 249.71C811.112 245.321 813.839 248.512 811.964 245.718C807.711 239.634 800.266 231.279 798.22 227.899C797.87 227.322 799.593 229.458 800.445 230.512C797.323 226.826 786.917 212.648 789.303 216.614C781.642 206.033 774.349 196.605 769.182 187.628C767.172 184.906 764.427 180.075 762.292 175.622C760.13 171.179 758.632 167.123 757.932 166.249C758.201 166.393 757.887 165.14 757.358 163.04C756.838 160.94 756.156 157.984 755.842 154.748C755.716 153.135 755.627 151.449 755.734 149.8C755.842 148.15 756.048 146.519 756.425 145.014C757.152 141.994 758.425 139.471 759.421 137.83C758.838 138.984 759.744 137.587 760.803 136.379C761.87 135.171 763.01 134.126 762.121 135.334C765.019 132.107 768.581 129.673 771.128 128.114C773.694 126.555 775.174 125.762 774.367 125.906L775.802 125.311L777.3 124.824C778.296 124.491 779.283 124.148 780.27 123.815C782.297 123.211 784.306 122.616 786.289 122.021C788.307 121.498 790.299 120.985 792.246 120.48C794.219 120.038 796.148 119.615 798.023 119.191C805.559 117.677 812.287 116.676 817.176 116.857C830.964 115.261 844.384 114.657 857.446 114.576C870.517 114.504 883.246 114.982 895.779 115.802C895.303 116.136 888.378 115.721 881.703 115.351C878.366 115.216 875.083 115.09 872.706 115.054C870.328 115.009 868.848 115.126 869.117 115.333C881.004 115.559 890.387 115.838 899.735 116.442C902.067 116.595 904.409 116.712 906.777 116.911C909.145 117.118 911.549 117.334 914.034 117.551C919.004 117.974 924.252 118.632 930.119 119.335C933.151 119.777 932.272 119.759 930.388 119.606C928.495 119.47 925.589 119.272 924.557 119.2C948.249 121.552 970.12 125.671 991.005 129.277C990.933 129.34 988.672 128.988 986.537 128.637C990.646 129.412 996.046 130.611 995.661 130.151L991.642 129.475C988.421 128.583 992.548 129.078 997.571 129.826C1002.6 130.62 1008.52 131.638 1008.92 131.575C1005.33 131.377 1010.46 132.467 1015.04 133.621C1019.62 134.748 1023.69 135.784 1018.04 135.216C1020.74 135.748 1024.14 136.325 1023.59 135.946C1027.55 136.92 1028.77 137.38 1024.68 136.704C1039.29 139.966 1034.23 138.272 1047.39 141.571C1047.3 141.733 1044.62 141.138 1043.22 141.003C1046.59 141.67 1049.97 142.319 1053.89 143.193C1057.8 144.103 1062.26 145.221 1067.79 146.744C1067.1 146.672 1068.34 147.15 1065.03 146.276C1074.55 148.799 1082.7 150.8 1091.04 153.035C1093.12 153.594 1095.23 154.153 1097.36 154.73C1099.49 155.343 1101.66 155.965 1103.89 156.605C1108.35 157.902 1113.07 159.327 1118.19 161.039C1111.88 159.876 1125.13 163.482 1126.03 164.464L1137.13 167.871L1132.8 166.113C1142.48 169.268 1151.16 171.657 1159.38 174.694C1156.97 173.946 1154.55 173.234 1152.13 172.522C1158.19 174.478 1164.18 176.578 1170.21 178.606L1160.09 174.829C1169.94 177.876 1159.33 173.657 1172.06 178.29C1169.44 177.425 1181.65 181.733 1186.52 183.905H1186.48C1191.28 185.447 1196.23 187.006 1203.22 189.809C1204.98 190.701 1201.49 189.944 1202.63 190.53C1205.05 191.152 1210.64 193.216 1216.38 195.379C1222.1 197.569 1227.99 199.796 1231.03 200.679C1229.03 200.03 1228.8 200.327 1229.41 200.643L1233.46 201.76C1237.79 203.644 1238.4 203.969 1237.59 203.942C1250.73 209.295 1233.73 201.436 1249.2 208.106C1247.97 207.637 1248.52 207.944 1245.95 206.97C1261.57 213.487 1276.28 219.174 1290.48 225.51C1292.45 226.727 1289.32 225.42 1286.26 224.14C1283.2 222.869 1280.23 221.625 1282.53 222.914C1303.2 231.567 1325.41 240.688 1345.08 249.855L1341.43 248.106C1344.57 248.485 1355.93 255.254 1366.07 259.472C1363.6 258.408 1362.65 258.471 1363.35 258.679C1376.78 265.042 1391.01 271.252 1411.53 280.526L1408.9 279.571C1416.74 283.483 1429.75 289.449 1438.33 293.469C1440.98 294.416 1445.9 296.696 1443.05 295.002C1456.06 301.653 1468.9 307.088 1481.58 311.811C1487.94 314.109 1494.22 316.345 1500.54 318.256C1502.12 318.724 1503.68 319.265 1505.27 319.689C1506.86 320.121 1508.44 320.563 1510.02 320.996C1510.8 321.23 1511.59 321.419 1512.39 321.59L1514.78 322.14L1517.16 322.708L1519.56 323.231C1518.02 322.978 1516.18 322.672 1515.04 322.492C1513.89 322.311 1513.43 322.275 1514.64 322.519C1521.85 324.006 1529.54 324.88 1536.99 323.114C1536.06 323.069 1535.33 323.222 1534.22 323.303C1533.12 323.402 1531.64 323.564 1529.29 323.429C1530.7 323.321 1532.97 323.06 1535.52 322.51C1538.06 321.96 1540.86 320.968 1543.23 319.571C1541.1 320.878 1539.91 321.293 1539.57 321.509C1539.23 321.717 1539.69 321.644 1540.58 321.401C1541.02 321.266 1541.56 321.05 1542.15 320.815C1542.75 320.59 1543.36 320.238 1544.01 319.923C1544.63 319.562 1545.26 319.175 1545.84 318.796C1546.38 318.373 1546.93 318.003 1547.35 317.634C1546.73 318.066 1547.73 316.885 1547.37 317.057C1547.65 316.813 1547.92 316.579 1548.16 316.363C1548.4 316.137 1548.61 315.903 1548.81 315.687C1549.22 315.263 1549.57 314.885 1549.84 314.515C1550.11 314.155 1550.34 313.839 1550.55 313.569C1550.73 313.28 1550.87 313.028 1550.99 312.812C1551.5 311.946 1551.57 311.541 1551.69 311.027C1551.76 310.766 1551.84 310.486 1551.97 310.09C1552.09 309.684 1552.25 309.17 1552.52 308.467C1552.99 307.034 1553.81 304.808 1554.58 300.914L1554.65 301.779C1555.13 298.832 1555.26 295.966 1555.25 293.064C1555.24 290.152 1555.06 287.205 1554.82 284.024C1554.95 282.681 1555.14 284.249 1555.33 286.205C1555.5 288.161 1555.58 290.513 1555.78 290.711C1555.61 281.635 1553.25 273.163 1551.97 265.159C1552.94 268.845 1553.96 274.226 1554.59 277.994C1554.25 273.568 1553.85 271.117 1553.49 268.954C1553.09 266.799 1552.7 264.934 1551.97 261.725L1552.12 262.356C1551.03 257.399 1549.77 252.478 1548.41 247.592C1548.73 248.845 1549.05 250.098 1549.34 251.351C1547.21 246.123 1545.44 240.697 1543.44 234.839C1541.44 228.98 1539.21 222.68 1536.09 215.803C1542.04 229.224 1537.38 217.903 1538.29 218.759C1537.06 215.1 1535.05 209.584 1535.82 211.08C1532.77 204.618 1531.67 199.886 1527.1 190.891C1527.1 190.404 1524.06 183.887 1525.1 185.185C1521.21 176.758 1525.72 187.312 1525.19 186.691C1523.62 183.473 1522.01 179.949 1520.32 176.163C1519.48 174.27 1518.62 172.324 1517.73 170.323C1516.83 168.331 1516.02 166.249 1515.11 164.14C1511.55 155.676 1507.54 146.555 1502.9 137.38C1495.26 121.399 1493.31 118.695 1486.46 103.76C1485.49 101.156 1486.08 102.138 1486.92 103.76C1487.77 105.392 1488.86 107.663 1488.86 107.663C1485.51 99.3711 1482.84 93.197 1479.56 85.4457C1480.32 86.978 1479.8 85.2925 1479.06 82.8319C1477.83 79.6863 1477.3 78.6859 1476.71 77.415C1476.11 76.1442 1475.45 74.6029 1474.15 70.3487C1474.82 71.7367 1475.75 73.4853 1477.03 76.4776C1474.19 69.0688 1471.46 61.6961 1469.54 53.7104C1469.46 52.6198 1469.83 53.8005 1470.35 55.5942C1470.87 57.3878 1471.59 59.7853 1472.08 61.1463C1470.77 56.7388 1469.34 50.9524 1468.61 45.869C1468.24 43.3273 1468.04 40.9748 1467.92 39.0821C1467.83 37.1893 1467.85 35.7562 1467.78 35.0352C1467.57 36.973 1467.47 38.9379 1467.5 40.9117C1467.39 37.5588 1467.85 39.1902 1468.04 41.6328C1468.48 45.5265 1468.9 48.3205 1469.13 50.2133C1469.37 52.1151 1469.4 53.1155 1469.36 53.3499C1468.93 51.4481 1468.52 49.5373 1468.21 47.6175C1468.11 50.664 1469.3 56.4955 1471.31 62.8047C1473.29 69.1319 1476.02 75.9549 1478.09 81.489C1477.27 80.0469 1476.46 78.5867 1475.67 77.1266C1477.24 80.867 1478.89 84.5624 1480.58 88.2398C1481.37 90.7004 1481.63 92.503 1479.35 87.1222C1482.19 95.1349 1482.41 93.9902 1484.88 100.858C1485.14 101.624 1484.96 101.3 1484.64 100.633L1488.14 108.15C1487.35 106.726 1488.21 109.628 1486.27 104.914C1491.84 118.74 1496.58 126.591 1498.37 131.936L1497.81 130.827C1506.61 149.502 1499.14 132.413 1506.15 146.239L1509.21 156.298L1510.54 157.921C1511.39 159.876 1513.06 163.743 1512.55 163.112C1516.09 170.205 1512.21 161.778 1514.4 165.843C1514.86 167.042 1515.38 168.349 1515.95 169.71C1516.55 171.062 1517.19 172.477 1517.84 173.928C1519.15 176.812 1520.5 179.804 1521.75 182.571C1524.23 188.115 1526.22 192.792 1526.26 194.027C1528.1 197.236 1522.67 184.897 1527.28 194.829C1527.64 198.065 1532.37 206.411 1535.37 215.298C1533.88 212.793 1530.82 204.482 1533.89 213.333C1536.76 218.273 1540.23 230.404 1542.82 237.84C1543.57 237.975 1548.59 254.019 1551.46 266.926C1551.23 266.547 1552.61 272.631 1553.46 280.418C1553.89 284.312 1554.13 288.629 1554.03 292.712C1553.95 296.795 1553.38 300.626 1552.64 303.519L1552.61 303.149C1552.65 303.753 1552.48 304.961 1552.05 306.529C1551.63 308.107 1550.88 310.017 1549.76 311.964C1548.63 313.902 1547.06 315.813 1545.15 317.345C1543.25 318.886 1541.05 320.031 1538.92 320.779C1539.02 320.518 1539.45 320.256 1540.35 319.752C1541.24 319.211 1542.68 318.517 1544.49 317.03C1542.35 318.679 1539.83 319.824 1537.18 320.554C1536.73 320.752 1536.23 320.914 1535.64 321.068C1535.05 321.239 1534.39 321.401 1533.61 321.527C1532.06 321.825 1530.02 322.005 1527.27 321.978C1527.98 321.861 1528.69 321.672 1529.39 321.5C1526.6 321.545 1523.78 321.401 1520.91 321.005C1518.03 320.626 1515.09 320.04 1512.06 319.481C1510.54 319.184 1509.04 318.751 1507.48 318.382C1506.7 318.183 1505.92 317.985 1505.13 317.787C1504.34 317.57 1503.55 317.318 1502.75 317.075C1501.15 316.57 1499.52 316.065 1497.84 315.534C1496.19 314.93 1494.5 314.317 1492.76 313.686C1491.8 313.83 1503.49 318.805 1488.56 313.884C1488.1 313.424 1487.69 312.884 1491.59 314.146C1490.3 313.767 1487.01 312.685 1484.51 311.631L1490.53 313.433C1484.27 310.901 1487.1 312.523 1482.05 310.585C1482.28 310.297 1478.43 308.864 1479.25 308.891C1479.9 309.134 1480.98 309.603 1482.14 310.099C1483.32 310.567 1484.57 311.054 1485.57 311.351C1482.73 310.279 1479.63 308.945 1476.97 307.773C1474.3 306.62 1472.09 305.565 1471.02 304.961C1471.43 305.358 1470.84 305.403 1466.7 303.717C1456.09 299.184 1463.24 301.761 1457.14 298.922C1454.48 298.039 1447.87 294.776 1447.48 295.191C1444.39 293.812 1443.94 293.307 1442.81 292.64C1437.26 290.414 1417.43 281.013 1423.3 284.366L1424.68 285.051C1424.41 284.934 1424.1 284.799 1423.78 284.663C1405.79 276.885 1387.04 267.124 1369.29 259.183L1369.39 259.03C1364.08 256.687 1358.21 253.992 1352.69 251.513C1347.18 249.053 1342.03 246.763 1338.17 245.231C1335.04 243.816 1330.92 241.599 1332.34 242.013C1324.19 238.48 1323.2 238.273 1311.6 232.802C1319.89 236.119 1308.9 231.288 1320.05 236.299C1314.82 233.874 1311.62 232.36 1308.3 230.864C1304.97 229.377 1301.52 227.899 1295.74 225.681C1299.78 226.943 1288 221.689 1282.89 219.688L1290.19 223.167C1284.51 220.778 1279.55 218.669 1274.53 216.479L1277.49 217.083C1256.01 207.213 1237.69 201.968 1221.39 194.325C1215.42 192.45 1233.23 199.255 1227.84 197.687C1222.8 195.686 1217.73 193.423 1213.5 191.585C1209.27 189.737 1205.9 188.232 1204.31 187.628C1197.42 184.843 1194.07 183.887 1190.65 182.86C1187.24 181.832 1183.73 180.841 1176.44 178.11C1178.24 178.993 1179.83 180.129 1168.8 176.452C1158.56 172.819 1156.47 171.233 1163.01 173.315C1165.48 174.153 1166.65 174.631 1166.52 174.658C1169.87 175.73 1174.24 177.155 1170.25 175.532L1168.85 175.271C1166.34 174.288 1161.55 172.576 1157.82 171.206C1154.08 169.872 1151.39 168.899 1153.11 169.286C1145.26 166.871 1149.67 168.502 1155.4 170.539C1148.83 168.196 1143.68 166.42 1138.45 164.752C1133.23 163.049 1127.95 161.336 1121.13 159.11C1123.27 159.903 1125.2 160.769 1123.03 160.093C1118.03 158.452 1114.96 157.488 1112.98 156.893C1110.98 156.316 1110.06 156.109 1109.34 155.965C1107.9 155.685 1107.24 155.685 1100.4 153.684C1092.73 151.071 1103.42 153.72 1089.55 149.998C1081.19 147.357 1087.92 148.934 1091.32 149.737C1088.14 148.934 1085.1 148.078 1082.19 147.258C1079.28 146.447 1076.52 145.636 1073.92 144.86C1068.75 143.274 1064.23 141.931 1060.63 140.94L1067.34 142.526C1063.32 141.58 1060.06 140.723 1056.73 139.849L1060.43 141.264C1056.54 140.165 1053.22 139.299 1053.33 139.155C1049.22 138.416 1056.26 140.615 1048.14 138.984C1045.55 138.236 1041.56 137.271 1037.99 136.442C1034.42 135.613 1031.29 134.847 1030.45 134.36C1046.91 138.461 1028.76 133.342 1042.75 136.622C1040.05 136.001 1036.76 135.243 1032.83 134.234C1032.25 134.036 1033.41 134.252 1034.5 134.477C1026.65 132.359 1024.8 132.098 1022.85 131.9C1020.9 131.701 1018.89 131.53 1010.67 129.709C1012.83 129.836 1006.97 128.321 1004.27 127.826C1010.91 129.214 1007.34 129.006 1001.2 127.979C990.691 125.572 989.668 125.897 984.133 124.761L990.44 126.104C988.233 125.996 982.958 124.905 975.539 123.707C974.947 123.346 982.285 124.743 979.665 124.166C975.503 123.725 970.901 122.679 965.868 121.715C963.356 121.219 960.737 120.696 958.028 120.2C955.318 119.714 952.502 119.326 949.613 118.984C944.311 117.974 949.182 118.308 944.518 117.469C938.023 116.793 934.524 116.244 930.954 115.649C927.374 115.126 923.705 114.558 916.869 113.981C920.754 114.838 921.453 114.766 911.801 114.216C915.542 114.54 919.291 114.865 923.023 115.261C926.764 115.649 930.505 115.973 934.237 116.451C931.833 116.226 929.428 116.036 927.015 115.883L919.794 115.369C923.176 115.757 926.746 116.099 929.976 116.406C933.205 116.748 936.094 117.091 938.112 117.388C931.232 116.839 931.949 116.821 935.134 117.605C925.984 115.748 916.78 115.811 906.122 114.315L906.544 113.287C902.525 112.819 898.712 112.494 894.935 112.206C891.159 111.962 887.409 111.827 883.507 111.656C879.604 111.557 875.558 111.449 871.172 111.332C868.974 111.295 866.695 111.259 864.309 111.214C863.116 111.187 861.896 111.151 860.64 111.124C859.384 111.106 858.11 111.097 856.791 111.079C859.043 111.142 861.295 111.205 863.546 111.341C862.838 111.431 861.671 111.449 860.218 111.467C858.765 111.494 857.016 111.485 855.141 111.476C853.266 111.476 851.274 111.422 849.318 111.458C847.363 111.494 845.452 111.539 843.748 111.62C844.375 111.259 840.114 111.178 837.19 111.124C837.369 111.268 833.521 111.368 829.394 111.683C825.268 112.017 820.863 112.422 819.948 112.909C816.817 113.071 813.677 113.161 810.537 113.441C808.42 113.702 806.527 113.9 804.823 114.189C803.118 114.477 801.584 114.757 800.167 115.036C799.458 115.18 798.785 115.315 798.122 115.442C797.467 115.604 796.839 115.757 796.229 115.91C795 116.226 793.834 116.523 792.676 116.821C791.51 117.1 790.371 117.469 789.178 117.83C787.985 118.182 786.747 118.542 785.401 118.939C782.746 119.849 779.651 120.741 775.793 122.246C778.054 121.192 777.408 121.264 777.471 121.084C777.542 120.931 778.314 120.336 783.589 118.641C782.27 119.038 780.978 119.434 779.785 119.795C778.592 120.173 777.524 120.624 776.6 120.958C775.685 121.309 774.932 121.607 774.403 121.841C773.882 122.084 773.604 122.292 773.613 122.346C772.07 122.94 768.634 124.743 765.315 127.231C763.646 128.457 762.05 129.881 760.65 131.233C759.287 132.621 758.111 133.937 757.286 134.964C756.945 135.46 756.712 135.91 756.488 136.379C756.255 136.839 756.012 137.307 755.761 137.902C755.627 138.2 755.474 138.515 755.304 138.885C755.151 139.254 754.981 139.66 754.783 140.129C754.398 141.057 753.958 142.22 753.509 143.743C753.24 144.392 753.348 143.671 753.348 143.671C753.375 143.689 753.249 144.302 753.097 145.14C753.007 145.554 752.935 146.032 752.881 146.51C752.828 146.988 752.738 147.474 752.729 147.916C752.675 148.808 752.657 149.52 752.729 149.673C752.783 149.827 752.864 149.412 753.115 148.069C752.298 152.287 752.648 157.56 754.066 162.887C755.456 168.232 757.797 173.657 760.453 178.777C765.782 189.043 772.25 198.245 776.062 204.519C783.033 214.208 791.878 225.501 798.463 234.064C797.96 233.577 798.301 234.145 797.09 232.504C805.864 244.546 803.504 239.12 813.381 252.901C818.109 260.193 807.747 245.862 810.806 250.332C810.923 250.981 811.757 252.306 813.031 254.127C814.305 255.939 816.117 258.156 818.028 260.598C821.885 265.493 826.398 271.324 829.403 276.164L827.744 273.965C832.471 281.257 840.348 291.045 847.408 303.366C847.408 303.366 846.977 302.825 847.21 303.384C849.884 307.431 853.472 313.479 856.693 320.265C859.931 327.034 862.757 334.56 864.228 341.221C862.865 337.192 862.452 335.308 862.721 337.895C863.492 340.824 863.528 340.356 863.797 340.617C863.923 340.752 864.102 341.059 864.398 342.095C864.668 343.132 865.116 344.871 865.457 347.909C865.538 349.892 865.574 353.082 865.17 355.867C864.802 358.652 864.067 360.996 863.672 361.465C864.596 357.886 864.829 354.119 864.641 350.378C864.56 351.829 864.479 353.443 864.354 355.146C864.201 356.841 864.004 358.625 863.663 360.392C863.304 362.15 862.811 363.871 862.192 365.466C861.573 367.062 860.774 368.477 859.994 369.694L860.137 368.918C857.966 372.47 855.661 374.705 853.625 376.435C851.57 378.157 849.722 379.392 847.784 380.545C845.82 381.663 843.748 382.7 841.002 383.727C839.612 384.196 838.114 384.8 836.338 385.304C835.45 385.557 834.508 385.818 833.512 386.098C832.516 386.395 831.44 386.647 830.282 386.9L832.238 386.674C829.762 387.422 827.986 387.891 826.559 388.216C825.124 388.495 824.047 388.639 822.971 388.783C820.827 389.09 818.674 389.279 813.605 390.316L810.412 390.018C809.568 390.153 808.573 390.316 807.442 390.496C806.312 390.658 805.047 390.829 803.684 391.019C800.956 391.424 797.817 391.794 794.506 392.181C787.886 392.948 780.557 393.624 774.439 394.047C781.355 393.128 795.646 391.812 804.41 390.46C801.055 390.856 795.332 391.433 790.012 391.92C784.692 392.425 779.758 392.83 778.009 393.128C780.727 392.866 784.154 392.488 786.845 392.371C778.601 393.56 767.674 394.489 754.155 395.066C755.322 394.327 746.521 394.633 736.187 394.948C725.852 395.273 713.993 395.651 709.068 395.282C685.16 396.607 661.585 396.688 633.712 398.473C643.661 398.923 625.576 399.013 627.361 400.005C620.884 400.528 618.408 400.69 617.825 400.654C611.258 400.933 604.691 401.222 598.134 401.609C593.451 401.708 604.279 400.816 603.66 400.627C589.459 401.825 597.658 400.663 588.239 401.303C590.203 401.519 583.359 402.312 575.267 403.105C579.08 402.853 582.883 402.574 586.696 402.384C581.753 403.006 578.218 403.457 575.366 403.718C572.513 403.98 570.36 404.115 568.198 404.277C566.036 404.43 563.874 404.583 561.003 404.89C558.141 405.214 554.598 405.737 549.655 406.566L555.881 405.35C553.342 405.746 549.727 406.323 545.564 406.828C543.483 407.098 541.267 407.378 538.989 407.675C536.71 407.981 534.36 408.333 532.009 408.676C522.617 410.036 513.314 411.749 508.407 413.038C506.586 413.218 504.164 413.317 508.622 412.488C496.467 414.498 483.046 417.364 470.379 420.411C457.712 423.448 445.79 426.612 436.505 428.946L438.237 428.189C433.814 429.46 430.665 430.839 425.067 432.182C425.319 431.993 426.772 431.407 424.718 431.983C422.403 432.768 413.163 435.994 407.341 437.779L412.203 435.877C400.693 439.383 392.046 442.691 383.972 446.062C379.917 447.711 376.042 449.478 371.996 451.245C367.977 453.092 363.787 454.976 359.23 457.13C359.158 456.95 358.019 457.265 356.225 457.959C354.44 458.671 351.991 459.717 349.281 460.934C343.908 463.439 337.547 466.675 333.421 469.064L333.654 468.802C327.509 472.281 322.037 475.896 316.995 479.618C311.945 483.322 307.378 487.252 303.261 491.569C299.134 495.878 295.492 500.691 292.693 506.153C289.912 511.615 287.938 517.897 287.992 524.711C287.678 528.911 288.324 534.688 290.558 540.835C292.854 546.937 296.497 553.382 301.036 559.42C305.521 565.513 310.733 571.354 315.946 576.798C321.149 582.251 326.352 587.343 330.945 591.895C328.182 589.056 331.833 591.895 335.224 594.995C339.53 599.277 347.747 606.127 346.545 606L344.993 604.495C346.402 606.334 349.362 609.353 352.843 612.841C356.395 616.257 360.405 620.025 363.814 623.45L365.608 623.91C374.032 633.382 385.29 645.577 393.58 658.142C397.706 664.415 401.097 670.733 403.223 676.429C405.367 682.126 406.264 687.119 406.363 690.454C406.874 693.356 406.982 696.664 406.803 699.936C406.56 703.207 405.906 706.425 405.134 709.255L404.739 708.796C403.457 712.626 401.824 715.79 400.057 718.638C398.2 721.432 396.298 724.01 394.064 726.506C389.659 731.545 384.429 736.601 376.373 743.19C377.387 742.198 378.428 741.234 379.415 740.224C374.902 743.947 372.193 746.497 369.538 748.967C366.882 751.428 364.281 753.816 359.822 756.962L356.7 758.215C339.727 769.914 321.588 780.369 304.732 791.969C304.956 791.698 305.351 791.176 308.159 789.355C304.05 791.96 296.039 796.926 289.535 801.171C283.031 805.417 278.026 808.932 279.793 808.391C279.506 808.175 275.038 811.113 269.557 814.997C264.058 818.855 257.608 823.749 253.158 827.156L254.28 825.723C250.664 828.788 248.79 830.365 246.565 832.249C245.452 833.186 244.232 834.177 242.644 835.448C241.066 836.719 239.128 838.287 236.571 840.361C234.041 842.19 234.167 841.712 237.513 839.279C229.107 845.408 231.296 844.489 221.285 852.195L224.748 848.986C220.558 852.339 218.656 853.916 217.293 855.196C215.92 856.467 215.014 857.359 212.897 859.423C211.659 860.568 210.062 861.956 208.358 863.425C206.671 864.912 204.868 866.472 203.182 867.914C199.835 870.834 196.911 873.277 196.202 873.673C195.772 874.277 194.552 875.656 192.874 877.423C191.223 879.225 189.061 881.37 186.81 883.597C186.092 884.092 187.626 882.362 188.406 881.506C181.938 887.743 177.525 892.781 173.64 897.315C169.765 901.875 166.464 905.985 162.4 910.654C162.104 910.744 161.548 911.339 160.884 912.114C169.711 900.848 177.668 892.52 176.942 893.322C176.78 893.169 174.717 895.197 173.452 896.395C172.196 897.603 171.64 897.909 174.484 894.268C168.437 901.353 158.919 914.079 152.37 923.254C152.021 923.678 151.68 924.084 151.384 924.381L152.012 923.399C150.451 925.49 149.24 927.5 148.073 929.356C146.073 932.358 144.781 934.26 143.023 937.252C142.502 937.721 140.789 940.587 138.941 944.03C137.129 947.491 135.209 951.529 134.07 954.215C134.716 953.98 131.666 960.948 134.841 954.548C134.465 955.386 135.164 953.494 136.815 950.006C137.174 949.212 137.604 948.284 137.847 947.761C137.811 947.869 137.757 947.996 137.703 948.131C139.408 944.733 141.686 940.325 144.611 935.521C142.476 939.568 140.314 943.805 137.246 949.429C136.761 950.853 136.232 952.322 135.792 953.674C135.362 955.026 134.976 956.252 134.698 957.126C132.886 960.641 130.652 966.013 129.226 970.943C127.727 975.846 127.126 980.272 126.803 981.335C126.489 985.869 126.588 990.799 127.342 995.765C128.086 1000.73 129.495 1005.68 131.379 1010.19C133.253 1014.69 135.577 1018.75 137.9 1022.15C140.215 1025.55 142.52 1028.32 144.449 1030.32C146.055 1032.25 146.97 1033.36 147.571 1034.22C148.172 1035.09 148.531 1035.66 149.096 1036.41C147.06 1034.34 144.862 1031.66 143.776 1030.52C146.997 1034.4 152.039 1039.89 156.766 1044.29C161.467 1048.73 165.692 1052.23 166.796 1052.77C176.08 1061.23 161.045 1048.65 174.188 1059.81L172.286 1058.46C178.565 1064.17 184.45 1069.09 190.03 1073.81C191.421 1074.99 192.802 1076.16 194.166 1077.33C195.529 1078.51 196.884 1079.68 198.257 1080.8C199.629 1081.92 200.993 1083.05 202.356 1084.18C203.711 1085.31 205.021 1086.48 206.366 1087.64C209.075 1089.93 211.632 1092.4 214.323 1094.89C216.898 1097.49 219.598 1100.08 222.155 1103C227.358 1108.75 232.615 1115.3 237.379 1123.32C235.997 1121.14 235.306 1120.04 235.1 1119.54C241.021 1128.38 246.17 1137.95 249.722 1148.19C253.311 1158.43 254.872 1169.35 254.558 1180.26C254.298 1191.21 252.737 1202.09 250.745 1212.77C248.727 1223.45 246.26 1233.94 243.775 1244.23C242.411 1250.1 241.756 1253.37 241.326 1256.09C240.886 1258.81 240.617 1260.97 240.088 1264.61L239.056 1267.07C238.742 1269.14 238.509 1271.23 238.24 1273.33C237.989 1275.41 237.701 1277.49 237.513 1279.59C236.284 1288.43 235.27 1296.09 234.355 1304.37C233.324 1312.62 232.812 1321.66 233.925 1332.97L234.14 1330.03C234.185 1331.05 234.239 1332.21 234.302 1333.46C234.355 1334.71 234.526 1336.06 234.651 1337.44C234.786 1338.82 234.921 1340.25 235.064 1341.65C235.226 1343.04 235.45 1344.41 235.62 1345.72C235.8 1347.02 235.97 1348.25 236.114 1349.35C236.293 1350.44 236.455 1351.42 236.589 1352.2C236.84 1353.77 236.939 1354.61 236.777 1354.3C237.011 1355.1 237.576 1356.86 238.15 1359.99L237.926 1360.29C239.487 1366.78 241.667 1373.11 244.062 1379.31C245.434 1382.93 246 1384.63 246.215 1385.47C246.466 1386.29 246.305 1386.27 246.242 1386.45C246.179 1386.63 246.215 1387.02 246.852 1388.65C247.175 1389.47 247.641 1390.6 248.332 1392.17C249.095 1393.71 250.108 1395.68 251.427 1398.2C252.503 1400.03 253.903 1402.19 255.311 1404.38C256.845 1406.49 258.406 1408.63 259.824 1410.42C262.793 1413.89 264.865 1416.18 263.968 1414.88C262.937 1413.53 261.636 1411.79 260.613 1410.34C259.59 1408.89 258.962 1407.65 258.989 1407.48C260.416 1409.6 262.102 1411.52 263.681 1413.53C264.426 1413.81 265.879 1414.95 265.744 1414.16C265.664 1413.76 265.224 1412.87 264.112 1411.15C263.565 1410.29 262.82 1409.24 261.932 1407.91C261.098 1406.54 260.075 1404.9 258.837 1402.96C257.608 1401.21 256.478 1399.39 255.284 1397.6C254.674 1396.72 254.172 1395.76 253.625 1394.83L252.01 1392.04C251.454 1390.77 251.032 1389.43 250.575 1388.12L251.705 1390.58L252.97 1392.97L254.235 1395.37L254.863 1396.57C255.078 1396.97 255.32 1397.35 255.554 1397.73C254.809 1396.39 254.28 1395.09 253.679 1393.95C253.096 1392.79 252.521 1391.74 251.965 1390.74C250.934 1388.7 249.965 1386.87 248.942 1384.94C248.691 1383.92 248.215 1382.15 247.336 1379.76C246.394 1377.87 245.623 1375.9 244.824 1373.95L243.622 1371.01L242.564 1368.01C242.456 1366.44 244.735 1373.29 242.591 1365.07C242.088 1363.67 241.927 1363.31 241.864 1363.44C241.792 1363.57 241.864 1364.15 241.909 1364.63C241.954 1365.1 241.972 1365.46 241.801 1365.11C241.711 1364.93 241.577 1364.57 241.371 1363.97C241.191 1363.36 240.958 1362.49 240.653 1361.29C239.603 1355.16 240.339 1356.88 238.688 1349.79C238.715 1348.76 239.128 1350.24 239.747 1353.06C239.576 1352.26 239.388 1351.42 239.2 1350.51C238.993 1349.62 238.832 1348.68 238.697 1347.7C238.401 1345.76 238.105 1343.75 237.809 1341.83C237.594 1339.9 237.396 1338.06 237.199 1336.5C236.993 1334.94 236.804 1333.66 236.67 1332.83C236.706 1331.21 236.652 1329.04 236.553 1326.69C236.535 1324.35 236.526 1321.83 236.508 1319.54C236.58 1314.97 236.831 1311.28 237.19 1311.61C237.056 1309.58 237.414 1300.16 237.881 1294.19C237.881 1296.94 238.015 1296.91 238.204 1295.39C238.392 1293.87 238.778 1290.85 239.191 1287.58C239.603 1284.32 240.204 1280.82 240.635 1278.33C241.128 1275.83 241.541 1274.34 241.658 1275.09C241.918 1271.05 243.129 1263.84 244.771 1255.91C246.376 1247.97 248.323 1239.29 249.597 1232.2C249.489 1233 249.292 1234.58 248.978 1235.8C250.772 1227.9 251.49 1225.64 252.692 1220.55C252.441 1219.97 252.907 1216.57 253.481 1212.45C253.75 1210.39 254.055 1208.15 254.334 1206.01C254.594 1203.85 254.782 1201.79 254.935 1200.08C255.482 1197.64 255.688 1196.79 255.805 1196.86C255.912 1196.92 255.921 1197.91 255.832 1199.09C255.688 1201.47 255.41 1204.71 255.966 1203.2C255.805 1203.3 255.85 1202.27 255.993 1200.72C256.074 1199.95 256.164 1199.05 256.262 1198.08C256.343 1197.12 256.424 1196.1 256.504 1195.1C256.657 1193.11 256.827 1191.22 256.863 1190.02C256.872 1188.82 256.818 1188.33 256.639 1189.17C257.114 1185.36 257.312 1183.71 257.428 1182.53C257.527 1181.34 257.635 1180.62 257.967 1178.63C257.509 1177.95 257.626 1176.16 257.455 1173.72C257.402 1172.5 257.348 1171.13 257.249 1169.65C257.222 1169.28 257.213 1168.9 257.159 1168.53C257.097 1168.15 257.034 1167.77 256.971 1167.38C256.836 1166.62 256.684 1165.83 256.513 1165.05C256.397 1163.65 256.307 1162.55 256.235 1161.69C256.119 1160.82 256.038 1160.18 255.966 1159.7C255.85 1158.71 255.85 1158.3 255.814 1157.87C255.697 1157.01 255.751 1155.96 253.813 1150.08C253.113 1147.21 253.607 1148.39 254.289 1150.3C254.612 1151.26 254.997 1152.4 255.302 1153.29C255.446 1153.74 255.58 1154.13 255.67 1154.41C255.751 1154.69 255.787 1154.86 255.787 1154.86L255.966 1154.82ZM156.739 922.579C155.34 924.597 154.12 926.301 153.393 927.419C154.057 926.391 155.053 925.012 156.73 922.579H156.739ZM171.55 903.75C170.608 904.859 169.541 906.111 168.41 907.445C167.307 908.806 166.123 910.258 164.912 911.754C164.248 912.294 164.678 911.474 166.204 909.609C165.836 910.158 166.562 909.347 167.675 908.058C168.796 906.778 170.348 905.066 171.55 903.75ZM139.461 943.489C141.273 940.082 141.964 938.982 142.341 938.586C141.453 940.172 140.421 942.038 139.138 944.526C139.103 944.634 139.022 944.85 138.986 944.958C139.067 944.589 139.174 944.165 139.461 943.48V943.489Z" fill="white"/>
<path d="M136.931 949.996C136.707 950.509 136.581 950.789 136.285 951.447C136.653 950.753 137.003 950.086 137.362 949.419C137.514 948.968 137.667 948.509 137.81 948.121C137.487 948.743 137.2 949.41 136.922 949.996H136.931Z" fill="white"/>
<path d="M110.674 1298.88C110.638 1298.8 110.611 1298.91 110.584 1298.88C110.62 1299.44 110.647 1299.6 110.674 1298.88Z" fill="white"/>
<path d="M138.017 1401.98L137.066 1400.8C136.896 1400.72 136.716 1400.65 136.645 1400.72L138.017 1401.99V1401.98Z" fill="white"/>
<path d="M78.4863 1069.22C79.7153 1070.54 80.424 1071.4 80.9533 1072.11C80.2626 1070.99 89.1886 1079 78.4863 1069.22Z" fill="white"/>
<path d="M272.769 647.225L274.321 649.811C273.755 648.802 273.208 647.883 272.769 647.225Z" fill="white"/>
<path d="M80.9796 1072.12L80.9619 1072.1C80.9619 1072.1 80.9619 1072.1 80.9796 1072.12Z" fill="white"/>
<path d="M129.217 1142.12C127.494 1136.03 126.911 1134.65 126.597 1134.51C126.319 1134.36 126.418 1135.38 125.772 1134.2C123.17 1127.19 122.345 1125.68 122.363 1125.13C122.327 1124.6 122.865 1125.17 121.968 1122.77C119.824 1118.6 117.698 1115.05 115.527 1111.92C114.998 1111.12 114.486 1110.34 113.975 1109.57C113.437 1108.83 112.908 1108.1 112.378 1107.37C111.329 1105.93 110.342 1104.5 109.346 1103.08C109.122 1102.61 108.35 1101.51 109.409 1102.69C106.278 1098.91 101.891 1093.12 96.8138 1087.68C96.1858 1087 95.5758 1086.28 94.9389 1085.61C94.293 1084.94 93.6471 1084.27 93.0012 1083.61C91.7004 1082.29 90.4535 1080.95 89.1706 1079.73C86.587 1077.31 84.1828 1075.01 81.958 1073.25C81.3749 1072.64 81.1058 1072.31 80.9802 1072.13C82.1105 1073.62 82.0836 1074.05 81.644 1073.98C77.6071 1070.21 73.7497 1067.49 72.4848 1065.8C75.0235 1068.01 75.3465 1068.07 76.6293 1069.01L72.1528 1065.36C68.6542 1061.48 78.2351 1070.36 78.5311 1070.03C74.2251 1066.43 69.5513 1062.52 65.1376 1058.82C60.697 1055.15 56.4897 1051.73 53.2602 1048.89C52.7668 1048.08 56.6512 1051.28 59.5936 1053.72C62.5361 1056.16 64.5455 1057.84 60.3472 1053.9C63.6843 1056.84 67.0125 1059.81 70.269 1062.82C66.7793 1059.08 68.2774 1060.43 69.8742 1061.86C71.4441 1063.28 73.1038 1064.76 69.9729 1061.26C56.8575 1049.53 54.7314 1048.82 41.7415 1037.23C38.5928 1034.89 42.3785 1038.47 39.2207 1036.13C34.529 1032.11 31.434 1029.1 29.2272 1026.71C27.0114 1024.32 25.6388 1022.57 24.4277 1020.96C23.2346 1019.34 22.1581 1017.9 20.7138 1015.95C20.346 1015.48 19.9513 1014.97 19.5296 1014.42C19.117 1013.87 18.6684 1013.28 18.175 1012.64C17.6727 1012.01 17.1434 1011.31 16.5962 1010.55C16.04 1009.78 15.3941 1008.98 14.7661 1008.06C13.3397 1006.24 12.2722 1005.01 10.8458 1002.8C10.1551 1001.69 9.35665 1000.33 8.52236 998.477C7.66116 996.639 6.78201 994.277 5.91183 991.222L6.91657 993.169L7.41894 994.133L7.97514 995.07C6.54877 991.222 5.85801 988.68 5.36461 986.832C5.13137 985.904 4.92504 985.147 4.73665 984.48C4.58414 983.804 4.44061 983.209 4.30605 982.614C4.18045 982.01 4.01898 981.406 3.91133 980.694C3.81265 979.982 3.71397 979.162 3.61529 978.153C3.46278 976.125 3.35513 973.285 3.82162 968.986C3.82162 969.374 3.77676 969.86 3.78573 970.419V972.267C3.74088 973.583 3.82162 975.034 3.8575 976.305C3.86647 977.585 4.02795 978.666 4.0728 979.288C4.1356 979.91 4.16251 980.054 4.12663 979.432C3.96515 973.844 4.16251 971.888 4.01001 970.23C4.03692 968.581 3.79471 967.211 4.5662 962.938C4.8443 962.38 5.21211 961.848 5.52609 961.307C6.38729 956.999 7.70601 952.645 9.29386 948.283C10.0474 946.093 10.9894 943.939 11.8775 941.739C12.8643 939.585 13.7972 937.386 14.9007 935.241C19.1259 926.588 24.3649 918.125 30.0884 909.995C29.6039 911.005 27.8008 913.898 30.6266 910.202C34.2329 905.083 38.1801 899.936 42.3605 894.871C46.5499 889.806 51.0174 884.848 55.5747 880.026C64.716 870.391 74.3956 861.441 83.5817 853.573C85.7886 851.419 87.9954 849.255 90.2471 847.137C91.8978 845.758 93.4587 844.758 91.7363 846.335C99.1104 840.459 91.8888 845.749 95.2618 842.703C99.4154 839.296 100.967 838.476 98.4196 840.738C101.586 838.034 105.48 834.834 109.84 831.427C112.019 829.733 114.235 827.894 116.532 826.056C118.828 824.235 121.188 822.405 123.574 820.585C133.119 813.329 143.086 806.443 150.54 801.774L147.786 803.82C159.251 796.348 160.032 794.311 170.967 787.804L168.976 789.21C181.526 781.215 194.749 772.797 207.218 764.856C219.679 756.871 231.332 749.227 240.797 742.828C242.34 741.26 248.359 736.943 253.894 732.445C259.465 727.992 264.408 723.206 264.713 722.134C266.31 720.692 267.557 719.376 268.687 718.294C269.764 717.15 270.67 716.194 271.486 715.338C272.293 714.482 272.939 713.661 273.585 712.913C273.908 712.535 274.222 712.165 274.536 711.796C274.832 711.408 275.128 711.012 275.424 710.606C276.653 709.002 277.945 707.145 279.524 704.207C279.901 703.459 280.304 702.656 280.744 701.782C281.139 700.881 281.515 699.889 281.955 698.826C282.188 698.294 282.368 697.726 282.547 697.122C282.735 696.518 282.924 695.897 283.121 695.248C283.345 694.608 283.471 693.914 283.633 693.193C283.785 692.472 283.955 691.732 284.117 690.957C284.601 687.604 284.619 685.063 284.35 682.377C284.287 681.71 284.216 681.025 284.144 680.313C284.054 679.61 283.911 678.88 283.803 678.105C283.606 676.545 283.202 674.86 282.834 672.85L283.327 672.543C282.359 668.938 281.076 665.468 279.605 662.115C279.057 660.24 278.564 658.321 277.891 656.473C277.335 655.337 276.779 654.193 276.151 653.093C275.532 651.984 274.958 650.858 274.294 649.785C275.747 652.435 277.066 655.581 276.707 655.238C274.043 649.956 270.338 643.819 267.18 639.042C264.04 634.247 261.501 630.786 261.537 630.569C258.613 626.973 255.563 623.503 252.432 620.123C249.31 616.725 246.089 613.444 242.824 610.208C243.416 610.488 246.699 613.742 249.274 616.346C244.026 611.155 243.631 610.614 243.389 610.127C243.12 609.668 243.021 609.244 238.033 604.692C239.236 606.053 237.109 604.242 236.813 604.107C235.665 602.89 234.113 601.276 232.301 599.501C231.395 598.618 230.417 597.671 229.403 596.689C228.399 595.688 227.358 594.652 226.282 593.588C221.949 589.343 217.104 584.809 212.969 580.988L214.799 582.196C207.461 575.156 199.611 567.883 192.004 560.023C188.209 556.085 184.477 552.002 180.979 547.693C177.489 543.385 174.233 538.842 171.559 534.002C172.026 534.877 172.411 535.625 172.725 536.247C173.066 536.859 173.335 537.355 173.524 537.734C173.901 538.5 173.99 538.824 173.829 538.761C173.533 538.626 172.178 536.977 170.581 534.11C170.303 533.263 170.124 532.38 169.909 531.524C167.72 527.909 172.734 537.743 168.5 530.172C166.858 526.332 166.688 524.926 166.921 525.097C167.047 525.178 167.307 525.647 167.63 526.359C167.971 527.071 168.482 528 168.967 529.072C167.522 526.071 166.491 522.916 165.71 519.716C165.755 519.41 165.863 519.834 166.078 520.374C166.293 520.924 166.553 521.6 166.733 521.862C166.562 521.384 166.383 520.771 166.186 520.05C166.06 519.311 165.925 518.473 165.773 517.562C165.54 515.724 165.432 513.569 165.576 511.388C165.692 509.207 166.051 506.99 166.518 504.998C166.679 503.988 167.02 503.06 167.244 502.186C167.477 501.312 167.666 500.5 167.899 499.815L168.276 499.374C170.321 494.435 173.039 490.496 175.641 487.134C176.341 486.323 177.031 485.53 177.704 484.763C178.045 484.376 178.359 483.988 178.709 483.619C179.068 483.258 179.418 482.907 179.768 482.555C180.467 481.852 181.149 481.158 181.822 480.473C182.513 479.797 183.239 479.175 183.93 478.535C189.564 473.479 195.296 469.216 203.047 464.313C203.074 464.015 204.59 462.888 206.734 461.536C208.878 460.185 211.569 458.499 213.902 457.03C225.86 450.622 239.747 444.718 254.935 438.652C265.583 434.308 257.922 437.048 262.65 434.921C263.125 434.984 267.207 433.623 270.185 432.64C273.163 431.667 275.056 431.117 271.1 432.658C280.367 429.396 286.324 427.413 292.926 425.322C294.577 424.799 296.263 424.258 298.058 423.69C299.852 423.14 301.754 422.564 303.817 421.933C307.935 420.653 312.752 419.274 318.727 417.561C316.071 418.066 313.12 418.805 314.6 418.237C318.933 416.939 324.594 415.831 324.01 416.182L322.871 416.525C336.301 412.685 352.116 409.449 367.286 406.845C382.465 404.213 396.998 402.23 407.942 400.265L406.713 400.481C414.284 399.183 421.955 398.3 429.553 396.975C440.094 395.587 423.282 398.201 431.114 397.399C443.404 395.362 453.164 394.271 462.404 393.433C471.644 392.559 480.346 391.928 490.546 390.882C498.512 390.972 512.543 390.017 527.291 389.206C542.039 388.377 557.505 387.638 568.225 387.692L566.978 387.412C572.504 386.908 573.679 387.358 577.77 387.295C577.178 387.061 571.75 387.214 575.186 386.917C598.645 385.898 622.875 385.375 647.276 384.159C659.477 383.528 671.731 382.753 683.94 381.265C690.041 380.562 696.132 379.589 702.178 378.354C708.224 377.11 714.226 375.497 720.084 372.991C724.345 371.116 726.848 369.296 728.588 367.854C729.441 367.097 730.149 366.475 730.732 365.817C731.028 365.501 731.307 365.195 731.585 364.888C731.845 364.573 732.105 364.258 732.365 363.933C733.397 362.644 734.527 361.229 736.07 358.805C737.55 356.371 739.551 352.865 740.825 347.078C740.627 349.314 740.215 351.567 739.533 353.775C741.273 349.224 741.91 344.356 741.82 339.616C741.749 334.866 740.986 330.197 739.865 325.672C737.595 316.614 733.962 308.051 729.862 299.849C721.564 283.455 711.346 268.385 700.779 254.441C702.124 256.046 702.304 255.982 704.304 258.759C702.331 255.622 698.276 250.106 694.598 245.446C692.768 243.103 691.027 241.021 689.771 239.479C688.524 237.938 687.699 236.974 687.609 237.001C684.38 232.611 687.107 235.802 685.232 233.008C680.98 226.924 673.534 218.569 671.489 215.189C671.139 214.612 672.861 216.748 673.714 217.803C670.592 214.116 660.185 199.939 662.572 203.904C654.911 193.323 647.617 183.895 642.45 174.918C640.44 172.196 637.695 167.365 635.56 162.913C633.398 158.469 631.9 154.413 631.2 153.539C631.47 153.683 631.156 152.43 630.626 150.33C630.106 148.23 629.424 145.274 629.11 142.038C628.985 140.425 628.895 138.739 629.003 137.09C629.11 135.441 629.317 133.809 629.693 132.304C630.42 129.285 631.694 126.761 632.69 125.12C632.107 126.274 633.013 124.877 634.071 123.669C635.139 122.471 636.278 121.416 635.39 122.624C638.287 119.397 641.849 116.964 644.397 115.404C646.962 113.845 648.443 113.052 647.635 113.196L649.07 112.601L650.569 112.114C651.564 111.781 652.551 111.438 653.538 111.105C655.565 110.501 657.575 109.906 659.557 109.311C661.576 108.789 663.567 108.275 665.514 107.77C667.488 107.328 669.416 106.905 671.291 106.481C678.827 104.967 685.555 103.967 690.444 104.147C704.232 102.552 717.653 101.948 730.714 101.867C743.785 101.794 756.515 102.272 769.047 103.092C768.572 103.426 761.646 103.011 754.972 102.642C751.635 102.506 748.351 102.38 745.974 102.344C743.597 102.299 742.116 102.416 742.386 102.624C754.272 102.849 763.656 103.128 773.003 103.732C775.336 103.885 777.677 104.003 780.045 104.201C782.414 104.408 784.818 104.625 787.303 104.841C792.273 105.264 797.521 105.922 803.388 106.625C806.42 107.067 805.541 107.049 803.657 106.896C801.764 106.761 798.857 106.562 797.826 106.49C821.518 108.843 843.389 112.962 864.273 116.567C864.201 116.63 861.941 116.279 859.805 115.927C863.914 116.702 869.315 117.901 868.929 117.441L864.91 116.765C861.689 115.873 865.816 116.369 870.84 117.117C875.863 117.91 881.784 118.928 882.179 118.865C878.591 118.667 883.722 119.758 888.297 120.911C892.881 122.038 896.945 123.074 891.302 122.507C894.003 123.038 897.402 123.615 896.846 123.237C900.811 124.21 902.031 124.67 897.941 123.994C912.545 127.257 907.486 125.562 920.646 128.861C920.556 129.023 917.883 128.428 916.475 128.293C919.848 128.96 923.23 129.609 927.15 130.483C931.061 131.394 935.52 132.511 941.046 134.034C940.355 133.962 941.602 134.44 938.292 133.566C947.81 136.089 955.956 138.09 964.298 140.326C966.38 140.884 968.488 141.443 970.623 142.02C972.749 142.633 974.92 143.255 977.154 143.895C981.612 145.193 986.331 146.617 991.453 148.329C985.138 147.167 998.388 150.772 999.285 151.754L1010.39 155.161L1006.06 153.404C1015.74 156.558 1024.42 158.947 1032.64 161.984C1030.23 161.236 1027.81 160.524 1025.39 159.812C1031.45 161.768 1037.44 163.868 1043.47 165.896L1033.35 162.119C1043.2 165.166 1032.58 160.948 1045.32 165.581C1042.7 164.715 1054.91 169.024 1059.78 171.196H1059.74C1064.54 172.737 1069.49 174.296 1076.48 177.099C1078.24 177.992 1074.75 177.235 1075.89 177.82C1078.31 178.442 1083.9 180.506 1089.64 182.669C1095.36 184.86 1101.25 187.086 1104.29 187.969C1102.29 187.32 1102.06 187.618 1102.67 187.933L1106.72 189.051C1111.05 190.935 1111.66 191.259 1110.85 191.232C1123.99 196.586 1106.99 188.726 1122.46 195.396C1121.23 194.927 1121.78 195.234 1119.21 194.26C1134.82 200.777 1149.54 206.464 1163.74 212.8C1165.71 214.017 1162.58 212.71 1159.52 211.421C1156.46 210.151 1153.49 208.907 1155.79 210.196C1176.46 218.848 1198.67 227.97 1218.34 237.136L1214.69 235.387C1217.82 235.766 1229.19 242.535 1239.33 246.753C1236.86 245.689 1235.91 245.753 1236.61 245.96C1250.04 252.323 1264.27 258.533 1284.79 267.808L1282.16 266.852C1290 270.764 1303.01 276.731 1311.59 280.751C1314.24 281.697 1319.16 283.977 1316.31 282.283C1329.31 288.935 1342.16 294.369 1354.84 299.092C1361.2 301.391 1367.48 303.626 1373.8 305.537C1375.38 306.005 1376.94 306.546 1378.53 306.97C1380.12 307.402 1381.7 307.844 1383.27 308.277C1384.06 308.511 1384.85 308.7 1385.65 308.872L1388.04 309.421L1390.42 309.989L1392.82 310.512C1391.28 310.26 1389.45 309.953 1388.3 309.773C1387.15 309.593 1386.69 309.557 1387.9 309.8C1395.11 311.287 1402.8 312.161 1410.25 310.395C1409.32 310.35 1408.59 310.503 1407.48 310.584C1406.37 310.683 1404.9 310.846 1402.55 310.71C1403.96 310.602 1406.23 310.341 1408.78 309.791C1411.32 309.241 1414.12 308.25 1416.48 306.853C1414.36 308.16 1413.17 308.574 1412.83 308.8C1412.49 309.007 1412.95 308.935 1413.84 308.691C1414.28 308.556 1414.82 308.34 1415.41 308.106C1416.01 307.88 1416.62 307.529 1417.27 307.213C1417.89 306.853 1418.52 306.465 1419.1 306.078C1419.64 305.654 1420.19 305.284 1420.61 304.915C1419.99 305.348 1420.99 304.167 1420.63 304.338C1420.91 304.095 1421.18 303.86 1421.42 303.644C1421.66 303.419 1421.87 303.184 1422.07 302.968C1422.48 302.544 1422.83 302.166 1423.1 301.796C1423.37 301.436 1423.6 301.12 1423.81 300.85C1423.99 300.562 1424.13 300.309 1424.25 300.093C1424.76 299.228 1424.83 298.822 1424.95 298.308C1425.02 298.047 1425.1 297.767 1425.23 297.371C1425.35 296.965 1425.51 296.452 1425.78 295.749C1426.25 294.315 1427.07 292.089 1427.84 288.195L1427.91 289.061C1428.39 286.113 1428.51 283.247 1428.51 280.345C1428.5 277.434 1428.32 274.486 1428.08 271.305C1428.21 269.962 1428.4 271.53 1428.59 273.486C1428.76 275.442 1428.84 277.794 1429.04 277.993C1428.86 268.916 1426.51 260.444 1425.23 252.44C1426.2 256.127 1427.22 261.508 1427.85 265.275C1427.51 260.85 1427.11 258.398 1426.75 256.235C1426.35 254.081 1425.96 252.215 1425.23 249.006L1425.38 249.637C1424.29 244.68 1423.03 239.759 1421.67 234.874C1421.99 236.126 1422.31 237.379 1422.6 238.632C1420.47 233.405 1418.7 227.979 1416.7 222.12C1414.7 216.262 1412.47 209.961 1409.35 203.084C1415.3 216.505 1410.64 205.184 1411.55 206.041C1410.32 202.381 1408.31 196.865 1409.07 198.361C1406.02 191.899 1404.93 187.167 1400.36 178.172C1400.35 177.685 1397.31 171.169 1398.36 172.467C1394.47 164.039 1398.98 174.594 1398.45 173.972C1396.88 170.754 1395.27 167.23 1393.58 163.444C1392.74 161.552 1391.88 159.605 1390.99 157.604C1390.09 155.612 1389.28 153.53 1388.37 151.421C1384.81 142.957 1380.8 133.836 1376.16 124.661C1368.52 108.68 1366.57 105.986 1359.72 91.0417C1358.75 88.4369 1359.34 89.4193 1360.18 91.0417C1361.03 92.6731 1362.12 94.9444 1362.12 94.9444C1358.77 86.6523 1356.1 80.4783 1352.82 72.727C1353.58 74.2592 1353.06 72.5738 1352.32 70.1132C1351.09 66.9676 1350.56 65.9671 1349.97 64.6963C1349.37 63.4254 1348.71 61.8842 1347.41 57.63C1348.08 59.018 1349.01 60.7665 1350.29 63.7589C1347.45 56.3501 1344.72 48.9773 1342.8 40.9917C1342.72 39.8921 1343.08 41.0818 1343.61 42.8754C1344.13 44.669 1344.85 47.0665 1345.34 48.4275C1344.03 44.0201 1342.6 38.2336 1341.86 33.1502C1341.5 30.6085 1341.3 28.2561 1341.18 26.3633C1341.09 24.4706 1341.11 23.0375 1341.04 22.3164C1340.83 24.2542 1340.73 26.2191 1340.76 28.193C1340.64 24.8401 1341.11 26.4715 1341.3 28.914C1341.74 32.8077 1342.16 35.6018 1342.39 37.4946C1342.63 39.3963 1342.66 40.3968 1342.62 40.6311C1342.19 38.7294 1341.78 36.8186 1341.47 34.8988C1341.37 37.9452 1342.56 43.7767 1344.57 50.0859C1346.55 56.4132 1349.27 63.2361 1351.35 68.7702C1350.53 67.3281 1349.72 65.868 1348.93 64.4078C1350.49 68.1483 1352.15 71.8437 1353.84 75.5211C1354.63 77.9817 1354.89 79.7843 1352.61 74.4034C1355.45 82.4161 1355.67 81.2715 1358.14 88.1395C1358.4 88.9056 1358.22 88.5811 1357.9 87.9142L1361.4 95.4311C1360.61 94.007 1361.47 96.9093 1359.53 92.1954C1365.1 106.022 1369.84 113.872 1371.63 119.217L1371.07 118.108C1379.87 136.783 1372.4 119.695 1379.41 133.521L1382.47 143.579L1383.79 145.202C1384.65 147.158 1386.32 151.024 1385.8 150.393C1389.35 157.487 1385.47 149.059 1387.66 153.124C1388.12 154.323 1388.64 155.63 1389.21 156.991C1389.81 158.343 1390.45 159.758 1391.1 161.209C1392.41 164.093 1393.76 167.086 1395.01 169.853C1397.49 175.396 1399.48 180.074 1399.52 181.308C1401.36 184.517 1395.93 172.178 1400.53 182.111C1400.9 185.346 1405.63 193.693 1408.63 202.58C1407.14 200.074 1404.08 191.764 1407.15 200.615C1410.02 205.554 1413.49 217.686 1416.08 225.121C1416.83 225.257 1421.85 241.3 1424.72 254.207C1424.49 253.828 1425.87 259.912 1426.72 267.7C1427.15 271.593 1427.4 275.911 1427.29 279.993C1427.2 284.076 1426.64 287.907 1425.9 290.8L1425.87 290.431C1425.91 291.035 1425.74 292.242 1425.31 293.811C1424.89 295.388 1424.14 297.299 1423.02 299.246C1421.89 301.183 1420.32 303.103 1418.4 304.635C1416.51 306.177 1414.3 307.321 1412.19 308.069C1412.29 307.808 1412.72 307.547 1413.62 307.042C1414.51 306.501 1415.95 305.807 1417.76 304.311C1415.61 305.96 1413.09 307.105 1410.45 307.835C1410 308.033 1409.5 308.196 1408.9 308.349C1408.32 308.52 1407.67 308.682 1406.88 308.809C1405.33 309.106 1403.29 309.286 1400.53 309.259C1401.25 309.142 1401.96 308.953 1402.66 308.782C1399.87 308.827 1397.04 308.682 1394.17 308.286C1391.29 307.907 1388.36 307.321 1385.33 306.763C1383.81 306.465 1382.31 306.033 1380.74 305.663C1379.96 305.465 1379.18 305.266 1378.39 305.068C1377.6 304.852 1376.82 304.599 1376.02 304.356C1374.42 303.851 1372.79 303.347 1371.11 302.815C1369.46 302.211 1367.76 301.598 1366.02 300.958C1365.07 301.102 1376.76 306.078 1361.83 301.156C1361.37 300.697 1360.96 300.156 1364.86 301.418C1363.57 301.039 1360.28 299.958 1357.78 298.903L1363.8 300.706C1357.54 298.173 1360.37 299.795 1355.32 297.858C1355.55 297.569 1351.7 296.136 1352.52 296.163C1353.17 296.406 1354.24 296.875 1355.41 297.371C1356.59 297.84 1357.84 298.326 1358.84 298.624C1355.99 297.551 1352.9 296.217 1350.23 295.045C1347.57 293.892 1345.35 292.828 1344.29 292.233C1344.7 292.63 1344.11 292.675 1339.97 290.99C1329.36 286.456 1336.51 289.034 1330.41 286.195C1327.74 285.311 1321.14 282.049 1320.75 282.463C1317.66 281.084 1317.2 280.579 1316.07 279.912C1310.53 277.686 1290.7 268.285 1296.57 271.638L1297.94 272.323C1297.68 272.206 1297.37 272.071 1297.05 271.936C1279.06 264.157 1260.31 254.396 1242.56 246.456L1242.66 246.302C1237.35 243.959 1231.48 241.264 1225.96 238.785C1220.44 236.325 1215.29 234.035 1211.44 232.503C1208.31 231.088 1204.19 228.871 1205.61 229.286C1197.46 225.752 1196.46 225.545 1184.87 220.083C1193.15 223.4 1182.17 218.569 1193.32 223.58C1188.09 221.156 1184.88 219.641 1181.56 218.145C1178.24 216.658 1174.79 215.18 1169.01 212.963C1173.05 214.225 1161.27 208.961 1156.16 206.969L1163.46 210.448C1157.77 208.06 1152.82 205.95 1147.8 203.769L1150.76 204.373C1129.28 194.504 1110.95 189.258 1094.65 181.615C1088.69 179.74 1106.5 186.545 1101.11 184.977C1096.07 182.976 1091 180.714 1086.77 178.875C1082.53 177.027 1079.17 175.522 1077.58 174.918C1070.68 172.133 1067.34 171.178 1063.92 170.15C1060.51 169.123 1056.99 168.131 1049.71 165.4C1051.5 166.284 1053.1 167.419 1042.07 163.742C1031.83 160.11 1029.74 158.523 1036.28 160.605C1038.75 161.443 1039.91 161.921 1039.79 161.948C1043.13 163.021 1047.51 164.445 1043.52 162.822L1042.12 162.561C1039.61 161.579 1034.82 159.866 1031.09 158.496C1027.35 157.162 1024.65 156.189 1026.38 156.576C1018.53 154.161 1022.94 155.792 1028.66 157.829C1015.54 153.115 1008.02 150.898 994.396 146.401C996.54 147.194 998.468 148.059 996.297 147.383C991.301 145.743 988.233 144.778 986.25 144.183C984.25 143.606 983.326 143.399 982.608 143.255C981.164 142.976 980.509 142.976 973.673 140.966C966.003 138.352 976.687 141.002 962.818 137.288C954.457 134.647 961.185 136.225 964.585 137.027C961.41 136.225 958.369 135.368 955.462 134.548C952.546 133.737 949.783 132.926 947.2 132.151C942.024 130.564 937.511 129.221 933.905 128.23L940.615 129.807C936.596 128.861 933.34 128.005 930.012 127.13L933.708 128.545C929.814 127.446 926.495 126.581 926.612 126.436C922.494 125.697 929.536 127.897 921.418 126.265C918.825 125.517 914.833 124.553 911.271 123.723C907.701 122.894 904.57 122.128 903.727 121.641C920.189 125.742 902.04 120.623 916.026 123.904C913.326 123.282 910.034 122.525 906.104 121.515C905.53 121.317 906.687 121.533 907.773 121.759C899.932 119.64 898.075 119.379 896.129 119.181C894.182 118.982 892.163 118.811 883.946 116.991C886.108 117.117 880.25 115.603 877.55 115.107C884.188 116.495 880.618 116.288 874.482 115.26C863.968 112.854 862.945 113.178 857.41 112.042L863.717 113.385C861.51 113.277 856.235 112.187 848.816 110.988C848.224 110.627 855.562 112.024 852.943 111.448C848.78 111.006 844.178 109.96 839.146 108.996C836.634 108.5 834.014 107.977 831.305 107.482C828.596 106.986 825.779 106.607 822.89 106.256C817.589 105.246 822.46 105.58 817.795 104.742C811.3 104.066 807.801 103.516 804.231 102.921C800.651 102.398 796.982 101.83 790.147 101.254C794.031 102.11 794.731 102.038 785.078 101.488C788.819 101.812 792.569 102.137 796.301 102.533C800.042 102.921 803.782 103.255 807.514 103.723C805.11 103.498 802.706 103.309 800.293 103.155L793.071 102.642C796.453 103.029 800.024 103.372 803.253 103.678C806.483 104.021 809.371 104.363 811.39 104.661C804.509 104.111 805.227 104.093 808.411 104.877C799.261 103.02 790.057 103.083 779.399 101.587L779.821 100.56C775.802 100.091 771.99 99.7665 768.213 99.478C764.436 99.2347 760.686 99.0995 756.784 98.9282C752.882 98.8291 748.836 98.7209 744.449 98.6038C742.251 98.5677 739.972 98.5316 737.586 98.4866C736.393 98.4595 735.173 98.4235 733.917 98.3964C732.661 98.3784 731.387 98.3694 730.069 98.3514C732.32 98.4145 734.572 98.4776 736.824 98.6128C736.115 98.7029 734.949 98.7209 733.495 98.739C732.042 98.766 730.293 98.757 728.418 98.748C726.543 98.748 724.551 98.6939 722.596 98.7299C720.64 98.766 718.729 98.8111 717.025 98.8922C717.653 98.5316 713.392 98.4505 710.467 98.3964C710.647 98.5407 706.798 98.6398 702.672 98.9553C698.545 99.2888 694.14 99.6943 693.225 100.181C690.094 100.343 686.955 100.433 683.815 100.713C681.698 100.974 679.805 101.173 678.1 101.461C676.396 101.749 674.862 102.029 673.444 102.308C672.736 102.452 672.063 102.588 671.399 102.714C670.744 102.876 670.116 103.029 669.506 103.182C668.277 103.498 667.111 103.795 665.954 104.093C664.787 104.372 663.648 104.742 662.455 105.102C661.262 105.454 660.024 105.814 658.678 106.211C656.023 107.121 652.928 108.013 649.07 109.519C651.331 108.464 650.685 108.536 650.748 108.356C650.82 108.203 651.591 107.608 656.866 105.913C655.547 106.31 654.256 106.707 653.062 107.067C651.869 107.446 650.802 107.896 649.878 108.23C648.963 108.581 648.209 108.879 647.68 109.113C647.16 109.356 646.882 109.564 646.891 109.618C645.348 110.213 641.912 112.015 638.592 114.503C636.924 115.729 635.327 117.153 633.928 118.505C632.564 119.893 631.389 121.209 630.564 122.236C630.223 122.732 629.989 123.183 629.765 123.651C629.532 124.111 629.29 124.58 629.038 125.175C628.904 125.472 628.751 125.787 628.581 126.157C628.428 126.527 628.258 126.932 628.061 127.401C627.675 128.329 627.235 129.492 626.787 131.015C626.518 131.664 626.625 130.943 626.625 130.943C626.652 130.961 626.527 131.574 626.374 132.412C626.284 132.827 626.213 133.304 626.159 133.782C626.105 134.26 626.024 134.747 626.006 135.197C625.953 136.089 625.935 136.802 626.006 136.955C626.06 137.108 626.141 136.693 626.392 135.35C625.576 139.569 625.926 144.841 627.343 150.168C628.733 155.513 631.075 160.939 633.73 166.058C639.059 176.324 645.527 185.527 649.34 191.8C656.31 201.489 665.155 212.782 671.74 221.345C671.237 220.858 671.578 221.426 670.367 219.786C679.141 231.827 676.781 226.401 686.658 240.182C691.386 247.474 681.025 233.143 684.084 237.614C684.2 238.263 685.035 239.597 686.309 241.408C687.582 243.22 689.395 245.428 691.305 247.88C695.163 252.774 699.675 258.605 702.68 263.445L701.021 261.246C705.749 268.538 713.625 278.326 720.685 290.647C720.685 290.647 720.254 290.106 720.488 290.665C723.161 294.712 726.749 300.76 729.97 307.547C733.208 314.316 736.034 321.842 737.505 328.502C736.142 324.473 735.738 322.59 735.998 325.176C736.77 328.106 736.806 327.637 737.075 327.898C737.2 328.034 737.38 328.34 737.676 329.377C737.945 330.413 738.394 332.153 738.734 335.19C738.815 337.173 738.851 340.364 738.447 343.149C738.08 345.934 737.344 348.277 736.949 348.746C737.873 345.168 738.107 341.4 737.918 337.66C737.837 339.111 737.757 340.724 737.631 342.428C737.479 344.122 737.281 345.907 736.94 347.673C736.581 349.431 736.088 351.152 735.469 352.748C734.85 354.343 734.052 355.758 733.271 356.975L733.415 356.2C731.244 359.751 728.938 361.986 726.902 363.717C724.847 365.438 723 366.673 721.062 367.827C719.097 368.944 717.025 369.981 714.28 371.008C712.889 371.477 711.391 372.081 709.615 372.586C708.727 372.838 707.785 373.099 706.789 373.379C705.793 373.676 704.717 373.929 703.56 374.181L705.515 373.956C703.039 374.704 701.263 375.172 699.837 375.497C698.401 375.776 697.325 375.921 696.248 376.065C694.104 376.371 691.951 376.56 686.883 377.597L683.689 377.3C682.846 377.435 681.85 377.597 680.72 377.777C679.589 377.939 678.325 378.111 676.961 378.3C674.234 378.706 671.094 379.075 667.784 379.463C661.163 380.229 653.834 380.905 647.716 381.328C654.632 380.409 668.923 379.093 677.688 377.741C674.332 378.138 668.609 378.715 663.289 379.201C657.97 379.706 653.036 380.112 651.286 380.409C654.004 380.148 657.431 379.769 660.123 379.652C651.878 380.842 640.952 381.77 627.433 382.347C628.599 381.608 619.798 381.914 609.464 382.23C599.13 382.554 587.27 382.933 582.345 382.563C558.438 383.888 534.862 383.969 506.99 385.754C516.938 386.205 498.853 386.295 500.638 387.286C494.161 387.809 491.685 387.971 491.102 387.935C484.535 388.214 477.969 388.503 471.411 388.89C466.728 388.99 477.556 388.097 476.937 387.908C462.736 389.107 470.936 387.944 461.516 388.584C463.481 388.8 456.636 389.593 448.544 390.387C452.357 390.134 456.161 389.855 459.973 389.666C455.03 390.287 451.496 390.738 448.643 391C445.79 391.261 443.637 391.396 441.475 391.558C439.313 391.712 437.151 391.865 434.281 392.171C431.419 392.496 427.875 393.018 422.932 393.848L429.158 392.631C426.619 393.027 423.004 393.604 418.842 394.109C416.76 394.379 414.545 394.659 412.266 394.956C409.987 395.263 407.637 395.614 405.287 395.957C395.894 397.318 386.591 399.03 381.684 400.319C379.863 400.499 377.441 400.599 381.9 399.769C369.744 401.779 356.324 404.645 343.657 407.692C330.99 410.729 319.068 413.893 309.783 416.227L311.514 415.47C307.091 416.741 303.943 418.12 298.336 419.463C298.587 419.274 300.04 418.688 297.986 419.265C295.671 420.049 286.431 423.276 280.609 425.06L285.472 423.158C273.962 426.665 265.314 429.972 257.24 433.343C253.185 434.993 249.31 436.759 245.264 438.526C241.245 440.374 237.056 442.257 232.498 444.411C232.427 444.231 231.287 444.547 229.493 445.241C227.708 445.953 225.259 446.998 222.55 448.215C217.176 450.721 210.816 453.956 206.689 456.345L206.922 456.084C200.777 459.563 195.305 463.177 190.264 466.899C185.213 470.604 180.647 474.533 176.529 478.851C172.402 483.159 168.76 487.972 165.961 493.434C163.18 498.896 161.207 505.178 161.261 511.992C160.947 516.192 161.593 521.97 163.826 528.117C166.123 534.219 169.765 540.663 174.304 546.702C178.79 552.795 184.002 558.635 189.214 564.079C194.417 569.532 199.62 574.625 204.213 579.176C201.45 576.337 205.101 579.176 208.492 582.277C212.798 586.558 221.016 593.408 219.814 593.282L218.262 591.777C219.67 593.615 222.63 596.635 226.111 600.123C229.673 603.539 233.674 607.306 237.083 610.731L238.877 611.191C247.3 620.664 258.559 632.859 266.848 645.423C270.975 651.696 274.366 658.014 276.492 663.711C278.636 669.407 279.533 674.4 279.631 677.744C280.143 680.646 280.25 683.954 280.071 687.226C279.829 690.498 279.174 693.715 278.402 696.546L278.008 696.086C276.725 699.916 275.092 703.08 273.334 705.937C271.477 708.731 269.575 711.309 267.341 713.806C262.937 718.844 257.707 723.9 249.651 730.489C250.665 729.498 251.705 728.533 252.692 727.524C248.18 731.246 245.47 733.797 242.815 736.266C240.16 738.727 237.558 741.116 233.1 744.261L229.978 745.514C213.005 757.213 194.866 767.668 178.009 779.268C178.234 778.998 178.628 778.475 181.436 776.654C177.327 779.259 169.316 784.225 162.813 788.471C156.309 792.716 151.303 796.231 153.07 795.69C152.783 795.474 148.316 798.412 142.834 802.297C137.335 806.154 130.885 811.049 126.436 814.456L127.557 813.023C123.942 816.087 122.067 817.664 119.842 819.548C118.73 820.485 117.51 821.477 115.922 822.748C114.343 824.019 112.405 825.587 109.849 827.66C107.319 829.49 107.444 829.012 110.79 826.578C102.385 832.707 104.574 831.788 94.5621 839.494L98.0249 836.285C93.8355 839.638 91.9336 841.216 90.5701 842.496C89.1975 843.766 88.2915 844.659 86.1743 846.723C84.9364 847.867 83.3395 849.255 81.6351 850.725C79.9485 852.212 78.1454 853.771 76.4589 855.213C73.1127 858.133 70.1882 860.576 69.4795 860.972C69.0489 861.576 67.8289 862.955 66.1513 864.722C64.5007 866.525 62.3387 868.67 60.087 870.896C59.3693 871.392 60.9034 869.661 61.6838 868.805C55.2158 875.042 50.8021 880.08 46.9177 884.614C43.0423 889.175 39.741 893.276 35.6772 897.953C35.3812 898.044 34.825 898.638 34.1612 899.414C42.9885 888.147 50.9457 879.819 50.219 880.621C50.0576 880.468 47.9943 882.496 46.7294 883.695C45.4734 884.902 44.9172 885.209 47.761 881.568C41.7146 888.652 32.1965 901.378 25.6478 910.554C25.2979 910.977 24.957 911.383 24.661 911.681L25.2889 910.698C23.728 912.789 22.5169 914.799 21.3507 916.656C19.3502 919.657 18.0584 921.559 16.3001 924.551C15.7798 925.02 14.0664 927.886 12.2184 931.329C10.4062 934.79 8.48648 938.828 7.34718 941.514C7.99308 941.28 4.94298 948.247 8.11867 941.848C7.7419 942.686 8.44162 940.793 10.0923 937.305C10.4511 936.512 10.8817 935.583 11.1239 935.061C11.088 935.169 11.0342 935.295 10.9804 935.43C12.6849 932.032 14.9635 927.625 17.888 922.821C15.7529 926.868 13.5909 931.104 10.5229 936.728C10.0474 938.152 9.50916 939.621 9.06959 940.973C8.63898 942.325 8.25324 943.551 7.97514 944.425C6.16302 947.94 3.92927 953.312 2.5029 958.242C1.00476 963.146 0.403711 967.571 0.0807595 968.635C-0.233221 973.168 -0.134542 978.098 0.619013 983.065C1.3636 988.031 2.77203 992.979 4.65591 997.486C6.53083 1001.99 8.85429 1006.05 11.1777 1009.45C13.4922 1012.85 15.7977 1015.62 17.7265 1017.62C19.3323 1019.55 20.2473 1020.66 20.8484 1021.52C21.4494 1022.39 21.8082 1022.96 22.3734 1023.71C20.337 1021.64 18.1392 1018.96 17.0537 1017.82C20.2742 1021.7 25.3159 1027.19 30.0435 1031.59C34.7443 1036.03 38.9695 1039.53 40.073 1040.07C49.3578 1048.53 34.3226 1035.94 47.465 1047.11L45.5631 1045.76C51.8428 1051.47 57.7277 1056.39 63.3076 1061.11C64.698 1062.29 66.0796 1063.46 67.4431 1064.62C68.8067 1065.81 70.1613 1066.98 71.5339 1068.09C72.9064 1069.22 74.27 1070.35 75.6335 1071.47C76.9882 1072.61 78.2979 1073.78 79.6435 1074.94C82.3527 1077.23 84.9184 1079.7 87.6007 1082.19C90.1754 1084.79 92.8756 1087.38 95.4323 1090.3C100.635 1096.05 105.892 1102.6 110.656 1110.62C109.274 1108.44 108.584 1107.34 108.377 1106.84C114.298 1115.68 119.447 1125.25 123 1135.49C126.588 1145.73 128.149 1156.65 127.835 1167.56C127.575 1178.51 126.014 1189.39 124.022 1200.07C122.004 1210.75 119.537 1221.24 117.052 1231.53C115.689 1237.4 115.034 1240.67 114.603 1243.39C114.163 1246.11 113.894 1248.27 113.365 1251.91L112.333 1254.37C112.019 1256.44 111.786 1258.53 111.517 1260.62C111.266 1262.71 110.979 1264.79 110.79 1266.89C109.561 1275.73 108.548 1283.39 107.633 1291.67C106.601 1299.92 106.09 1308.96 107.202 1320.26L107.417 1317.33C107.462 1318.35 107.516 1319.51 107.579 1320.76C107.633 1322.01 107.803 1323.36 107.929 1324.74C108.063 1326.12 108.198 1327.55 108.341 1328.94C108.503 1330.34 108.727 1331.71 108.898 1333.02C109.077 1334.32 109.247 1335.55 109.391 1336.65C109.57 1337.74 109.732 1338.71 109.866 1339.5C110.118 1341.07 110.216 1341.91 110.055 1341.6C110.288 1342.4 110.853 1344.16 111.427 1347.29L111.203 1347.59C112.764 1354.08 114.944 1360.41 117.339 1366.61C118.712 1370.22 119.277 1371.93 119.492 1372.77C119.743 1373.59 119.582 1373.57 119.519 1373.75C119.456 1373.93 119.492 1374.32 120.129 1375.95C120.452 1376.77 120.919 1377.9 121.609 1379.47C122.372 1381.01 123.386 1382.98 124.704 1385.5C125.781 1387.33 127.18 1389.49 128.589 1391.68C130.123 1393.79 131.684 1395.93 133.101 1397.71C136.07 1401.19 138.143 1403.48 137.246 1402.18C136.214 1400.83 134.913 1399.09 133.89 1397.64C132.868 1396.19 132.24 1394.95 132.267 1394.78C133.693 1396.9 135.38 1398.82 136.959 1400.82C137.703 1401.11 139.156 1402.25 139.022 1401.46C138.941 1401.06 138.502 1400.17 137.389 1398.45C136.842 1397.59 136.097 1396.54 135.209 1395.21C134.375 1393.84 133.352 1392.2 132.114 1390.26C130.885 1388.51 129.755 1386.69 128.562 1384.9C127.952 1384.02 127.449 1383.06 126.902 1382.13L125.287 1379.34C124.731 1378.07 124.31 1376.73 123.852 1375.42L124.982 1377.88L126.247 1380.27L127.512 1382.67L128.14 1383.87C128.355 1384.27 128.598 1384.65 128.831 1385.03C128.086 1383.69 127.557 1382.39 126.956 1381.25C126.373 1380.09 125.799 1379.04 125.243 1378.04C124.211 1376 123.242 1374.17 122.219 1372.23C121.968 1371.22 121.493 1369.45 120.614 1367.06C119.672 1365.17 118.9 1363.2 118.102 1361.25L116.9 1358.31L115.841 1355.31C115.733 1353.74 118.012 1360.59 115.868 1352.37C115.366 1350.97 115.204 1350.61 115.141 1350.74C115.07 1350.86 115.141 1351.45 115.186 1351.93C115.231 1352.4 115.249 1352.76 115.079 1352.41C114.989 1352.23 114.854 1351.87 114.648 1351.27C114.469 1350.66 114.235 1349.79 113.93 1348.59C112.881 1342.46 113.616 1344.18 111.966 1337.09C111.993 1336.06 112.405 1337.54 113.024 1340.36C112.854 1339.56 112.665 1338.71 112.477 1337.81C112.271 1336.92 112.109 1335.97 111.975 1335C111.679 1333.06 111.383 1331.04 111.086 1329.12C110.871 1327.2 110.674 1325.36 110.476 1323.8C110.27 1322.24 110.082 1320.96 109.947 1320.13C109.983 1318.51 109.929 1316.34 109.831 1313.99C109.813 1311.65 109.804 1309.13 109.786 1306.84C109.857 1302.27 110.109 1298.58 110.467 1298.91C110.333 1296.88 110.692 1287.46 111.158 1281.49C111.158 1284.24 111.293 1284.21 111.481 1282.69C111.67 1281.17 112.055 1278.15 112.468 1274.88C112.881 1271.62 113.482 1268.12 113.912 1265.63C114.406 1263.13 114.818 1261.64 114.935 1262.39C115.195 1258.34 116.406 1251.14 118.048 1243.21C119.654 1235.27 121.6 1226.59 122.883 1219.5C122.776 1220.3 122.578 1221.88 122.264 1223.1C124.058 1215.2 124.776 1212.94 125.978 1207.85C125.727 1207.27 126.193 1203.87 126.768 1199.75C127.046 1197.69 127.342 1195.45 127.62 1193.31C127.88 1191.15 128.068 1189.09 128.221 1187.38C128.768 1184.94 128.974 1184.09 129.091 1184.16C129.199 1184.22 129.208 1185.21 129.118 1186.39C128.974 1188.77 128.696 1192.01 129.253 1190.5C129.091 1190.6 129.136 1189.57 129.279 1188.02C129.36 1187.25 129.45 1186.35 129.549 1185.38C129.629 1184.42 129.71 1183.4 129.791 1182.4C129.943 1180.41 130.114 1178.52 130.15 1177.32C130.159 1176.12 130.105 1175.63 129.925 1176.47C130.401 1172.66 130.598 1171.02 130.715 1169.83C130.813 1168.64 130.921 1167.92 131.253 1165.93C130.796 1165.25 130.921 1163.46 130.742 1161.02C130.688 1159.8 130.634 1158.42 130.535 1156.95C130.508 1156.58 130.499 1156.2 130.446 1155.83C130.383 1155.45 130.32 1155.07 130.257 1154.68C130.123 1153.92 129.97 1153.13 129.8 1152.35C129.683 1150.95 129.593 1149.85 129.522 1148.99C129.405 1148.12 129.324 1147.48 129.253 1147C129.136 1146 129.136 1145.6 129.1 1145.17C128.983 1144.31 129.037 1143.26 127.1 1137.38C126.4 1134.51 126.893 1135.69 127.575 1137.6C127.898 1138.56 128.284 1139.7 128.589 1140.59C128.732 1141.04 128.867 1141.43 128.956 1141.71C129.037 1141.98 129.073 1142.16 129.073 1142.16L129.217 1142.12ZM29.9807 909.878C28.5813 911.897 27.3612 913.6 26.6346 914.718C27.2984 913.69 28.2942 912.311 29.9717 909.878H29.9807ZM44.7916 891.04C43.8497 892.149 42.7822 893.402 41.6518 894.736C40.5484 896.097 39.3643 897.548 38.1532 899.044C37.4893 899.585 37.92 898.765 39.445 896.899C39.0772 897.449 39.8038 896.638 40.9162 895.349C42.0376 894.069 43.5896 892.356 44.7916 891.04ZM12.7028 930.788C14.5149 927.381 15.2057 926.282 15.5824 925.885C14.6943 927.472 13.6627 929.337 12.3798 931.825C12.344 931.933 12.2632 932.149 12.2273 932.258C12.3081 931.888 12.4157 931.464 12.7028 930.779V930.788Z" fill="white"/>
<path d="M10.1732 937.287C9.94898 937.801 9.82338 938.08 9.52734 938.738C9.89515 938.044 10.245 937.377 10.6038 936.71C10.7564 936.259 10.9089 935.8 11.0524 935.412C10.7294 936.034 10.4424 936.701 10.1643 937.287H10.1732Z" fill="white"/>
<path d="M283.471 672.506L283.354 672.569C283.543 673.272 283.686 673.993 283.848 674.705C283.722 673.975 283.624 673.236 283.471 672.506Z" fill="white"/>
<path d="M246.763 620.393C245.623 619.266 244.502 618.112 243.345 617.004C245.462 619.167 247.552 621.348 249.597 623.574C248.655 622.52 247.731 621.438 246.772 620.393H246.763Z" fill="white"/>
</g>
<defs>
<clipPath id="clip0_2204_1331">
<rect width="1556" height="1415.23" fill="white"/>
</clipPath>
</defs>
</svg>
