<svg width="260" height="1148" viewBox="0 0 260 1148" fill="none" xmlns="http://www.w3.org/2000/svg">
<g clip-path="url(#clip0_32_1502)">
<path d="M245.203 251.269C245.851 250.51 246.076 250.179 246.067 250.127C245.466 250.83 245.006 251.424 245.203 251.269Z" fill="white"/>
<path d="M231.023 268.408C231.296 268.031 231.53 267.711 231.784 267.374C231.455 267.757 231.136 268.151 231.023 268.408Z" fill="white"/>
<path d="M214.327 302.045C214.355 301.976 214.365 301.954 214.383 301.891C214.628 300.977 214.449 301.491 214.327 302.045Z" fill="white"/>
<path d="M141.833 617.02C141.401 615.21 142.087 616.637 142.697 617.837C143.345 619.03 143.889 620.001 143.091 617.3C143.073 617.831 140.481 612.543 141.833 617.02Z" fill="white"/>
<path d="M143.091 617.294L142.941 616.734C143.007 616.968 143.044 617.094 143.091 617.294Z" fill="white"/>
<path d="M202.185 382.312C202.298 382.153 202.401 381.838 202.514 381.507C202.458 381.53 202.373 381.713 202.185 382.312Z" fill="white"/>
<path d="M210.214 322.519L209.867 323.992C210.026 323.41 210.13 322.936 210.214 322.519Z" fill="white"/>
<path d="M197.734 413.237C197.518 414.031 197.359 414.294 197.143 415.385C197.199 415.288 197.236 415.191 197.293 415.059C197.321 414.659 197.443 414.14 197.734 413.237Z" fill="white"/>
<path d="M186.372 444.75C186.484 444.59 186.616 444.379 186.738 444.196C186.869 443.888 187.029 443.522 187.161 443.202L186.372 444.75Z" fill="white"/>
<path d="M201.528 414.922C201.04 416.624 200.608 418.331 200.063 420.027C200.561 418.605 201.03 416.749 201.528 414.922Z" fill="white"/>
<path d="M214.618 829.529L214.928 830.688C214.844 830.237 214.74 829.826 214.618 829.529Z" fill="white"/>
<path d="M194.889 435.081C194.344 435.949 193.865 436.886 193.377 437.856C193.33 438.068 193.255 438.313 193.255 438.456C193.837 437.337 194.344 436.206 194.889 435.081Z" fill="white"/>
<path d="M434.176 1057.12C430.589 1052.72 431.875 1055.24 430.758 1054.41C426.269 1049.23 429.218 1051.85 428.063 1049.97C425.198 1046.75 422.532 1044.43 420.513 1041.99C420.466 1041.78 420.099 1041.29 420.691 1041.8C417.301 1038.52 411.93 1031.62 407.723 1027.86C407.507 1027.55 407.422 1027.39 407.404 1027.3C407.685 1028.04 407.46 1028.24 407.122 1028.18C405.347 1026.27 403.488 1024.74 403.197 1023.89C404.286 1025.07 404.521 1025.12 405.15 1025.63C404.474 1024.97 403.816 1024.32 403.122 1023.67C402.558 1022.67 403.253 1023.34 404.136 1024.24C405 1025.14 406.061 1026.28 406.267 1026.21C404.399 1024.27 402.22 1022.21 400.211 1020.25C398.163 1018.31 396.276 1016.46 394.867 1014.96C394.849 1014.12 401.844 1021.83 398.473 1017.69C399.919 1019.25 401.309 1020.82 402.69 1022.39C400.22 1018.54 405.291 1025.23 403.15 1021.65C397.487 1015.49 396.36 1014.94 390.313 1008.94C388.604 1007.72 390.341 1009.55 388.632 1008.34C383.862 1004.28 382.322 1002.54 381.073 1001.07C380.453 1000.34 379.899 999.675 379.026 998.836C378.134 998.008 376.904 997.008 374.95 995.604C373.861 994.907 372.95 994.501 371.729 993.719C370.499 992.942 368.978 991.771 366.499 989.641L368.865 990.778C362.038 985.375 364.142 988.088 357.193 982.348C358.742 983.211 362.874 986.432 361.888 985.592C357.606 981.76 358.207 983.199 354.535 980.447L354.263 979.63C346.629 974.068 337.774 968.185 329.106 962.16C329.726 962.423 331.341 963.382 329.491 961.886C318.429 954.353 306.447 945.524 296.662 937.849L292.399 935.176C291.516 934.502 290.944 933.834 291.986 934.519C288.258 931.487 291.507 934.502 289.469 933.16C287.253 931.481 286.831 930.807 288.342 931.818C284.736 929.294 279.797 925.61 275.017 921.795C270.294 917.958 265.721 913.989 262.829 910.945L264.209 912.03C263.016 910.87 262.002 909.997 261.101 909.266C260.227 908.523 259.448 907.924 258.687 907.335C257.927 906.747 257.185 906.159 256.377 905.445C255.589 904.725 254.762 903.863 253.795 902.738L254.706 903.543C249.757 898.432 244.771 892.972 240.592 887.661C236.395 882.356 233.108 877.182 230.986 872.853C230.15 872.122 228.591 869.346 227.295 866.651C226.619 865.309 225.962 863.989 225.445 862.967C224.901 861.945 224.422 861.231 224.065 861.094C222.863 857.782 222.591 856.577 222.112 855.052C221.727 853.51 221.041 851.66 219.68 846.971C219.266 845.726 218.825 844.812 218.327 843.824C217.839 842.836 217.266 841.78 216.787 840.232L217.341 840.095L215.604 835.932L215.745 833.613C215.463 832.642 215.163 831.671 214.909 830.7C215.135 831.871 215.238 833.202 215.031 833.036C214.684 831.9 214.383 830.632 214.149 829.364C213.914 828.096 213.688 826.834 213.566 825.709C213.313 823.459 213.238 821.763 213.369 821.694L212.205 816.269L211.162 810.832C211.416 811.06 211.773 812.882 212.139 814.316C210.693 808.531 212.58 813.231 211.313 807.919C211.275 808.639 210.918 807.548 210.787 807.434C210.787 804.756 210.073 798.696 209.482 794.202L209.97 795.047C209.219 786.932 208.148 777.937 207.172 768.805C207.331 772.089 206.561 771.364 206.214 768.685L206.711 767.589C206.148 765.876 206.787 770.393 205.932 766.864C205.613 763.454 206.364 764.539 206.787 766.492L206.092 762.358C206.242 762.106 206.458 763.072 206.711 763.317C206.139 761.632 206.42 756.127 205.397 753.706L205.547 753.46C204.871 748.897 204.223 745.585 203.566 742.489C203.218 740.942 202.88 739.445 202.523 737.875C202.138 736.304 201.725 734.66 201.265 732.809C200.683 732.718 200.101 729.811 199.011 727.664C197.631 722.238 195.894 716.208 193.133 709.806C190.926 705.351 192.128 708.561 190.954 706.59C191.302 706.179 188.306 699.834 190.165 703.072C188.363 699.258 187.142 696.836 185.743 694.175C185.048 692.844 184.296 691.451 183.376 689.806C182.465 688.156 181.385 686.254 180.024 683.889C180.39 684.963 180.925 686.14 180.446 685.568C179.46 683.855 178.54 681.599 178.888 681.805L179.179 682.25C172.737 671.708 166.868 657.431 161.431 649.133L161.731 649.601C160.003 646.7 158.304 643.793 156.632 640.88C154.679 636.797 158.2 643.256 156.98 640.189C151.449 630.789 149.815 625.061 146.153 617.18C145.683 613.988 143.627 608.517 141.917 602.72C140.171 596.929 138.866 590.807 138.772 586.541L138.499 587.049C137.908 584.868 138.302 584.382 138.265 582.76C137.992 583 138.218 585.159 137.87 583.8C137.335 579.14 137.091 574.399 137.363 569.614C137.673 564.828 138.302 560.008 139.344 555.199C140.415 550.391 141.739 545.594 143.373 540.842C145.026 536.096 146.847 531.385 148.848 526.742C151.843 519.969 148.744 522.601 153.505 514.195L152.942 516.719C158.614 502.933 167.328 489.015 174.052 475.669C173.751 476.486 173.911 476.543 173.197 477.833C175.188 475.132 178.916 467.497 178.578 467.377C179.742 465.321 179.151 466.96 180.024 465.726C181.799 462.962 183.235 458.548 184.428 457.125C184.634 456.886 184.156 457.948 183.921 458.468C184.7 456.594 188.325 449.873 186.954 451.552C189.668 446.56 191.32 441.86 193.349 437.845C193.621 436.475 194.579 434.305 195.387 432.346C196.157 430.381 196.823 428.639 196.579 428.165C196.927 428.405 197.875 426.167 198.795 423.448C199.208 422.083 199.622 420.604 199.969 419.256C200.288 417.908 200.504 416.686 200.626 415.858C200.598 416.983 201.641 413.026 201.659 414.345C202.091 412.46 202.476 410.656 202.664 409.399C202.824 408.137 202.824 407.429 202.542 407.743C205.012 400.873 204.204 393.74 206.026 389.896C207.049 378.657 207.622 368.275 208.43 358.195C209.237 358.589 207.434 369.337 208.364 368.937C208.956 359.36 208.702 353.82 210.026 344.369C210.439 341.925 210.223 345.774 210.27 346.608C211.04 337.065 212.74 328.213 214.083 319.766C214.158 319.795 214.045 320.708 213.923 321.571C214.252 319.909 214.872 317.727 214.449 317.882L214.205 319.503C213.642 320.806 213.707 319.138 213.886 317.099C214.092 315.066 214.458 312.662 214.346 312.502C214.562 313.958 215.097 311.885 215.726 310.035C216.337 308.179 216.928 306.545 217.013 308.835C217.229 307.745 217.435 306.363 217.116 306.585C217.679 304.986 217.98 304.495 217.773 306.157C219.36 300.258 218.327 302.296 220.149 296.985C220.309 297.025 220.018 298.105 220.046 298.681C220.299 297.311 220.666 295.952 221.144 294.375C221.595 292.793 222.318 291.006 223.342 288.801C223.342 289.087 223.699 288.596 223.135 289.915C223.896 288.002 224.685 286.249 225.398 284.541C226.074 282.828 226.882 281.2 227.633 279.533C227.83 279.116 228.018 278.699 228.215 278.282C228.431 277.865 228.647 277.448 228.873 277.026C229.333 276.186 229.793 275.329 230.272 274.444C231.249 272.685 232.479 270.863 233.831 268.865C233.465 270.144 233.915 269.464 234.685 268.459C235.446 267.454 236.441 266.101 236.902 265.975C237.794 264.53 238.845 263.125 239.831 261.703L238.235 263.302C239.644 261.463 240.827 259.687 242.132 258.02C242.761 257.18 243.39 256.363 244.029 255.558C244.696 254.764 245.4 253.993 246.123 253.24C245.438 254.159 244.705 255.067 244.057 255.992C244.977 254.856 245.973 253.736 246.931 252.611C247.879 251.481 248.884 250.367 249.907 249.259L248.039 251.092L246.245 252.954C247.682 251.086 247.4 251.115 247.306 251.029C247.212 250.938 247.306 250.727 249.607 248.397C249.194 248.888 250.02 248.003 251.222 246.78C252.452 245.57 254.086 244.034 255.157 243.188L255.157 243.2C255.889 242.297 256.715 241.401 257.664 240.413C258.631 239.425 259.702 238.328 261.166 237.112C262.068 236.535 261.242 237.894 261.833 237.523C263.101 235.656 270.463 229.568 272.454 227.329C271.768 228.066 272.022 228.231 272.35 228.031L273.571 226.507C275.515 225.033 275.872 224.845 275.797 225.199C281.45 220.682 273.29 226.312 280.257 221.064C279.76 221.498 280.06 221.321 279.027 222.229C285.891 216.901 292.005 211.784 298.7 207.067C301.16 205.919 293.16 211.338 295.817 209.939C305.039 202.938 314.776 195.348 324.223 188.826L322.43 190.025C322.965 188.717 329.745 185.314 334.093 181.784C332.994 182.63 333.003 183.075 333.229 182.812C339.717 178.346 346.084 173.463 355.23 166.348L354.263 167.313C358.104 164.686 363.926 160.163 367.823 157.193C368.771 156.211 370.931 154.486 369.335 155.406C375.758 151.02 380.979 146.405 385.749 141.819C390.52 137.228 394.849 132.687 399.685 128.393C398.642 129.461 397.384 131.008 398.22 130.158C399.431 128.878 400.633 127.593 401.797 126.297C402.971 125.006 404.154 123.716 405.291 122.414C404.352 122.893 404.145 123.356 402.323 124.863C403.037 123.818 404.84 121.58 406.596 119.667C403.666 123.224 407.253 119.849 408.803 118.404C408.465 118.621 408.793 118.056 408.559 118.147C412.831 114.304 408.437 117.228 413.742 111.808L413.686 112.168C415.404 110.055 416.766 108.033 418.747 105.795C419.987 104.995 417.057 108.09 417.301 108.347C419.987 105.167 421.752 101.814 424.588 99.0615C423.593 100.455 421.968 102.402 420.954 103.79C424.119 100.815 424.269 100.404 426.297 98.0963L426.091 98.3248L430.786 92.9908L429.509 94.3271C431.631 89.9754 435.969 86.1148 439.641 80.501C436.054 85.9549 439.35 81.4947 439.528 82.0486C440.805 80.718 442.683 78.6791 442.336 79.3131C444.036 76.6518 446.158 75.1727 448.581 71.4149C448.881 71.3064 450.872 68.7136 450.806 69.4103C453.482 66.0923 449.858 70.0956 449.895 69.7587C453.642 64.5161 460.722 58.1027 466.629 50.7356C468 49.1765 469.061 47.9258 469.963 46.8407C470.873 45.7499 471.643 44.8305 472.395 43.9282C473.878 42.1007 475.4 40.3645 478.095 37.5148C479.203 36.6296 478.93 37.0636 478.405 37.7204C477.888 38.3828 477.099 39.268 477.099 39.268C478.743 37.7832 480.189 36.4925 481.55 35.1961C482.893 33.894 484.208 32.6091 485.673 31.1814C485.184 31.8039 485.936 31.2613 487.044 30.4846C489.466 28.2288 488.161 28.7656 491.73 25.9387C491.316 26.5098 490.847 27.2637 489.795 28.4002C491.204 27.0638 492.612 25.7331 494.021 24.3911C495.467 23.0661 496.922 21.7183 498.472 20.3706C499.58 19.788 496.913 22.1409 495.965 23.1518C496.838 22.3979 497.843 21.5299 498.866 20.639C499.918 19.7595 500.998 18.8572 502.003 18.0177C503.965 16.3215 505.712 14.9223 506.097 14.3741L503.496 16.1445C504.876 15.0879 504.547 15.7733 503.599 16.5785C500.726 19.2341 498.866 20.125 498.538 20.2049L500.801 18.3089C497.439 19.7823 491.654 25.9159 487.26 29.7936C487.635 29.1597 488.03 28.5258 488.443 27.8976C487.091 29.2911 485.832 30.7245 484.518 32.1351C483.41 32.9232 482.395 33.3629 484.433 31.3813C482.715 32.7233 482.104 33.3743 481.55 33.9797C480.987 34.585 480.48 35.1333 479.006 36.2869C478.668 36.5382 478.761 36.4011 479.006 36.1384C478.076 37.0922 477.193 38.0573 476.311 39.0225C476.733 38.4171 475.362 39.3137 477.221 37.6175C474.451 40.0732 472.507 42.1692 471.014 43.8768C469.484 45.5786 468.366 46.8807 467.202 47.7659L467.568 47.3205C464.291 50.9355 464.272 51.1582 464.488 51.1639C464.704 51.1696 465.173 50.9697 462.985 53.7681C461.455 54.836 459.943 55.9154 458.45 57.0005L458.318 57.88C457.633 58.6224 456.271 60.0901 456.318 59.7474C454.224 62.66 456.957 59.342 455.868 61.0724C452.205 64.5275 447.482 71.1465 445.989 71.7176C445.275 73.1453 449.219 68.3253 446.214 72.3001C444.402 73.1396 442.599 76.8517 439.434 80.0727C439.829 78.9076 442.683 75.8123 439.519 79.0332C438.617 81.2833 433.988 85.4981 431.819 88.3649C432.316 88.6848 427.048 94.5841 423.33 99.3699C423.386 99.0158 415.601 108.153 411.564 112.419L411.564 112.259C411.46 113.299 407.422 117.748 404.577 121.009C404.333 120.757 404.727 120.135 406.155 118.324L403.394 121.363C402.934 122.145 402.182 123.127 400.389 125.103L400.652 124.19C396.933 128.21 393.478 132.419 387.937 137.313C388.04 137.759 393.29 133.767 387.937 139.175C387.515 139.284 386.932 139.335 388.313 137.913C387.853 138.376 386.792 139.609 385.702 140.471C386.35 139.729 386.961 138.969 387.59 138.221C385.017 140.431 386.651 139.541 384.622 141.322C384.35 141.162 382.923 142.562 382.97 142.202C383.449 141.734 384.838 140.688 385.477 139.957C383.176 141.956 380.284 144.326 379.11 145.012C379.486 144.909 379.523 145.183 377.871 146.662C373.476 150.431 375.993 147.787 373.241 149.9C372.387 150.905 369.26 153.161 369.616 153.424C368.274 154.503 367.823 154.606 367.184 154.966C366.095 155.965 363.287 158.17 361.146 159.889C358.987 161.596 357.503 162.83 359.118 161.887L359.775 161.425C359.663 161.516 359.531 161.625 359.39 161.739C351.784 168.09 342.159 174.223 334.017 180.231L333.886 180.145C329.087 183.766 322.899 188.049 319.641 190.728C318.166 191.773 315.913 193.058 316.373 192.527C312.682 195.285 312.401 195.668 306.71 199.465C310.26 196.61 305.17 200.293 310.429 196.576C305.395 200.036 304.043 200.722 299.207 204.731C300.606 203.24 295.094 207.181 292.915 208.94L296.559 206.564C294.024 208.494 291.751 210.156 289.46 211.858L290.202 210.693C279.806 217.792 273.919 224.628 266.096 230.093C265.101 231.201 266.369 230.167 267.674 229.111C269.017 228.071 270.388 227.004 269.524 228.003C267.374 229.745 265.148 231.515 263.195 232.949C261.298 234.405 259.777 235.57 259.148 236.135C253.513 241.052 254.922 241.115 249.447 246.415C250.292 245.787 251.41 245.318 247.804 249.436C246.884 250.373 246.142 251.126 245.55 251.686C244.949 252.246 244.498 252.606 244.217 252.771C243.653 253.097 243.766 252.64 244.752 251.395C245.541 250.464 246.01 250.041 246.048 250.104C247.128 248.854 248.546 247.214 246.931 248.648L246.668 249.208C244.686 251.018 240.123 256.369 240.883 255.016C238.648 258.042 240.151 256.375 242.095 254.227C240.949 255.45 240.029 256.563 239.137 257.608C238.705 258.134 238.282 258.642 237.859 259.145C237.474 259.653 237.089 260.155 236.714 260.658C235.953 261.663 235.193 262.674 234.366 263.765C233.587 264.867 232.742 266.038 231.765 267.357C232.469 266.54 233.258 265.821 232.667 266.66C231.202 268.585 230.497 269.807 230.009 270.589C229.54 271.377 229.37 271.743 229.267 272.04C229.061 272.622 229.07 272.891 227.577 275.609C226.535 277.111 226.497 276.797 226.366 276.791C226.253 276.791 225.952 277.088 224.675 279.87C222.703 283.193 223.736 280.475 224.262 279.099C221.952 284.187 219.426 288.51 218.111 291.417L219.079 288.699C218.515 290.326 217.895 291.64 217.407 292.993C217.755 292.502 218.074 292.005 218.449 291.514C217.726 293.085 217.238 294.432 217.069 294.375C216.731 296.049 218.271 293.227 217.416 296.523C216.43 298.613 215.435 303.01 214.665 303.684C215.219 302.011 215.463 301.223 215.538 300.886C215.604 300.549 215.482 300.663 215.332 300.806C215.041 301.097 214.674 301.514 215.595 298.676C215.304 299.778 214.797 301.103 214.243 302.702C214.102 302.936 214.196 302.462 214.289 302.017C211.81 308.39 213.998 305.043 212.177 311.714C212.055 310.834 211.181 313.204 210.984 314.307C211.641 311.605 211.848 313.067 211.501 315.563C210.289 319.835 210.655 320.246 210.186 322.49C210.383 321.634 210.599 320.783 210.834 319.932C210.956 320.823 210.515 322.97 210.045 325.974C209.735 326.214 210.383 323.244 210.064 324.301C209.998 327.664 208.139 331.788 207.857 336.459C207.341 338.601 207.209 336.636 206.796 338.521C206.655 341.142 206.373 342.547 206.082 343.986C205.782 345.425 205.481 346.899 205.359 349.651C205.979 348.087 205.894 347.807 205.913 351.685C206.129 348.675 206.355 345.665 206.627 342.656L206.599 348.469C206.89 345.751 206.993 342.718 207.265 341.091C207.294 343.861 207.218 343.575 207.744 342.29C206.617 345.979 207.256 349.68 206.373 353.963L205.284 353.792C204.12 360.245 204.739 365.305 203.613 373.683L204.073 370.993C204.401 372.135 203.622 376.173 203.5 378.897C203.152 378.629 202.852 380.325 202.476 381.467C202.777 381.341 201.734 387.595 202.354 388.389C202.035 389.628 201.706 390.862 201.359 392.101C200.166 398.834 201.265 399.862 199.875 406.332C199.856 404.356 199.049 407.275 199.575 402.923C199.199 405.082 198.683 407.012 198.946 407.069C198.485 408.308 198.138 413.083 197.265 415.025C197.19 415.944 197.49 416.275 196.823 418.685C196.673 418.942 196.645 418.657 196.645 418.657C196.823 418.685 195.762 422.443 196.795 420.387C195.311 423.631 193.715 428.2 192.053 432.66C190.325 437.109 188.503 441.438 186.71 444.162C184.728 448.753 182.118 454.247 179.977 458.359C180.005 458.074 179.808 458.313 180.249 457.542C178.625 460.346 178.39 461.266 178.127 462.282C177.855 463.299 177.545 464.413 175.61 467.594C173.253 470.763 177.16 464.116 175.826 466.12C174.192 466.783 171.751 473.91 168.671 478.09L169.187 477.028C166.962 480.249 165.14 485.172 162.088 490.563C162.088 490.563 162.126 490.277 161.928 490.494C160.482 494.309 156.895 501.362 154.407 506.634C154.792 504.92 155.393 504.212 154.407 505.114C153.27 507.473 155.477 504.56 153.261 509.283C152.228 510.757 150.397 514.121 149.674 514.486C150.388 513.001 151.054 511.511 151.796 510.037C150.031 512.196 149.017 515.794 147.852 518.13L147.711 517.781C144.725 524.657 145.373 524.863 142.453 532.287L142.95 531.55C142.143 535.714 141.279 534.908 140.434 539.054C140.049 539.437 139.664 539.82 139.307 540.202C139.147 540.888 138.931 541.824 138.678 542.927C138.556 543.475 138.415 544.069 138.274 544.691C138.152 545.314 138.03 545.965 137.898 546.633C137.335 549.3 136.884 552.247 136.433 554.697C136.433 553.292 136.696 551.145 137.044 548.906C137.457 546.673 137.88 544.343 138.283 542.567C137.842 543.909 137.26 546.205 136.762 548.346C136.264 550.488 135.992 552.481 136.001 553.2C136.171 552.104 136.293 550.711 136.649 549.643C136.499 553.018 135.757 557.398 135.156 562.823C134.846 562.566 134.499 563.32 134.264 564.662C134.058 566.004 133.795 567.935 133.71 570.019C133.673 571.064 133.626 572.144 133.579 573.212C133.513 574.28 133.579 575.33 133.541 576.313C133.541 577.295 133.494 578.214 133.447 579.008C133.429 579.802 133.382 580.476 133.278 580.973C133.87 585.799 134.565 590.567 135.504 595.524C136.424 600.481 137.701 605.621 139.626 611.121C139.41 607.077 140.725 614.336 141.655 613.502C142.669 616.038 143.016 617.014 143.026 617.249C143.814 619.841 144.603 622.446 145.505 625.027C145.965 626.894 144.228 622.663 144.077 622.931C146.397 628.482 144.566 625.335 145.927 629.042C146.002 628.225 147.326 630.875 148.688 634.027C148.143 632.531 147.636 631.023 147.139 629.516C151.299 637.106 149.298 636.335 153.787 643.93L152.191 641.566C153.261 643.53 155.224 647.145 157.186 650.755C159.205 654.353 161.337 657.91 162.83 659.738C163.083 660.458 163.29 661.428 162.267 659.727C167.3 669.098 174.756 680.309 178.033 687.699L177.385 687.042C178.399 688.772 179.479 689.989 180.343 692.227C180.174 692.136 179.714 691.576 180.118 692.387C180.672 693.295 182.963 696.95 183.902 699.315L182.634 697.379C184.681 702.005 186.531 705.5 188.222 708.823C189.095 710.485 189.912 712.101 190.72 713.792C191.555 715.477 192.297 717.247 193.086 719.2C192.701 719.24 193.077 721.113 193.649 723.432C193.94 724.591 194.26 725.865 194.56 727.087C194.861 728.303 195.18 729.457 195.377 730.388L195.227 730.268C196.692 735.75 197.819 740.428 198.917 745.008C200.007 749.588 200.946 754.094 201.8 759.24C201.781 762.46 202.317 767.886 202.871 773.808C203.425 779.73 204.026 786.138 204.289 791.312C204.289 789.73 204.955 791.546 205.228 793.379C205.303 795.807 206.514 800.056 205.716 799.701L205.632 798.839C205.087 800.695 205.838 805.675 206.364 809.564L207.434 810.158C207.406 815.275 208.589 821.934 210.017 827.988C210.759 831.014 211.472 833.893 212.073 836.36C212.74 838.827 213.134 840.894 213.247 842.305C213.735 843.504 214.214 844.858 214.684 846.211C215.21 847.553 215.726 848.895 216.252 850.078L215.689 850.015C216.825 853.373 217.726 855.886 218.881 858.57C219.163 859.244 219.454 859.929 219.755 860.637C220.093 861.345 220.431 862.082 220.806 862.859C221.182 863.635 221.576 864.458 221.999 865.343C222.469 866.217 222.966 867.153 223.501 868.164L222.281 866.582C223.473 868.867 224.534 870.249 225.736 871.545C226.319 872.196 226.901 872.836 227.483 873.572C227.774 873.938 228.065 874.332 228.366 874.76C228.676 875.183 229.004 875.645 229.333 876.159L229.38 877.57C231.821 881.471 234.516 885.343 237.381 889.152C240.357 892.927 243.494 896.65 247.203 900.105C246.996 900.025 246.593 899.877 245.466 898.712C246.245 899.568 247.391 900.831 248.658 902.218C249.973 903.589 251.41 905.08 252.743 906.422C255.485 909.066 257.777 911.093 257.608 910.311C257.335 910.476 259.288 912.264 261.824 914.48C264.416 916.667 267.646 919.254 269.947 921.007L268.848 920.625C273.027 923.469 273.299 923.492 278.661 927.649C279.863 928.666 279.421 928.677 277.872 927.306C281.835 930.716 281.487 929.717 286.417 933.788L284.239 932.435C288.568 935.827 288.389 935.479 291.113 937.169C294.042 939.197 299.479 943.514 299.789 944.182C300.625 944.514 303.376 946.17 305.959 948.151C306.184 948.483 305.123 947.82 304.588 947.489C311.912 953.108 316.401 955.364 321.284 959.311C321.265 959.459 321.538 959.733 321.941 960.064C315.856 955.747 310.983 952.246 311.471 952.555C311.105 952.743 315.95 956.278 311.537 953.76C315.753 956.427 323.115 960.898 327.745 964.382C327.942 964.565 328.13 964.742 328.252 964.896L327.716 964.565C328.787 965.37 329.811 966.049 330.806 966.683C332.271 967.803 333.2 968.511 334.656 969.556C334.91 970.116 340.102 973.651 342.497 975.41C342.704 975.056 345.802 977.386 343.173 975.067C343.53 975.358 342.666 974.759 341.041 973.605C340.666 973.348 340.234 973.04 339.962 972.88C340.018 972.908 340.093 972.943 340.159 972.983C338.553 971.84 336.45 970.35 334.074 968.659C336.215 969.927 338.393 971.281 340.863 973.331C342.365 974.096 343.999 974.953 344.892 975.444C347.652 978.128 353.634 982.948 354.141 983.776C357.878 986.426 362.095 989.636 366.011 992.582C367.936 994.067 369.814 995.472 371.504 996.723C373.175 997.974 374.697 999.053 375.964 999.852C377.965 1001.42 377.899 1001.82 378.472 1002.47C377.298 1001.58 376.04 1000.45 375.317 1000C377.298 1001.58 380.143 1003.95 382.538 1006.05C384.989 1008.13 387.008 1009.94 387.731 1010.22C389.825 1012.37 389.064 1011.83 388.557 1011.47C388.303 1011.3 388.116 1011.16 388.379 1011.43C388.651 1011.69 389.355 1012.37 390.858 1013.82L389.881 1013.1C395.281 1019.01 400.154 1023.62 405.018 1028.49C409.873 1033.35 414.709 1038.44 419.677 1045.33C418.982 1044.38 418.625 1043.91 418.569 1043.68C430.833 1059.09 444.777 1075.17 457.192 1090.32C460.779 1094.61 461.652 1094.92 464.272 1097.39L464.629 1098.46C466.197 1099.85 467.737 1101.24 469.333 1102.61C470.939 1104.1 472.291 1105.54 473.606 1106.96C474.94 1108.38 476.17 1109.79 477.494 1111.25C478.846 1112.69 480.245 1114.19 481.898 1115.77C483.588 1117.33 485.429 1119.02 487.757 1120.78L486.978 1119.7C488.49 1121.03 490.903 1123.13 492.96 1124.81C495.007 1126.5 496.556 1127.82 496.115 1127.67C496.481 1127.92 497.486 1128.38 498.594 1129.45L498.453 1129.64C499.862 1130.66 501.233 1131.69 502.679 1132.68L507.008 1135.67C510.191 1138.07 509.74 1137.99 509.647 1138.19C509.6 1138.29 509.656 1138.45 510.323 1139.02C510.999 1139.58 512.248 1140.57 514.764 1142.24C515.713 1142.85 516.896 1143.57 518.107 1144.3C519.337 1145.01 520.633 1145.72 521.751 1146.32C523.986 1147.53 525.563 1148.31 524.915 1147.82C523.375 1146.84 521.103 1145.26 521.197 1145.06L524.803 1147.19C526.07 1147.22 529.348 1148.5 521.281 1142.89L515.131 1139.28L513.647 1137.85C515.196 1138.96 516.83 1140.02 518.445 1141.09C517.225 1140.09 516.098 1139.35 515.055 1138.68C514.013 1138.01 513.008 1137.43 511.975 1136.82C511.703 1136.41 511.036 1135.8 510.003 1134.98L504.059 1131.35C503.702 1130.74 506.933 1132.88 503.599 1130.13C500.895 1128.38 505.299 1132.23 501.12 1129.19C498.941 1127.07 499.89 1127.55 496.791 1125.32C496.575 1124.9 497.289 1125.35 498.491 1126.25C497.12 1125.25 495.42 1123.88 493.871 1122.64C492.359 1121.38 490.969 1120.26 490.143 1119.78C488.086 1117.5 482.001 1112.53 482.95 1112.47C482.508 1112.16 481.353 1111.24 480.039 1110.16C478.743 1109.07 477.325 1107.8 476.273 1106.79C478.592 1108.49 476.63 1106.6 474.432 1104.32C473.334 1103.19 472.151 1101.96 471.371 1101.07C470.601 1100.16 470.216 1099.59 470.686 1099.75C467.211 1097.25 460.882 1089.72 456.074 1084.79C456.384 1085.05 456.994 1085.57 457.342 1086.03C454.919 1083.16 454.44 1082.26 453.022 1080.37C452.046 1080.21 448.111 1075.78 445.688 1073.49C443.378 1069.77 448.243 1075.4 447.933 1074.1C447.538 1074.45 442.298 1068.13 442.852 1069.47C441.012 1066.64 441.115 1067.08 440.514 1065.52C439.303 1065.29 438.298 1063.04 435.95 1060.94C433.133 1056.89 435.894 1059.7 432.11 1055.47C430.673 1053.34 434.119 1057.08 434.119 1057.08L434.176 1057.12ZM328.984 962.223C330.055 962.966 330.956 963.599 331.538 964.005C331.003 963.634 330.261 963.12 328.975 962.229L328.984 962.223ZM318.673 954.919C319.922 955.81 321.481 956.923 323.125 958.094C323.35 958.42 322.815 958.22 321.782 957.483C322.439 957.831 320.091 956.072 318.673 954.919ZM337.661 971.829C335.98 970.698 335.52 970.27 335.379 970.064C336.158 970.607 337.069 971.241 338.262 972.069C338.318 972.097 338.44 972.154 338.506 972.183C338.271 972.114 338.027 972.023 337.661 971.829Z" fill="white"/>
<path d="M217.501 840.055L217.37 840.084L217.708 840.895L217.501 840.055Z" fill="white"/>
<path d="M213.951 321.571C213.904 321.805 213.876 322.039 213.848 322.245C213.651 323.832 213.811 322.753 213.951 321.571Z" fill="white"/>
<path d="M255.185 243.211C254.518 243.999 253.861 244.77 253.128 245.581C254.415 244.325 255.401 243.348 255.185 243.211Z" fill="white"/>
<path d="M201.688 414.356C201.688 414.356 201.688 414.356 201.688 414.345C201.631 414.545 201.594 414.716 201.537 414.916L201.697 414.356L201.688 414.356Z" fill="white"/>
<path d="M249.936 248.916C251.231 247.66 252.208 246.58 253.128 245.581C252.048 246.603 250.856 247.831 249.936 248.916Z" fill="white"/>
<path d="M188.419 439.13L189.302 438.507C189.893 436.891 189.395 436.451 188.419 439.13Z" fill="white"/>
<path d="M142.49 531.431C141.833 532.419 140.622 535.046 140.377 536.736C141.11 534.606 142.18 532.527 142.49 531.431Z" fill="white"/>
<path d="M207.463 815.064L206.974 813.14L207.688 816.783L207.463 815.064Z" fill="white"/>
<path d="M224.309 162.934L225.558 162.054C225.201 162.288 224.779 162.591 224.309 162.934Z" fill="white"/>
<path d="M111.859 251.27C112.507 250.511 112.732 250.18 112.723 250.128C112.122 250.831 111.662 251.425 111.859 251.27Z" fill="white"/>
<path d="M97.6792 268.408C97.9515 268.031 98.1862 267.711 98.4398 267.374C98.1111 267.757 97.7918 268.151 97.6792 268.408Z" fill="white"/>
<path d="M224.309 162.933L221.069 165.177C221.004 165.417 222.778 164.052 224.309 162.933Z" fill="white"/>
<path d="M245.776 145.023C245.653 145.046 245.466 145.132 245.297 145.24C245.353 145.263 245.531 145.178 245.776 145.023Z" fill="white"/>
<path d="M80.983 302.046C81.0112 301.977 81.0206 301.955 81.0393 301.892C81.2835 300.978 81.1051 301.492 80.983 302.046Z" fill="white"/>
<path d="M8.48892 617.021C8.05696 615.211 8.74246 616.638 9.35284 617.838C10.0008 619.031 10.5454 620.002 9.74724 617.301C9.72846 617.832 7.1367 612.544 8.48892 617.021Z" fill="white"/>
<path d="M9.74724 617.295L9.59699 616.735C9.66273 616.969 9.70029 617.095 9.74724 617.295Z" fill="white"/>
<path d="M68.8412 382.313C68.9539 382.154 69.0572 381.839 69.1698 381.508C69.1135 381.531 69.029 381.714 68.8412 382.313Z" fill="white"/>
<path d="M76.87 322.52L76.5225 323.993C76.6822 323.411 76.7855 322.937 76.87 322.52Z" fill="white"/>
<path d="M64.3901 413.237C64.1741 414.031 64.0145 414.294 63.7985 415.385C63.8549 415.288 63.8924 415.191 63.9488 415.059C63.9769 414.659 64.099 414.14 64.3901 413.237Z" fill="white"/>
<path d="M53.0277 444.751C53.1404 444.591 53.2718 444.38 53.3939 444.197C53.5254 443.889 53.685 443.523 53.8165 443.203L53.0277 444.751Z" fill="white"/>
<path d="M68.1839 414.923C67.6956 416.625 67.2636 418.332 66.7189 420.028C67.2166 418.606 67.6862 416.75 68.1839 414.923Z" fill="white"/>
<path d="M81.2741 829.53L81.584 830.689C81.4995 830.238 81.3962 829.827 81.2741 829.53Z" fill="white"/>
<path d="M61.5448 435.082C61.0002 435.95 60.5213 436.887 60.0329 437.857C59.986 438.069 59.9109 438.314 59.9109 438.457C60.4931 437.338 61.0002 436.207 61.5448 435.082Z" fill="white"/>
<path d="M300.832 1057.12C297.245 1052.72 298.531 1055.24 297.414 1054.42C292.925 1049.23 295.874 1051.85 294.719 1049.97C291.854 1046.75 289.188 1044.43 287.169 1041.99C287.122 1041.78 286.755 1041.29 287.347 1041.81C283.957 1038.52 278.586 1031.62 274.379 1027.87C274.163 1027.56 274.078 1027.39 274.06 1027.3C274.341 1028.04 274.116 1028.24 273.778 1028.19C272.003 1026.27 270.144 1024.74 269.853 1023.89C270.942 1025.07 271.177 1025.12 271.806 1025.63C271.13 1024.98 270.472 1024.32 269.778 1023.67C269.214 1022.67 269.909 1023.34 270.792 1024.24C271.656 1025.14 272.717 1026.28 272.933 1026.21C271.064 1024.27 268.885 1022.21 266.876 1020.25C264.829 1018.31 262.941 1016.46 261.533 1014.96C261.514 1014.12 268.51 1021.83 265.139 1017.69C266.585 1019.25 267.975 1020.82 269.355 1022.39C266.885 1018.54 271.956 1025.23 269.815 1021.65C264.153 1015.5 263.026 1014.94 256.978 1008.94C255.269 1007.72 257.007 1009.55 255.297 1008.34C250.527 1004.28 248.987 1002.54 247.738 1001.08C247.118 1000.34 246.564 999.676 245.691 998.837C244.799 998.009 243.569 997.009 241.616 995.604C240.526 994.908 239.615 994.502 238.395 993.72C237.165 992.943 235.643 991.772 233.164 989.642L235.531 990.779C228.704 985.376 230.807 988.089 223.858 982.349C225.408 983.212 229.54 986.432 228.554 985.593C224.272 981.761 224.873 983.2 221.201 980.447L220.929 979.631C213.294 974.068 204.439 968.186 195.772 962.161C196.391 962.424 198.007 963.383 196.157 961.887C185.095 954.354 173.112 945.525 163.328 937.85L159.064 935.177C158.182 934.503 157.609 933.835 158.651 934.52C154.923 931.488 158.172 934.503 156.135 933.161C153.918 931.482 153.496 930.808 155.008 931.819C151.402 929.295 146.462 925.611 141.683 921.796C136.959 917.958 132.386 913.989 129.494 910.945L130.874 912.03C129.682 910.871 128.668 909.997 127.766 909.266C126.893 908.524 126.113 907.924 125.353 907.336C124.592 906.748 123.85 906.16 123.043 905.446C122.263 904.726 121.428 903.864 120.46 902.739L121.371 903.544C116.422 898.433 111.436 892.973 107.257 887.662C103.06 882.356 99.7733 877.182 97.651 872.853C96.8153 872.122 95.2565 869.347 93.9606 866.651C93.2845 865.309 92.6271 863.99 92.1107 862.968C91.566 861.946 91.0871 861.232 90.7303 861.095C89.5283 857.782 89.256 856.577 88.7771 855.053C88.3921 853.511 87.7066 851.66 86.345 846.972C85.9318 845.727 85.4904 844.813 84.9927 843.825C84.5044 842.837 83.9316 841.78 83.4527 840.233L84.0067 840.096L82.2695 835.932L82.4104 833.614C82.1287 832.643 81.8282 831.672 81.5746 830.701C81.8 831.872 81.9033 833.203 81.6967 833.037C81.3492 831.9 81.0488 830.633 80.814 829.365C80.5792 828.097 80.3539 826.835 80.2318 825.71C79.9782 823.46 79.9031 821.764 80.0346 821.695L78.8702 816.27L77.8278 810.833C78.0814 811.061 78.4382 812.883 78.8044 814.316C77.3583 808.531 79.2458 813.231 77.9781 807.92C77.9405 808.64 77.5837 807.549 77.4522 807.435C77.4522 804.756 76.7385 798.697 76.1469 794.203L76.6353 795.048C75.884 786.933 74.8135 777.938 73.8369 768.806C73.9965 772.09 73.2265 771.365 72.8791 768.686L73.3768 767.59C72.8133 765.876 73.4519 770.394 72.5974 766.864C72.2781 763.455 73.0293 764.54 73.4519 766.493L72.757 762.358C72.9073 762.107 73.1232 763.072 73.3768 763.318C72.804 761.633 73.0857 756.128 72.0621 753.706L72.2124 753.461C71.5363 748.898 70.8883 745.585 70.231 742.49C69.8835 740.942 69.5455 739.446 69.1886 737.876C68.8036 736.305 68.3905 734.66 67.9303 732.81C67.3481 732.719 66.7659 729.812 65.6766 727.664C64.2962 722.239 62.559 716.208 59.7982 709.806C57.5915 705.352 58.7934 708.561 57.6196 706.591C57.9671 706.18 54.9715 699.835 56.8308 703.073C55.0279 699.258 53.8071 696.837 52.3986 694.176C51.7037 692.845 50.9524 691.451 50.0322 689.807C49.1213 688.156 48.0414 686.255 46.6798 683.89C47.046 684.964 47.5813 686.14 47.1024 685.569C46.1164 683.856 45.1961 681.6 45.5435 681.806L45.8346 682.251C39.3928 671.709 33.5238 657.431 28.0867 649.133L28.3872 649.602C26.6594 646.701 24.9597 643.794 23.2882 640.881C21.335 636.798 24.8564 643.257 23.6357 640.19C18.1047 630.79 16.4708 625.062 12.8085 617.181C12.339 613.988 10.2825 608.517 8.57344 602.721C6.82682 596.93 5.52155 590.808 5.42764 586.542L5.15532 587.05C4.56372 584.868 4.95812 584.383 4.92056 582.761C4.64824 583.001 4.87361 585.16 4.52616 583.8C3.99091 579.146 3.74676 574.4 4.01908 569.614C4.32896 564.829 4.95812 560.009 6.00046 555.2C7.07097 550.391 8.39502 545.594 10.0289 540.843C11.6817 536.097 13.5034 531.386 15.5036 526.743C18.4991 519.969 15.4003 522.602 20.1612 514.196L19.5978 516.72C25.2696 502.934 33.9839 489.016 40.7075 475.67C40.407 476.486 40.5666 476.543 39.8529 477.834C41.8437 475.133 45.5717 467.497 45.2336 467.377C46.3981 465.321 45.8065 466.96 46.6798 465.727C48.4546 462.963 49.8913 458.548 51.0839 457.126C51.2905 456.886 50.8116 457.949 50.5768 458.468C51.3562 456.595 54.9809 449.873 53.6099 451.552C56.3237 446.561 57.9765 441.861 60.0048 437.846C60.2771 436.476 61.2349 434.305 62.0425 432.347C62.8125 430.382 63.4792 428.64 63.2351 428.166C63.5825 428.406 64.531 426.167 65.4512 423.449C65.8644 422.084 66.2776 420.605 66.625 419.257C66.9443 417.909 67.1603 416.687 67.2824 415.859C67.2542 416.984 68.2871 413.026 68.3153 414.346C68.7473 412.461 69.1323 410.656 69.3201 409.4C69.4797 408.138 69.4797 407.43 69.198 407.744C71.6677 400.874 70.8601 393.741 72.6819 389.897C73.7054 378.658 74.2782 368.276 75.0858 358.196C75.8934 358.59 74.0904 369.338 75.0201 368.938C75.6117 359.361 75.3581 353.821 76.6822 344.37C77.0954 341.925 76.8794 345.775 76.9263 346.608C77.6963 337.065 79.396 328.213 80.7389 319.767C80.814 319.795 80.7013 320.709 80.5792 321.572C80.9079 319.91 81.5276 317.728 81.1051 317.882L80.8609 319.51C80.2975 320.812 80.3632 319.144 80.5416 317.106C80.7482 315.073 81.1145 312.668 81.0018 312.508C81.2178 313.965 81.753 311.892 82.3822 310.041C82.9926 308.185 83.5841 306.552 83.6687 308.842C83.8846 307.751 84.0912 306.369 83.772 306.592C84.3354 304.993 84.6359 304.502 84.4293 306.164C86.0163 300.264 84.9833 302.303 86.8051 296.992C86.9647 297.032 86.6736 298.111 86.7018 298.688C86.9553 297.317 87.3215 295.958 87.8004 294.382C88.2512 292.8 88.9742 291.012 89.9978 288.808C89.9978 289.094 90.3546 288.602 89.7912 289.922C90.5518 288.008 91.3406 286.255 92.0543 284.548C92.7304 282.834 93.538 281.207 94.2892 279.539C94.4864 279.122 94.6742 278.705 94.8714 278.288C95.0874 277.872 95.3034 277.455 95.5288 277.032C95.9795 276.193 96.449 275.336 96.9279 274.451C97.9045 272.692 99.1347 270.87 100.487 268.871C100.121 270.15 100.571 269.471 101.341 268.466C102.102 267.461 103.097 266.107 103.558 265.981C104.45 264.537 105.501 263.132 106.487 261.71L104.891 263.309C106.3 261.47 107.483 259.694 108.788 258.026C109.417 257.187 110.046 256.37 110.694 255.565C111.361 254.771 112.065 254 112.788 253.246C112.103 254.165 111.37 255.073 110.722 255.999C111.643 254.862 112.638 253.743 113.596 252.618C114.544 251.487 115.549 250.373 116.573 249.266L114.704 251.099L112.91 252.96C114.347 251.093 114.065 251.122 113.972 251.036C113.868 250.945 113.972 250.733 116.272 248.403C115.859 248.894 116.685 248.009 117.887 246.787C119.118 245.576 120.751 244.04 121.822 243.195L121.822 243.206C122.554 242.304 123.381 241.407 124.329 240.419C125.296 239.431 126.367 238.335 127.832 237.118C128.733 236.542 127.907 237.901 128.499 237.53C129.766 235.662 137.128 229.574 139.119 227.336C138.434 228.072 138.687 228.238 139.016 228.038L140.237 226.513C142.18 225.04 142.537 224.851 142.462 225.205C148.115 220.688 139.955 226.319 146.923 221.071C146.425 221.505 146.725 221.328 145.692 222.236C152.557 216.907 158.67 211.79 165.365 207.073C167.826 205.925 159.825 211.345 162.482 209.946C171.704 202.944 181.442 195.354 190.889 188.832L189.095 190.032C189.63 188.724 196.41 185.32 200.758 181.791C199.659 182.636 199.669 183.081 199.894 182.819C206.383 178.353 212.749 173.47 221.896 166.354L220.929 167.319C224.769 164.692 230.591 160.169 234.488 157.2C235.437 156.217 237.597 154.493 236 155.412C242.423 151.026 247.644 146.412 252.415 141.826C257.185 137.234 261.514 132.694 266.35 128.399C265.308 129.467 264.049 131.015 264.885 130.164C266.096 128.885 267.298 127.6 268.463 126.303C269.637 125.013 270.82 123.722 271.956 122.42C271.017 122.9 270.81 123.362 268.989 124.87C269.702 123.825 271.505 121.586 273.261 119.673C270.332 123.225 273.919 119.856 275.468 118.411C275.13 118.628 275.459 118.063 275.224 118.154C279.497 114.31 275.102 117.234 280.407 111.815L280.351 112.175C282.07 110.062 283.431 108.04 285.413 105.801C286.652 105.002 283.722 108.097 283.966 108.354C286.652 105.173 288.417 101.821 291.253 99.068C290.258 100.461 288.633 102.409 287.619 103.797C290.784 100.821 290.934 100.41 292.962 98.1028L292.756 98.3313L297.451 92.9973L296.174 94.3336C298.296 89.9819 302.635 86.1213 306.306 80.5075C302.719 85.9614 306.015 81.5012 306.194 82.0551C307.471 80.7245 309.349 78.6857 309.001 79.3253C310.701 76.664 312.823 75.1849 315.246 71.4271C315.546 71.3186 317.537 68.7258 317.471 69.4225C320.148 66.1045 316.523 70.1078 316.561 69.7709C320.307 64.5283 327.388 58.1149 333.294 50.7478C334.665 49.1887 335.726 47.938 336.628 46.8529C337.539 45.7621 338.309 44.8427 339.06 43.9404C340.544 42.1129 342.065 40.371 344.76 37.527C345.868 36.6418 345.596 37.0758 345.07 37.7326C344.553 38.3951 343.765 39.2802 343.765 39.2802C345.408 37.7954 346.854 36.5047 348.216 35.2083C349.559 33.9062 350.873 32.6213 352.338 31.1935C351.85 31.816 352.601 31.2735 353.709 30.4968C356.132 28.241 354.827 28.7778 358.395 25.9509C357.982 26.522 357.512 27.2758 356.461 28.4123C357.869 27.076 359.278 25.7454 360.686 24.4033C362.132 23.0784 363.588 21.7306 365.137 20.3828C366.245 19.8003 363.578 22.1532 362.63 23.164C363.503 22.4102 364.508 21.5421 365.532 20.6512C366.583 19.7717 367.663 18.8694 368.668 18.0299C370.631 16.3337 372.377 14.9345 372.762 14.3863L370.161 16.1567C371.542 15.1002 371.213 15.7855 370.264 16.5907C367.391 19.2463 365.532 20.1372 365.203 20.2171L367.466 18.3211C364.104 19.7946 358.32 25.9281 353.925 29.8058C354.301 29.1719 354.695 28.5379 355.108 27.9097C353.756 29.3032 352.498 30.7367 351.183 32.1473C350.075 32.9354 349.061 33.3752 351.099 31.3935C349.38 32.7355 348.77 33.3865 348.216 33.9919C347.652 34.5973 347.145 35.1455 345.671 36.2991C345.333 36.5504 345.427 36.4134 345.671 36.1507C344.741 37.1044 343.859 38.0696 342.976 39.0347C343.398 38.4293 342.027 39.3259 343.887 37.6298C341.117 40.0912 339.173 42.1814 337.68 43.889C336.149 45.5908 335.032 46.8929 333.867 47.7781L334.233 47.3326C330.956 50.9476 330.937 51.1704 331.153 51.1761C331.369 51.1819 331.839 50.9819 329.651 53.7803C328.12 54.8482 326.608 55.9276 325.115 57.0127L324.984 57.8921C324.298 58.6346 322.937 60.1023 322.984 59.7596C320.89 62.6722 323.622 59.3542 322.533 61.0846C318.871 64.5397 314.147 71.1587 312.654 71.7298C311.941 73.1575 315.884 68.3374 312.88 72.3122C311.067 73.1517 309.264 76.8639 306.1 80.0849C306.494 78.9198 309.349 75.8245 306.184 79.0455C305.283 81.2956 300.653 85.5102 298.484 88.3771C298.982 88.6969 293.714 94.5963 289.995 99.3821C290.051 99.028 282.267 108.165 278.229 112.432L278.229 112.272C278.126 113.311 274.088 117.76 271.242 121.021C270.998 120.77 271.393 120.147 272.82 118.337L270.059 121.375C269.599 122.157 268.848 123.14 267.054 125.116L267.317 124.202C263.608 128.222 260.143 132.431 254.603 137.326C254.706 137.771 259.955 133.779 254.603 139.187C254.18 139.296 253.598 139.347 254.978 137.925C254.518 138.388 253.457 139.621 252.368 140.484C253.016 139.741 253.626 138.982 254.255 138.234C251.682 140.444 253.316 139.553 251.288 141.335C251.015 141.175 249.588 142.574 249.635 142.214C250.114 141.746 251.504 140.701 252.142 139.97C249.842 141.969 246.949 144.339 245.776 145.024C246.151 144.921 246.189 145.195 244.536 146.674C240.141 150.444 242.658 147.799 239.907 149.912C239.052 150.918 235.925 153.173 236.282 153.436C234.939 154.515 234.488 154.618 233.85 154.978C232.76 155.977 229.953 158.182 227.812 159.901C225.652 161.608 224.168 162.842 225.783 161.9L226.441 161.437C226.328 161.528 226.197 161.637 226.056 161.751C218.449 168.102 208.824 174.235 200.683 180.243L200.551 180.158C195.753 183.778 189.564 188.061 186.306 190.74C184.832 191.785 182.578 193.07 183.038 192.539C179.348 195.297 179.066 195.68 173.375 199.478C176.925 196.622 171.835 200.306 177.094 196.588C172.061 200.049 170.709 200.734 165.872 204.743C167.272 203.252 161.759 207.193 159.581 208.952L163.224 206.576C160.689 208.507 158.416 210.168 156.125 211.87L156.867 210.705C146.472 217.804 140.584 224.64 132.752 230.105C131.757 231.213 133.025 230.18 134.339 229.123C135.682 228.084 137.053 227.016 136.189 228.015C134.039 229.757 131.813 231.527 129.86 232.961C127.963 234.417 126.442 235.582 125.813 236.147C120.179 241.065 121.587 241.127 116.113 246.427C116.958 245.799 118.075 245.331 114.469 249.448C113.549 250.385 112.807 251.139 112.216 251.698C111.615 252.258 111.164 252.618 110.882 252.783C110.319 253.109 110.431 252.652 111.417 251.407C112.206 250.476 112.676 250.054 112.713 250.116C113.793 248.866 115.211 247.227 113.596 248.66L113.333 249.22C111.352 251.03 106.788 256.381 107.549 255.028C105.314 258.055 106.816 256.387 108.76 254.24C107.614 255.462 106.694 256.576 105.802 257.621C105.37 258.146 104.947 258.654 104.525 259.157C104.14 259.665 103.755 260.168 103.379 260.67C102.619 261.675 101.858 262.686 101.032 263.777C100.252 264.879 99.407 266.05 98.4304 267.369C99.1347 266.552 99.9235 265.833 99.3319 266.678C97.867 268.603 97.1627 269.825 96.6744 270.607C96.2049 271.395 96.0359 271.761 95.9326 272.058C95.726 272.64 95.7354 272.909 94.2423 275.627C93.1999 277.129 93.1624 276.815 93.0309 276.809C92.9182 276.809 92.6177 277.106 91.3406 279.888C89.3686 283.211 90.4016 280.493 90.9275 279.117C88.6174 284.205 86.0914 288.528 84.7767 291.435L85.7439 288.717C85.1805 290.344 84.5607 291.658 84.0724 293.011C84.4199 292.52 84.7392 292.023 85.1148 291.532C84.3917 293.103 83.9034 294.45 83.7344 294.393C83.3963 296.067 84.9364 293.245 84.0818 296.541C83.0958 298.631 82.1005 303.028 81.3304 303.702C81.8845 302.029 82.1286 301.241 82.2038 300.904C82.2695 300.567 82.1474 300.681 81.9972 300.824C81.7061 301.115 81.3398 301.532 82.2601 298.694C81.969 299.796 81.4619 301.121 80.9079 302.72C80.767 302.954 80.8609 302.48 80.9548 302.034C78.4758 308.408 80.6637 305.061 78.842 311.732C78.7199 310.852 77.8466 313.222 77.6494 314.324C78.3067 311.623 78.5133 313.085 78.1659 315.581C76.9545 319.853 77.3207 320.264 76.8512 322.508C77.0484 321.652 77.2644 320.801 77.4991 319.95C77.6212 320.841 77.1799 322.988 76.7104 325.992C76.4005 326.232 77.0484 323.262 76.7291 324.319C76.6634 327.682 74.8041 331.806 74.5224 336.477C74.0059 338.619 73.8745 336.654 73.4613 338.539C73.3204 341.16 73.0387 342.565 72.7476 344.004C72.4471 345.443 72.1466 346.917 72.0245 349.669C72.6443 348.105 72.5598 347.825 72.5786 351.702C72.7945 348.693 73.0199 345.683 73.2922 342.673L73.2641 348.487C73.5552 345.769 73.6585 342.736 73.9308 341.109C73.959 343.878 73.8838 343.593 74.4097 342.308C73.2828 345.997 73.9214 349.698 73.0387 353.981L71.9494 353.81C70.785 360.263 71.3954 365.323 70.2779 373.701L70.738 371.011C71.0667 372.153 70.2873 376.191 70.1652 378.915C69.8178 378.647 69.5173 380.343 69.1417 381.485C69.4422 381.359 68.3998 387.613 69.0196 388.407C68.7003 389.646 68.3717 390.879 68.0242 392.119C66.8316 398.852 67.9303 399.88 66.5405 406.35C66.5217 404.374 65.7142 407.293 66.24 402.941C65.8644 405.1 65.3479 407.03 65.6109 407.087C65.1507 408.326 64.8033 413.101 63.93 415.042C63.8549 415.962 64.1554 416.293 63.4886 418.703C63.3384 418.96 63.3102 418.675 63.3102 418.675C63.4886 418.703 62.4275 422.461 63.4605 420.405C61.9768 423.649 60.3804 428.218 58.7183 432.678C56.9905 437.127 55.1687 441.455 53.3751 444.18C51.3938 448.771 48.7832 454.265 46.6422 458.377C46.6704 458.091 46.4732 458.331 46.9145 457.56C45.29 460.364 45.0552 461.284 44.7923 462.3C44.52 463.317 44.2101 464.431 42.2757 467.612C39.9187 470.781 43.8251 464.134 42.4916 466.138C40.8577 466.801 38.4162 473.928 35.3361 478.108L35.8526 477.046C33.6271 480.267 31.8053 485.19 28.7535 490.581C28.7535 490.581 28.791 490.295 28.5938 490.512C27.1477 494.327 23.5606 501.38 21.0721 506.651C21.4571 504.938 22.0581 504.23 21.0721 505.132C19.9358 507.491 22.1426 504.584 19.9265 509.301C18.8935 510.775 17.0624 514.138 16.3393 514.504C17.053 513.019 17.7197 511.529 18.4615 510.055C16.6961 512.214 15.682 515.812 14.5176 518.148L14.3767 517.799C11.3906 524.675 12.0385 524.881 9.11808 532.305L9.62516 531.568C8.81758 535.732 7.95366 534.926 7.10853 539.072C6.72352 539.455 6.33851 539.838 5.98168 540.22C5.82204 540.906 5.60606 541.842 5.35252 542.944C5.23044 543.493 5.08959 544.087 4.94873 544.709C4.82665 545.332 4.70458 545.983 4.57311 546.651C4.00969 549.318 3.55895 552.265 3.10821 554.715C3.10821 553.31 3.37114 551.162 3.71858 548.924C4.12237 546.691 4.55433 544.361 4.95812 542.585C4.51677 543.927 3.93456 546.223 3.43687 548.364C2.93918 550.506 2.66686 552.499 2.67625 553.218C2.84527 552.122 2.96735 550.728 3.32419 549.661C3.17394 553.036 2.4321 557.416 1.83111 562.841C1.52122 562.584 1.17378 563.338 0.939018 564.68C0.732429 566.022 0.469497 567.953 0.384983 570.037C0.347421 571.082 0.300469 572.162 0.253517 573.23C0.187784 574.297 0.253517 575.348 0.215956 576.331C0.215956 577.313 0.169004 578.232 0.122051 579.026C0.103271 579.82 0.0563186 580.494 -0.0469761 580.991C0.544621 585.816 1.23951 590.585 2.17856 595.542C3.09882 600.499 4.37592 605.639 6.30095 611.139C6.08497 607.095 7.39963 614.354 8.32929 613.52C9.34345 616.056 9.6909 617.032 9.70029 617.266C10.4891 619.859 11.2779 622.463 12.1794 625.05C12.6395 626.918 10.9023 622.686 10.752 622.955C13.0715 628.506 11.2403 625.359 12.6019 629.065C12.6771 628.249 14.0011 630.898 15.3627 634.051C14.8181 632.555 14.311 631.047 13.8133 629.539C17.9733 637.129 15.9731 636.358 20.4617 643.954L18.8653 641.589C19.9359 643.554 21.8985 647.169 23.861 650.778C25.88 654.376 28.0116 657.934 29.5047 659.762C29.7582 660.481 29.9648 661.452 28.9413 659.75C33.9745 669.122 41.4305 680.332 44.7078 687.722L44.0599 687.066C45.074 688.796 46.1539 690.012 47.0178 692.251C46.8488 692.16 46.3887 691.6 46.7925 692.411C47.3465 693.319 49.6378 696.974 50.5768 699.338L49.3091 697.402C51.3562 702.028 53.2061 705.523 54.8964 708.847C55.7697 710.509 56.5867 712.125 57.3943 713.815C58.23 715.5 58.9719 717.271 59.7606 719.224C59.3756 719.264 59.7513 721.137 60.3241 723.456C60.6152 724.615 60.9345 725.888 61.235 727.111C61.5354 728.327 61.8547 729.481 62.0519 730.411L61.9017 730.292C63.3666 735.774 64.4934 740.451 65.5921 745.031C66.6814 749.612 67.6204 754.118 68.475 759.263C68.4562 762.484 68.9914 767.909 69.5455 773.832C70.0995 779.754 70.7005 786.162 70.9634 791.336C70.9634 789.754 71.6302 791.57 71.9025 793.403C71.9776 795.83 73.189 800.079 72.3908 799.725L72.3063 798.863C71.7616 800.719 72.5129 805.699 73.0387 809.588L74.1092 810.182C74.0811 815.299 75.2642 821.958 76.6916 828.011C77.4334 831.038 78.1471 833.916 78.7481 836.383C79.4148 838.851 79.8092 840.918 79.9219 842.329C80.4102 843.528 80.8891 844.881 81.3586 846.235C81.8751 847.577 82.401 848.919 82.9268 850.101L82.3634 850.038C83.4997 853.396 84.4011 855.909 85.5562 858.593C85.8379 859.267 86.129 859.952 86.4295 860.661C86.7675 861.369 87.1056 862.106 87.4812 862.882C87.8568 863.659 88.2512 864.481 88.6738 865.366C89.1433 866.24 89.641 867.177 90.1762 868.188L88.9555 866.606C90.1481 868.89 91.2092 870.272 92.4112 871.569C92.9934 872.22 93.5756 872.859 94.1578 873.596C94.4489 873.961 94.74 874.355 95.0405 874.784C95.3504 875.206 95.679 875.669 96.0077 876.183L96.0547 877.594C98.4962 881.494 101.191 885.366 104.055 889.175C107.032 892.95 110.168 896.674 113.878 900.129C113.671 900.049 113.267 899.9 112.14 898.735C112.92 899.592 114.065 900.854 115.333 902.242C116.648 903.613 118.085 905.103 119.418 906.445C122.16 909.089 124.451 911.117 124.282 910.334C124.01 910.5 125.963 912.287 128.499 914.503C131.09 916.691 134.321 919.278 136.621 921.031L135.523 920.648C139.701 923.492 139.974 923.515 145.336 927.673C146.538 928.689 146.096 928.695 144.547 927.33C148.51 930.74 148.162 929.74 153.092 933.812L150.914 932.458C155.243 935.851 155.064 935.502 157.787 937.193C160.717 939.22 166.154 943.538 166.464 944.206C167.3 944.537 170.051 946.193 172.634 948.175C172.859 948.506 171.798 947.844 171.263 947.513C178.587 953.132 183.076 955.388 187.959 959.334C187.94 959.483 188.212 959.757 188.616 960.088C182.531 955.771 177.657 952.27 178.146 952.578C177.78 952.767 182.625 956.302 178.211 953.783C182.428 956.45 189.79 960.922 194.419 964.411C194.617 964.594 194.804 964.771 194.926 964.925L194.391 964.594C195.462 965.399 196.485 966.079 197.481 966.713C198.946 967.832 199.875 968.54 201.331 969.585C201.584 970.145 206.777 973.68 209.172 975.439C209.378 975.085 212.477 977.415 209.848 975.096C210.205 975.388 209.341 974.788 207.716 973.634C207.341 973.377 206.909 973.069 206.636 972.909C206.693 972.938 206.768 972.972 206.834 973.012C205.228 971.87 203.124 970.379 200.749 968.689C202.89 969.956 205.068 971.31 207.538 973.36C209.04 974.125 210.674 974.982 211.566 975.473C214.327 978.157 220.309 982.977 220.816 983.805C224.553 986.455 228.77 989.665 232.685 992.612C234.61 994.097 236.488 995.501 238.179 996.752C239.85 998.003 241.371 999.082 242.639 999.882C244.639 1001.45 244.574 1001.85 245.146 1002.5C243.973 1001.61 242.714 1000.48 241.991 1000.03C243.973 1001.61 246.818 1003.98 249.213 1006.08C251.663 1008.16 253.682 1009.97 254.405 1010.25C256.499 1012.4 255.739 1011.86 255.232 1011.5C254.978 1011.33 254.79 1011.19 255.053 1011.46C255.326 1011.72 256.03 1012.4 257.532 1013.85L256.556 1013.13C261.955 1019.04 266.829 1023.65 271.693 1028.52C276.548 1033.38 281.384 1038.47 286.352 1045.36C285.657 1044.41 285.3 1043.94 285.244 1043.71C297.507 1059.12 311.452 1075.2 323.866 1090.35C327.454 1094.64 328.327 1094.95 330.947 1097.42L331.304 1098.49C332.872 1099.87 334.412 1101.27 336.008 1102.64C337.614 1104.13 338.966 1105.57 340.281 1106.99C341.614 1108.41 342.844 1109.82 344.168 1111.28C345.521 1112.72 346.92 1114.22 348.573 1115.8C350.263 1117.36 352.103 1119.05 354.432 1120.81L353.653 1119.73C355.165 1121.06 357.578 1123.16 359.635 1124.84C361.682 1126.53 363.231 1127.85 362.79 1127.7C363.156 1127.95 364.161 1128.41 365.269 1129.48L365.128 1129.67C366.536 1130.68 367.907 1131.72 369.354 1132.71L373.683 1135.7C376.866 1138.1 376.415 1138.02 376.321 1138.22C376.274 1138.31 376.331 1138.48 376.997 1139.05C377.674 1139.61 378.922 1140.6 381.439 1142.27C382.388 1142.88 383.571 1143.6 384.782 1144.33C386.012 1145.04 387.308 1145.74 388.426 1146.35C390.66 1147.56 392.238 1148.34 391.59 1147.85C390.05 1146.87 387.778 1145.29 387.872 1145.09L391.477 1147.22C392.745 1147.25 396.022 1148.53 387.956 1142.92L381.805 1139.31L380.322 1137.87C381.871 1138.99 383.505 1140.05 385.12 1141.12C383.899 1140.12 382.773 1139.38 381.73 1138.71C380.688 1138.04 379.683 1137.46 378.65 1136.85C378.378 1136.44 377.711 1135.83 376.678 1135.01L370.734 1131.38C370.377 1130.76 373.607 1132.91 370.274 1130.16C367.569 1128.41 371.974 1132.26 367.795 1129.22C365.616 1127.1 366.565 1127.58 363.466 1125.35C363.25 1124.93 363.963 1125.38 365.165 1126.28C363.794 1125.28 362.095 1123.91 360.545 1122.66C359.034 1121.4 357.644 1120.28 356.817 1119.81C354.761 1117.52 348.676 1112.56 349.624 1112.48C349.183 1112.18 348.028 1111.26 346.713 1110.18C345.417 1109.09 343.999 1107.82 342.948 1106.81C345.267 1108.5 343.305 1106.61 341.107 1104.34C340.009 1103.2 338.825 1101.98 338.046 1101.09C337.276 1100.18 336.891 1099.61 337.36 1099.77C333.886 1097.26 327.557 1089.74 322.749 1084.8C323.059 1085.07 323.669 1085.58 324.017 1086.04C321.594 1083.18 321.115 1082.27 319.697 1080.38C318.72 1080.22 314.786 1075.8 312.363 1073.51C310.053 1069.78 314.917 1075.41 314.607 1074.11C314.213 1074.46 308.973 1068.14 309.527 1069.48C307.687 1066.65 307.79 1067.09 307.189 1065.53C305.978 1065.31 304.973 1063.05 302.625 1060.95C299.808 1056.91 302.569 1059.71 298.785 1055.47C297.357 1053.34 300.794 1057.09 300.794 1057.09L300.832 1057.12ZM195.64 962.224C196.711 962.966 197.612 963.6 198.194 964.006C197.659 963.634 196.917 963.12 195.631 962.23L195.64 962.224ZM185.329 954.92C186.578 955.81 188.137 956.924 189.781 958.095C190.006 958.42 189.471 958.22 188.438 957.484C189.095 957.832 186.747 956.073 185.329 954.92ZM204.317 971.83C202.636 970.699 202.176 970.271 202.035 970.065C202.814 970.608 203.725 971.241 204.918 972.07C204.974 972.098 205.096 972.155 205.162 972.184C204.927 972.115 204.683 972.024 204.317 971.83Z" fill="white"/>
<path d="M207.763 973.646C208.007 973.812 208.148 973.892 208.458 974.114C208.158 973.857 207.876 973.617 207.585 973.372C207.341 973.252 207.096 973.132 206.89 973.023C207.181 973.235 207.491 973.452 207.763 973.646Z" fill="white"/>
<path d="M225.774 161.9L225.558 162.054C225.746 161.928 225.924 161.814 226.056 161.751C225.896 161.848 225.887 161.842 225.774 161.9Z" fill="white"/>
<path d="M84.157 840.056L84.0255 840.085L84.3636 840.896L84.157 840.056Z" fill="white"/>
<path d="M80.6074 321.572C80.5604 321.806 80.5323 322.04 80.5041 322.246C80.3069 323.833 80.4665 322.754 80.6074 321.572Z" fill="white"/>
<path d="M121.841 243.212C121.174 244 120.517 244.771 119.784 245.582C121.071 244.326 122.057 243.349 121.841 243.212Z" fill="white"/>
<path d="M68.3435 414.357C68.3435 414.357 68.3435 414.357 68.3435 414.346C68.2871 414.546 68.2496 414.717 68.1932 414.917L68.3529 414.357L68.3435 414.357Z" fill="white"/>
<path d="M116.591 248.917C117.887 247.661 118.864 246.581 119.784 245.582C118.704 246.604 117.512 247.832 116.591 248.917Z" fill="white"/>
<path d="M181.47 193.481L181.451 193.047C178.869 194.943 181.564 193.138 181.47 193.481Z" fill="white"/>
<path d="M156.642 213.995L159.337 212.248L160.172 211.191L156.642 213.995Z" fill="white"/>
<path d="M138.884 224.657L139.889 223.766C138.574 224.88 137.316 226.027 136.048 227.158L138.884 224.657Z" fill="white"/>
<path d="M55.0748 439.131L55.9575 438.508C56.5491 436.892 56.0514 436.452 55.0748 439.131Z" fill="white"/>
<path d="M9.14625 531.431C8.47953 532.419 7.27755 535.046 7.0334 536.736C7.76585 534.606 8.83636 532.527 9.14625 531.431Z" fill="white"/>
<path d="M74.1186 815.064L73.6303 813.14L74.344 816.783L74.1186 815.064Z" fill="white"/>
</g>
<defs>
<clipPath id="clip0_32_1502">
<rect width="1148" height="527" fill="white" transform="translate(0 1148) rotate(-90)"/>
</clipPath>
</defs>
</svg>
