<svg width="428" height="1416" viewBox="0 0 428 1416" fill="none" xmlns="http://www.w3.org/2000/svg">
<g clip-path="url(#clip0_2204_1436)">
<path d="M190.568 1311.59C190.603 1311.5 190.63 1311.61 190.657 1311.59C190.621 1312.14 190.594 1312.3 190.568 1311.59Z" fill="white"/>
<path d="M163.224 1414.68L164.175 1413.5C164.345 1413.43 164.525 1413.35 164.597 1413.42L163.224 1414.69V1414.68Z" fill="white"/>
<path d="M222.755 1081.92C221.526 1083.24 220.817 1084.1 220.288 1084.81C220.979 1083.69 212.053 1091.7 222.755 1081.92Z" fill="white"/>
<path d="M28.4814 659.936L26.9295 662.522C27.4947 661.513 28.0419 660.593 28.4814 659.936Z" fill="white"/>
<path d="M220.262 1084.82L220.279 1084.8C220.279 1084.8 220.279 1084.8 220.262 1084.82Z" fill="white"/>
<path d="M172.034 1154.82C173.756 1148.73 174.339 1147.35 174.653 1147.21C174.931 1147.06 174.833 1148.08 175.479 1146.9C178.08 1139.89 178.905 1138.38 178.888 1137.83C178.923 1137.3 178.385 1137.87 179.282 1135.47C181.426 1131.31 183.552 1127.75 185.723 1124.62C186.253 1123.82 186.764 1123.04 187.275 1122.27C187.814 1121.53 188.343 1120.8 188.872 1120.07C189.922 1118.63 190.909 1117.2 191.904 1115.78C192.129 1115.31 192.9 1114.21 191.841 1115.39C194.972 1111.61 199.359 1105.82 204.437 1100.38C205.065 1099.7 205.675 1098.98 206.312 1098.31C206.957 1097.64 207.603 1096.97 208.249 1096.31C209.55 1094.99 210.797 1093.65 212.08 1092.43C214.663 1090.01 217.068 1087.71 219.292 1085.95C219.876 1085.34 220.145 1085.01 220.27 1084.83C219.14 1086.32 219.167 1086.75 219.606 1086.68C223.634 1082.91 227.501 1080.19 228.766 1078.5C226.227 1080.71 225.904 1080.77 224.621 1081.71L229.098 1078.06C232.596 1074.18 223.015 1083.06 222.719 1082.73C227.025 1079.13 231.699 1075.22 236.113 1071.52C240.553 1067.85 244.761 1064.43 247.99 1061.59C248.484 1060.78 244.608 1063.98 241.657 1066.42C238.714 1068.86 236.705 1070.54 240.903 1066.6C237.566 1069.54 234.238 1072.51 230.981 1075.52C234.471 1071.78 232.973 1073.13 231.376 1074.55C229.806 1075.97 228.147 1077.45 231.278 1073.95C244.393 1062.22 246.519 1061.51 259.509 1049.93C262.658 1047.58 258.872 1051.16 262.03 1048.82C266.721 1044.8 269.816 1041.8 272.023 1039.4C274.239 1037.01 275.612 1035.26 276.823 1033.65C278.016 1032.03 279.092 1030.59 280.537 1028.65C280.904 1028.17 281.299 1027.66 281.721 1027.11C282.133 1026.56 282.582 1025.97 283.075 1025.33C283.578 1024.7 284.107 1024 284.663 1023.24C285.219 1022.47 285.865 1021.67 286.493 1020.75C287.92 1018.93 288.987 1017.7 290.414 1015.5C291.104 1014.38 291.903 1013.03 292.737 1011.17C293.598 1009.33 294.477 1006.97 295.348 1003.91L294.343 1005.86L293.84 1006.82L293.284 1007.76C294.711 1003.91 295.401 1001.37 295.895 999.524C296.128 998.595 296.334 997.838 296.523 997.171C296.675 996.495 296.819 995.901 296.953 995.306C297.079 994.702 297.24 994.098 297.348 993.386C297.447 992.674 297.545 991.854 297.644 990.844C297.797 988.816 297.904 985.977 297.438 981.678C297.438 982.065 297.483 982.552 297.483 983.111C297.483 983.67 297.483 984.301 297.483 984.959C297.527 986.275 297.456 987.726 297.411 988.996C297.402 990.276 297.24 991.358 297.196 991.98C297.133 992.602 297.106 992.746 297.142 992.124C297.303 986.536 297.106 984.58 297.258 982.922C297.231 981.272 297.474 979.902 296.702 975.63C296.424 975.071 296.056 974.539 295.742 973.999C294.881 969.69 293.562 965.337 291.975 960.974C291.221 958.784 290.279 956.63 289.391 954.431C288.404 952.277 287.471 950.078 286.368 947.932C282.142 939.28 276.903 930.817 271.18 922.687C271.664 923.696 273.468 926.589 270.642 922.894C267.035 917.774 263.088 912.628 258.908 907.563C254.718 902.497 250.251 897.54 245.694 892.718C236.552 883.083 226.873 874.133 217.687 866.264C215.48 864.11 213.273 861.947 211.021 859.829C209.371 858.45 207.81 857.449 209.532 859.027C202.158 853.15 209.38 858.441 206.007 855.394C201.853 851.987 200.301 851.167 202.849 853.43C199.682 850.726 195.789 847.526 191.429 844.119C189.249 842.424 187.033 840.586 184.737 838.747C182.44 836.927 180.081 835.097 177.694 833.276C168.149 826.021 158.174 819.135 150.728 814.466L153.482 816.512C142.017 809.04 141.237 807.003 130.301 800.495L132.293 801.901C119.734 793.907 106.519 785.488 94.0499 777.548C81.5893 769.562 69.9361 761.919 60.4719 755.52C58.9289 753.951 52.9094 749.634 47.3744 745.137C41.8034 740.684 36.8605 735.898 36.5555 734.826C34.9586 733.383 33.7117 732.068 32.5814 730.986C31.5049 729.841 30.5988 728.877 29.7825 728.03C28.9751 727.173 28.3292 726.353 27.6833 725.605C27.3603 725.226 27.0464 724.857 26.7324 724.487C26.4363 724.091 26.1403 723.703 25.8442 723.298C24.6152 721.693 23.3234 719.837 21.7446 716.898C21.3678 716.15 20.9641 715.348 20.5245 714.474C20.1298 713.573 19.753 712.581 19.3134 711.517C19.0802 710.986 18.9008 710.418 18.7213 709.814C18.533 709.21 18.3446 708.588 18.1472 707.939C17.9229 707.299 17.7974 706.605 17.6359 705.884C17.4834 705.163 17.3129 704.424 17.1515 703.649C16.667 700.296 16.6491 697.754 16.9182 695.068C16.981 694.401 17.0528 693.716 17.1245 693.004C17.2142 692.301 17.3578 691.571 17.4654 690.796C17.6628 689.237 18.0665 687.551 18.4343 685.542L17.9409 685.235C18.9098 681.63 20.1926 678.16 21.6728 674.807C22.22 672.932 22.7134 671.012 23.3862 669.165C23.9424 668.029 24.4986 666.884 25.1266 665.785C25.7456 664.676 26.3197 663.549 26.9836 662.477C25.5303 665.127 24.2115 668.272 24.5704 667.93C27.2347 662.648 30.9397 656.51 34.0975 651.733C37.2373 646.938 39.776 643.477 39.7401 643.261C42.6647 639.665 45.7148 636.195 48.8456 632.815C51.9675 629.417 55.188 626.136 58.4534 622.9C57.8613 623.18 54.578 626.433 52.0033 629.038C57.2513 623.846 57.646 623.306 57.8882 622.819C58.1574 622.359 58.256 621.936 63.2439 617.384C62.0418 618.745 64.1679 616.933 64.4639 616.798C65.6122 615.581 67.1642 613.968 68.9763 612.193C69.8823 611.309 70.8602 610.363 71.8739 609.38C72.8786 608.38 73.9192 607.343 74.9957 606.28C79.3287 602.035 84.1729 597.501 88.3085 593.68L86.4785 594.887C93.8166 587.848 101.666 580.574 109.273 572.715C113.068 568.776 116.8 564.693 120.299 560.385C123.788 556.077 127.045 551.534 129.718 546.694C129.252 547.568 128.866 548.316 128.552 548.938C128.211 549.551 127.942 550.047 127.754 550.425C127.377 551.191 127.287 551.516 127.449 551.453C127.745 551.318 129.09 549.668 130.696 546.802C130.974 545.955 131.153 545.072 131.369 544.215C133.558 540.601 128.543 550.434 132.777 542.863C134.419 539.024 134.589 537.618 134.356 537.789C134.23 537.87 133.97 538.339 133.647 539.051C133.306 539.763 132.795 540.691 132.311 541.764C133.755 538.762 134.787 535.608 135.567 532.408C135.522 532.102 135.415 532.525 135.199 533.066C134.984 533.616 134.724 534.292 134.544 534.553C134.715 534.076 134.894 533.463 135.092 532.742C135.217 532.002 135.352 531.164 135.504 530.254C135.738 528.415 135.845 526.261 135.702 524.08C135.585 521.899 135.226 519.681 134.76 517.69C134.598 516.68 134.257 515.752 134.033 514.877C133.8 514.003 133.611 513.192 133.378 512.507L133.001 512.065C130.956 507.126 128.238 503.187 125.636 499.826C124.937 499.014 124.246 498.221 123.573 497.455C123.232 497.067 122.918 496.68 122.568 496.31C122.21 495.95 121.86 495.598 121.51 495.247C120.81 494.544 120.128 493.85 119.455 493.165C118.765 492.489 118.038 491.867 117.347 491.227C111.714 486.171 105.981 481.907 98.2303 477.004C98.2034 476.707 96.6873 475.58 94.5433 474.228C92.3993 472.876 89.708 471.191 87.3755 469.722C75.4174 463.313 61.5304 457.41 46.3427 451.344C35.6943 446.999 43.3554 449.739 38.6277 447.612C38.1523 447.675 34.0706 446.314 31.0922 445.332C28.1139 444.359 26.221 443.809 30.1772 445.35C20.9103 442.087 14.9536 440.104 8.35101 438.013C6.70038 437.491 5.01385 436.95 3.21967 436.382C1.42548 435.832 -0.476318 435.255 -2.53964 434.624C-6.65726 433.344 -11.4746 431.965 -17.4492 430.253C-14.7939 430.758 -11.8424 431.497 -13.3227 430.929C-17.6556 429.631 -23.3162 428.522 -22.7331 428.874L-21.5938 429.216C-35.0232 425.377 -50.8389 422.141 -66.0086 419.536C-81.1874 416.904 -95.7202 414.922 -106.665 412.957L-105.436 413.173C-113.007 411.875 -120.677 410.992 -128.276 409.667C-138.816 408.279 -122.005 410.893 -129.837 410.091C-142.127 408.054 -151.887 406.963 -161.127 406.125C-170.367 405.25 -179.069 404.62 -189.269 403.574C-197.235 403.664 -211.265 402.709 -226.013 401.898C-240.761 401.068 -256.227 400.329 -266.956 400.383L-265.709 400.104C-271.236 399.599 -272.411 400.05 -276.501 399.987C-275.909 399.752 -270.482 399.906 -273.918 399.608C-297.377 398.59 -321.607 398.067 -346.008 396.859C-358.208 396.228 -370.463 395.453 -382.672 393.966C-388.772 393.263 -394.863 392.29 -400.91 391.055C-406.956 389.811 -412.958 388.198 -418.816 385.692C-423.077 383.817 -425.58 381.997 -427.32 380.554C-428.172 379.797 -428.881 379.175 -429.464 378.517C-429.76 378.202 -430.038 377.896 -430.316 377.589C-430.576 377.274 -430.837 376.958 -431.097 376.634C-432.128 375.345 -433.259 373.93 -434.802 371.505C-436.282 369.072 -438.282 365.566 -439.556 359.779C-439.359 362.014 -438.946 364.268 -438.264 366.476C-440.005 361.924 -440.642 357.057 -440.552 352.316C-440.48 347.566 -439.718 342.897 -438.596 338.373C-436.327 329.315 -432.694 320.752 -428.594 312.55C-420.296 296.155 -410.078 281.085 -399.51 267.142C-400.856 268.746 -401.035 268.683 -403.036 271.459C-401.053 268.323 -397.007 262.807 -393.329 258.147C-391.499 255.803 -389.759 253.721 -388.503 252.189C-387.256 250.648 -386.431 249.683 -386.341 249.71C-383.112 245.321 -385.839 248.512 -383.964 245.718C-379.711 239.634 -372.266 231.279 -370.22 227.899C-369.87 227.322 -371.593 229.458 -372.445 230.512C-369.323 226.826 -358.917 212.648 -361.303 216.614C-353.642 206.033 -346.349 196.605 -341.182 187.628C-339.172 184.906 -336.427 180.075 -334.292 175.622C-332.13 171.179 -330.632 167.123 -329.932 166.249C-330.201 166.393 -329.887 165.14 -329.358 163.04C-328.838 160.94 -328.156 157.984 -327.842 154.748C-327.716 153.135 -327.627 151.449 -327.734 149.8C-327.842 148.15 -328.048 146.519 -328.425 145.014C-329.152 141.994 -330.425 139.471 -331.421 137.83C-330.838 138.984 -331.744 137.587 -332.803 136.379C-333.87 135.171 -335.01 134.126 -334.121 135.334C-337.019 132.107 -340.581 129.673 -343.128 128.114C-345.694 126.555 -347.174 125.762 -346.367 125.906L-347.802 125.311L-349.3 124.824C-350.296 124.491 -351.283 124.148 -352.27 123.815C-354.297 123.211 -356.306 122.616 -358.289 122.021C-360.307 121.498 -362.299 120.985 -364.246 120.48C-366.219 120.038 -368.148 119.615 -370.023 119.191C-377.559 117.677 -384.287 116.676 -389.176 116.857C-402.964 115.261 -416.384 114.657 -429.446 114.576C-442.517 114.504 -455.246 114.982 -467.779 115.802C-467.303 116.136 -460.378 115.721 -453.703 115.351C-450.366 115.216 -447.083 115.09 -444.706 115.054C-442.328 115.009 -440.848 115.126 -441.117 115.333C-453.004 115.559 -462.387 115.838 -471.735 116.442C-474.067 116.595 -476.409 116.712 -478.777 116.911C-481.145 117.118 -483.549 117.334 -486.034 117.551C-491.004 117.974 -496.252 118.632 -502.119 119.335C-505.151 119.777 -504.272 119.759 -502.388 119.606C-500.495 119.47 -497.589 119.272 -496.557 119.2C-520.249 121.552 -542.12 125.671 -563.005 129.277C-562.933 129.34 -560.672 128.988 -558.537 128.637C-562.646 129.412 -568.046 130.611 -567.661 130.151L-563.642 129.475C-560.421 128.583 -564.548 129.078 -569.571 129.826C-574.595 130.62 -580.516 131.638 -580.919 131.575C-577.331 131.377 -582.462 132.467 -587.038 133.621C-591.622 134.748 -595.686 135.784 -590.043 135.216C-592.743 135.748 -596.143 136.325 -595.587 135.946C-599.552 136.92 -600.772 137.38 -596.681 136.704C-611.286 139.966 -606.226 138.272 -619.387 141.571C-619.297 141.733 -616.624 141.138 -615.215 141.003C-618.588 141.67 -621.97 142.319 -625.891 143.193C-629.802 144.103 -634.26 145.221 -639.786 146.744C-639.096 146.672 -640.343 147.15 -637.032 146.276C-646.55 148.799 -654.696 150.8 -663.039 153.035C-665.12 153.594 -667.228 154.153 -669.363 154.73C-671.49 155.343 -673.661 155.965 -675.894 156.605C-680.353 157.902 -685.071 159.327 -690.194 161.039C-683.878 159.876 -697.128 163.482 -698.025 164.464L-709.131 167.871L-704.798 166.113C-714.478 169.268 -723.162 171.657 -731.379 174.694C-728.966 173.946 -726.553 173.234 -724.131 172.522C-730.186 174.478 -736.179 176.578 -742.207 178.606L-732.088 174.829C-741.938 177.876 -731.325 173.657 -744.064 178.29C-741.444 177.425 -753.654 181.733 -758.516 183.905H-758.48C-763.28 185.447 -768.232 187.006 -775.22 189.809C-776.978 190.701 -773.488 189.944 -774.628 190.53C-777.05 191.152 -782.639 193.216 -788.38 195.379C-794.104 197.569 -799.989 199.796 -803.03 200.679C-801.029 200.03 -800.796 200.327 -801.415 200.643L-805.461 201.76C-809.794 203.644 -810.404 203.969 -809.587 203.942C-822.73 209.295 -805.73 201.436 -821.205 208.106C-819.967 207.637 -820.523 207.944 -817.948 206.97C-833.567 213.487 -848.279 219.174 -862.48 225.51C-864.453 226.727 -861.322 225.42 -858.263 224.14C-855.204 222.869 -852.226 221.625 -854.531 222.914C-875.2 231.567 -897.412 240.688 -917.077 249.855L-913.434 248.106C-916.565 248.485 -927.931 255.254 -938.068 259.472C-935.601 258.408 -934.65 258.471 -935.35 258.679C-948.78 265.042 -963.007 271.252 -983.533 280.526L-980.904 279.571C-988.745 283.483 -1001.75 289.449 -1010.33 293.469C-1012.98 294.416 -1017.9 296.696 -1015.05 295.002C-1028.06 301.653 -1040.9 307.088 -1053.58 311.811C-1059.94 314.109 -1066.22 316.345 -1072.54 318.256C-1074.12 318.724 -1075.68 319.265 -1077.27 319.689C-1078.86 320.121 -1080.44 320.563 -1082.02 320.996C-1082.8 321.23 -1083.59 321.419 -1084.39 321.59L-1086.78 322.14L-1089.16 322.708L-1091.56 323.231C-1090.02 322.978 -1088.18 322.672 -1087.04 322.492C-1085.89 322.311 -1085.43 322.275 -1086.64 322.519C-1093.85 324.006 -1101.54 324.88 -1108.99 323.114C-1108.06 323.069 -1107.33 323.222 -1106.22 323.303C-1105.12 323.402 -1103.64 323.564 -1101.29 323.429C-1102.7 323.321 -1104.97 323.06 -1107.52 322.51C-1110.06 321.96 -1112.86 320.968 -1115.23 319.571C-1113.1 320.878 -1111.91 321.293 -1111.57 321.509C-1111.23 321.717 -1111.69 321.644 -1112.58 321.401C-1113.02 321.266 -1113.56 321.05 -1114.15 320.815C-1114.75 320.59 -1115.36 320.238 -1116.01 319.923C-1116.63 319.562 -1117.26 319.175 -1117.84 318.796C-1118.38 318.373 -1118.93 318.003 -1119.35 317.634C-1118.73 318.066 -1119.73 316.885 -1119.37 317.057C-1119.65 316.813 -1119.92 316.579 -1120.16 316.363C-1120.4 316.137 -1120.61 315.903 -1120.81 315.687C-1121.22 315.263 -1121.57 314.885 -1121.84 314.515C-1122.11 314.155 -1122.34 313.839 -1122.55 313.569C-1122.73 313.28 -1122.87 313.028 -1122.99 312.812C-1123.5 311.946 -1123.57 311.541 -1123.69 311.027C-1123.76 310.766 -1123.84 310.486 -1123.97 310.09C-1124.09 309.684 -1124.25 309.17 -1124.52 308.467C-1124.99 307.034 -1125.81 304.808 -1126.58 300.914L-1126.65 301.779C-1127.13 298.832 -1127.26 295.966 -1127.25 293.064C-1127.24 290.152 -1127.06 287.205 -1126.82 284.024C-1126.95 282.681 -1127.14 284.249 -1127.33 286.205C-1127.5 288.161 -1127.58 290.513 -1127.78 290.711C-1127.61 281.635 -1125.25 273.163 -1123.97 265.159C-1124.94 268.845 -1125.96 274.226 -1126.59 277.994C-1126.25 273.568 -1125.85 271.117 -1125.49 268.954C-1125.09 266.799 -1124.7 264.934 -1123.97 261.725L-1124.12 262.356C-1123.03 257.399 -1121.77 252.478 -1120.41 247.592C-1120.73 248.845 -1121.05 250.098 -1121.34 251.351C-1119.21 246.123 -1117.44 240.697 -1115.44 234.839C-1113.44 228.98 -1111.21 222.68 -1108.09 215.803C-1114.04 229.224 -1109.38 217.903 -1110.29 218.759C-1109.06 215.1 -1107.05 209.584 -1107.82 211.08C-1104.77 204.618 -1103.67 199.886 -1099.1 190.891C-1099.1 190.404 -1096.06 183.887 -1097.1 185.185C-1093.21 176.758 -1097.72 187.312 -1097.19 186.691C-1095.62 183.473 -1094.01 179.949 -1092.32 176.163C-1091.48 174.27 -1090.62 172.324 -1089.73 170.323C-1088.83 168.331 -1088.02 166.249 -1087.11 164.14C-1083.55 155.676 -1079.54 146.555 -1074.9 137.38C-1067.26 121.399 -1065.31 118.695 -1058.46 103.76C-1057.49 101.156 -1058.08 102.138 -1058.92 103.76C-1059.77 105.392 -1060.86 107.663 -1060.86 107.663C-1057.51 99.3711 -1054.84 93.197 -1051.56 85.4457C-1052.32 86.978 -1051.8 85.2925 -1051.06 82.8319C-1049.83 79.6863 -1049.3 78.6859 -1048.71 77.415C-1048.11 76.1442 -1047.45 74.6029 -1046.15 70.3487C-1046.82 71.7367 -1047.75 73.4853 -1049.03 76.4776C-1046.19 69.0688 -1043.46 61.6961 -1041.54 53.7104C-1041.46 52.6198 -1041.83 53.8005 -1042.35 55.5942C-1042.87 57.3878 -1043.59 59.7853 -1044.08 61.1463C-1042.77 56.7388 -1041.34 50.9524 -1040.61 45.869C-1040.24 43.3273 -1040.04 40.9748 -1039.92 39.0821C-1039.83 37.1893 -1039.85 35.7562 -1039.78 35.0352C-1039.57 36.973 -1039.47 38.9379 -1039.5 40.9117C-1039.39 37.5588 -1039.85 39.1902 -1040.04 41.6328C-1040.48 45.5265 -1040.9 48.3205 -1041.13 50.2133C-1041.37 52.1151 -1041.4 53.1155 -1041.36 53.3499C-1040.93 51.4481 -1040.52 49.5373 -1040.21 47.6175C-1040.11 50.664 -1041.3 56.4955 -1043.31 62.8047C-1045.29 69.1319 -1048.02 75.9549 -1050.09 81.489C-1049.27 80.0469 -1048.46 78.5867 -1047.67 77.1266C-1049.24 80.867 -1050.89 84.5624 -1052.58 88.2398C-1053.37 90.7004 -1053.63 92.503 -1051.35 87.1222C-1054.19 95.1349 -1054.41 93.9902 -1056.88 100.858C-1057.14 101.624 -1056.96 101.3 -1056.64 100.633L-1060.14 108.15C-1059.35 106.726 -1060.21 109.628 -1058.27 104.914C-1063.84 118.74 -1068.58 126.591 -1070.37 131.936L-1069.81 130.827C-1078.61 149.502 -1071.14 132.413 -1078.15 146.239L-1081.21 156.298L-1082.54 157.921C-1083.39 159.876 -1085.06 163.743 -1084.55 163.112C-1088.09 170.205 -1084.21 161.778 -1086.4 165.843C-1086.86 167.042 -1087.38 168.349 -1087.95 169.71C-1088.55 171.062 -1089.19 172.477 -1089.84 173.928C-1091.15 176.812 -1092.5 179.804 -1093.75 182.571C-1096.23 188.115 -1098.22 192.792 -1098.26 194.027C-1100.1 197.236 -1094.67 184.897 -1099.28 194.829C-1099.64 198.065 -1104.37 206.411 -1107.37 215.298C-1105.88 212.793 -1102.82 204.482 -1105.89 213.333C-1108.76 218.273 -1112.23 230.404 -1114.82 237.84C-1115.57 237.975 -1120.59 254.019 -1123.46 266.926C-1123.23 266.547 -1124.61 272.631 -1125.46 280.418C-1125.89 284.312 -1126.13 288.629 -1126.03 292.712C-1125.95 296.795 -1125.38 300.626 -1124.64 303.519L-1124.61 303.149C-1124.65 303.753 -1124.48 304.961 -1124.05 306.529C-1123.63 308.107 -1122.88 310.017 -1121.76 311.964C-1120.63 313.902 -1119.06 315.813 -1117.15 317.345C-1115.25 318.886 -1113.05 320.031 -1110.92 320.779C-1111.02 320.518 -1111.45 320.256 -1112.35 319.752C-1113.24 319.211 -1114.68 318.517 -1116.49 317.03C-1114.35 318.679 -1111.83 319.824 -1109.18 320.554C-1108.73 320.752 -1108.23 320.914 -1107.64 321.068C-1107.05 321.239 -1106.39 321.401 -1105.61 321.527C-1104.06 321.825 -1102.02 322.005 -1099.27 321.978C-1099.98 321.861 -1100.69 321.672 -1101.39 321.5C-1098.6 321.545 -1095.78 321.401 -1092.91 321.005C-1090.03 320.626 -1087.09 320.04 -1084.06 319.481C-1082.54 319.184 -1081.04 318.751 -1079.48 318.382C-1078.7 318.183 -1077.92 317.985 -1077.13 317.787C-1076.34 317.57 -1075.55 317.318 -1074.75 317.075C-1073.15 316.57 -1071.52 316.065 -1069.84 315.534C-1068.19 314.93 -1066.5 314.317 -1064.76 313.686C-1063.8 313.83 -1075.49 318.805 -1060.56 313.884C-1060.1 313.424 -1059.69 312.884 -1063.59 314.146C-1062.3 313.767 -1059.01 312.685 -1056.51 311.631L-1062.53 313.433C-1056.27 310.901 -1059.1 312.523 -1054.05 310.585C-1054.28 310.297 -1050.43 308.864 -1051.25 308.891C-1051.9 309.134 -1052.98 309.603 -1054.14 310.099C-1055.32 310.567 -1056.57 311.054 -1057.57 311.351C-1054.73 310.279 -1051.63 308.945 -1048.97 307.773C-1046.3 306.62 -1044.09 305.565 -1043.02 304.961C-1043.43 305.358 -1042.84 305.403 -1038.7 303.717C-1028.09 299.184 -1035.24 301.761 -1029.14 298.922C-1026.48 298.039 -1019.87 294.776 -1019.48 295.191C-1016.39 293.812 -1015.94 293.307 -1014.81 292.64C-1009.26 290.414 -989.427 281.013 -995.302 284.366L-996.675 285.051C-996.415 284.934 -996.101 284.799 -995.778 284.663C-977.791 276.885 -959.042 267.124 -941.289 259.183L-941.388 259.03C-936.077 256.687 -930.21 253.992 -924.693 251.513C-919.176 249.053 -914.026 246.763 -910.169 245.231C-907.038 243.816 -902.92 241.599 -904.338 242.013C-896.192 238.48 -895.197 238.273 -883.597 232.802C-891.886 236.119 -880.897 231.288 -892.048 236.299C-886.818 233.874 -883.615 232.36 -880.296 230.864C-876.968 229.377 -873.523 227.899 -867.737 225.681C-871.782 226.943 -860.004 221.689 -854.89 219.688L-862.193 223.167C-856.514 220.778 -851.553 218.669 -846.529 216.479L-849.49 217.083C-828.014 207.213 -809.686 201.968 -793.386 194.325C-787.42 192.45 -805.227 199.255 -799.845 197.687C-794.803 195.686 -789.735 193.423 -785.5 191.585C-781.266 189.737 -777.902 188.232 -776.314 187.628C-769.416 184.843 -766.07 183.887 -762.652 182.86C-759.243 181.832 -755.726 180.841 -748.442 178.11C-750.236 178.993 -751.833 180.129 -740.799 176.452C-730.563 172.819 -728.473 171.233 -735.012 173.315C-737.479 174.153 -738.646 174.631 -738.52 174.658C-741.866 175.73 -746.244 177.155 -742.252 175.532L-740.852 175.271C-738.34 174.288 -733.55 172.576 -729.818 171.206C-726.077 169.872 -723.386 168.899 -725.109 169.286C-717.259 166.871 -721.673 168.502 -727.396 170.539C-720.829 168.196 -715.68 166.42 -710.45 164.752C-705.229 163.049 -699.954 161.336 -693.127 159.11C-695.271 159.903 -697.2 160.769 -695.029 160.093C-690.032 158.452 -686.964 157.488 -684.982 156.893C-682.981 156.316 -682.057 156.109 -681.34 155.965C-679.895 155.685 -679.24 155.685 -672.405 153.684C-664.734 151.071 -675.419 153.72 -661.55 149.998C-653.189 147.357 -659.917 148.934 -663.317 149.737C-660.141 148.934 -657.1 148.078 -654.194 147.258C-651.278 146.447 -648.515 145.636 -645.922 144.86C-640.746 143.274 -636.234 141.931 -632.628 140.94L-639.338 142.526C-635.319 141.58 -632.062 140.723 -628.734 139.849L-632.43 141.264C-628.537 140.165 -625.218 139.299 -625.334 139.155C-621.217 138.416 -628.259 140.615 -620.14 138.984C-617.548 138.236 -613.556 137.271 -609.994 136.442C-606.424 135.613 -603.293 134.847 -602.45 134.36C-618.911 138.461 -600.763 133.342 -614.749 136.622C-612.048 136.001 -608.756 135.243 -604.827 134.234C-604.253 134.036 -605.41 134.252 -606.495 134.477C-598.655 132.359 -596.798 132.098 -594.851 131.9C-592.905 131.701 -590.886 131.53 -582.669 129.709C-584.831 129.836 -578.973 128.321 -576.273 127.826C-582.911 129.214 -579.341 129.006 -573.205 127.979C-562.691 125.572 -561.668 125.897 -556.133 124.761L-562.44 126.104C-560.233 125.996 -554.958 124.905 -547.539 123.707C-546.947 123.346 -554.285 124.743 -551.665 124.166C-547.503 123.725 -542.901 122.679 -537.868 121.715C-535.356 121.219 -532.737 120.696 -530.028 120.2C-527.318 119.714 -524.502 119.326 -521.613 118.984C-516.311 117.974 -521.182 118.308 -516.518 117.469C-510.023 116.793 -506.524 116.244 -502.954 115.649C-499.374 115.126 -495.705 114.558 -488.869 113.981C-492.754 114.838 -493.453 114.766 -483.801 114.216C-487.542 114.54 -491.291 114.865 -495.023 115.261C-498.764 115.649 -502.505 115.973 -506.237 116.451C-503.833 116.226 -501.428 116.036 -499.015 115.883L-491.794 115.369C-495.176 115.757 -498.746 116.099 -501.976 116.406C-505.205 116.748 -508.094 117.091 -510.112 117.388C-503.232 116.839 -503.949 116.821 -507.134 117.605C-497.984 115.748 -488.78 115.811 -478.122 114.315L-478.544 113.287C-474.525 112.819 -470.712 112.494 -466.935 112.206C-463.159 111.962 -459.409 111.827 -455.507 111.656C-451.604 111.557 -447.558 111.449 -443.172 111.332C-440.974 111.295 -438.695 111.259 -436.309 111.214C-435.116 111.187 -433.896 111.151 -432.64 111.124C-431.384 111.106 -430.11 111.097 -428.791 111.079C-431.043 111.142 -433.295 111.205 -435.546 111.341C-434.838 111.431 -433.671 111.449 -432.218 111.467C-430.765 111.494 -429.016 111.485 -427.141 111.476C-425.266 111.476 -423.274 111.422 -421.318 111.458C-419.363 111.494 -417.452 111.539 -415.748 111.62C-416.375 111.259 -412.114 111.178 -409.19 111.124C-409.369 111.268 -405.521 111.368 -401.394 111.683C-397.268 112.017 -392.863 112.422 -391.948 112.909C-388.817 113.071 -385.677 113.161 -382.537 113.441C-380.42 113.702 -378.527 113.9 -376.823 114.189C-375.118 114.477 -373.584 114.757 -372.167 115.036C-371.458 115.18 -370.785 115.315 -370.122 115.442C-369.467 115.604 -368.839 115.757 -368.229 115.91C-367 116.226 -365.834 116.523 -364.676 116.821C-363.51 117.1 -362.371 117.469 -361.178 117.83C-359.985 118.182 -358.747 118.542 -357.401 118.939C-354.746 119.849 -351.651 120.741 -347.793 122.246C-350.054 121.192 -349.408 121.264 -349.471 121.084C-349.542 120.931 -350.314 120.336 -355.589 118.641C-354.27 119.038 -352.978 119.434 -351.785 119.795C-350.592 120.173 -349.524 120.624 -348.6 120.958C-347.685 121.309 -346.932 121.607 -346.403 121.841C-345.882 122.084 -345.604 122.292 -345.613 122.346C-344.07 122.94 -340.634 124.743 -337.315 127.231C-335.646 128.457 -334.05 129.881 -332.65 131.233C-331.287 132.621 -330.111 133.937 -329.286 134.964C-328.945 135.46 -328.712 135.91 -328.488 136.379C-328.255 136.839 -328.012 137.307 -327.761 137.902C-327.627 138.2 -327.474 138.515 -327.304 138.885C-327.151 139.254 -326.981 139.66 -326.783 140.129C-326.398 141.057 -325.958 142.22 -325.509 143.743C-325.24 144.392 -325.348 143.671 -325.348 143.671C-325.375 143.689 -325.249 144.302 -325.097 145.14C-325.007 145.554 -324.935 146.032 -324.881 146.51C-324.828 146.988 -324.738 147.474 -324.729 147.916C-324.675 148.808 -324.657 149.52 -324.729 149.673C-324.783 149.827 -324.864 149.412 -325.115 148.069C-324.298 152.287 -324.648 157.56 -326.066 162.887C-327.456 168.232 -329.797 173.657 -332.453 178.777C-337.782 189.043 -344.25 198.245 -348.062 204.519C-355.033 214.208 -363.878 225.501 -370.463 234.064C-369.96 233.577 -370.301 234.145 -369.09 232.504C-377.864 244.546 -375.504 239.12 -385.381 252.901C-390.109 260.193 -379.747 245.862 -382.806 250.332C-382.923 250.981 -383.757 252.306 -385.031 254.127C-386.305 255.939 -388.117 258.156 -390.028 260.598C-393.885 265.493 -398.398 271.324 -401.403 276.164L-399.744 273.965C-404.471 281.257 -412.348 291.045 -419.408 303.366C-419.408 303.366 -418.977 302.825 -419.21 303.384C-421.884 307.431 -425.472 313.479 -428.693 320.265C-431.931 327.034 -434.757 334.56 -436.228 341.221C-434.865 337.192 -434.452 335.308 -434.721 337.895C-435.492 340.824 -435.528 340.356 -435.797 340.617C-435.923 340.752 -436.102 341.059 -436.398 342.095C-436.668 343.132 -437.116 344.871 -437.457 347.909C-437.538 349.892 -437.574 353.082 -437.17 355.867C-436.802 358.652 -436.067 360.996 -435.672 361.465C-436.596 357.886 -436.829 354.119 -436.641 350.378C-436.56 351.829 -436.479 353.443 -436.354 355.146C-436.201 356.841 -436.004 358.625 -435.663 360.392C-435.304 362.15 -434.811 363.871 -434.192 365.466C-433.573 367.062 -432.774 368.477 -431.994 369.694L-432.137 368.918C-429.966 372.47 -427.661 374.705 -425.625 376.435C-423.57 378.157 -421.722 379.392 -419.784 380.545C-417.82 381.663 -415.748 382.7 -413.002 383.727C-411.612 384.196 -410.114 384.8 -408.338 385.304C-407.45 385.557 -406.508 385.818 -405.512 386.098C-404.516 386.395 -403.44 386.647 -402.282 386.9L-404.238 386.674C-401.762 387.422 -399.986 387.891 -398.559 388.216C-397.124 388.495 -396.047 388.639 -394.971 388.783C-392.827 389.09 -390.674 389.279 -385.605 390.316L-382.412 390.018C-381.568 390.153 -380.573 390.316 -379.442 390.496C-378.312 390.658 -377.047 390.829 -375.684 391.019C-372.956 391.424 -369.817 391.794 -366.506 392.181C-359.886 392.948 -352.557 393.624 -346.439 394.047C-353.355 393.128 -367.646 391.812 -376.41 390.46C-373.055 390.856 -367.332 391.433 -362.012 391.92C-356.692 392.425 -351.758 392.83 -350.009 393.128C-352.727 392.866 -356.154 392.488 -358.845 392.371C-350.601 393.56 -339.674 394.489 -326.155 395.066C-327.322 394.327 -318.521 394.633 -308.187 394.948C-297.852 395.273 -285.993 395.651 -281.068 395.282C-257.16 396.607 -233.585 396.688 -205.712 398.473C-215.661 398.923 -197.576 399.013 -199.361 400.005C-192.884 400.528 -190.408 400.69 -189.825 400.654C-183.258 400.933 -176.691 401.222 -170.134 401.609C-165.451 401.708 -176.279 400.816 -175.66 400.627C-161.459 401.825 -169.658 400.663 -160.239 401.303C-162.203 401.519 -155.359 402.312 -147.267 403.105C-151.08 402.853 -154.883 402.574 -158.696 402.384C-153.753 403.006 -150.218 403.457 -147.366 403.718C-144.513 403.98 -142.36 404.115 -140.198 404.277C-138.036 404.43 -135.874 404.583 -133.003 404.89C-130.141 405.214 -126.598 405.737 -121.655 406.566L-127.881 405.35C-125.342 405.746 -121.727 406.323 -117.564 406.828C-115.483 407.098 -113.267 407.378 -110.989 407.675C-108.71 407.981 -106.36 408.333 -104.009 408.676C-94.6168 410.036 -85.314 411.749 -80.4069 413.038C-78.5858 413.218 -76.1637 413.317 -80.6222 412.488C-68.4666 414.498 -55.0462 417.364 -42.3794 420.411C-29.7125 423.448 -17.7901 426.612 -8.50525 428.946L-10.2367 428.189C-5.81403 429.46 -2.66522 430.839 2.93262 432.182C2.68143 431.993 1.22815 431.407 3.28247 431.983C5.59695 432.768 14.837 435.994 20.6591 437.779L15.7969 435.877C27.3065 439.383 35.9544 442.691 44.0282 446.062C48.0831 447.711 51.9585 449.478 56.0043 451.245C60.0233 453.092 64.2127 454.976 68.7699 457.13C68.8417 456.95 69.981 457.265 71.7752 457.959C73.5604 458.671 76.0094 459.717 78.7186 460.934C84.0922 463.439 90.4526 466.675 94.5792 469.064L94.3459 468.802C100.491 472.281 105.963 475.896 111.005 479.618C116.055 483.322 120.622 487.252 124.739 491.569C128.866 495.878 132.508 500.691 135.307 506.153C138.088 511.615 140.062 517.897 140.008 524.711C140.322 528.911 139.676 534.688 137.442 540.835C135.146 546.937 131.503 553.382 126.964 559.42C122.479 565.513 117.267 571.354 112.054 576.798C106.851 582.251 101.648 587.343 97.0551 591.895C99.8182 589.056 96.167 591.895 92.776 594.995C88.47 599.277 80.2527 606.127 81.4548 606L83.0067 604.495C81.5983 606.334 78.6379 609.353 75.1572 612.841C71.6047 616.257 67.5948 620.025 64.1858 623.45L62.3916 623.91C53.968 633.382 42.7095 645.577 34.4204 658.142C30.2938 664.415 26.9028 670.733 24.7767 676.429C22.6327 682.126 21.7356 687.119 21.6369 690.454C21.1255 693.356 21.0179 696.664 21.1973 699.936C21.4395 703.207 22.0944 706.425 22.8659 709.255L23.2606 708.796C24.5435 712.626 26.1761 715.79 27.9434 718.638C29.8004 721.432 31.7022 724.01 33.936 726.506C38.3407 731.545 43.5707 736.601 51.6266 743.19C50.6129 742.198 49.5722 741.234 48.5854 740.224C53.0978 743.947 55.807 746.497 58.4624 748.967C61.1178 751.428 63.7193 753.816 68.1778 756.962L71.2997 758.215C88.2726 769.914 106.412 780.369 123.268 791.969C123.044 791.698 122.649 791.176 119.841 789.355C123.95 791.96 131.961 796.926 138.465 801.171C144.969 805.417 149.974 808.932 148.207 808.391C148.494 808.175 152.962 811.113 158.443 814.997C163.942 818.855 170.392 823.749 174.842 827.156L173.72 825.723C177.336 828.788 179.21 830.365 181.435 832.249C182.548 833.186 183.768 834.177 185.356 835.448C186.934 836.719 188.872 838.287 191.429 840.361C193.959 842.19 193.833 841.712 190.487 839.279C198.893 845.408 196.704 844.489 206.715 852.195L203.252 848.986C207.442 852.339 209.344 853.916 210.707 855.196C212.08 856.467 212.986 857.359 215.103 859.423C216.341 860.568 217.938 861.956 219.642 863.425C221.329 864.912 223.132 866.472 224.818 867.914C228.165 870.834 231.089 873.277 231.798 873.673C232.228 874.277 233.448 875.656 235.126 877.423C236.777 879.225 238.939 881.37 241.19 883.597C241.908 884.092 240.374 882.362 239.594 881.506C246.062 887.743 250.475 892.781 254.36 897.315C258.235 901.875 261.536 905.985 265.6 910.654C265.896 910.744 266.452 911.339 267.116 912.114C258.289 900.848 250.332 892.52 251.058 893.322C251.22 893.169 253.283 895.197 254.548 896.395C255.804 897.603 256.36 897.909 253.516 894.268C259.563 901.353 269.081 914.079 275.63 923.254C275.979 923.678 276.32 924.084 276.616 924.381L275.988 923.399C277.549 925.49 278.76 927.5 279.927 929.356C281.927 932.358 283.219 934.26 284.977 937.252C285.498 937.721 287.211 940.587 289.059 944.03C290.871 947.491 292.791 951.529 293.93 954.215C293.284 953.98 296.334 960.948 293.159 954.548C293.535 955.386 292.836 953.494 291.185 950.006C290.826 949.212 290.396 948.284 290.153 947.761C290.189 947.869 290.243 947.996 290.297 948.131C288.592 944.733 286.314 940.325 283.389 935.521C285.524 939.568 287.686 943.805 290.754 949.429C291.239 950.853 291.768 952.322 292.208 953.674C292.638 955.026 293.024 956.252 293.302 957.126C295.114 960.641 297.348 966.013 298.774 970.943C300.273 975.846 300.874 980.272 301.197 981.335C301.511 985.869 301.412 990.799 300.658 995.765C299.914 1000.73 298.505 1005.68 296.621 1010.19C294.747 1014.69 292.423 1018.75 290.1 1022.15C287.785 1025.55 285.48 1028.32 283.551 1030.32C281.945 1032.25 281.03 1033.36 280.429 1034.22C279.828 1035.09 279.469 1035.66 278.904 1036.41C280.94 1034.34 283.138 1031.66 284.224 1030.52C281.003 1034.4 275.961 1039.89 271.234 1044.29C266.533 1048.73 262.308 1052.23 261.204 1052.77C251.92 1061.23 266.955 1048.65 253.812 1059.81L255.714 1058.46C249.435 1064.17 243.55 1069.09 237.97 1073.81C236.579 1074.99 235.198 1076.16 233.834 1077.33C232.471 1078.51 231.116 1079.68 229.743 1080.8C228.371 1081.92 227.007 1083.05 225.644 1084.18C224.289 1085.31 222.979 1086.48 221.634 1087.64C218.925 1089.93 216.368 1092.4 213.677 1094.89C211.102 1097.49 208.402 1100.08 205.845 1103C200.642 1108.75 195.385 1115.3 190.621 1123.32C192.003 1121.14 192.694 1120.04 192.9 1119.54C186.979 1128.38 181.83 1137.95 178.278 1148.19C174.689 1158.43 173.128 1169.35 173.442 1180.26C173.702 1191.21 175.263 1202.09 177.255 1212.77C179.273 1223.45 181.74 1233.94 184.225 1244.23C185.589 1250.1 186.244 1253.37 186.674 1256.09C187.114 1258.81 187.383 1260.97 187.912 1264.61L188.944 1267.07C189.258 1269.14 189.491 1271.23 189.76 1273.33C190.011 1275.41 190.299 1277.49 190.487 1279.59C191.716 1288.43 192.73 1296.09 193.645 1304.37C194.676 1312.62 195.188 1321.66 194.075 1332.97L193.86 1330.03C193.815 1331.05 193.761 1332.21 193.698 1333.46C193.645 1334.71 193.474 1336.06 193.349 1337.44C193.214 1338.82 193.079 1340.25 192.936 1341.65C192.774 1343.04 192.55 1344.41 192.38 1345.72C192.2 1347.02 192.03 1348.25 191.886 1349.35C191.707 1350.44 191.545 1351.42 191.411 1352.2C191.16 1353.77 191.061 1354.61 191.223 1354.3C190.989 1355.1 190.424 1356.86 189.85 1359.99L190.074 1360.29C188.513 1366.78 186.333 1373.11 183.938 1379.31C182.566 1382.93 182 1384.63 181.785 1385.47C181.534 1386.29 181.695 1386.27 181.758 1386.45C181.821 1386.63 181.785 1387.02 181.148 1388.65C180.825 1389.47 180.359 1390.6 179.668 1392.17C178.905 1393.71 177.892 1395.68 176.573 1398.2C175.497 1400.03 174.097 1402.19 172.689 1404.38C171.155 1406.49 169.594 1408.63 168.176 1410.42C165.207 1413.89 163.135 1416.18 164.032 1414.88C165.063 1413.53 166.364 1411.79 167.387 1410.34C168.41 1408.89 169.038 1407.65 169.011 1407.48C167.584 1409.6 165.898 1411.52 164.319 1413.53C163.574 1413.81 162.121 1414.95 162.256 1414.16C162.336 1413.76 162.776 1412.87 163.888 1411.15C164.435 1410.29 165.18 1409.24 166.068 1407.91C166.902 1406.54 167.925 1404.9 169.163 1402.96C170.392 1401.21 171.522 1399.39 172.716 1397.6C173.326 1396.72 173.828 1395.76 174.375 1394.83L175.99 1392.04C176.546 1390.77 176.968 1389.43 177.425 1388.12L176.295 1390.58L175.03 1392.97L173.765 1395.37L173.137 1396.57C172.922 1396.97 172.68 1397.35 172.446 1397.73C173.191 1396.39 173.72 1395.09 174.321 1393.95C174.904 1392.79 175.479 1391.74 176.035 1390.74C177.066 1388.7 178.035 1386.87 179.058 1384.94C179.309 1383.92 179.785 1382.15 180.664 1379.76C181.606 1377.87 182.377 1375.9 183.176 1373.95L184.378 1371.01L185.436 1368.01C185.544 1366.44 183.265 1373.29 185.409 1365.07C185.912 1363.67 186.073 1363.31 186.136 1363.44C186.208 1363.57 186.136 1364.15 186.091 1364.63C186.046 1365.1 186.028 1365.46 186.199 1365.11C186.289 1364.93 186.423 1364.57 186.629 1363.97C186.809 1363.36 187.042 1362.49 187.347 1361.29C188.397 1355.16 187.661 1356.88 189.312 1349.79C189.285 1348.76 188.872 1350.24 188.253 1353.06C188.424 1352.26 188.612 1351.42 188.8 1350.51C189.007 1349.62 189.168 1348.68 189.303 1347.7C189.599 1345.76 189.895 1343.75 190.191 1341.83C190.406 1339.9 190.604 1338.06 190.801 1336.5C191.007 1334.94 191.196 1333.66 191.33 1332.83C191.294 1331.21 191.348 1329.04 191.447 1326.69C191.465 1324.35 191.474 1321.83 191.492 1319.54C191.42 1314.97 191.169 1311.28 190.81 1311.61C190.944 1309.58 190.586 1300.16 190.119 1294.19C190.119 1296.94 189.985 1296.91 189.796 1295.39C189.608 1293.87 189.222 1290.85 188.809 1287.58C188.397 1284.32 187.796 1280.82 187.365 1278.33C186.872 1275.83 186.459 1274.34 186.342 1275.09C186.082 1271.05 184.871 1263.84 183.229 1255.91C181.624 1247.97 179.677 1239.29 178.403 1232.2C178.511 1233 178.708 1234.58 179.022 1235.8C177.228 1227.9 176.51 1225.64 175.308 1220.55C175.559 1219.97 175.093 1216.57 174.519 1212.45C174.25 1210.39 173.945 1208.15 173.666 1206.01C173.406 1203.85 173.218 1201.79 173.065 1200.08C172.518 1197.64 172.312 1196.79 172.195 1196.86C172.088 1196.92 172.079 1197.91 172.168 1199.09C172.312 1201.47 172.59 1204.71 172.034 1203.2C172.195 1203.3 172.15 1202.27 172.007 1200.72C171.926 1199.95 171.836 1199.05 171.738 1198.08C171.657 1197.12 171.576 1196.1 171.496 1195.1C171.343 1193.11 171.173 1191.22 171.137 1190.02C171.128 1188.82 171.182 1188.33 171.361 1189.17C170.886 1185.36 170.688 1183.71 170.572 1182.53C170.473 1181.34 170.365 1180.62 170.033 1178.63C170.491 1177.95 170.374 1176.16 170.545 1173.72C170.598 1172.5 170.652 1171.13 170.751 1169.65C170.778 1169.28 170.787 1168.9 170.841 1168.53C170.903 1168.15 170.966 1167.77 171.029 1167.38C171.164 1166.62 171.316 1165.83 171.487 1165.05C171.603 1163.65 171.693 1162.55 171.765 1161.69C171.881 1160.82 171.962 1160.18 172.034 1159.7C172.15 1158.71 172.15 1158.3 172.186 1157.87C172.303 1157.01 172.249 1155.96 174.187 1150.08C174.887 1147.21 174.393 1148.39 173.711 1150.3C173.388 1151.26 173.003 1152.4 172.698 1153.29C172.554 1153.74 172.42 1154.13 172.33 1154.41C172.249 1154.69 172.213 1154.86 172.213 1154.86L172.034 1154.82ZM271.261 922.579C272.66 924.597 273.88 926.301 274.607 927.419C273.943 926.391 272.947 925.012 271.27 922.579H271.261ZM256.45 903.75C257.392 904.859 258.459 906.111 259.59 907.445C260.693 908.806 261.877 910.258 263.088 911.754C263.752 912.294 263.322 911.474 261.796 909.609C262.164 910.158 261.438 909.347 260.325 908.058C259.204 906.778 257.652 905.066 256.45 903.75ZM288.539 943.489C286.727 940.082 286.036 938.982 285.659 938.586C286.547 940.172 287.579 942.038 288.862 944.526C288.897 944.634 288.978 944.85 289.014 944.958C288.933 944.589 288.826 944.165 288.539 943.48V943.489Z" fill="white"/>
<path d="M291.069 949.996C291.293 950.509 291.419 950.789 291.715 951.447C291.347 950.753 290.997 950.086 290.638 949.419C290.486 948.968 290.333 948.509 290.19 948.121C290.513 948.743 290.8 949.41 291.078 949.996H291.069Z" fill="white"/>
<path d="M17.7701 685.207L17.8867 685.27C17.6983 685.973 17.5548 686.694 17.3933 687.406C17.5189 686.676 17.6176 685.937 17.7701 685.207Z" fill="white"/>
<path d="M54.4883 633.094C55.6276 631.967 56.749 630.814 57.9062 629.705C55.7891 631.868 53.6989 634.049 51.6535 636.275C52.5955 635.221 53.5195 634.139 54.4794 633.094H54.4883Z" fill="white"/>
<path d="M317.326 1298.88C317.362 1298.8 317.389 1298.91 317.416 1298.88C317.38 1299.44 317.353 1299.6 317.326 1298.88Z" fill="white"/>
<path d="M289.983 1401.98L290.934 1400.8C291.104 1400.72 291.284 1400.65 291.355 1400.72L289.983 1401.99V1401.98Z" fill="white"/>
<path d="M349.514 1069.22C348.285 1070.54 347.576 1071.4 347.047 1072.11C347.737 1070.99 338.811 1079 349.514 1069.22Z" fill="white"/>
<path d="M155.231 647.225L153.679 649.811C154.245 648.802 154.792 647.883 155.231 647.225Z" fill="white"/>
<path d="M347.02 1072.12L347.038 1072.1C347.038 1072.1 347.038 1072.1 347.02 1072.12Z" fill="white"/>
<path d="M298.783 1142.12C300.506 1136.03 301.089 1134.65 301.403 1134.51C301.681 1134.36 301.582 1135.38 302.228 1134.2C304.83 1127.19 305.655 1125.68 305.637 1125.13C305.673 1124.6 305.135 1125.17 306.032 1122.77C308.176 1118.6 310.302 1115.05 312.473 1111.92C313.002 1111.12 313.514 1110.34 314.025 1109.57C314.563 1108.83 315.092 1108.1 315.622 1107.37C316.671 1105.93 317.658 1104.5 318.654 1103.08C318.878 1102.61 319.65 1101.51 318.591 1102.69C321.722 1098.91 326.109 1093.12 331.186 1087.68C331.814 1087 332.424 1086.28 333.061 1085.61C333.707 1084.94 334.353 1084.27 334.999 1083.61C336.3 1082.29 337.547 1080.95 338.829 1079.73C341.413 1077.31 343.817 1075.01 346.042 1073.25C346.625 1072.64 346.894 1072.31 347.02 1072.13C345.889 1073.62 345.916 1074.05 346.356 1073.98C350.393 1070.21 354.25 1067.49 355.515 1065.8C352.976 1068.01 352.654 1068.07 351.371 1069.01L355.847 1065.36C359.346 1061.48 349.765 1070.36 349.469 1070.03C353.775 1066.43 358.449 1062.52 362.862 1058.82C367.303 1055.15 371.51 1051.73 374.74 1048.89C375.233 1048.08 371.349 1051.28 368.406 1053.72C365.464 1056.16 363.454 1057.84 367.653 1053.9C364.316 1056.84 360.987 1059.81 357.731 1062.82C361.221 1059.08 359.723 1060.43 358.126 1061.86C356.556 1063.28 354.896 1064.76 358.027 1061.26C371.143 1049.53 373.269 1048.82 386.258 1037.23C389.407 1034.89 385.622 1038.47 388.779 1036.13C393.471 1032.11 396.566 1029.1 398.773 1026.71C400.989 1024.32 402.361 1022.57 403.572 1020.96C404.765 1019.34 405.842 1017.9 407.286 1015.95C407.654 1015.48 408.049 1014.97 408.47 1014.42C408.883 1013.87 409.332 1013.28 409.825 1012.64C410.327 1012.01 410.857 1011.31 411.404 1010.55C411.96 1009.78 412.606 1008.98 413.234 1008.06C414.66 1006.24 415.728 1005.01 417.154 1002.8C417.845 1001.69 418.643 1000.33 419.478 998.477C420.339 996.639 421.218 994.277 422.088 991.222L421.083 993.169L420.581 994.133L420.025 995.07C421.451 991.222 422.142 988.68 422.635 986.832C422.869 985.904 423.075 985.147 423.263 984.48C423.416 983.804 423.559 983.209 423.694 982.614C423.82 982.01 423.981 981.406 424.089 980.694C424.187 979.982 424.286 979.162 424.385 978.153C424.537 976.125 424.645 973.285 424.178 968.986C424.178 969.374 424.223 969.86 424.214 970.419V972.267C424.259 973.583 424.178 975.034 424.142 976.305C424.134 977.585 423.972 978.666 423.927 979.288C423.864 979.91 423.837 980.054 423.873 979.432C424.035 973.844 423.837 971.888 423.99 970.23C423.963 968.581 424.205 967.211 423.434 962.938C423.156 962.38 422.788 961.848 422.474 961.307C421.613 956.999 420.294 952.645 418.706 948.283C417.953 946.093 417.011 943.939 416.123 941.739C415.136 939.585 414.203 937.386 413.099 935.241C408.874 926.588 403.635 918.125 397.912 909.995C398.396 911.005 400.199 913.898 397.373 910.202C393.767 905.083 389.82 899.936 385.639 894.871C381.45 889.806 376.983 884.848 372.425 880.026C363.284 870.391 353.604 861.441 344.418 853.573C342.211 851.419 340.005 849.255 337.753 847.137C336.102 845.758 334.541 844.758 336.264 846.335C328.89 840.459 336.111 845.749 332.738 842.703C328.585 839.296 327.033 838.476 329.58 840.738C326.414 838.034 322.52 834.834 318.16 831.427C315.981 829.733 313.765 827.894 311.468 826.056C309.172 824.235 306.812 822.405 304.426 820.585C294.881 813.329 284.914 806.443 277.46 801.774L280.214 803.82C268.749 796.348 267.968 794.311 257.033 787.804L259.024 789.21C246.474 781.215 233.251 772.797 220.782 764.856C208.321 756.871 196.668 749.227 187.203 742.828C185.66 741.26 179.641 736.943 174.106 732.445C168.535 727.992 163.592 723.206 163.287 722.134C161.69 720.692 160.443 719.376 159.313 718.294C158.236 717.15 157.33 716.194 156.514 715.338C155.707 714.482 155.061 713.661 154.415 712.913C154.092 712.535 153.778 712.165 153.464 711.796C153.168 711.408 152.872 711.012 152.576 710.606C151.347 709.002 150.055 707.145 148.476 704.207C148.099 703.459 147.696 702.656 147.256 701.782C146.861 700.881 146.485 699.889 146.045 698.826C145.812 698.294 145.632 697.726 145.453 697.122C145.265 696.518 145.076 695.897 144.879 695.248C144.655 694.608 144.529 693.914 144.367 693.193C144.215 692.472 144.045 691.732 143.883 690.957C143.399 687.604 143.381 685.063 143.65 682.377C143.713 681.71 143.784 681.025 143.856 680.313C143.946 679.61 144.089 678.88 144.197 678.105C144.394 676.545 144.798 674.86 145.166 672.85L144.673 672.543C145.641 668.938 146.924 665.468 148.395 662.115C148.943 660.24 149.436 658.321 150.109 656.473C150.665 655.337 151.221 654.193 151.849 653.093C152.468 651.984 153.042 650.858 153.706 649.785C152.253 652.435 150.934 655.581 151.293 655.238C153.957 649.956 157.662 643.819 160.82 639.042C163.96 634.247 166.499 630.786 166.463 630.569C169.387 626.973 172.437 623.503 175.568 620.123C178.69 616.725 181.911 613.444 185.176 610.208C184.584 610.488 181.301 613.742 178.726 616.346C183.974 611.155 184.369 610.614 184.611 610.127C184.88 609.668 184.979 609.244 189.967 604.692C188.764 606.053 190.891 604.242 191.187 604.107C192.335 602.89 193.887 601.276 195.699 599.501C196.605 598.618 197.583 597.671 198.597 596.689C199.601 595.688 200.642 594.652 201.718 593.588C206.051 589.343 210.896 584.809 215.031 580.988L213.201 582.196C220.539 575.156 228.389 567.883 235.996 560.023C239.791 556.085 243.523 552.002 247.021 547.693C250.511 543.385 253.767 538.842 256.441 534.002C255.974 534.877 255.589 535.625 255.275 536.247C254.934 536.859 254.665 537.355 254.476 537.734C254.099 538.5 254.01 538.824 254.171 538.761C254.467 538.626 255.822 536.977 257.419 534.11C257.697 533.263 257.876 532.38 258.091 531.524C260.28 527.909 255.266 537.743 259.5 530.172C261.142 526.332 261.312 524.926 261.079 525.097C260.953 525.178 260.693 525.647 260.37 526.359C260.029 527.071 259.518 528 259.033 529.072C260.478 526.071 261.509 522.916 262.29 519.716C262.245 519.41 262.137 519.834 261.922 520.374C261.707 520.924 261.447 521.6 261.267 521.862C261.438 521.384 261.617 520.771 261.814 520.05C261.94 519.311 262.075 518.473 262.227 517.562C262.46 515.724 262.568 513.569 262.424 511.388C262.308 509.207 261.949 506.99 261.482 504.998C261.321 503.988 260.98 503.06 260.756 502.186C260.523 501.312 260.334 500.5 260.101 499.815L259.724 499.374C257.679 494.435 254.961 490.496 252.359 487.134C251.659 486.323 250.969 485.53 250.296 484.763C249.955 484.376 249.641 483.988 249.291 483.619C248.932 483.258 248.582 482.907 248.232 482.555C247.533 481.852 246.851 481.158 246.178 480.473C245.487 479.797 244.761 479.175 244.07 478.535C238.436 473.479 232.704 469.216 224.953 464.313C224.926 464.015 223.41 462.888 221.266 461.536C219.122 460.185 216.431 458.499 214.098 457.03C202.14 450.622 188.253 444.718 173.065 438.652C162.417 434.308 170.078 437.048 165.35 434.921C164.875 434.984 160.793 433.623 157.815 432.64C154.837 431.667 152.944 431.117 156.9 432.658C147.633 429.396 141.676 427.413 135.074 425.322C133.423 424.799 131.737 424.258 129.942 423.69C128.148 423.14 126.246 422.564 124.183 421.933C120.065 420.653 115.248 419.274 109.273 417.561C111.929 418.066 114.88 418.805 113.4 418.237C109.067 416.939 103.406 415.831 103.99 416.182L105.129 416.525C91.6994 412.685 75.8838 409.449 60.714 406.845C45.5352 404.213 31.0024 402.23 20.058 400.265L21.287 400.481C13.7155 399.183 6.04544 398.3 -1.55289 396.975C-12.0937 395.587 4.71774 398.201 -3.11386 397.399C-15.404 395.362 -25.1643 394.271 -34.4043 393.433C-43.6443 392.559 -52.3461 391.928 -62.546 390.882C-70.5121 390.972 -84.5426 390.017 -99.2907 389.206C-114.039 388.377 -129.505 387.638 -140.225 387.692L-138.978 387.412C-144.504 386.908 -145.679 387.358 -149.77 387.295C-149.178 387.061 -143.75 387.214 -147.186 386.917C-170.645 385.898 -194.875 385.375 -219.276 384.159C-231.477 383.528 -243.731 382.753 -255.94 381.265C-262.041 380.562 -268.132 379.589 -274.178 378.354C-280.224 377.11 -286.226 375.497 -292.084 372.991C-296.345 371.116 -298.848 369.296 -300.588 367.854C-301.441 367.097 -302.149 366.475 -302.732 365.817C-303.028 365.501 -303.307 365.195 -303.585 364.888C-303.845 364.573 -304.105 364.258 -304.365 363.933C-305.397 362.644 -306.527 361.229 -308.07 358.805C-309.55 356.371 -311.551 352.865 -312.825 347.078C-312.627 349.314 -312.215 351.567 -311.533 353.775C-313.273 349.224 -313.91 344.356 -313.82 339.616C-313.749 334.866 -312.986 330.197 -311.865 325.672C-309.595 316.614 -305.962 308.051 -301.862 299.849C-293.564 283.455 -283.346 268.385 -272.779 254.441C-274.124 256.046 -274.304 255.982 -276.304 258.759C-274.331 255.622 -270.276 250.106 -266.598 245.446C-264.768 243.103 -263.027 241.021 -261.771 239.479C-260.524 237.938 -259.699 236.974 -259.609 237.001C-256.38 232.611 -259.107 235.802 -257.232 233.008C-252.98 226.924 -245.534 218.569 -243.489 215.189C-243.139 214.612 -244.861 216.748 -245.714 217.803C-242.592 214.116 -232.185 199.939 -234.572 203.904C-226.911 193.323 -219.617 183.895 -214.45 174.918C-212.44 172.196 -209.695 167.365 -207.56 162.913C-205.398 158.469 -203.9 154.413 -203.2 153.539C-203.47 153.683 -203.156 152.43 -202.626 150.33C-202.106 148.23 -201.424 145.274 -201.11 142.038C-200.985 140.425 -200.895 138.739 -201.003 137.09C-201.11 135.441 -201.317 133.809 -201.693 132.304C-202.42 129.285 -203.694 126.761 -204.69 125.12C-204.107 126.274 -205.013 124.877 -206.071 123.669C-207.139 122.471 -208.278 121.416 -207.39 122.624C-210.287 119.397 -213.849 116.964 -216.397 115.404C-218.962 113.845 -220.443 113.052 -219.635 113.196L-221.07 112.601L-222.569 112.114C-223.564 111.781 -224.551 111.438 -225.538 111.105C-227.565 110.501 -229.575 109.906 -231.557 109.311C-233.576 108.789 -235.567 108.275 -237.514 107.77C-239.488 107.328 -241.416 106.905 -243.291 106.481C-250.827 104.967 -257.555 103.967 -262.444 104.147C-276.232 102.552 -289.653 101.948 -302.714 101.867C-315.785 101.794 -328.515 102.272 -341.047 103.092C-340.572 103.426 -333.646 103.011 -326.972 102.642C-323.635 102.506 -320.351 102.38 -317.974 102.344C-315.597 102.299 -314.116 102.416 -314.386 102.624C-326.272 102.849 -335.656 103.128 -345.003 103.732C-347.336 103.885 -349.677 104.003 -352.045 104.201C-354.414 104.408 -356.818 104.625 -359.303 104.841C-364.273 105.264 -369.521 105.922 -375.388 106.625C-378.42 107.067 -377.541 107.049 -375.657 106.896C-373.764 106.761 -370.857 106.562 -369.826 106.49C-393.518 108.843 -415.389 112.962 -436.273 116.567C-436.201 116.63 -433.941 116.279 -431.805 115.927C-435.914 116.702 -441.315 117.901 -440.929 117.441L-436.91 116.765C-433.689 115.873 -437.816 116.369 -442.84 117.117C-447.863 117.91 -453.784 118.928 -454.179 118.865C-450.591 118.667 -455.722 119.758 -460.297 120.911C-464.881 122.038 -468.945 123.074 -463.302 122.507C-466.003 123.038 -469.402 123.615 -468.846 123.237C-472.811 124.21 -474.031 124.67 -469.941 123.994C-484.545 127.257 -479.486 125.562 -492.646 128.861C-492.556 129.023 -489.883 128.428 -488.475 128.293C-491.848 128.96 -495.23 129.609 -499.15 130.483C-503.061 131.394 -507.52 132.511 -513.046 134.034C-512.355 133.962 -513.602 134.44 -510.292 133.566C-519.81 136.089 -527.956 138.09 -536.298 140.326C-538.38 140.884 -540.488 141.443 -542.623 142.02C-544.749 142.633 -546.92 143.255 -549.154 143.895C-553.612 145.193 -558.331 146.617 -563.453 148.329C-557.138 147.167 -570.388 150.772 -571.285 151.754L-582.391 155.161L-578.058 153.404C-587.737 156.558 -596.421 158.947 -604.639 161.984C-602.225 161.236 -599.812 160.524 -597.39 159.812C-603.445 161.768 -609.438 163.868 -615.466 165.896L-605.347 162.119C-615.197 165.166 -604.585 160.948 -617.323 165.581C-614.704 164.715 -626.913 169.024 -631.776 171.196H-631.74C-636.539 172.737 -641.491 174.296 -648.479 177.099C-650.238 177.992 -646.748 177.235 -647.887 177.82C-650.309 178.442 -655.898 180.506 -661.64 182.669C-667.363 184.86 -673.248 187.086 -676.289 187.969C-674.288 187.32 -674.055 187.618 -674.674 187.933L-678.72 189.051C-683.053 190.935 -683.663 191.259 -682.847 191.232C-695.989 196.586 -678.989 188.726 -694.464 195.396C-693.226 194.927 -693.782 195.234 -691.208 194.26C-706.817 200.777 -721.538 206.464 -735.739 212.8C-737.713 214.017 -734.582 212.71 -731.523 211.421C-728.464 210.151 -725.485 208.907 -727.791 210.196C-748.46 218.848 -770.672 227.97 -790.336 237.136L-786.694 235.387C-789.825 235.766 -801.191 242.535 -811.328 246.753C-808.861 245.689 -807.91 245.753 -808.609 245.96C-822.039 252.323 -836.267 258.533 -856.792 267.808L-854.164 266.852C-862.004 270.764 -875.012 276.731 -883.588 280.751C-886.244 281.697 -891.16 283.977 -888.307 282.283C-901.315 288.935 -914.161 294.369 -926.837 299.092C-933.197 301.391 -939.477 303.626 -945.801 305.537C-947.38 306.005 -948.941 306.546 -950.529 306.97C-952.117 307.402 -953.696 307.844 -955.275 308.277C-956.064 308.511 -956.853 308.7 -957.652 308.872L-960.038 309.421L-962.424 309.989L-964.82 310.512C-963.277 310.26 -961.447 309.953 -960.298 309.773C-959.15 309.593 -958.693 309.557 -959.904 309.8C-967.107 311.287 -974.795 312.161 -982.25 310.395C-981.317 310.35 -980.59 310.503 -979.478 310.584C-978.375 310.683 -976.903 310.846 -974.553 310.71C-975.961 310.602 -978.231 310.341 -980.779 309.791C-983.318 309.241 -986.116 308.25 -988.485 306.853C-986.359 308.16 -985.166 308.574 -984.834 308.8C-984.493 309.007 -984.95 308.935 -985.838 308.691C-986.278 308.556 -986.816 308.34 -987.408 308.106C-988.009 307.88 -988.619 307.529 -989.274 307.213C-989.893 306.853 -990.521 306.465 -991.095 306.078C-991.643 305.654 -992.19 305.284 -992.611 304.915C-991.992 305.348 -992.988 304.167 -992.629 304.338C-992.907 304.095 -993.177 303.86 -993.419 303.644C-993.661 303.419 -993.867 303.184 -994.074 302.968C-994.477 302.544 -994.827 302.166 -995.096 301.796C-995.365 301.436 -995.599 301.12 -995.805 300.85C-995.993 300.562 -996.128 300.309 -996.254 300.093C-996.756 299.228 -996.828 298.822 -996.953 298.308C-997.016 298.047 -997.097 297.767 -997.231 297.371C-997.348 296.965 -997.51 296.452 -997.779 295.749C-998.245 294.315 -999.07 292.089 -999.842 288.195L-999.914 289.061C-1000.39 286.113 -1000.51 283.247 -1000.51 280.345C-1000.5 277.434 -1000.32 274.486 -1000.08 271.305C-1000.21 269.962 -1000.4 271.53 -1000.59 273.486C-1000.76 275.442 -1000.84 277.794 -1001.04 277.993C-1000.86 268.916 -998.505 260.444 -997.231 252.44C-998.2 256.127 -999.223 261.508 -999.851 265.275C-999.51 260.85 -999.106 258.398 -998.748 256.235C-998.353 254.081 -997.958 252.215 -997.231 249.006L-997.375 249.637C-996.289 244.68 -995.034 239.759 -993.67 234.874C-993.993 236.126 -994.307 237.379 -994.603 238.632C-992.468 233.405 -990.701 227.979 -988.7 222.12C-986.7 216.262 -984.466 209.961 -981.353 203.084C-987.301 216.505 -982.636 205.184 -983.551 206.041C-982.322 202.381 -980.312 196.865 -981.075 198.361C-978.025 191.899 -976.93 187.167 -972.355 178.172C-972.346 177.685 -969.314 171.169 -970.364 172.467C-966.47 164.039 -970.983 174.594 -970.453 173.972C-968.883 170.754 -967.269 167.23 -965.582 163.444C-964.739 161.552 -963.878 159.605 -962.99 157.604C-962.093 155.612 -961.276 153.53 -960.37 151.421C-956.809 142.957 -952.799 133.836 -948.161 124.661C-940.517 108.68 -938.571 105.986 -931.717 91.0417C-930.748 88.4369 -931.34 89.4193 -932.183 91.0417C-933.027 92.6731 -934.121 94.9444 -934.121 94.9444C-930.766 86.6523 -928.102 80.4783 -924.818 72.727C-925.581 74.2592 -925.061 72.5738 -924.316 70.1132C-923.087 66.9676 -922.558 65.9671 -921.966 64.6963C-921.374 63.4254 -920.71 61.8842 -919.409 57.63C-920.082 59.018 -921.006 60.7665 -922.289 63.7589C-919.454 56.3501 -916.718 48.9773 -914.798 40.9917C-914.717 39.8921 -915.085 41.0818 -915.605 42.8754C-916.126 44.669 -916.852 47.0665 -917.337 48.4275C-916.027 44.0201 -914.601 38.2336 -913.865 33.1502C-913.497 30.6085 -913.3 28.2561 -913.183 26.3633C-913.094 24.4706 -913.111 23.0375 -913.04 22.3164C-912.833 24.2542 -912.726 26.2191 -912.761 28.193C-912.645 24.8401 -913.111 26.4715 -913.3 28.914C-913.739 32.8077 -914.161 35.6018 -914.394 37.4946C-914.628 39.3963 -914.663 40.3968 -914.619 40.6311C-914.188 38.7294 -913.784 36.8186 -913.47 34.8988C-913.372 37.9452 -914.556 43.7767 -916.574 50.0859C-918.548 56.4132 -921.275 63.2361 -923.347 68.7702C-922.531 67.3281 -921.724 65.868 -920.925 64.4078C-922.495 68.1483 -924.146 71.8437 -925.841 75.5211C-926.631 77.9817 -926.891 79.7843 -924.612 74.4034C-927.447 82.4161 -927.671 81.2715 -930.138 88.1395C-930.398 88.9056 -930.219 88.5811 -929.896 87.9142L-933.404 95.4311C-932.605 94.007 -933.466 96.9093 -931.529 92.1954C-937.099 106.022 -941.836 113.872 -943.63 119.217L-943.074 118.108C-951.866 136.783 -944.402 119.695 -951.408 133.521L-954.467 143.579L-955.795 145.202C-956.647 147.158 -958.316 151.024 -957.804 150.393C-961.348 157.487 -957.472 149.059 -959.661 153.124C-960.119 154.323 -960.639 155.63 -961.213 156.991C-961.814 158.343 -962.451 159.758 -963.097 161.209C-964.407 164.093 -965.762 167.086 -967.009 169.853C-969.493 175.396 -971.476 180.074 -971.521 181.308C-973.36 184.517 -967.932 172.178 -972.535 182.111C-972.902 185.346 -977.63 193.693 -980.626 202.58C-979.137 200.074 -976.078 191.764 -979.146 200.615C-982.017 205.554 -985.489 217.686 -988.081 225.121C-988.826 225.257 -993.849 241.3 -996.72 254.207C-996.487 253.828 -997.868 259.912 -998.721 267.7C-999.151 271.593 -999.402 275.911 -999.286 279.993C-999.205 284.076 -998.64 287.907 -997.895 290.8L-997.868 290.431C-997.913 291.035 -997.743 292.242 -997.312 293.811C-996.891 295.388 -996.137 297.299 -995.016 299.246C-993.885 301.183 -992.315 303.103 -990.405 304.635C-988.512 306.177 -986.305 307.321 -984.188 308.069C-984.286 307.808 -984.717 307.547 -985.623 307.042C-986.511 306.501 -987.947 305.807 -989.759 304.311C-987.615 305.96 -985.094 307.105 -982.447 307.835C-981.999 308.033 -981.496 308.196 -980.904 308.349C-980.321 308.52 -979.666 308.682 -978.877 308.809C-977.325 309.106 -975.289 309.286 -972.535 309.259C-973.252 309.142 -973.961 308.953 -974.661 308.782C-971.871 308.827 -969.045 308.682 -966.174 308.286C-963.295 307.907 -960.361 307.321 -957.329 306.763C-955.813 306.465 -954.306 306.033 -952.745 305.663C-951.964 305.465 -951.184 305.266 -950.394 305.068C-949.605 304.852 -948.816 304.599 -948.017 304.356C-946.42 303.851 -944.788 303.347 -943.11 302.815C-941.459 302.211 -939.764 301.598 -938.024 300.958C-937.073 301.102 -948.762 306.078 -933.825 301.156C-933.368 300.697 -932.955 300.156 -936.857 301.418C-935.566 301.039 -932.282 299.958 -929.779 298.903L-935.799 300.706C-929.537 298.173 -932.372 299.795 -927.321 297.858C-927.546 297.569 -923.697 296.136 -924.522 296.163C-925.168 296.406 -926.245 296.875 -927.411 297.371C-928.586 297.84 -929.842 298.326 -930.838 298.624C-927.994 297.551 -924.899 296.217 -922.235 295.045C-919.57 293.892 -917.355 292.828 -916.287 292.233C-916.7 292.63 -916.108 292.675 -911.972 290.99C-901.359 286.456 -908.509 289.034 -902.409 286.195C-899.745 285.311 -893.142 282.049 -892.748 282.463C-889.661 281.084 -889.204 280.579 -888.074 279.912C-882.53 277.686 -862.695 268.285 -868.571 271.638L-869.943 272.323C-869.683 272.206 -869.369 272.071 -869.046 271.936C-851.06 264.157 -832.311 254.396 -814.557 246.456L-814.656 246.302C-809.345 243.959 -803.478 241.264 -797.961 238.785C-792.444 236.325 -787.295 234.035 -783.437 232.503C-780.307 231.088 -776.189 228.871 -777.606 229.286C-769.461 225.752 -768.465 225.545 -756.866 220.083C-765.155 223.4 -754.165 218.569 -765.316 223.58C-760.086 221.156 -756.883 219.641 -753.564 218.145C-750.236 216.658 -746.791 215.18 -741.005 212.963C-745.051 214.225 -733.272 208.961 -728.159 206.969L-735.461 210.448C-729.773 208.06 -724.822 205.95 -719.798 203.769L-722.758 204.373C-701.282 194.504 -682.954 189.258 -666.654 181.615C-660.689 179.74 -678.496 186.545 -673.113 184.977C-668.072 182.976 -663.003 180.714 -658.769 178.875C-654.535 177.027 -651.171 175.522 -649.583 174.918C-642.684 172.133 -639.338 171.178 -635.92 170.15C-632.511 169.123 -628.995 168.131 -621.71 165.4C-623.504 166.284 -625.101 167.419 -614.067 163.742C-603.831 160.11 -601.741 158.523 -608.281 160.605C-610.748 161.443 -611.914 161.921 -611.788 161.948C-615.134 163.021 -619.512 164.445 -615.52 162.822L-614.121 162.561C-611.609 161.579 -606.818 159.866 -603.087 158.496C-599.346 157.162 -596.654 156.189 -598.377 156.576C-590.527 154.161 -594.941 155.792 -600.665 157.829C-587.54 153.115 -580.022 150.898 -566.396 146.401C-568.54 147.194 -570.468 148.059 -568.297 147.383C-563.301 145.743 -560.233 144.778 -558.25 144.183C-556.25 143.606 -555.326 143.399 -554.608 143.255C-553.164 142.976 -552.509 142.976 -545.673 140.966C-538.003 138.352 -548.687 141.002 -534.818 137.288C-526.457 134.647 -533.185 136.225 -536.585 137.027C-533.41 136.225 -530.369 135.368 -527.462 134.548C-524.546 133.737 -521.783 132.926 -519.2 132.151C-514.024 130.564 -509.511 129.221 -505.905 128.23L-512.615 129.807C-508.596 128.861 -505.34 128.005 -502.012 127.13L-505.708 128.545C-501.814 127.446 -498.495 126.581 -498.612 126.436C-494.494 125.697 -501.536 127.897 -493.418 126.265C-490.825 125.517 -486.833 124.553 -483.271 123.723C-479.701 122.894 -476.57 122.128 -475.727 121.641C-492.189 125.742 -474.04 120.623 -488.026 123.904C-485.326 123.282 -482.034 122.525 -478.104 121.515C-477.53 121.317 -478.687 121.533 -479.773 121.759C-471.932 119.64 -470.075 119.379 -468.129 119.181C-466.182 118.982 -464.163 118.811 -455.946 116.991C-458.108 117.117 -452.25 115.603 -449.55 115.107C-456.188 116.495 -452.618 116.288 -446.482 115.26C-435.968 112.854 -434.945 113.178 -429.41 112.042L-435.717 113.385C-433.51 113.277 -428.235 112.187 -420.816 110.988C-420.224 110.627 -427.562 112.024 -424.943 111.448C-420.78 111.006 -416.178 109.96 -411.146 108.996C-408.634 108.5 -406.014 107.977 -403.305 107.482C-400.596 106.986 -397.779 106.607 -394.89 106.256C-389.589 105.246 -394.46 105.58 -389.795 104.742C-383.3 104.066 -379.801 103.516 -376.231 102.921C-372.651 102.398 -368.982 101.83 -362.147 101.254C-366.031 102.11 -366.731 102.038 -357.078 101.488C-360.819 101.812 -364.569 102.137 -368.301 102.533C-372.042 102.921 -375.782 103.255 -379.514 103.723C-377.11 103.498 -374.706 103.309 -372.293 103.155L-365.071 102.642C-368.453 103.029 -372.024 103.372 -375.253 103.678C-378.483 104.021 -381.371 104.363 -383.39 104.661C-376.509 104.111 -377.227 104.093 -380.411 104.877C-371.261 103.02 -362.057 103.083 -351.399 101.587L-351.821 100.56C-347.802 100.091 -343.99 99.7665 -340.213 99.478C-336.436 99.2347 -332.686 99.0995 -328.784 98.9282C-324.882 98.8291 -320.836 98.7209 -316.449 98.6038C-314.251 98.5677 -311.972 98.5316 -309.586 98.4866C-308.393 98.4595 -307.173 98.4235 -305.917 98.3964C-304.661 98.3784 -303.387 98.3694 -302.069 98.3514C-304.32 98.4145 -306.572 98.4776 -308.824 98.6128C-308.115 98.7029 -306.949 98.7209 -305.495 98.739C-304.042 98.766 -302.293 98.757 -300.418 98.748C-298.543 98.748 -296.551 98.6939 -294.596 98.7299C-292.64 98.766 -290.729 98.8111 -289.025 98.8922C-289.653 98.5316 -285.392 98.4505 -282.467 98.3964C-282.647 98.5407 -278.798 98.6398 -274.672 98.9553C-270.545 99.2888 -266.14 99.6943 -265.225 100.181C-262.094 100.343 -258.955 100.433 -255.815 100.713C-253.698 100.974 -251.805 101.173 -250.1 101.461C-248.396 101.749 -246.862 102.029 -245.444 102.308C-244.736 102.452 -244.063 102.588 -243.399 102.714C-242.744 102.876 -242.116 103.029 -241.506 103.182C-240.277 103.498 -239.111 103.795 -237.954 104.093C-236.787 104.372 -235.648 104.742 -234.455 105.102C-233.262 105.454 -232.024 105.814 -230.678 106.211C-228.023 107.121 -224.928 108.013 -221.07 109.519C-223.331 108.464 -222.685 108.536 -222.748 108.356C-222.82 108.203 -223.591 107.608 -228.866 105.913C-227.547 106.31 -226.256 106.707 -225.062 107.067C-223.869 107.446 -222.802 107.896 -221.878 108.23C-220.963 108.581 -220.209 108.879 -219.68 109.113C-219.16 109.356 -218.882 109.564 -218.891 109.618C-217.348 110.213 -213.912 112.015 -210.592 114.503C-208.924 115.729 -207.327 117.153 -205.928 118.505C-204.564 119.893 -203.389 121.209 -202.564 122.236C-202.223 122.732 -201.989 123.183 -201.765 123.651C-201.532 124.111 -201.29 124.58 -201.038 125.175C-200.904 125.472 -200.751 125.787 -200.581 126.157C-200.428 126.527 -200.258 126.932 -200.061 127.401C-199.675 128.329 -199.235 129.492 -198.787 131.015C-198.518 131.664 -198.625 130.943 -198.625 130.943C-198.652 130.961 -198.527 131.574 -198.374 132.412C-198.284 132.827 -198.213 133.304 -198.159 133.782C-198.105 134.26 -198.024 134.747 -198.006 135.197C-197.953 136.089 -197.935 136.802 -198.006 136.955C-198.06 137.108 -198.141 136.693 -198.392 135.35C-197.576 139.569 -197.926 144.841 -199.343 150.168C-200.733 155.513 -203.075 160.939 -205.73 166.058C-211.059 176.324 -217.527 185.527 -221.34 191.8C-228.31 201.489 -237.155 212.782 -243.74 221.345C-243.237 220.858 -243.578 221.426 -242.367 219.786C-251.141 231.827 -248.781 226.401 -258.658 240.182C-263.386 247.474 -253.025 233.143 -256.084 237.614C-256.2 238.263 -257.035 239.597 -258.309 241.408C-259.582 243.22 -261.395 245.428 -263.305 247.88C-267.163 252.774 -271.675 258.605 -274.68 263.445L-273.021 261.246C-277.749 268.538 -285.625 278.326 -292.685 290.647C-292.685 290.647 -292.254 290.106 -292.488 290.665C-295.161 294.712 -298.749 300.76 -301.97 307.547C-305.208 314.316 -308.034 321.842 -309.505 328.502C-308.142 324.473 -307.738 322.59 -307.998 325.176C-308.77 328.106 -308.806 327.637 -309.075 327.898C-309.2 328.034 -309.38 328.34 -309.676 329.377C-309.945 330.413 -310.394 332.153 -310.734 335.19C-310.815 337.173 -310.851 340.364 -310.447 343.149C-310.08 345.934 -309.344 348.277 -308.949 348.746C-309.873 345.168 -310.107 341.4 -309.918 337.66C-309.837 339.111 -309.757 340.724 -309.631 342.428C-309.479 344.122 -309.281 345.907 -308.94 347.673C-308.581 349.431 -308.088 351.152 -307.469 352.748C-306.85 354.343 -306.052 355.758 -305.271 356.975L-305.415 356.2C-303.244 359.751 -300.938 361.986 -298.902 363.717C-296.847 365.438 -295 366.673 -293.062 367.827C-291.097 368.944 -289.025 369.981 -286.28 371.008C-284.889 371.477 -283.391 372.081 -281.615 372.586C-280.727 372.838 -279.785 373.099 -278.789 373.379C-277.793 373.676 -276.717 373.929 -275.56 374.181L-277.515 373.956C-275.039 374.704 -273.263 375.172 -271.837 375.497C-270.401 375.776 -269.325 375.921 -268.248 376.065C-266.104 376.371 -263.951 376.56 -258.883 377.597L-255.689 377.3C-254.846 377.435 -253.85 377.597 -252.72 377.777C-251.589 377.939 -250.325 378.111 -248.961 378.3C-246.234 378.706 -243.094 379.075 -239.784 379.463C-233.163 380.229 -225.834 380.905 -219.716 381.328C-226.632 380.409 -240.923 379.093 -249.688 377.741C-246.332 378.138 -240.609 378.715 -235.289 379.201C-229.97 379.706 -225.036 380.112 -223.286 380.409C-226.004 380.148 -229.431 379.769 -232.123 379.652C-223.878 380.842 -212.952 381.77 -199.433 382.347C-200.599 381.608 -191.798 381.914 -181.464 382.23C-171.13 382.554 -159.27 382.933 -154.345 382.563C-130.438 383.888 -106.862 383.969 -78.9896 385.754C-88.9383 386.205 -70.853 386.295 -72.6382 387.286C-66.1612 387.809 -63.6852 387.971 -63.1021 387.935C-56.5355 388.214 -49.9688 388.503 -43.411 388.89C-38.7282 388.99 -49.5561 388.097 -48.9371 387.908C-34.7362 389.107 -42.9356 387.944 -33.5162 388.584C-35.4808 388.8 -28.636 389.593 -20.5443 390.387C-24.3569 390.134 -28.1606 389.855 -31.9732 389.666C-27.0302 390.287 -23.4957 390.738 -20.6429 391C-17.7902 391.261 -15.6372 391.396 -13.4752 391.558C-11.3132 391.712 -9.15125 391.865 -6.28058 392.171C-3.41885 392.496 0.124634 393.018 5.0676 393.848L-1.1582 392.631C1.38055 393.027 4.99582 393.604 9.15833 394.109C11.2396 394.379 13.4554 394.659 15.734 394.956C18.0126 395.263 20.363 395.614 22.7133 395.957C32.1059 397.318 41.4087 399.03 46.3157 400.319C48.1368 400.499 50.559 400.599 46.1004 399.769C58.256 401.779 71.6765 404.645 84.3433 407.692C97.0102 410.729 108.932 413.893 118.217 416.227L116.486 415.47C120.909 416.741 124.057 418.12 129.664 419.463C129.413 419.274 127.96 418.688 130.014 419.265C132.329 420.049 141.569 423.276 147.391 425.06L142.528 423.158C154.038 426.665 162.686 429.972 170.76 433.343C174.815 434.993 178.69 436.759 182.736 438.526C186.755 440.374 190.944 442.257 195.502 444.411C195.573 444.231 196.713 444.547 198.507 445.241C200.292 445.953 202.741 446.998 205.45 448.215C210.824 450.721 217.184 453.956 221.311 456.345L221.078 456.084C227.223 459.563 232.695 463.177 237.736 466.899C242.787 470.604 247.353 474.533 251.471 478.851C255.598 483.159 259.24 487.972 262.039 493.434C264.82 498.896 266.793 505.178 266.739 511.992C267.053 516.192 266.407 521.97 264.174 528.117C261.877 534.219 258.235 540.663 253.696 546.702C249.21 552.795 243.998 558.635 238.786 564.079C233.583 569.532 228.38 574.625 223.787 579.176C226.55 576.337 222.899 579.176 219.508 582.277C215.202 586.558 206.984 593.408 208.186 593.282L209.738 591.777C208.33 593.615 205.37 596.635 201.889 600.123C198.327 603.539 194.326 607.306 190.917 610.731L189.123 611.191C180.7 620.664 169.441 632.859 161.152 645.423C157.025 651.696 153.634 658.014 151.508 663.711C149.364 669.407 148.467 674.4 148.369 677.744C147.857 680.646 147.75 683.954 147.929 687.226C148.171 690.498 148.826 693.715 149.598 696.546L149.992 696.086C151.275 699.916 152.908 703.08 154.666 705.937C156.523 708.731 158.425 711.309 160.659 713.806C165.063 718.844 170.293 723.9 178.349 730.489C177.335 729.498 176.295 728.533 175.308 727.524C179.82 731.246 182.53 733.797 185.185 736.266C187.84 738.727 190.442 741.116 194.9 744.261L198.022 745.514C214.995 757.213 233.134 767.668 249.991 779.268C249.766 778.998 249.372 778.475 246.564 776.654C250.673 779.259 258.684 784.225 265.187 788.471C271.691 792.716 276.697 796.231 274.93 795.69C275.217 795.474 279.684 798.412 285.166 802.297C290.665 806.154 297.115 811.049 301.564 814.456L300.443 813.023C304.058 816.087 305.933 817.664 308.158 819.548C309.27 820.485 310.49 821.477 312.078 822.748C313.657 824.019 315.595 825.587 318.151 827.66C320.681 829.49 320.556 829.012 317.21 826.578C325.615 832.707 323.426 831.788 333.438 839.494L329.975 836.285C334.165 839.638 336.066 841.216 337.43 842.496C338.802 843.766 339.709 844.659 341.826 846.723C343.064 847.867 344.66 849.255 346.365 850.725C348.051 852.212 349.855 853.771 351.541 855.213C354.887 858.133 357.812 860.576 358.52 860.972C358.951 861.576 360.171 862.955 361.849 864.722C363.499 866.525 365.661 868.67 367.913 870.896C368.631 871.392 367.097 869.661 366.316 868.805C372.784 875.042 377.198 880.08 381.082 884.614C384.958 889.175 388.259 893.276 392.323 897.953C392.619 898.044 393.175 898.638 393.839 899.414C385.011 888.147 377.054 879.819 377.781 880.621C377.942 880.468 380.006 882.496 381.271 883.695C382.527 884.902 383.083 885.209 380.239 881.568C386.285 888.652 395.803 901.378 402.352 910.554C402.702 910.977 403.043 911.383 403.339 911.681L402.711 910.698C404.272 912.789 405.483 914.799 406.649 916.656C408.65 919.657 409.942 921.559 411.7 924.551C412.22 925.02 413.934 927.886 415.782 931.329C417.594 934.79 419.514 938.828 420.653 941.514C420.007 941.28 423.057 948.247 419.881 941.848C420.258 942.686 419.558 940.793 417.908 937.305C417.549 936.512 417.118 935.583 416.876 935.061C416.912 935.169 416.966 935.295 417.02 935.43C415.315 932.032 413.037 927.625 410.112 922.821C412.247 926.868 414.409 931.104 417.477 936.728C417.953 938.152 418.491 939.621 418.93 940.973C419.361 942.325 419.747 943.551 420.025 944.425C421.837 947.94 424.071 953.312 425.497 958.242C426.995 963.146 427.596 967.571 427.919 968.635C428.233 973.168 428.135 978.098 427.381 983.065C426.636 988.031 425.228 992.979 423.344 997.486C421.469 1001.99 419.146 1006.05 416.822 1009.45C414.508 1012.85 412.202 1015.62 410.274 1017.62C408.668 1019.55 407.753 1020.66 407.152 1021.52C406.551 1022.39 406.192 1022.96 405.627 1023.71C407.663 1021.64 409.861 1018.96 410.946 1017.82C407.726 1021.7 402.684 1027.19 397.956 1031.59C393.256 1036.03 389.03 1039.53 387.927 1040.07C378.642 1048.53 393.677 1035.94 380.535 1047.11L382.437 1045.76C376.157 1051.47 370.272 1056.39 364.692 1061.11C363.302 1062.29 361.92 1063.46 360.557 1064.62C359.193 1065.81 357.839 1066.98 356.466 1068.09C355.094 1069.22 353.73 1070.35 352.366 1071.47C351.012 1072.61 349.702 1073.78 348.356 1074.94C345.647 1077.23 343.082 1079.7 340.399 1082.19C337.825 1084.79 335.124 1087.38 332.568 1090.3C327.365 1096.05 322.108 1102.6 317.344 1110.62C318.726 1108.44 319.416 1107.34 319.623 1106.84C313.702 1115.68 308.553 1125.25 305 1135.49C301.412 1145.73 299.851 1156.65 300.165 1167.56C300.425 1178.51 301.986 1189.39 303.978 1200.07C305.996 1210.75 308.463 1221.24 310.948 1231.53C312.311 1237.4 312.966 1240.67 313.397 1243.39C313.837 1246.11 314.106 1248.27 314.635 1251.91L315.667 1254.37C315.981 1256.44 316.214 1258.53 316.483 1260.62C316.734 1262.71 317.021 1264.79 317.21 1266.89C318.439 1275.73 319.452 1283.39 320.367 1291.67C321.399 1299.92 321.91 1308.96 320.798 1320.26L320.583 1317.33C320.538 1318.35 320.484 1319.51 320.421 1320.76C320.367 1322.01 320.197 1323.36 320.071 1324.74C319.937 1326.12 319.802 1327.55 319.659 1328.94C319.497 1330.34 319.273 1331.71 319.102 1333.02C318.923 1334.32 318.753 1335.55 318.609 1336.65C318.43 1337.74 318.268 1338.71 318.134 1339.5C317.882 1341.07 317.784 1341.91 317.945 1341.6C317.712 1342.4 317.147 1344.16 316.573 1347.29L316.797 1347.59C315.236 1354.08 313.056 1360.41 310.661 1366.61C309.288 1370.22 308.723 1371.93 308.508 1372.77C308.257 1373.59 308.418 1373.57 308.481 1373.75C308.544 1373.93 308.508 1374.32 307.871 1375.95C307.548 1376.77 307.081 1377.9 306.391 1379.47C305.628 1381.01 304.614 1382.98 303.296 1385.5C302.219 1387.33 300.82 1389.49 299.411 1391.68C297.877 1393.79 296.316 1395.93 294.899 1397.71C291.93 1401.19 289.857 1403.48 290.754 1402.18C291.786 1400.83 293.087 1399.09 294.11 1397.64C295.132 1396.19 295.76 1394.95 295.733 1394.78C294.307 1396.9 292.62 1398.82 291.041 1400.82C290.297 1401.11 288.844 1402.25 288.978 1401.46C289.059 1401.06 289.498 1400.17 290.611 1398.45C291.158 1397.59 291.903 1396.54 292.791 1395.21C293.625 1393.84 294.648 1392.2 295.886 1390.26C297.115 1388.51 298.245 1386.69 299.438 1384.9C300.048 1384.02 300.551 1383.06 301.098 1382.13L302.713 1379.34C303.269 1378.07 303.69 1376.73 304.148 1375.42L303.018 1377.88L301.753 1380.27L300.488 1382.67L299.86 1383.87C299.645 1384.27 299.402 1384.65 299.169 1385.03C299.914 1383.69 300.443 1382.39 301.044 1381.25C301.627 1380.09 302.201 1379.04 302.757 1378.04C303.789 1376 304.758 1374.17 305.781 1372.23C306.032 1371.22 306.507 1369.45 307.386 1367.06C308.328 1365.17 309.1 1363.2 309.898 1361.25L311.1 1358.31L312.159 1355.31C312.267 1353.74 309.988 1360.59 312.132 1352.37C312.634 1350.97 312.796 1350.61 312.859 1350.74C312.93 1350.86 312.859 1351.45 312.814 1351.93C312.769 1352.4 312.751 1352.76 312.921 1352.41C313.011 1352.23 313.146 1351.87 313.352 1351.27C313.531 1350.66 313.765 1349.79 314.07 1348.59C315.119 1342.46 314.384 1344.18 316.034 1337.09C316.007 1336.06 315.595 1337.54 314.976 1340.36C315.146 1339.56 315.335 1338.71 315.523 1337.81C315.729 1336.92 315.891 1335.97 316.025 1335C316.321 1333.06 316.617 1331.04 316.914 1329.12C317.129 1327.2 317.326 1325.36 317.524 1323.8C317.73 1322.24 317.918 1320.96 318.053 1320.13C318.017 1318.51 318.071 1316.34 318.169 1313.99C318.187 1311.65 318.196 1309.13 318.214 1306.84C318.143 1302.27 317.891 1298.58 317.533 1298.91C317.667 1296.88 317.308 1287.46 316.842 1281.49C316.842 1284.24 316.707 1284.21 316.519 1282.69C316.33 1281.17 315.945 1278.15 315.532 1274.88C315.119 1271.62 314.518 1268.12 314.088 1265.63C313.594 1263.13 313.182 1261.64 313.065 1262.39C312.805 1258.34 311.594 1251.14 309.952 1243.21C308.346 1235.27 306.4 1226.59 305.117 1219.5C305.224 1220.3 305.422 1221.88 305.736 1223.1C303.942 1215.2 303.224 1212.94 302.022 1207.85C302.273 1207.27 301.807 1203.87 301.232 1199.75C300.954 1197.69 300.658 1195.45 300.38 1193.31C300.12 1191.15 299.932 1189.09 299.779 1187.38C299.232 1184.94 299.026 1184.09 298.909 1184.16C298.801 1184.22 298.792 1185.21 298.882 1186.39C299.026 1188.77 299.304 1192.01 298.747 1190.5C298.909 1190.6 298.864 1189.57 298.721 1188.02C298.64 1187.25 298.55 1186.35 298.451 1185.38C298.371 1184.42 298.29 1183.4 298.209 1182.4C298.057 1180.41 297.886 1178.52 297.85 1177.32C297.841 1176.12 297.895 1175.63 298.075 1176.47C297.599 1172.66 297.402 1171.02 297.285 1169.83C297.187 1168.64 297.079 1167.92 296.747 1165.93C297.204 1165.25 297.079 1163.46 297.258 1161.02C297.312 1159.8 297.366 1158.42 297.465 1156.95C297.492 1156.58 297.501 1156.2 297.554 1155.83C297.617 1155.45 297.68 1155.07 297.743 1154.68C297.877 1153.92 298.03 1153.13 298.2 1152.35C298.317 1150.95 298.407 1149.85 298.478 1148.99C298.595 1148.12 298.676 1147.48 298.747 1147C298.864 1146 298.864 1145.6 298.9 1145.17C299.017 1144.31 298.963 1143.26 300.9 1137.38C301.6 1134.51 301.107 1135.69 300.425 1137.6C300.102 1138.56 299.716 1139.7 299.411 1140.59C299.268 1141.04 299.133 1141.43 299.044 1141.71C298.963 1141.98 298.927 1142.16 298.927 1142.16L298.783 1142.12ZM398.019 909.878C399.419 911.897 400.639 913.6 401.365 914.718C400.702 913.69 399.706 912.311 398.028 909.878H398.019ZM383.208 891.04C384.15 892.149 385.218 893.402 386.348 894.736C387.452 896.097 388.636 897.548 389.847 899.044C390.511 899.585 390.08 898.765 388.555 896.899C388.923 897.449 388.196 896.638 387.084 895.349C385.962 894.069 384.41 892.356 383.208 891.04ZM415.297 930.788C413.485 927.381 412.794 926.282 412.418 925.885C413.306 927.472 414.337 929.337 415.62 931.825C415.656 931.933 415.737 932.149 415.773 932.258C415.692 931.888 415.584 931.464 415.297 930.779V930.788Z" fill="white"/>
<path d="M417.827 937.287C418.051 937.801 418.177 938.08 418.473 938.738C418.105 938.044 417.755 937.377 417.396 936.71C417.244 936.259 417.091 935.8 416.948 935.412C417.271 936.034 417.558 936.701 417.836 937.287H417.827Z" fill="white"/>
<path d="M144.529 672.506L144.646 672.569C144.457 673.272 144.314 673.993 144.152 674.705C144.278 673.975 144.376 673.236 144.529 672.506Z" fill="white"/>
<path d="M181.237 620.393C182.377 619.266 183.498 618.112 184.655 617.004C182.538 619.167 180.448 621.348 178.403 623.574C179.345 622.52 180.269 621.438 181.228 620.393H181.237Z" fill="white"/>
</g>
<defs>
<clipPath id="clip0_2204_1436">
<rect width="1556" height="1415.23" fill="white" transform="matrix(-1 0 0 1 428 0)"/>
</clipPath>
</defs>
</svg>
