<svg width="293" height="1148" viewBox="0 0 293 1148" fill="none" xmlns="http://www.w3.org/2000/svg">
<g clip-path="url(#clip0_32_919)">
<path d="M47.7973 251.269C47.1494 250.51 46.924 250.179 46.9334 250.127C47.5344 250.83 47.9945 251.424 47.7973 251.269Z" fill="white"/>
<path d="M61.9769 268.408C61.7046 268.031 61.4698 267.711 61.2163 267.374C61.545 267.757 61.8642 268.151 61.9769 268.408Z" fill="white"/>
<path d="M78.6731 302.045C78.6449 301.976 78.6355 301.954 78.6168 301.891C78.3726 300.977 78.551 301.491 78.6731 302.045Z" fill="white"/>
<path d="M151.167 617.02C151.599 615.21 150.914 616.637 150.303 617.837C149.655 619.03 149.111 620.001 149.909 617.3C149.928 617.831 152.519 612.543 151.167 617.02Z" fill="white"/>
<path d="M149.909 617.294L150.059 616.734C149.993 616.968 149.956 617.094 149.909 617.294Z" fill="white"/>
<path d="M90.8149 382.312C90.7023 382.153 90.599 381.838 90.4863 381.507C90.5426 381.53 90.6271 381.713 90.8149 382.312Z" fill="white"/>
<path d="M82.7861 322.519L83.1335 323.992C82.9739 323.41 82.8706 322.936 82.7861 322.519Z" fill="white"/>
<path d="M95.2659 413.237C95.4819 414.031 95.6416 414.294 95.8575 415.385C95.8012 415.288 95.7636 415.191 95.7073 415.059C95.6791 414.659 95.557 414.14 95.2659 413.237Z" fill="white"/>
<path d="M106.628 444.75C106.516 444.59 106.384 444.379 106.262 444.196C106.131 443.888 105.971 443.522 105.84 443.202L106.628 444.75Z" fill="white"/>
<path d="M91.4722 414.922C91.9605 416.624 92.3925 418.331 92.9371 420.027C92.4394 418.605 91.9699 416.749 91.4722 414.922Z" fill="white"/>
<path d="M78.382 829.529L78.0721 830.688C78.1566 830.237 78.2599 829.826 78.382 829.529Z" fill="white"/>
<path d="M98.1112 435.081C98.6558 435.949 99.1347 436.886 99.6231 437.856C99.67 438.068 99.7451 438.313 99.7451 438.456C99.1629 437.337 98.6558 436.206 98.1112 435.081Z" fill="white"/>
<path d="M-141.176 1057.12C-137.588 1052.72 -138.875 1055.24 -137.757 1054.41C-133.269 1049.23 -136.217 1051.85 -135.062 1049.97C-132.198 1046.75 -129.531 1044.43 -127.513 1041.99C-127.466 1041.78 -127.099 1041.29 -127.691 1041.8C-124.301 1038.52 -118.93 1031.62 -114.723 1027.86C-114.507 1027.55 -114.422 1027.39 -114.404 1027.3C-114.685 1028.04 -114.46 1028.24 -114.122 1028.18C-112.347 1026.27 -110.488 1024.74 -110.197 1023.89C-111.286 1025.07 -111.521 1025.12 -112.15 1025.63C-111.474 1024.97 -110.816 1024.32 -110.121 1023.67C-109.558 1022.67 -110.253 1023.34 -111.136 1024.24C-112 1025.14 -113.061 1026.28 -113.267 1026.21C-111.399 1024.27 -109.22 1022.21 -107.21 1020.25C-105.163 1018.31 -103.276 1016.46 -101.867 1014.96C-101.849 1014.12 -108.844 1021.83 -105.473 1017.69C-106.919 1019.25 -108.309 1020.82 -109.689 1022.39C-107.22 1018.54 -112.291 1025.23 -110.15 1021.65C-104.487 1015.49 -103.36 1014.94 -97.3129 1008.94C-95.6039 1007.72 -97.3411 1009.55 -95.632 1008.34C-90.8617 1004.28 -89.3217 1002.54 -88.0727 1001.07C-87.453 1000.34 -86.899 999.675 -86.0256 998.836C-85.1336 998.008 -83.9034 997.008 -81.9502 995.604C-80.8609 994.907 -79.95 994.501 -78.7293 993.719C-77.4991 992.942 -75.9779 991.771 -73.4988 989.641L-75.8652 990.778C-69.0384 985.375 -71.1418 988.088 -64.1929 982.348C-65.7423 983.211 -69.8741 986.432 -68.8881 985.592C-64.6061 981.76 -65.2071 983.199 -61.5354 980.447L-61.2631 979.63C-53.6287 974.068 -44.7735 968.185 -36.1061 962.16C-36.7259 962.423 -38.3411 963.382 -36.4911 961.886C-25.4292 954.353 -13.447 945.524 -3.66222 937.849L0.601036 935.176C1.48374 934.502 2.05655 933.834 1.01422 934.519C4.74222 931.487 1.49312 934.502 3.53084 933.16C5.74699 931.481 6.16957 930.807 4.65771 931.818C8.26363 929.294 13.203 925.61 17.9827 921.795C22.7061 917.958 27.2792 913.989 30.1715 910.945L28.7911 912.03C29.9837 910.87 30.9979 909.997 31.8993 909.266C32.7727 908.523 33.552 907.924 34.3127 907.335C35.0733 906.747 35.8151 906.159 36.6227 905.445C37.4115 904.725 38.2379 903.863 39.2051 902.738L38.2942 903.543C43.243 898.432 48.2293 892.972 52.408 887.661C56.6055 882.356 59.8922 877.182 62.0144 872.853C62.8502 872.122 64.409 869.346 65.7049 866.651C66.381 865.309 67.0383 863.989 67.5548 862.967C68.0994 861.945 68.5783 861.231 68.9352 861.094C70.1371 857.782 70.4095 856.577 70.8884 855.052C71.2734 853.51 71.9589 851.66 73.3205 846.971C73.7337 845.726 74.175 844.812 74.6727 843.824C75.161 842.836 75.7338 841.78 76.2128 840.232L75.6587 840.095L77.3959 835.932L77.2551 833.613C77.5368 832.642 77.8373 831.671 78.0908 830.7C77.8655 831.871 77.7622 833.202 77.9688 833.036C78.3162 831.9 78.6167 830.632 78.8515 829.364C79.0862 828.096 79.3116 826.834 79.4337 825.709C79.6872 823.459 79.7623 821.763 79.6309 821.694L80.7953 816.269L81.8376 810.832C81.5841 811.06 81.2272 812.882 80.861 814.316C82.3071 808.531 80.4197 813.231 81.6874 807.919C81.7249 808.639 82.0818 807.548 82.2132 807.434C82.2132 804.756 82.9269 798.696 83.5185 794.202L83.0302 795.047C83.7814 786.932 84.852 777.937 85.8286 768.805C85.6689 772.089 86.4389 771.364 86.7864 768.685L86.2887 767.589C86.8521 765.876 86.2136 770.393 87.0681 766.864C87.3874 763.454 86.6361 764.539 86.2136 766.492L86.9084 762.358C86.7582 762.106 86.5422 763.072 86.2887 763.317C86.8615 761.632 86.5798 756.127 87.6033 753.706L87.4531 753.46C88.1292 748.897 88.7771 745.585 89.4345 742.489C89.7819 740.942 90.12 739.445 90.4768 737.875C90.8618 736.304 91.275 734.66 91.7351 732.809C92.3173 732.718 92.8996 729.811 93.9888 727.664C95.3692 722.238 97.1065 716.208 99.8672 709.806C102.074 705.351 100.872 708.561 102.046 706.59C101.698 706.179 104.694 699.834 102.835 703.072C104.638 699.258 105.858 696.836 107.258 694.175C107.952 692.844 108.704 691.451 109.624 689.806C110.535 688.156 111.615 686.254 112.976 683.889C112.61 684.963 112.075 686.14 112.554 685.568C113.54 683.855 114.46 681.599 114.113 681.805L113.821 682.25C120.263 671.708 126.132 657.431 131.569 649.133L131.269 649.601C132.997 646.7 134.696 643.793 136.368 640.88C138.321 636.797 134.8 643.256 136.02 640.189C141.551 630.789 143.185 625.061 146.848 617.18C147.317 613.988 149.374 608.517 151.083 602.72C152.829 596.929 154.135 590.807 154.228 586.541L154.501 587.049C155.092 584.868 154.698 584.382 154.735 582.76C155.008 583 154.782 585.159 155.13 583.8C155.665 579.14 155.909 574.399 155.637 569.614C155.327 564.828 154.698 560.008 153.656 555.199C152.585 550.391 151.261 545.594 149.627 540.842C147.974 536.096 146.153 531.385 144.153 526.742C141.157 519.969 144.256 522.601 139.495 514.195L140.058 516.719C134.386 502.933 125.672 489.015 118.949 475.669C119.249 476.486 119.089 476.543 119.803 477.833C117.812 475.132 114.084 467.497 114.422 467.377C113.258 465.321 113.85 466.96 112.976 465.726C111.201 462.962 109.765 458.548 108.572 457.125C108.366 456.886 108.844 457.948 109.079 458.468C108.3 456.594 104.675 449.873 106.046 451.552C103.332 446.56 101.68 441.86 99.6513 437.845C99.379 436.475 98.4211 434.305 97.6135 432.346C96.8435 430.381 96.1768 428.639 96.421 428.165C96.0735 428.405 95.1251 426.167 94.2048 423.448C93.7917 422.083 93.3785 420.604 93.031 419.256C92.7118 417.908 92.4958 416.686 92.3737 415.858C92.4019 416.983 91.3595 413.026 91.3407 414.345C90.9088 412.46 90.5238 410.656 90.336 409.399C90.1763 408.137 90.1763 407.429 90.458 407.743C87.9884 400.873 88.7959 393.74 86.9742 389.896C85.9507 378.657 85.3778 368.275 84.5702 358.195C83.7627 358.589 85.5656 369.337 84.636 368.937C84.0444 359.36 84.2979 353.82 82.9739 344.369C82.5607 341.925 82.7767 345.774 82.7297 346.608C81.9597 337.065 80.2601 328.213 78.9172 319.766C78.8421 319.795 78.9548 320.708 79.0769 321.571C78.7482 319.909 78.1284 317.727 78.551 317.882L78.7951 319.503C79.3586 320.806 79.2928 319.138 79.1144 317.099C78.9078 315.066 78.5416 312.662 78.6543 312.502C78.4383 313.958 77.9031 311.885 77.2739 310.035C76.6635 308.179 76.0719 306.545 75.9874 308.835C75.7714 307.745 75.5648 306.363 75.8841 306.585C75.3207 304.986 75.0202 304.495 75.2268 306.157C73.6398 300.258 74.6727 302.296 72.851 296.985C72.6914 297.025 72.9825 298.105 72.9543 298.681C72.7008 297.311 72.3345 295.952 71.8556 294.375C71.4049 292.793 70.6818 291.006 69.6583 288.801C69.6583 289.087 69.3014 288.596 69.8649 289.915C69.1042 288.002 68.3154 286.249 67.6018 284.541C66.9256 282.828 66.1181 281.2 65.3668 279.533C65.1696 279.116 64.9818 278.699 64.7846 278.282C64.5687 277.865 64.3527 277.448 64.1273 277.026C63.6672 276.186 63.207 275.329 62.7281 274.444C61.7515 272.685 60.5214 270.863 59.1692 268.865C59.5354 270.144 59.0846 269.464 58.3146 268.459C57.554 267.454 56.5586 266.101 56.0985 265.975C55.2064 264.53 54.1547 263.125 53.1687 261.703L54.765 263.302C53.3565 261.463 52.1733 259.687 50.868 258.02C50.2389 257.18 49.6097 256.363 48.9712 255.558C48.3044 254.764 47.6001 253.993 46.8771 253.24C47.5626 254.159 48.295 255.067 48.943 255.992C48.0227 254.856 47.0273 253.736 46.0695 252.611C45.1211 251.481 44.1163 250.367 43.0927 249.259L44.9614 251.092L46.755 252.954C45.3183 251.086 45.6 251.115 45.6939 251.029C45.7878 250.938 45.6939 250.727 43.3932 248.397C43.8064 248.888 42.9801 248.003 41.7781 246.78C40.5479 245.57 38.914 244.034 37.8435 243.188L37.8435 243.2C37.111 242.297 36.2847 241.401 35.3362 240.413C34.369 239.425 33.2985 238.328 31.8336 237.112C30.9322 236.535 31.7585 237.894 31.1669 237.523C29.8992 235.656 22.5371 229.568 20.5463 227.329C21.2318 228.066 20.9783 228.231 20.6496 228.031L19.4289 226.507C17.4851 225.033 17.1282 224.845 17.2033 225.199C11.5503 220.682 19.7106 226.312 12.7429 221.064C13.2406 221.498 12.9401 221.321 13.973 222.229C7.10862 216.901 0.995474 211.784 -5.6999 207.067C-8.16019 205.919 -0.159542 211.338 -2.81703 209.939C-12.0384 202.938 -21.7763 195.348 -31.2231 188.826L-29.4295 190.025C-29.9647 188.717 -36.7446 185.314 -41.0924 181.784C-39.9937 182.63 -40.0031 183.075 -40.2285 182.812C-46.7173 178.346 -53.084 173.463 -62.2303 166.348L-61.2631 167.313C-65.1037 164.686 -70.9258 160.163 -74.8228 157.193C-75.7713 156.211 -77.9311 154.486 -76.3347 155.406C-82.7577 151.02 -87.9788 146.405 -92.7492 141.819C-97.5195 137.228 -101.848 132.687 -106.685 128.393C-105.642 129.461 -104.384 131.008 -105.22 130.158C-106.431 128.878 -107.633 127.593 -108.797 126.297C-109.971 125.006 -111.154 123.716 -112.291 122.414C-111.352 122.893 -111.145 123.356 -109.323 124.863C-110.037 123.818 -111.84 121.58 -113.596 119.667C-110.666 123.224 -114.253 119.849 -115.803 118.404C-115.465 118.621 -115.793 118.056 -115.558 118.147C-119.831 114.304 -115.436 117.228 -120.742 111.808L-120.686 112.168C-122.404 110.055 -123.766 108.033 -125.747 105.795C-126.987 104.995 -124.057 108.09 -124.301 108.347C-126.987 105.167 -128.752 101.814 -131.588 99.0615C-130.593 100.455 -128.968 102.402 -127.954 103.79C-131.118 100.815 -131.269 100.404 -133.297 98.0963L-133.09 98.3248L-137.786 92.9908L-136.509 94.3271C-138.631 89.9754 -142.969 86.1148 -146.641 80.501C-143.054 85.9549 -146.35 81.4947 -146.528 82.0486C-147.805 80.718 -149.683 78.6791 -149.336 79.3131C-151.036 76.6518 -153.158 75.1727 -155.58 71.4149C-155.881 71.3064 -157.872 68.7136 -157.806 69.4103C-160.482 66.0923 -156.858 70.0956 -156.895 69.7587C-160.642 64.5161 -167.722 58.1027 -173.629 50.7356C-175 49.1765 -176.061 47.9258 -176.962 46.8407C-177.873 45.7499 -178.643 44.8305 -179.395 43.9282C-180.878 42.1007 -182.4 40.3645 -185.095 37.5148C-186.203 36.6296 -185.93 37.0636 -185.404 37.7204C-184.888 38.3828 -184.099 39.268 -184.099 39.268C-185.743 37.7832 -187.189 36.4925 -188.55 35.1961C-189.893 33.894 -191.208 32.6091 -192.673 31.1814C-192.184 31.8039 -192.936 31.2613 -194.044 30.4846C-196.466 28.2288 -195.161 28.7656 -198.73 25.9387C-198.316 26.5098 -197.847 27.2637 -196.795 28.4002C-198.204 27.0638 -199.612 25.7331 -201.021 24.3911C-202.467 23.0661 -203.922 21.7183 -205.472 20.3706C-206.58 19.788 -203.913 22.1409 -202.965 23.1518C-203.838 22.3979 -204.843 21.5299 -205.866 20.639C-206.918 19.7595 -207.998 18.8572 -209.003 18.0177C-210.965 16.3215 -212.712 14.9223 -213.097 14.3741L-210.496 16.1445C-211.876 15.0879 -211.547 15.7733 -210.599 16.5785C-207.725 19.2341 -205.866 20.125 -205.538 20.2049L-207.801 18.3089C-204.439 19.7823 -198.654 25.9159 -194.26 29.7936C-194.635 29.1597 -195.03 28.5258 -195.443 27.8976C-194.091 29.2911 -192.832 30.7245 -191.518 32.1351C-190.41 32.9232 -189.395 33.3629 -191.433 31.3813C-189.715 32.7233 -189.104 33.3743 -188.55 33.9797C-187.987 34.585 -187.48 35.1333 -186.005 36.2869C-185.667 36.5382 -185.761 36.4011 -186.005 36.1384C-185.076 37.0922 -184.193 38.0573 -183.31 39.0225C-183.733 38.4171 -182.362 39.3137 -184.221 37.6175C-181.451 40.0732 -179.507 42.1692 -178.014 43.8768C-176.484 45.5786 -175.366 46.8807 -174.202 47.7659L-174.568 47.3205C-171.291 50.9355 -171.272 51.1582 -171.488 51.1639C-171.704 51.1696 -172.173 50.9697 -169.985 53.7681C-168.455 54.836 -166.943 55.9154 -165.45 57.0005L-165.318 57.88C-164.633 58.6224 -163.271 60.0901 -163.318 59.7474C-161.224 62.66 -163.957 59.342 -162.867 61.0724C-159.205 64.5275 -154.482 71.1465 -152.989 71.7176C-152.275 73.1453 -156.219 68.3253 -153.214 72.3001C-151.402 73.1396 -149.599 76.8517 -146.434 80.0727C-146.829 78.9076 -149.683 75.8123 -146.519 79.0332C-145.617 81.2833 -140.988 85.4981 -138.819 88.3649C-139.316 88.6848 -134.048 94.5841 -130.33 99.3699C-130.386 99.0158 -122.601 108.153 -118.563 112.419L-118.563 112.259C-118.46 113.299 -114.422 117.748 -111.577 121.009C-111.333 120.757 -111.727 120.135 -113.155 118.324L-110.394 121.363C-109.934 122.145 -109.182 123.127 -107.389 125.103L-107.652 124.19C-103.933 128.21 -100.477 132.419 -94.9371 137.313C-95.0404 137.759 -100.29 133.767 -94.9371 139.175C-94.5145 139.284 -93.9323 139.335 -95.3127 137.913C-94.8526 138.376 -93.7915 139.609 -92.7022 140.471C-93.3501 139.729 -93.9605 138.969 -94.5897 138.221C-92.0167 140.431 -93.6506 139.541 -91.6223 141.322C-91.35 141.162 -89.9226 142.562 -89.9696 142.202C-90.4485 141.734 -91.8383 140.688 -92.4768 139.957C-90.1762 141.956 -87.2839 144.326 -86.1101 145.012C-86.4857 144.909 -86.5233 145.183 -84.8706 146.662C-80.4759 150.431 -82.9925 147.787 -80.2411 149.9C-79.3866 150.905 -76.2595 153.161 -76.6164 153.424C-75.2736 154.503 -74.8228 154.606 -74.1843 154.966C-73.095 155.965 -70.2872 158.17 -68.1462 159.889C-65.9864 161.596 -64.5027 162.83 -66.1179 161.887L-66.7752 161.425C-66.6625 161.516 -66.5311 161.625 -66.3902 161.739C-58.784 168.09 -49.1588 174.223 -41.0173 180.231L-40.8858 180.145C-36.0873 183.766 -29.899 188.049 -26.6406 190.728C-25.1663 191.773 -22.9126 193.058 -23.3727 192.527C-19.6822 195.285 -19.4005 195.668 -13.7099 199.465C-17.2595 196.61 -12.1699 200.293 -17.4285 196.576C-12.3953 200.036 -11.0431 200.722 -6.20699 204.731C-7.60616 203.24 -2.09397 207.181 0.0846062 208.94L-3.55888 206.564C-1.02347 208.494 1.24901 210.156 3.54028 211.858L2.79842 210.693C13.1936 217.792 19.0814 224.628 26.9037 230.093C27.899 231.201 26.6313 230.167 25.3261 229.111C23.9832 228.071 22.6122 227.004 23.4762 228.003C25.6266 229.745 27.8521 231.515 29.8053 232.949C31.7022 234.405 33.2234 235.57 33.8526 236.135C39.4868 241.052 38.0782 241.115 43.5529 246.415C42.7077 245.787 41.5903 245.318 45.1962 249.436C46.1165 250.373 46.8583 251.126 47.4499 251.686C48.0509 252.246 48.5016 252.606 48.7833 252.771C49.3468 253.097 49.2341 252.64 48.2481 251.395C47.4593 250.464 46.9898 250.041 46.9522 250.104C45.8723 248.854 44.4544 247.214 46.0695 248.648L46.3325 249.208C48.3138 251.018 52.8776 256.369 52.117 255.016C54.3519 258.042 52.8494 256.375 50.9056 254.227C52.0512 255.45 52.9715 256.563 53.8636 257.608C54.2955 258.134 54.7181 258.642 55.1407 259.145C55.5257 259.653 55.9107 260.155 56.2863 260.658C57.0469 261.663 57.8075 262.674 58.6339 263.765C59.4133 264.867 60.2584 266.038 61.2351 267.357C60.5308 266.54 59.742 265.821 60.3336 266.66C61.7985 268.585 62.5028 269.807 62.9911 270.589C63.4606 271.377 63.6296 271.743 63.7329 272.04C63.9395 272.622 63.9301 272.891 65.4232 275.609C66.4655 277.111 66.5031 276.797 66.6345 276.791C66.7472 276.791 67.0477 277.088 68.3248 279.87C70.2968 283.193 69.2639 280.475 68.738 279.099C71.048 284.187 73.5741 288.51 74.8887 291.417L73.9215 288.699C74.4849 290.326 75.1047 291.64 75.593 292.993C75.2456 292.502 74.9263 292.005 74.5507 291.514C75.2737 293.085 75.762 294.432 75.9311 294.375C76.2691 296.049 74.7291 293.227 75.5836 296.523C76.5696 298.613 77.565 303.01 78.335 303.684C77.781 302.011 77.5368 301.223 77.4617 300.886C77.396 300.549 77.518 300.663 77.6683 300.806C77.9594 301.097 78.3256 301.514 77.4054 298.676C77.6965 299.778 78.2036 301.103 78.7576 302.702C78.8984 302.936 78.8045 302.462 78.7106 302.017C81.1897 308.39 79.0017 305.043 80.8235 311.714C80.9456 310.834 81.8189 313.204 82.0161 314.307C81.3587 311.605 81.1521 313.067 81.4996 315.563C82.711 319.835 82.3447 320.246 82.8142 322.49C82.617 321.634 82.4011 320.783 82.1663 319.932C82.0442 320.823 82.4856 322.97 82.9551 325.974C83.265 326.214 82.617 323.244 82.9363 324.301C83.0021 327.664 84.8614 331.788 85.1431 336.459C85.6595 338.601 85.791 336.636 86.2042 338.521C86.345 341.142 86.6268 342.547 86.9179 343.986C87.2183 345.425 87.5188 346.899 87.6409 349.651C87.0212 348.087 87.1057 347.807 87.0869 351.685C86.8709 348.675 86.6455 345.665 86.3732 342.656L86.4014 348.469C86.1103 345.751 86.007 342.718 85.7347 341.091C85.7065 343.861 85.7816 343.575 85.2558 342.29C86.3826 345.979 85.7441 349.68 86.6268 353.963L87.716 353.792C88.8805 360.245 88.2607 365.305 89.3875 373.683L88.9274 370.993C88.5987 372.135 89.3781 376.173 89.5002 378.897C89.8477 378.629 90.1482 380.325 90.5238 381.467C90.2233 381.341 91.2656 387.595 90.6459 388.389C90.9651 389.628 91.2938 390.862 91.6412 392.101C92.8338 398.834 91.7351 399.862 93.1249 406.332C93.1437 404.356 93.9513 407.275 93.4254 402.923C93.801 405.082 94.3175 407.012 94.0546 407.069C94.5147 408.308 94.8621 413.083 95.7355 415.025C95.8106 415.944 95.5101 416.275 96.1768 418.685C96.3271 418.942 96.3552 418.657 96.3552 418.657C96.1768 418.685 97.2379 422.443 96.205 420.387C97.6887 423.631 99.285 428.2 100.947 432.66C102.675 437.109 104.497 441.438 106.29 444.162C108.272 448.753 110.882 454.247 113.023 458.359C112.995 458.074 113.192 458.313 112.751 457.542C114.375 460.346 114.61 461.266 114.873 462.282C115.145 463.299 115.455 464.413 117.39 467.594C119.747 470.763 115.84 464.116 117.174 466.12C118.808 466.783 121.249 473.91 124.329 478.09L123.813 477.028C126.038 480.249 127.86 485.172 130.912 490.563C130.912 490.563 130.874 490.277 131.072 490.494C132.518 494.309 136.105 501.362 138.593 506.634C138.208 504.92 137.607 504.212 138.593 505.114C139.73 507.473 137.523 504.56 139.739 509.283C140.772 510.757 142.603 514.121 143.326 514.486C142.612 513.001 141.946 511.511 141.204 510.037C142.969 512.196 143.983 515.794 145.148 518.13L145.289 517.781C148.275 524.657 147.627 524.863 150.547 532.287L150.05 531.55C150.857 535.714 151.721 534.908 152.566 539.054C152.951 539.437 153.336 539.82 153.693 540.202C153.853 540.888 154.069 541.824 154.322 542.927C154.444 543.475 154.585 544.069 154.726 544.691C154.848 545.314 154.97 545.965 155.102 546.633C155.665 549.3 156.116 552.247 156.567 554.697C156.567 553.292 156.304 551.145 155.956 548.906C155.543 546.673 155.121 544.343 154.717 542.567C155.158 543.909 155.74 546.205 156.238 548.346C156.736 550.488 157.008 552.481 156.999 553.2C156.83 552.104 156.707 550.711 156.351 549.643C156.501 553.018 157.243 557.398 157.844 562.823C158.154 562.566 158.501 563.32 158.736 564.662C158.942 566.004 159.205 567.935 159.29 570.019C159.327 571.064 159.374 572.144 159.421 573.212C159.487 574.28 159.421 575.33 159.459 576.313C159.459 577.295 159.506 578.214 159.553 579.008C159.572 579.802 159.619 580.476 159.722 580.973C159.13 585.799 158.435 590.567 157.496 595.524C156.576 600.481 155.299 605.621 153.374 611.121C153.59 607.077 152.275 614.336 151.346 613.502C150.331 616.038 149.984 617.014 149.975 617.249C149.186 619.841 148.397 622.446 147.495 625.027C147.035 626.894 148.773 622.663 148.923 622.931C146.603 628.482 148.435 625.335 147.073 629.042C146.998 628.225 145.674 630.875 144.312 634.027C144.857 632.531 145.364 631.023 145.862 629.516C141.702 637.106 143.702 636.335 139.213 643.93L140.809 641.566C139.739 643.53 137.776 647.145 135.814 650.755C133.795 654.353 131.663 657.91 130.17 659.738C129.917 660.458 129.71 661.428 130.734 659.727C125.7 669.098 118.244 680.309 114.967 687.699L115.615 687.042C114.601 688.772 113.521 689.989 112.657 692.227C112.826 692.136 113.286 691.576 112.882 692.387C112.328 693.295 110.037 696.95 109.098 699.315L110.366 697.379C108.319 702.005 106.469 705.5 104.778 708.823C103.905 710.485 103.088 712.101 102.281 713.792C101.445 715.477 100.703 717.247 99.9142 719.2C100.299 719.24 99.9236 721.113 99.3508 723.432C99.0597 724.591 98.7404 725.865 98.4399 727.087C98.1394 728.303 97.8201 729.457 97.6229 730.388L97.7732 730.268C96.3083 735.75 95.1814 740.428 94.0827 745.008C92.9934 749.588 92.0544 754.094 91.1999 759.24C91.2187 762.46 90.6834 767.886 90.1294 773.808C89.5753 779.73 88.9743 786.138 88.7114 791.312C88.7114 789.73 88.0447 791.546 87.7724 793.379C87.6972 795.807 86.4859 800.056 87.2841 799.701L87.3686 798.839C87.9132 800.695 87.162 805.675 86.6361 809.564L85.5656 810.158C85.5938 815.275 84.4106 821.934 82.9833 827.988C82.2414 831.014 81.5277 833.893 80.9268 836.36C80.26 838.827 79.8656 840.894 79.7529 842.305C79.2646 843.504 78.7857 844.858 78.3162 846.211C77.7903 847.553 77.2739 848.895 76.748 850.078L77.3114 850.015C76.1752 853.373 75.2737 855.886 74.1187 858.57C73.837 859.244 73.5459 859.929 73.2454 860.637C72.9073 861.345 72.5693 862.082 72.1937 862.859C71.818 863.635 71.4236 864.458 71.0011 865.343C70.5315 866.217 70.0339 867.153 69.4986 868.164L70.7193 866.582C69.5268 868.867 68.4657 870.249 67.2637 871.545C66.6815 872.196 66.0993 872.836 65.5171 873.572C65.226 873.938 64.9348 874.332 64.6344 874.76C64.3245 875.183 63.9958 875.645 63.6671 876.159L63.6202 877.57C61.1787 881.471 58.4836 885.343 55.6196 889.152C52.6428 892.927 49.5064 896.65 45.7972 900.105C46.0038 900.025 46.4075 899.877 47.5344 898.712C46.755 899.568 45.6094 900.831 44.3417 902.218C43.027 903.589 41.5903 905.08 40.2568 906.422C37.5148 909.066 35.2236 911.093 35.3926 910.311C35.6649 910.476 33.7117 912.264 31.1763 914.48C28.5845 916.667 25.3542 919.254 23.0535 921.007L24.1522 920.625C19.9735 923.469 19.7012 923.492 14.3392 927.649C13.1373 928.666 13.5786 928.677 15.128 927.306C11.1653 930.716 11.5127 929.717 6.58273 933.788L8.76132 932.435C4.43233 935.827 4.61074 935.479 1.88752 937.169C-1.04229 939.197 -6.47934 943.514 -6.78922 944.182C-7.62497 944.514 -10.3764 946.17 -12.9587 948.151C-13.1841 948.483 -12.123 947.82 -11.5877 947.489C-18.9123 953.108 -23.4009 955.364 -28.2839 959.311C-28.2651 959.459 -28.5374 959.733 -28.9412 960.064C-22.8562 955.747 -17.9826 952.246 -18.4709 952.555C-18.1047 952.743 -22.9502 956.278 -18.5367 953.76C-22.753 956.427 -30.115 960.898 -34.7445 964.382C-34.9417 964.565 -35.1295 964.742 -35.2516 964.896L-34.7163 964.565C-35.7869 965.37 -36.8104 966.049 -37.8058 966.683C-39.2707 967.803 -40.2004 968.511 -41.6559 969.556C-41.9094 970.116 -47.1023 973.651 -49.4969 975.41C-49.7035 975.056 -52.8023 977.386 -50.173 975.067C-50.5298 975.358 -49.6659 974.759 -48.0414 973.605C-47.6657 973.348 -47.2338 973.04 -46.9615 972.88C-47.0178 972.908 -47.0929 972.943 -47.1587 972.983C-45.5529 971.84 -43.4495 970.35 -41.0737 968.659C-43.2147 969.927 -45.3933 971.281 -47.8629 973.331C-49.3654 974.096 -50.9993 974.953 -51.8914 975.444C-54.6522 978.128 -60.6339 982.948 -61.141 983.776C-64.8784 986.426 -69.0947 989.636 -73.0105 992.582C-74.9355 994.067 -76.8136 995.472 -78.5039 996.723C-80.1754 997.974 -81.6966 999.053 -82.9644 999.852C-84.9645 1001.42 -84.8988 1001.82 -85.4716 1002.47C-84.2978 1001.58 -83.0395 1000.45 -82.3164 1000C-84.2978 1001.58 -87.1431 1003.95 -89.5377 1006.05C-91.9886 1008.13 -94.0075 1009.94 -94.7306 1010.22C-96.8246 1012.37 -96.064 1011.83 -95.5569 1011.47C-95.3034 1011.3 -95.1156 1011.16 -95.3785 1011.43C-95.6508 1011.69 -96.3551 1012.37 -97.8576 1013.82L-96.881 1013.1C-102.28 1019.01 -107.154 1023.62 -112.018 1028.49C-116.873 1033.35 -121.709 1038.44 -126.677 1045.33C-125.982 1044.38 -125.625 1043.91 -125.569 1043.68C-137.833 1059.09 -151.777 1075.17 -164.192 1090.32C-167.779 1094.61 -168.652 1094.92 -171.272 1097.39L-171.629 1098.46C-173.197 1099.85 -174.737 1101.24 -176.333 1102.61C-177.939 1104.1 -179.291 1105.54 -180.606 1106.96C-181.939 1108.38 -183.17 1109.79 -184.494 1111.25C-185.846 1112.69 -187.245 1114.19 -188.898 1115.77C-190.588 1117.33 -192.429 1119.02 -194.757 1120.78L-193.978 1119.7C-195.49 1121.03 -197.903 1123.13 -199.96 1124.81C-202.007 1126.5 -203.556 1127.82 -203.115 1127.67C-203.481 1127.92 -204.486 1128.38 -205.594 1129.45L-205.453 1129.64C-206.862 1130.66 -208.233 1131.69 -209.679 1132.68L-214.008 1135.67C-217.191 1138.07 -216.74 1137.99 -216.646 1138.19C-216.599 1138.29 -216.656 1138.45 -217.323 1139.02C-217.999 1139.58 -219.248 1140.57 -221.764 1142.24C-222.713 1142.85 -223.896 1143.57 -225.107 1144.3C-226.337 1145.01 -227.633 1145.72 -228.751 1146.32C-230.986 1147.53 -232.563 1148.31 -231.915 1147.82C-230.375 1146.84 -228.103 1145.26 -228.197 1145.06L-231.803 1147.19C-233.07 1147.22 -236.348 1148.5 -228.281 1142.89L-222.13 1139.28L-220.647 1137.85C-222.196 1138.96 -223.83 1140.02 -225.445 1141.09C-224.225 1140.09 -223.098 1139.35 -222.055 1138.68C-221.013 1138.01 -220.008 1137.43 -218.975 1136.82C-218.703 1136.41 -218.036 1135.8 -217.003 1134.98L-211.059 1131.35C-210.702 1130.74 -213.933 1132.88 -210.599 1130.13C-207.895 1128.38 -212.299 1132.23 -208.12 1129.19C-205.941 1127.07 -206.89 1127.55 -203.791 1125.32C-203.575 1124.9 -204.289 1125.35 -205.491 1126.25C-204.12 1125.25 -202.42 1123.88 -200.871 1122.64C-199.359 1121.38 -197.969 1120.26 -197.143 1119.78C-195.086 1117.5 -189.001 1112.53 -189.949 1112.47C-189.508 1112.16 -188.353 1111.24 -187.038 1110.16C-185.743 1109.07 -184.325 1107.8 -183.273 1106.79C-185.592 1108.49 -183.63 1106.6 -181.432 1104.32C-180.334 1103.19 -179.15 1101.96 -178.371 1101.07C-177.601 1100.16 -177.216 1099.59 -177.686 1099.75C-174.211 1097.25 -167.882 1089.72 -163.074 1084.79C-163.384 1085.05 -163.994 1085.57 -164.342 1086.03C-161.919 1083.16 -161.44 1082.26 -160.022 1080.37C-159.046 1080.21 -155.111 1075.78 -152.688 1073.49C-150.378 1069.77 -155.242 1075.4 -154.933 1074.1C-154.538 1074.45 -149.298 1068.13 -149.852 1069.47C-148.012 1066.64 -148.115 1067.08 -147.514 1065.52C-146.303 1065.29 -145.298 1063.04 -142.95 1060.94C-140.133 1056.89 -142.894 1059.7 -139.11 1055.47C-137.673 1053.34 -141.119 1057.08 -141.119 1057.08L-141.176 1057.12ZM-35.9841 962.223C-37.0546 962.966 -37.956 963.599 -38.5383 964.005C-38.003 963.634 -37.2611 963.12 -35.9747 962.229L-35.9841 962.223ZM-25.6734 954.919C-26.9223 955.81 -28.4811 956.923 -30.1244 958.094C-30.3498 958.42 -29.8146 958.22 -28.7816 957.483C-29.4389 957.831 -27.0913 956.072 -25.6734 954.919ZM-44.6608 971.829C-42.9799 970.698 -42.5198 970.27 -42.3789 970.064C-43.1583 970.607 -44.0692 971.241 -45.2618 972.069C-45.3181 972.097 -45.4402 972.154 -45.506 972.183C-45.2712 972.114 -45.027 972.023 -44.6608 971.829Z" fill="white"/>
<path d="M75.499 840.055L75.6305 840.084L75.2924 840.895L75.499 840.055Z" fill="white"/>
<path d="M79.0487 321.571C79.0956 321.805 79.1238 322.039 79.152 322.245C79.3492 323.832 79.1895 322.753 79.0487 321.571Z" fill="white"/>
<path d="M37.8153 243.211C38.482 243.999 39.1394 244.77 39.8718 245.581C38.5853 244.325 37.5993 243.348 37.8153 243.211Z" fill="white"/>
<path d="M91.3126 414.356C91.3126 414.356 91.3126 414.356 91.3126 414.345C91.369 414.545 91.4065 414.716 91.4629 414.916L91.3033 414.356L91.3126 414.356Z" fill="white"/>
<path d="M43.0646 248.916C41.7687 247.66 40.7921 246.58 39.8718 245.581C40.9517 246.603 42.1443 247.831 43.0646 248.916Z" fill="white"/>
<path d="M3.0144 213.994L0.319357 212.247L-0.516405 211.19L3.0144 213.994Z" fill="white"/>
<path d="M20.7718 224.656L19.767 223.765C21.0816 224.879 22.34 226.026 23.6077 227.157L20.7718 224.656Z" fill="white"/>
<path d="M104.581 439.13L103.699 438.507C103.107 436.891 103.605 436.451 104.581 439.13Z" fill="white"/>
<path d="M150.51 531.431C151.167 532.419 152.379 535.046 152.623 536.736C151.89 534.606 150.82 532.527 150.51 531.431Z" fill="white"/>
<path d="M85.5375 815.064L86.0258 813.14L85.3121 816.783L85.5375 815.064Z" fill="white"/>
<path d="M68.691 162.934L67.4421 162.054C67.7989 162.288 68.2215 162.591 68.691 162.934Z" fill="white"/>
<path d="M181.141 251.27C180.493 250.511 180.268 250.18 180.277 250.128C180.878 250.831 181.339 251.425 181.141 251.27Z" fill="white"/>
<path d="M195.321 268.408C195.049 268.031 194.814 267.711 194.56 267.374C194.889 267.757 195.208 268.151 195.321 268.408Z" fill="white"/>
<path d="M68.691 162.933L71.9307 165.177C71.9965 165.417 70.2217 164.052 68.691 162.933Z" fill="white"/>
<path d="M23.6733 122.175L22.9503 121.381C22.8 121.13 22.678 120.884 22.5653 120.65L23.6733 122.175Z" fill="white"/>
<path d="M47.2244 145.023C47.3465 145.046 47.5343 145.132 47.7034 145.24C47.647 145.263 47.4686 145.178 47.2244 145.023Z" fill="white"/>
<path d="M212.017 302.046C211.989 301.977 211.979 301.955 211.961 301.892C211.717 300.978 211.895 301.492 212.017 302.046Z" fill="white"/>
<path d="M284.511 617.021C284.943 615.211 284.258 616.638 283.647 617.838C282.999 619.031 282.455 620.002 283.253 617.301C283.272 617.832 285.863 612.544 284.511 617.021Z" fill="white"/>
<path d="M283.253 617.295L283.403 616.735C283.337 616.969 283.3 617.095 283.253 617.295Z" fill="white"/>
<path d="M224.159 382.313C224.046 382.154 223.943 381.839 223.83 381.508C223.887 381.531 223.971 381.714 224.159 382.313Z" fill="white"/>
<path d="M216.13 322.52L216.477 323.993C216.318 323.411 216.215 322.937 216.13 322.52Z" fill="white"/>
<path d="M228.61 413.237C228.826 414.031 228.986 414.294 229.202 415.385C229.145 415.288 229.108 415.191 229.051 415.059C229.023 414.659 228.901 414.14 228.61 413.237Z" fill="white"/>
<path d="M239.972 444.751C239.86 444.591 239.728 444.38 239.606 444.197C239.475 443.889 239.315 443.523 239.184 443.203L239.972 444.751Z" fill="white"/>
<path d="M19.72 1025.84C19.2786 1026.51 19.072 1026.94 18.9312 1027.29C19.0063 1026.74 15.0717 1030.88 19.72 1025.84Z" fill="white"/>
<path d="M224.816 414.923C225.305 416.625 225.736 418.332 226.281 420.028C225.783 418.606 225.314 416.75 224.816 414.923Z" fill="white"/>
<path d="M211.726 829.53L211.416 830.689C211.501 830.238 211.604 829.827 211.726 829.53Z" fill="white"/>
<path d="M231.455 435.082C232 435.95 232.479 436.887 232.967 437.857C233.014 438.069 233.089 438.314 233.089 438.457C232.507 437.338 232 436.207 231.455 435.082Z" fill="white"/>
<path d="M-7.8316 1057.12C-4.24446 1052.72 -5.53096 1055.24 -4.4135 1054.42C0.075121 1049.23 -2.87348 1051.85 -1.71846 1049.97C1.14562 1046.75 3.81251 1044.43 5.83146 1041.99C5.87841 1041.78 6.24463 1041.29 5.65304 1041.81C9.04298 1038.52 14.4143 1031.62 18.6212 1027.87C18.8372 1027.56 18.9217 1027.39 18.9405 1027.3C18.6588 1028.04 18.8842 1028.24 19.2222 1028.19C20.997 1026.27 22.8563 1024.74 23.1474 1023.89C22.0581 1025.07 21.8233 1025.12 21.1942 1025.63C21.8703 1024.98 22.5276 1024.32 23.2225 1023.67C23.7859 1022.67 23.0911 1023.34 22.2084 1024.24C21.3444 1025.14 20.2833 1026.28 20.0673 1026.21C21.936 1024.27 24.1146 1022.21 26.1242 1020.25C28.1713 1018.31 30.0587 1016.46 31.4673 1014.96C31.4861 1014.12 24.4902 1021.83 27.8614 1017.69C26.4153 1019.25 25.0255 1020.82 23.6451 1022.39C26.1148 1018.54 21.044 1025.23 23.185 1021.65C28.8474 1015.5 29.9742 1014.94 36.0217 1008.94C37.7307 1007.72 35.9935 1009.55 37.7026 1008.34C42.4729 1004.28 44.0129 1002.54 45.2618 1001.08C45.8816 1000.34 46.4356 999.676 47.309 998.837C48.201 998.009 49.4312 997.009 51.3844 995.604C52.4737 994.908 53.3846 994.502 54.6053 993.72C55.8355 992.943 57.3567 991.772 59.8358 989.642L57.4694 990.779C64.2962 985.376 62.1928 988.089 69.1417 982.349C67.5923 983.212 63.4605 986.432 64.4465 985.593C68.7285 981.761 68.1275 983.2 71.7992 980.447L72.0715 979.631C79.7059 974.068 88.5611 968.186 97.2285 962.161C96.6087 962.424 94.9935 963.383 96.8434 961.887C107.905 954.354 119.888 945.525 129.672 937.85L133.936 935.177C134.818 934.503 135.391 933.835 134.349 934.52C138.077 931.488 134.828 934.503 136.865 933.161C139.082 931.482 139.504 930.808 137.992 931.819C141.598 929.295 146.538 925.611 151.317 921.796C156.041 917.958 160.614 913.989 163.506 910.945L162.126 912.03C163.318 910.871 164.332 909.997 165.234 909.266C166.107 908.524 166.887 907.924 167.647 907.336C168.408 906.748 169.15 906.16 169.957 905.446C170.737 904.726 171.572 903.864 172.54 902.739L171.629 903.544C176.578 898.433 181.564 892.973 185.743 887.662C189.94 882.356 193.227 877.182 195.349 872.853C196.185 872.122 197.744 869.347 199.039 866.651C199.716 865.309 200.373 863.99 200.889 862.968C201.434 861.946 201.913 861.232 202.27 861.095C203.472 857.782 203.744 856.577 204.223 855.053C204.608 853.511 205.293 851.66 206.655 846.972C207.068 845.727 207.51 844.813 208.007 843.825C208.496 842.837 209.068 841.78 209.547 840.233L208.993 840.096L210.731 835.932L210.59 833.614C210.871 832.643 211.172 831.672 211.425 830.701C211.2 831.872 211.097 833.203 211.303 833.037C211.651 831.9 211.951 830.633 212.186 829.365C212.421 828.097 212.646 826.835 212.768 825.71C213.022 823.46 213.097 821.764 212.965 821.695L214.13 816.27L215.172 810.833C214.919 811.061 214.562 812.883 214.196 814.316C215.642 808.531 213.754 813.231 215.022 807.92C215.06 808.64 215.416 807.549 215.548 807.435C215.548 804.756 216.262 798.697 216.853 794.203L216.365 795.048C217.116 786.933 218.187 777.938 219.163 768.806C219.004 772.09 219.774 771.365 220.121 768.686L219.623 767.59C220.187 765.876 219.548 770.394 220.403 766.864C220.722 763.455 219.971 764.54 219.548 766.493L220.243 762.358C220.093 762.107 219.877 763.072 219.623 763.318C220.196 761.633 219.914 756.128 220.938 753.706L220.788 753.461C221.464 748.898 222.112 745.585 222.769 742.49C223.117 740.942 223.455 739.446 223.811 737.876C224.196 736.305 224.61 734.66 225.07 732.81C225.652 732.719 226.234 729.812 227.323 727.664C228.704 722.239 230.441 716.208 233.202 709.806C235.409 705.352 234.207 708.561 235.38 706.591C235.033 706.18 238.029 699.835 236.169 703.073C237.972 699.258 239.193 696.837 240.601 694.176C241.296 692.845 242.048 691.451 242.968 689.807C243.879 688.156 244.959 686.255 246.32 683.89C245.954 684.964 245.419 686.14 245.898 685.569C246.884 683.856 247.804 681.6 247.457 681.806L247.165 682.251C253.607 671.709 259.476 657.431 264.913 649.133L264.613 649.602C266.341 646.701 268.04 643.794 269.712 640.881C271.665 636.798 268.144 643.257 269.364 640.19C274.895 630.79 276.529 625.062 280.192 617.181C280.661 613.988 282.718 608.517 284.427 602.721C286.173 596.93 287.478 590.808 287.572 586.542L287.845 587.05C288.436 584.868 288.042 584.383 288.079 582.761C288.352 583.001 288.126 585.16 288.474 583.8C289.009 579.146 289.253 574.4 288.981 569.614C288.671 564.829 288.042 560.009 287 555.2C285.929 550.391 284.605 545.594 282.971 540.843C281.318 536.097 279.497 531.386 277.496 526.743C274.501 519.969 277.6 522.602 272.839 514.196L273.402 516.72C267.73 502.934 259.016 489.016 252.293 475.67C252.593 476.486 252.433 476.543 253.147 477.834C251.156 475.133 247.428 467.497 247.766 467.377C246.602 465.321 247.194 466.96 246.32 465.727C244.545 462.963 243.109 458.548 241.916 457.126C241.71 456.886 242.188 457.949 242.423 458.468C241.644 456.595 238.019 449.873 239.39 451.552C236.676 446.561 235.024 441.861 232.995 437.846C232.723 436.476 231.765 434.305 230.958 432.347C230.188 430.382 229.521 428.64 229.765 428.166C229.418 428.406 228.469 426.167 227.549 423.449C227.136 422.084 226.722 420.605 226.375 419.257C226.056 417.909 225.84 416.687 225.718 415.859C225.746 416.984 224.713 413.026 224.685 414.346C224.253 412.461 223.868 410.656 223.68 409.4C223.52 408.138 223.52 407.43 223.802 407.744C221.332 400.874 222.14 393.741 220.318 389.897C219.295 378.658 218.722 368.276 217.914 358.196C217.107 358.59 218.91 369.338 217.98 368.938C217.388 359.361 217.642 353.821 216.318 344.37C215.905 341.925 216.121 345.775 216.074 346.608C215.304 337.065 213.604 328.213 212.261 319.767C212.186 319.795 212.299 320.709 212.421 321.572C212.092 319.91 211.472 317.728 211.895 317.882L212.139 319.51C212.703 320.812 212.637 319.144 212.458 317.106C212.252 315.073 211.886 312.668 211.998 312.508C211.782 313.965 211.247 311.892 210.618 310.041C210.007 308.185 209.416 306.552 209.331 308.842C209.115 307.751 208.909 306.369 209.228 306.592C208.665 304.993 208.364 304.502 208.571 306.164C206.984 300.264 208.017 302.303 206.195 296.992C206.035 297.032 206.326 298.111 206.298 298.688C206.045 297.317 205.679 295.958 205.2 294.382C204.749 292.8 204.026 291.012 203.002 288.808C203.002 289.094 202.645 288.602 203.209 289.922C202.448 288.008 201.659 286.255 200.946 284.548C200.27 282.834 199.462 281.207 198.711 279.539C198.514 279.122 198.326 278.705 198.129 278.288C197.913 277.872 197.697 277.455 197.471 277.032C197.021 276.193 196.551 275.336 196.072 274.451C195.096 272.692 193.865 270.87 192.513 268.871C192.879 270.15 192.429 269.471 191.659 268.466C190.898 267.461 189.903 266.107 189.442 265.981C188.55 264.537 187.499 263.132 186.513 261.71L188.109 263.309C186.7 261.47 185.517 259.694 184.212 258.026C183.583 257.187 182.954 256.37 182.306 255.565C181.639 254.771 180.935 254 180.212 253.246C180.897 254.165 181.63 255.073 182.278 255.999C181.357 254.862 180.362 253.743 179.404 252.618C178.456 251.487 177.451 250.373 176.427 249.266L178.296 251.099L180.09 252.96C178.653 251.093 178.935 251.122 179.028 251.036C179.132 250.945 179.028 250.733 176.728 248.403C177.141 248.894 176.315 248.009 175.113 246.787C173.883 245.576 172.249 244.04 171.178 243.195L171.178 243.206C170.446 242.304 169.619 241.407 168.671 240.419C167.704 239.431 166.633 238.335 165.168 237.118C164.267 236.542 165.093 237.901 164.502 237.53C163.234 235.662 155.872 229.574 153.881 227.336C154.566 228.072 154.313 228.238 153.984 228.038L152.763 226.513C150.82 225.04 150.463 224.851 150.538 225.205C144.885 220.688 153.045 226.319 146.077 221.071C146.575 221.505 146.275 221.328 147.308 222.236C140.443 216.907 134.33 211.79 127.635 207.073C125.174 205.925 133.175 211.345 130.518 209.946C121.296 202.944 111.558 195.354 102.112 188.832L103.905 190.032C103.37 188.724 96.5899 185.32 92.2422 181.791C93.3409 182.636 93.3315 183.081 93.1061 182.819C86.6173 178.353 80.2506 173.47 71.1043 166.354L72.0715 167.319C68.2309 164.692 62.4088 160.169 58.5118 157.2C57.5633 156.217 55.4035 154.493 56.9999 155.412C50.5768 151.026 45.3558 146.412 40.5855 141.826C35.8151 137.234 31.4861 132.694 26.6501 128.399C27.6924 129.467 28.9507 131.015 28.115 130.164C26.9036 128.885 25.7016 127.6 24.5372 126.303C23.3634 125.013 22.1802 123.722 21.044 122.42C21.983 122.9 22.1896 123.362 24.0113 124.87C23.2977 123.825 21.4947 121.586 19.7387 119.673C22.6685 123.225 19.0814 119.856 17.532 118.411C17.87 118.628 17.5414 118.063 17.7761 118.154C13.5035 114.31 17.8982 117.234 12.5926 111.815L12.649 112.175C10.9305 110.062 9.56888 108.04 7.5875 105.801C6.34797 105.002 9.27779 108.097 9.03363 108.354C6.34797 105.173 4.58256 101.821 1.74666 99.068C2.74204 100.461 4.36658 102.409 5.38075 103.797C2.21617 100.821 2.06592 100.41 0.0375916 98.1028L0.244182 98.3313L-4.45103 92.9973L-3.17392 94.3336C-5.29615 89.9819 -9.63454 86.1213 -13.3062 80.5075C-9.71905 85.9614 -13.0151 81.5012 -13.1935 82.0551C-14.4706 80.7245 -16.3487 78.6857 -16.0012 79.3253C-17.7009 76.664 -19.8231 75.1849 -22.2459 71.4271C-22.5464 71.3186 -24.5371 68.7258 -24.4714 69.4225C-27.1477 66.1045 -23.523 70.1078 -23.5605 69.7709C-27.3073 64.5283 -34.3877 58.1149 -40.2943 50.7478C-41.6653 49.1887 -42.7264 47.938 -43.6279 46.8529C-44.5388 45.7621 -45.3088 44.8427 -46.06 43.9404C-47.5437 42.1129 -49.0649 40.371 -51.76 37.527C-52.8681 36.6418 -52.5957 37.0758 -52.0699 37.7326C-51.5534 38.3951 -50.7646 39.2802 -50.7646 39.2802C-52.4079 37.7954 -53.8541 36.5047 -55.2157 35.2083C-56.5585 33.9062 -57.8731 32.6213 -59.338 31.1935C-58.8497 31.816 -59.601 31.2735 -60.7091 30.4968C-63.1318 28.241 -61.8265 28.7778 -65.3949 25.9509C-64.9817 26.522 -64.5122 27.2758 -63.4605 28.4123C-64.869 27.076 -66.2776 25.7454 -67.6862 24.4033C-69.1323 23.0784 -70.5878 21.7306 -72.1372 20.3828C-73.2453 19.8003 -70.5784 22.1532 -69.63 23.164C-70.5033 22.4102 -71.5081 21.5421 -72.5316 20.6512C-73.5833 19.7717 -74.6632 18.8694 -75.668 18.0299C-77.6306 16.3337 -79.3772 14.9345 -79.7622 14.3863L-77.1611 16.1567C-78.5415 15.1002 -78.2128 15.7855 -77.2644 16.5907C-74.3909 19.2463 -72.5316 20.1372 -72.2029 20.2171L-74.466 18.3211C-71.1043 19.7946 -65.3198 25.9281 -60.925 29.8058C-61.3006 29.1719 -61.6951 28.5379 -62.1082 27.9097C-60.756 29.3032 -59.4977 30.7367 -58.183 32.1473C-57.075 32.9354 -56.0608 33.3752 -58.0985 31.3935C-56.3801 32.7355 -55.7697 33.3865 -55.2157 33.9919C-54.6522 34.5973 -54.1451 35.1455 -52.6708 36.2991C-52.3328 36.5504 -52.4267 36.4134 -52.6708 36.1507C-51.7412 37.1044 -50.8585 38.0696 -49.9758 39.0347C-50.3984 38.4293 -49.0274 39.3259 -50.8867 37.6298C-48.1165 40.0912 -46.1727 42.1814 -44.6796 43.889C-43.149 45.5908 -42.0315 46.8929 -40.8671 47.7781L-41.2333 47.3326C-37.9561 50.9476 -37.9373 51.1704 -38.1533 51.1761C-38.3692 51.1819 -38.8387 50.9819 -36.6508 53.7803C-35.1201 54.8482 -33.6083 55.9276 -32.1152 57.0127L-31.9837 57.8921C-31.2982 58.6346 -29.9366 60.1023 -29.9836 59.7596C-27.8895 62.6722 -30.6221 59.3542 -29.5328 61.0846C-25.8706 64.5397 -21.1472 71.1587 -19.6541 71.7298C-18.9405 73.1575 -22.8844 68.3374 -19.8795 72.3122C-18.0671 73.1517 -16.2642 76.8639 -13.0996 80.0849C-13.494 78.9198 -16.3487 75.8245 -13.1841 79.0455C-12.2826 81.2956 -7.65314 85.5102 -5.48395 88.3771C-5.98165 88.6969 -0.713639 94.5963 3.00497 99.3821C2.94863 99.028 10.7333 108.165 14.7712 112.432L14.7712 112.272C14.8745 113.311 18.9124 117.76 21.7576 121.021C22.0018 120.77 21.6074 120.147 20.1801 118.337L22.9409 121.375C23.401 122.157 24.1522 123.14 25.9458 125.116L25.6828 124.202C29.3921 128.222 32.8571 132.431 38.3975 137.326C38.2942 137.771 33.0449 133.779 38.3975 139.187C38.8201 139.296 39.4023 139.347 38.0219 137.925C38.482 138.388 39.5431 139.621 40.6324 140.484C39.9845 139.741 39.3741 138.982 38.7449 138.234C41.3179 140.444 39.684 139.553 41.7123 141.335C41.9846 141.175 43.412 142.574 43.365 142.214C42.8861 141.746 41.4963 140.701 40.8578 139.97C43.1584 141.969 46.0507 144.339 47.2245 145.024C46.8489 144.921 46.8113 145.195 48.464 146.674C52.8587 150.444 50.3421 147.799 53.0935 149.912C53.948 150.918 57.075 153.173 56.7182 153.436C58.061 154.515 58.5118 154.618 59.1503 154.978C60.2396 155.977 63.0473 158.182 65.1884 159.901C67.3482 161.608 68.8318 162.842 67.2167 161.9L66.5594 161.437C66.672 161.528 66.8035 161.637 66.9444 161.751C74.5506 168.102 84.1758 174.235 92.3173 180.243L92.4488 180.158C97.2473 183.778 103.436 188.061 106.694 190.74C108.168 191.785 110.422 193.07 109.962 192.539C113.652 195.297 113.934 195.68 119.625 199.478C116.075 196.622 121.165 200.306 115.906 196.588C120.939 200.049 122.292 200.734 127.128 204.743C125.728 203.252 131.241 207.193 133.419 208.952L129.776 206.576C132.311 208.507 134.584 210.168 136.875 211.87L136.133 210.705C146.528 217.804 152.416 224.64 160.248 230.105C161.243 231.213 159.975 230.18 158.661 229.123C157.318 228.084 155.947 227.016 156.811 228.015C158.961 229.757 161.187 231.527 163.14 232.961C165.037 234.417 166.558 235.582 167.187 236.147C172.821 241.065 171.413 241.127 176.887 246.427C176.042 245.799 174.925 245.331 178.531 249.448C179.451 250.385 180.193 251.139 180.784 251.698C181.385 252.258 181.836 252.618 182.118 252.783C182.681 253.109 182.569 252.652 181.583 251.407C180.794 250.476 180.324 250.054 180.287 250.116C179.207 248.866 177.789 247.227 179.404 248.66L179.667 249.22C181.648 251.03 186.212 256.381 185.452 255.028C187.686 258.055 186.184 256.387 184.24 254.24C185.386 255.462 186.306 256.576 187.198 257.621C187.63 258.146 188.053 258.654 188.475 259.157C188.86 259.665 189.245 260.168 189.621 260.67C190.382 261.675 191.142 262.686 191.968 263.777C192.748 264.879 193.593 266.05 194.57 267.369C193.865 266.552 193.077 265.833 193.668 266.678C195.133 268.603 195.837 269.825 196.326 270.607C196.795 271.395 196.964 271.761 197.067 272.058C197.274 272.64 197.265 272.909 198.758 275.627C199.8 277.129 199.838 276.815 199.969 276.809C200.082 276.809 200.382 277.106 201.659 279.888C203.631 283.211 202.598 280.493 202.073 279.117C204.383 284.205 206.909 288.528 208.223 291.435L207.256 288.717C207.82 290.344 208.439 291.658 208.928 293.011C208.58 292.52 208.261 292.023 207.885 291.532C208.608 293.103 209.097 294.45 209.266 294.393C209.604 296.067 208.064 293.245 208.918 296.541C209.904 298.631 210.9 303.028 211.67 303.702C211.116 302.029 210.871 301.241 210.796 300.904C210.731 300.567 210.853 300.681 211.003 300.824C211.294 301.115 211.66 301.532 210.74 298.694C211.031 299.796 211.538 301.121 212.092 302.72C212.233 302.954 212.139 302.48 212.045 302.034C214.524 308.408 212.336 305.061 214.158 311.732C214.28 310.852 215.153 313.222 215.351 314.324C214.693 311.623 214.487 313.085 214.834 315.581C216.046 319.853 215.679 320.264 216.149 322.508C215.952 321.652 215.736 320.801 215.501 319.95C215.379 320.841 215.82 322.988 216.29 325.992C216.6 326.232 215.952 323.262 216.271 324.319C216.337 327.682 218.196 331.806 218.478 336.477C218.994 338.619 219.126 336.654 219.539 338.539C219.68 341.16 219.961 342.565 220.252 344.004C220.553 345.443 220.853 346.917 220.976 349.669C220.356 348.105 220.44 347.825 220.421 351.702C220.205 348.693 219.98 345.683 219.708 342.673L219.736 348.487C219.445 345.769 219.342 342.736 219.069 341.109C219.041 343.878 219.116 343.593 218.59 342.308C219.717 345.997 219.079 349.698 219.961 353.981L221.051 353.81C222.215 360.263 221.605 365.323 222.722 373.701L222.262 371.011C221.933 372.153 222.713 376.191 222.835 378.915C223.182 378.647 223.483 380.343 223.858 381.485C223.558 381.359 224.6 387.613 223.98 388.407C224.3 389.646 224.628 390.879 224.976 392.119C226.168 398.852 225.07 399.88 226.46 406.35C226.478 404.374 227.286 407.293 226.76 402.941C227.136 405.1 227.652 407.03 227.389 407.087C227.849 408.326 228.197 413.101 229.07 415.042C229.145 415.962 228.845 416.293 229.511 418.703C229.662 418.96 229.69 418.675 229.69 418.675C229.511 418.703 230.573 422.461 229.54 420.405C231.023 423.649 232.62 428.218 234.282 432.678C236.01 437.127 237.831 441.455 239.625 444.18C241.606 448.771 244.217 454.265 246.358 458.377C246.33 458.091 246.527 458.331 246.086 457.56C247.71 460.364 247.945 461.284 248.208 462.3C248.48 463.317 248.79 464.431 250.724 467.612C253.081 470.781 249.175 464.134 250.508 466.138C252.142 466.801 254.584 473.928 257.664 478.108L257.147 477.046C259.373 480.267 261.195 485.19 264.247 490.581C264.247 490.581 264.209 490.295 264.406 490.512C265.852 494.327 269.439 501.38 271.928 506.651C271.543 504.938 270.942 504.23 271.928 505.132C273.064 507.491 270.857 504.584 273.074 509.301C274.107 510.775 275.938 514.138 276.661 514.504C275.947 513.019 275.28 511.529 274.538 510.055C276.304 512.214 277.318 515.812 278.482 518.148L278.623 517.799C281.609 524.675 280.962 524.881 283.882 532.305L283.375 531.568C284.182 535.732 285.046 534.926 285.892 539.072C286.277 539.455 286.662 539.838 287.018 540.22C287.178 540.906 287.394 541.842 287.648 542.944C287.77 543.493 287.91 544.087 288.051 544.709C288.173 545.332 288.295 545.983 288.427 546.651C288.99 549.318 289.441 552.265 289.892 554.715C289.892 553.31 289.629 551.162 289.281 548.924C288.878 546.691 288.446 544.361 288.042 542.585C288.483 543.927 289.065 546.223 289.563 548.364C290.061 550.506 290.333 552.499 290.324 553.218C290.155 552.122 290.033 550.728 289.676 549.661C289.826 553.036 290.568 557.416 291.169 562.841C291.479 562.584 291.826 563.338 292.061 564.68C292.268 566.022 292.531 567.953 292.615 570.037C292.653 571.082 292.7 572.162 292.747 573.23C292.812 574.297 292.747 575.348 292.784 576.331C292.784 577.313 292.831 578.232 292.878 579.026C292.897 579.82 292.944 580.494 293.047 580.991C292.455 585.816 291.761 590.585 290.821 595.542C289.901 600.499 288.624 605.639 286.699 611.139C286.915 607.095 285.6 614.354 284.671 613.52C283.657 616.056 283.309 617.032 283.3 617.266C282.511 619.859 281.722 622.463 280.821 625.05C280.361 626.918 282.098 622.686 282.248 622.955C279.929 628.506 281.76 625.359 280.398 629.065C280.323 628.249 278.999 630.898 277.637 634.051C278.182 632.555 278.689 631.047 279.187 629.539C275.027 637.129 277.027 636.358 272.538 643.954L274.135 641.589C273.064 643.554 271.102 647.169 269.139 650.778C267.12 654.376 264.988 657.934 263.495 659.762C263.242 660.481 263.035 661.452 264.059 659.75C259.026 669.122 251.57 680.332 248.292 687.722L248.94 687.066C247.926 688.796 246.846 690.012 245.982 692.251C246.151 692.16 246.611 691.6 246.208 692.411C245.654 693.319 243.362 696.974 242.423 699.338L243.691 697.402C241.644 702.028 239.794 705.523 238.104 708.847C237.23 710.509 236.413 712.125 235.606 713.815C234.77 715.5 234.028 717.271 233.239 719.224C233.624 719.264 233.249 721.137 232.676 723.456C232.385 724.615 232.066 725.888 231.765 727.111C231.465 728.327 231.145 729.481 230.948 730.411L231.098 730.292C229.633 735.774 228.507 740.451 227.408 745.031C226.319 749.612 225.38 754.118 224.525 759.263C224.544 762.484 224.009 767.909 223.455 773.832C222.901 779.754 222.3 786.162 222.037 791.336C222.037 789.754 221.37 791.57 221.098 793.403C221.022 795.83 219.811 800.079 220.609 799.725L220.694 798.863C221.238 800.719 220.487 805.699 219.961 809.588L218.891 810.182C218.919 815.299 217.736 821.958 216.308 828.011C215.567 831.038 214.853 833.916 214.252 836.383C213.585 838.851 213.191 840.918 213.078 842.329C212.59 843.528 212.111 844.881 211.641 846.235C211.125 847.577 210.599 848.919 210.073 850.101L210.637 850.038C209.5 853.396 208.599 855.909 207.444 858.593C207.162 859.267 206.871 859.952 206.571 860.661C206.233 861.369 205.894 862.106 205.519 862.882C205.143 863.659 204.749 864.481 204.326 865.366C203.857 866.24 203.359 867.177 202.824 868.188L204.045 866.606C202.852 868.89 201.791 870.272 200.589 871.569C200.007 872.22 199.424 872.859 198.842 873.596C198.551 873.961 198.26 874.355 197.96 874.784C197.65 875.206 197.321 875.669 196.992 876.183L196.945 877.594C194.504 881.494 191.809 885.366 188.945 889.175C185.968 892.95 182.832 896.674 179.122 900.129C179.329 900.049 179.733 899.9 180.86 898.735C180.08 899.592 178.935 900.854 177.667 902.242C176.352 903.613 174.915 905.103 173.582 906.445C170.84 909.089 168.549 911.117 168.718 910.334C168.99 910.5 167.037 912.287 164.501 914.503C161.91 916.691 158.679 919.278 156.379 921.031L157.477 920.648C153.299 923.492 153.026 923.515 147.664 927.673C146.462 928.689 146.904 928.695 148.453 927.33C144.49 930.74 144.838 929.74 139.908 933.812L142.087 932.458C137.758 935.851 137.936 935.502 135.213 937.193C132.283 939.22 126.846 943.538 126.536 944.206C125.7 944.537 122.949 946.193 120.366 948.175C120.141 948.506 121.202 947.844 121.737 947.513C114.413 953.132 109.924 955.388 105.041 959.334C105.06 959.483 104.788 959.757 104.384 960.088C110.469 955.771 115.343 952.27 114.854 952.578C115.221 952.767 110.375 956.302 114.789 953.783C110.572 956.45 103.21 960.922 98.5807 964.411C98.3835 964.594 98.1957 964.771 98.0736 964.925L98.6089 964.594C97.5383 965.399 96.5148 966.079 95.5194 966.713C94.0545 967.832 93.1248 968.54 91.6693 969.585C91.4158 970.145 86.2229 973.68 83.8283 975.439C83.6217 975.085 80.5229 977.415 83.1522 975.096C82.7954 975.388 83.6593 974.788 85.2838 973.634C85.6595 973.377 86.0914 973.069 86.3637 972.909C86.3074 972.938 86.2323 972.972 86.1665 973.012C87.7723 971.87 89.8758 970.379 92.2515 968.689C90.1105 969.956 87.9319 971.31 85.4623 973.36C83.9598 974.125 82.3258 974.982 81.4338 975.473C78.673 978.157 72.6913 982.977 72.1842 983.805C68.4468 986.455 64.2305 989.665 60.3147 992.612C58.3897 994.097 56.5116 995.501 54.8213 996.752C53.1498 998.003 51.6285 999.082 50.3608 999.882C48.3607 1001.45 48.4264 1001.85 47.8536 1002.5C49.0274 1001.61 50.2857 1000.48 51.0088 1000.03C49.0274 1001.61 46.1821 1003.98 43.7875 1006.08C41.3366 1008.16 39.3177 1009.97 38.5946 1010.25C36.5006 1012.4 37.2612 1011.86 37.7683 1011.5C38.0218 1011.33 38.2097 1011.19 37.9467 1011.46C37.6744 1011.72 36.9701 1012.4 35.4676 1013.85L36.4443 1013.13C31.0448 1019.04 26.1711 1023.65 21.3069 1028.52C16.452 1033.38 11.616 1038.47 6.64842 1045.36C7.34331 1044.41 7.70014 1043.94 7.75648 1043.71C-4.50742 1059.12 -18.4522 1075.2 -30.8663 1090.35C-34.4535 1094.64 -35.3268 1094.95 -37.9467 1097.42L-38.3035 1098.49C-39.8717 1099.87 -41.4118 1101.27 -43.0082 1102.64C-44.6139 1104.13 -45.9661 1105.57 -47.2808 1106.99C-48.6142 1108.41 -49.8444 1109.82 -51.1684 1111.28C-52.5207 1112.72 -53.9198 1114.22 -55.5726 1115.8C-57.2628 1117.36 -59.1033 1119.05 -61.4322 1120.81L-60.6528 1119.73C-62.1646 1121.06 -64.578 1123.16 -66.6345 1124.84C-68.6816 1126.53 -70.231 1127.85 -69.7896 1127.7C-70.1559 1127.95 -71.1607 1128.41 -72.2687 1129.48L-72.1279 1129.67C-73.5364 1130.68 -74.9074 1131.72 -76.3535 1132.71L-80.6825 1135.7C-83.8659 1138.1 -83.4152 1138.02 -83.3213 1138.22C-83.2743 1138.31 -83.3306 1138.48 -83.9974 1139.05C-84.6735 1139.61 -85.9224 1140.6 -88.439 1142.27C-89.3875 1142.88 -90.5707 1143.6 -91.782 1144.33C-93.0122 1145.04 -94.3081 1145.74 -95.4255 1146.35C-97.6604 1147.56 -99.238 1148.34 -98.5901 1147.85C-97.0501 1146.87 -94.7776 1145.29 -94.8715 1145.09L-98.4774 1147.22C-99.7451 1147.25 -103.022 1148.53 -94.956 1142.92L-88.8053 1139.31L-87.3216 1137.87C-88.871 1138.99 -90.5049 1140.05 -92.1201 1141.12C-90.8993 1140.12 -89.7725 1139.38 -88.7301 1138.71C-87.6878 1138.04 -86.683 1137.46 -85.6501 1136.85C-85.3778 1136.44 -84.711 1135.83 -83.6781 1135.01L-77.7339 1131.38C-77.3771 1130.76 -80.6074 1132.91 -77.2738 1130.16C-74.5694 1128.41 -78.9735 1132.26 -74.7948 1129.22C-72.6162 1127.1 -73.5646 1127.58 -70.4658 1125.35C-70.2498 1124.93 -70.9634 1125.38 -72.1654 1126.28C-70.7944 1125.28 -69.0948 1123.91 -67.5453 1122.66C-66.0335 1121.4 -64.6437 1120.28 -63.8173 1119.81C-61.7608 1117.52 -55.6758 1112.56 -56.6243 1112.48C-56.1829 1112.18 -55.0279 1111.26 -53.7132 1110.18C-52.4174 1109.09 -50.9994 1107.82 -49.9477 1106.81C-52.2671 1108.5 -50.3045 1106.61 -48.1072 1104.34C-47.0085 1103.2 -45.8253 1101.98 -45.0459 1101.09C-44.2759 1100.18 -43.8909 1099.61 -44.3604 1099.77C-40.8859 1097.26 -34.5568 1089.74 -29.7489 1084.8C-30.0588 1085.07 -30.6691 1085.58 -31.0166 1086.04C-28.5938 1083.18 -28.1149 1082.27 -26.697 1080.38C-25.7204 1080.22 -21.7858 1075.8 -19.3631 1073.51C-17.053 1069.78 -21.9173 1075.41 -21.6074 1074.11C-21.213 1074.46 -15.9731 1068.14 -16.5271 1069.48C-14.6866 1066.65 -14.7899 1067.09 -14.1889 1065.53C-12.9776 1065.31 -11.9728 1063.05 -9.62518 1060.95C-6.80805 1056.91 -9.56884 1059.71 -5.7845 1055.47C-4.35715 1053.34 -7.79406 1057.09 -7.79406 1057.09L-7.8316 1057.12ZM97.3599 962.224C96.2894 962.966 95.3879 963.6 94.8057 964.006C95.341 963.634 96.0828 963.12 97.3693 962.23L97.3599 962.224ZM107.671 954.92C106.422 955.81 104.863 956.924 103.22 958.095C102.994 958.42 103.529 958.22 104.562 957.484C103.905 957.832 106.253 956.073 107.671 954.92ZM88.6832 971.83C90.3641 970.699 90.8242 970.271 90.965 970.065C90.1856 970.608 89.2748 971.241 88.0822 972.07C88.0258 972.098 87.9038 972.155 87.838 972.184C88.0728 972.115 88.3169 972.024 88.6832 971.83Z" fill="white"/>
<path d="M85.2369 973.646C84.9928 973.812 84.8519 973.892 84.542 974.114C84.8425 973.857 85.1242 973.617 85.4153 973.372C85.6595 973.252 85.9036 973.132 86.1102 973.023C85.8191 973.235 85.5092 973.452 85.2369 973.646Z" fill="white"/>
<path d="M67.2262 161.9L67.4421 162.054C67.2543 161.928 67.0759 161.814 66.9444 161.751C67.1041 161.848 67.1135 161.842 67.2262 161.9Z" fill="white"/>
<path d="M208.843 840.056L208.975 840.085L208.636 840.896L208.843 840.056Z" fill="white"/>
<path d="M17.5038 118.405C17.3817 118.331 17.1845 118.165 16.8371 117.834C16.8934 117.851 17.1657 118.103 17.5038 118.405Z" fill="white"/>
<path d="M0.00939941 98.0967L-2.5448 95.2526C-1.41795 96.4805 -0.619759 97.3771 0.00939941 98.0967Z" fill="white"/>
<path d="M212.393 321.572C212.44 321.806 212.468 322.04 212.496 322.246C212.693 323.833 212.534 322.754 212.393 321.572Z" fill="white"/>
<path d="M171.159 243.212C171.826 244 172.483 244.771 173.216 245.582C171.929 244.326 170.943 243.349 171.159 243.212Z" fill="white"/>
<path d="M224.657 414.357C224.657 414.357 224.657 414.357 224.657 414.346C224.713 414.546 224.75 414.717 224.807 414.917L224.647 414.357L224.657 414.357Z" fill="white"/>
<path d="M176.409 248.917C175.113 247.661 174.136 246.581 173.216 245.582C174.296 246.604 175.488 247.832 176.409 248.917Z" fill="white"/>
<path d="M111.53 193.481L111.549 193.047C114.131 194.943 111.436 193.138 111.53 193.481Z" fill="white"/>
<path d="M136.358 213.995L133.663 212.248L132.828 211.191L136.358 213.995Z" fill="white"/>
<path d="M154.116 224.657L153.111 223.766C154.426 224.88 155.684 226.027 156.952 227.158L154.116 224.657Z" fill="white"/>
<path d="M237.925 439.131L237.043 438.508C236.451 436.892 236.949 436.452 237.925 439.131Z" fill="white"/>
<path d="M283.854 531.431C284.52 532.419 285.722 535.046 285.967 536.736C285.234 534.606 284.164 532.527 283.854 531.431Z" fill="white"/>
<path d="M218.881 815.064L219.37 813.14L218.656 816.783L218.881 815.064Z" fill="white"/>
</g>
<defs>
<clipPath id="clip0_32_919">
<rect width="1148" height="527" fill="white" transform="matrix(4.37114e-08 -1 -1 -4.37114e-08 293 1148)"/>
</clipPath>
</defs>
</svg>
