<svg width="27" height="135" viewBox="0 0 27 135" fill="none" xmlns="http://www.w3.org/2000/svg">
<path d="M7.2267 27.6886L17.4817 27.6886L17.4817 29.5818C17.4817 32.6977 15.6118 34.539 12.3829 34.539C9.15399 34.539 7.2267 32.6977 7.2267 29.5818L7.2267 27.6886ZM3.43128 22.873L3.43128 29.9278C3.43128 35.8442 6.77491 39.5015 12.3542 39.5015C17.9335 39.5015 21.2771 35.8567 21.2771 29.9278L21.2771 22.873L3.43128 22.873Z" fill="#F9F8F8"/>
<path d="M21.2771 41.4277L3.43128 41.4277L3.43128 46.2433L21.2771 46.2433L21.2771 41.4277Z" fill="#F9F8F8"/>
<path d="M3.09201 56.8324C3.09201 59.1254 3.77149 61.024 5.41372 62.0155L3.43085 62.0155L3.43085 66.2071L12.6944 66.2071L12.6944 57.7091L9.23783 57.7091L9.23783 61.6533C7.82149 60.9451 7.17069 59.4141 7.17069 57.8561C7.1707 54.7688 9.23783 53.1266 12.3538 53.1266C15.4697 53.1266 17.3396 54.6846 17.3396 57.4886C17.3396 59.7834 16.0936 61.1423 14.1394 61.3969L14.3079 66.0708C18.756 65.6746 21.6173 62.6161 21.6173 57.3702C21.6173 52.1244 17.8524 48.1641 12.3538 48.1641C6.83006 48.1694 3.09201 51.9075 3.09201 56.8324Z" fill="#F9F8F8"/>
<path d="M7.2267 73.6065L17.4817 73.6066L17.4817 75.5052C17.4817 78.6211 15.6118 80.4623 12.3829 80.4623C9.15399 80.4623 7.2267 78.6211 7.2267 75.5052L7.2267 73.6065ZM3.43128 68.791L3.43128 75.8368C3.43128 81.7532 6.77491 85.4123 12.3542 85.4123C17.9335 85.4123 21.2771 81.7657 21.2771 75.8368L21.2771 68.791L3.43128 68.791Z" fill="#F9F8F8"/>
<path d="M7.39702 101.396L7.39702 92.0734L10.4861 92.0734L10.4861 99.0654L14.3944 99.0654L14.3944 92.0734L17.3114 92.0734L17.3114 101.138L21.2771 101.138L21.2771 87.3457L3.43128 87.3457L3.43128 101.396L7.39702 101.396Z" fill="#F9F8F8"/>
<path d="M7.39702 117.599L7.39702 108.287L10.4861 108.287L10.4861 115.279L14.3944 115.279L14.3944 108.287L17.3114 108.287L17.3114 117.352L21.2771 117.352L21.2771 103.549L3.43128 103.549L3.43128 117.599L7.39702 117.599Z" fill="#F9F8F8"/>
<path d="M12.8651 124.539L17.4243 124.539L17.4243 127.371C17.4243 129.523 16.6319 130.346 15.1313 130.346C13.6307 130.346 12.8651 129.523 12.8651 127.371L12.8651 124.539ZM9.01236 124.539L9.01236 127.597C9.01236 132.271 11.1906 135 15.16 135C19.1293 135 21.2771 132.28 21.2771 127.606L21.2771 119.75L3.43128 119.75L3.43128 124.539L9.01236 124.539Z" fill="#F9F8F8"/>
<path d="M12.8325 15.3035L26.25 8.60547L6.19183 8.60547" fill="#E7FCFF"/>
<path d="M6.19139 8.60547L6.16988 8.60547L9.0384 17.1734L12.832 15.3035" fill="#A6E7FF"/>
<path d="M26.25 8.6049L12.8719 1.91406L6.19183 8.6049" fill="#00A4FF"/>
<path d="M6.19126 8.60558L12.8713 1.91474L9.05082 -1.67e-07L6.18229 8.57689" fill="#008FE1"/>
<path d="M0.433847 8.60547L3.3203 14.3425L6.1709 8.60547" fill="#0079BE"/>
<path d="M9.0481 0L3.31104 2.86853L6.17957 8.57331" fill="#00466D"/>
<path d="M9.05066 17.1985L6.16958 8.60547L3.31719 14.3425L9.04528 17.211" fill="#00BBFF"/>
<path d="M6.18164 8.5793L3.31311 2.86914L0.44459 8.59364L6.16909 8.59364" fill="black"/>
</svg>
