<svg width="200" height="33" viewBox="0 0 200 33" fill="none" xmlns="http://www.w3.org/2000/svg">
<path d="M8.57815 25.6341L8.57815 7.36643H11.9506C17.5012 7.36643 20.7811 10.6974 20.7811 16.4492C20.7811 22.2009 17.5012 25.6341 11.9506 25.6341L8.57815 25.6341ZM0 32.3951H12.567C23.1061 32.3951 29.6211 26.4389 29.6211 16.5003C29.6211 6.56163 23.1284 0.605469 12.567 0.605469L0 0.605469L0 32.3951Z" fill="#F9F8F8"/>
<path d="M33.0505 0.605469L33.0505 32.3951H41.6286L41.6286 0.605469L33.0505 0.605469Z" fill="#F9F8F8"/>
<path d="M60.4934 33C64.5781 33 67.9602 31.7896 69.7263 28.8642V32.3964H77.193V15.8948L62.0551 15.8948V22.0522H69.0812C67.8197 24.5751 65.0923 25.7344 62.317 25.7344C56.8175 25.7344 53.8921 22.0522 53.8921 16.5016C53.8921 10.951 56.6674 7.62005 61.6623 7.62005C65.7502 7.62005 68.171 9.83964 68.6245 13.3207L76.9503 13.0205C76.2445 5.09707 70.7961 0 61.4515 0C52.1069 0 45.0521 6.70667 45.0521 16.5016C45.0617 26.3412 51.7205 33 60.4934 33Z" fill="#F9F8F8"/>
<path d="M90.3733 25.6341V7.36643H93.7554C99.3059 7.36643 102.586 10.6974 102.586 16.4492C102.586 22.2009 99.3059 25.6341 93.7554 25.6341L90.3733 25.6341ZM81.7952 32.3951H94.3462C104.885 32.3951 111.403 26.4389 111.403 16.5003C111.403 6.56163 104.908 0.605469 94.3462 0.605469L81.7952 0.605469V32.3951Z" fill="#F9F8F8"/>
<path d="M139.875 25.3307L123.268 25.3307V19.8281L135.724 19.8281V12.8659L123.268 12.8659V7.66983L139.415 7.66983V0.605469L114.847 0.605469V32.3951H139.875V25.3307Z" fill="#F9F8F8"/>
<path d="M168.739 25.3307L152.152 25.3307V19.8281L164.607 19.8281V12.8659L152.152 12.8659V7.66983L168.299 7.66983V0.605469L143.711 0.605469V32.3951H168.739V25.3307Z" fill="#F9F8F8"/>
<path d="M181.102 15.5901V7.46863H186.148C189.98 7.46863 191.446 8.88022 191.446 11.5533C191.446 14.2264 189.98 15.5901 186.148 15.5901H181.102ZM181.102 22.4532L186.55 22.4532C194.876 22.4532 199.737 18.573 199.737 11.5022C199.737 4.43146 194.892 0.605469 186.566 0.605469L172.572 0.605469V32.3951H181.102V22.4532Z" fill="#F9F8F8"/>
</svg>
