<svg width="1441" height="346" viewBox="0 0 1441 346" fill="none" xmlns="http://www.w3.org/2000/svg">
<path d="M2991.88 123.524C2881.74 139.127 2757.62 151.453 2654.27 128.403C2575.32 110.797 2524.71 76.0039 2470.6 44.9064C2470.06 44.5969 2469.51 44.2874 2468.97 43.9778C2387.05 -2.79579 2238.38 -13.8292 2126.68 18.4699C2015.52 50.6052 1901.28 86.5821 1791.25 121.685C1685.75 155.35 1573.2 197.226 1433.38 184.554C1329.43 175.141 1244.69 143.078 1156.98 116.496C1069.27 89.9139 962.224 67.3009 860.107 80.0822C742.35 94.8298 676.406 150.325 573.217 179.583C451.332 214.14 276.433 205.346 174.917 159.537C118.193 133.938 86.0216 101.967 1.63678 97.5062C1.09118 97.4698 0.545592 97.4516 0 97.4334V340.004C46.0116 338.967 91.714 335.343 135.561 329.026C276.197 308.78 396.263 262.68 542.1 252.029C684.554 241.614 829.027 267.122 949.748 302.389C950.948 302.735 952.167 303.099 953.367 303.445C1167.33 366.459 1449.51 357.72 1641.49 281.943L1798.47 219.984C1868.38 192.383 1951.73 172.337 2042.1 161.831C2229.43 140.056 2435.96 150.033 2604.75 192.583C2759.73 231.637 2882.07 295.343 3047.91 324.255C3117.82 336.436 3193.58 341.734 3268.53 340.041V97.4516C3176.94 92.8817 3077.16 111.453 2991.84 123.542L2991.88 123.524Z" fill="#F0C31A"/>
</svg>
