<svg width="1494" height="1490" viewBox="0 0 1494 1490" fill="none" xmlns="http://www.w3.org/2000/svg">
<rect x="54.001" y="242.992" width="1440" height="1247" fill="#E72B7C"/>
<mask id="mask0_2117_8906" style="mask-type:alpha" maskUnits="userSpaceOnUse" x="54" y="0" width="1440" height="1233">
<path d="M54 0H1494V1233H54V0Z" fill="#00A4FF"/>
</mask>
<g mask="url(#mask0_2117_8906)">
<path d="M416 565.26L1504 717V155H951.976L416 565.26Z" fill="#E72B7C"/>
<path d="M2037.44 556.139C1913.54 565.26 1788.98 541.773 1682.52 512.096C1594.35 487.498 1506.73 463.046 1418.62 438.795C1337.03 416.346 1236.17 412.777 1147.57 429.145C948.135 465.978 819.794 578.278 570.149 548.255C476.344 536.985 402.452 504.322 311.102 489.574C214.914 474.043 102.25 480.543 18.1011 506.47C-45.9332 526.188 -91.8719 555.538 -152.287 577.404C-307.817 633.7 -544.731 630.66 -716.083 584.359C-780.972 566.826 -842.079 543.303 -912.787 533.307V689.049C-912.242 689.067 -911.696 689.104 -911.151 689.122C-826.784 693.583 -794.594 725.572 -737.871 751.153C-636.354 796.962 -461.456 805.774 -339.571 771.199C-236.381 741.94 -170.437 686.446 -52.6803 671.698C49.4363 658.899 156.481 681.53 244.194 708.112C331.907 734.694 416.656 766.756 520.591 776.169C660.408 788.841 772.982 746.966 878.463 713.301C988.472 678.198 1102.74 642.221 1213.89 610.086C1325.59 577.787 1474.27 588.82 1556.18 635.594C1556.72 635.903 1557.27 636.213 1557.82 636.522C1611.92 667.62 1662.53 702.395 1741.48 720.019C1844.83 743.069 1968.94 730.743 2079.09 715.14C2164.4 703.05 2264.19 684.479 2355.78 689.049V533.289C2340.23 531.086 2324.24 529.538 2307.62 528.865C2215.09 525.114 2129.1 549.366 2037.44 556.12V556.139Z" fill="#00A4FF"/>
<path d="M2079.09 715.159C1968.96 730.762 1844.83 743.088 1741.48 720.038C1662.53 702.432 1611.92 667.639 1557.82 636.541C1557.27 636.232 1556.72 635.922 1556.18 635.613C1474.27 588.839 1325.59 577.806 1213.89 610.105C1102.74 642.24 988.49 678.217 878.463 713.32C772.964 746.984 660.408 788.86 520.591 776.188C416.638 766.775 331.907 734.713 244.194 708.131C156.481 681.549 49.4363 658.936 -52.6802 671.717C-170.437 686.465 -236.381 741.959 -339.571 771.218C-461.456 805.775 -636.354 796.981 -737.871 751.172C-794.594 725.573 -826.766 693.602 -911.151 689.141C-911.696 689.105 -912.242 689.086 -912.787 689.068V931.639C-866.776 930.601 -821.073 926.978 -777.226 920.66C-636.591 900.414 -516.524 854.314 -370.687 843.663C-228.233 833.249 -83.7608 858.757 36.9604 894.024C38.1607 894.37 39.3793 894.734 40.5796 895.08C254.542 958.094 536.723 949.355 728.698 873.577L885.683 811.619C955.591 784.017 1038.94 763.972 1129.31 753.466C1316.65 731.691 1523.17 741.668 1691.96 784.218C1846.94 823.272 1969.28 886.978 2135.12 915.89C2205.03 928.071 2280.8 933.369 2355.74 931.676V689.086C2264.16 684.516 2164.37 703.088 2079.06 715.177L2079.09 715.159Z" fill="#54B848"/>
<path d="M2079.09 146.524C1968.96 162.127 1844.83 174.453 1741.48 151.403C1662.53 133.797 1611.92 99.0039 1557.82 67.9064C1557.27 67.5969 1556.72 67.2874 1556.18 66.9778C1474.27 20.2042 1325.59 9.1708 1213.89 41.4699C1102.74 73.6052 988.49 109.582 878.463 144.685C772.964 178.35 660.408 220.226 520.591 207.554C416.638 198.141 331.907 166.078 244.194 139.496C156.481 112.914 49.4363 90.3009 -52.6802 103.082C-170.437 117.83 -236.381 173.325 -339.571 202.583C-461.456 237.14 -636.354 228.346 -737.871 182.537C-794.594 156.938 -826.766 124.967 -911.151 120.506C-911.696 120.47 -912.242 120.452 -912.787 120.433V363.004C-866.776 361.967 -821.073 358.343 -777.226 352.026C-636.591 331.78 -516.524 285.68 -370.687 275.029C-228.233 264.614 -83.7608 290.122 36.9604 325.389C38.1607 325.735 39.3793 326.099 40.5796 326.445C254.542 389.459 536.723 380.72 728.698 304.943L885.683 242.984C955.591 215.383 1038.94 195.337 1129.31 184.831C1316.65 163.056 1523.17 173.033 1691.96 215.583C1846.94 254.637 1969.28 318.343 2135.12 347.255C2205.03 359.436 2280.8 364.734 2355.74 363.041V120.452C2264.16 115.882 2164.37 134.453 2079.06 146.542L2079.09 146.524Z" fill="#E72B7C"/>
<path d="M-663.197 1087.64C-531.878 1077.97 -399.865 1102.86 -287.031 1134.32C-193.587 1160.39 -100.721 1186.3 -7.33447 1212C79.1321 1235.8 186.03 1239.58 279.937 1222.23C491.304 1183.19 627.326 1064.17 891.91 1095.99C991.33 1107.94 1069.64 1142.56 1166.46 1158.19C1268.4 1174.65 1387.81 1167.76 1477 1140.28C1544.86 1119.38 1593.55 1088.27 1657.58 1065.1C1822.42 1005.43 2073.51 1008.66 2255.12 1057.73C2323.89 1076.31 2388.65 1101.24 2463.59 1111.84L2463.59 946.773C2463.02 946.754 2462.44 946.715 2461.86 946.696C2372.44 941.969 2338.33 908.064 2278.21 880.953C2170.62 832.403 1985.25 823.063 1856.07 859.707C1746.71 890.717 1676.82 949.533 1552.01 965.163C1443.79 978.728 1330.33 954.743 1237.37 926.57C1144.41 898.397 1054.59 864.416 944.434 854.439C796.25 841.009 676.939 885.391 565.145 921.07C448.552 958.274 327.449 996.404 209.641 1030.46C91.2559 1064.69 -66.3154 1053 -153.129 1003.43C-153.707 1003.1 -154.285 1002.77 -154.864 1002.44C-212.206 969.485 -265.848 932.629 -349.52 913.95C-459.058 889.52 -590.589 902.584 -707.336 919.121C-797.754 931.934 -903.515 951.616 -1000.58 946.773L-1000.58 1111.85C-984.103 1114.19 -967.16 1115.83 -949.543 1116.54C-851.473 1120.52 -760.342 1094.82 -663.197 1087.66L-663.197 1087.64Z" fill="#7A54A2"/>
<path d="M-707.336 919.103C-590.608 902.566 -459.058 889.502 -349.52 913.931C-265.848 932.591 -212.206 969.467 -154.864 1002.43C-154.285 1002.75 -153.707 1003.08 -153.129 1003.41C-66.3154 1052.98 91.2559 1064.68 209.642 1030.44C327.449 996.386 448.533 958.256 565.145 921.052C676.958 885.373 796.25 840.991 944.434 854.421C1054.61 864.397 1144.41 898.379 1237.37 926.552C1330.33 954.724 1443.79 978.691 1552.01 965.145C1676.82 949.514 1746.71 890.699 1856.07 859.689C1985.25 823.064 2170.62 832.384 2278.21 880.935C2338.33 908.066 2372.42 941.95 2461.86 946.678C2462.44 946.717 2463.02 946.736 2463.59 946.755L2463.59 689.667C2414.83 690.767 2366.39 694.607 2319.92 701.303C2170.87 722.761 2043.62 771.62 1889.05 782.908C1738.07 793.946 1584.95 766.911 1457.01 729.534C1455.74 729.167 1454.44 728.781 1453.17 728.415C1226.4 661.629 927.337 670.891 723.873 751.204L557.493 816.87C483.401 846.123 395.065 867.369 299.288 878.503C100.739 901.582 -118.145 891.007 -297.034 845.911C-461.294 804.52 -590.955 737.001 -766.722 706.358C-840.814 693.449 -921.113 687.834 -1000.54 689.628L-1000.54 946.735C-903.477 951.579 -797.716 931.896 -707.298 919.083L-707.336 919.103Z" fill="#F0C31A"/>
</g>
</svg>
