<svg width="1500" height="367" viewBox="0 0 1500 367" fill="none" xmlns="http://www.w3.org/2000/svg">
<path d="M-845.337 235.111C-728.609 218.574 -597.059 205.51 -487.52 229.939C-403.848 248.599 -350.207 285.475 -292.864 318.433C-292.286 318.761 -291.708 319.089 -291.129 319.417C-204.316 368.99 -46.7445 380.684 71.6411 346.452C189.448 312.393 310.532 274.263 427.145 237.06C538.958 201.38 658.249 156.998 806.433 170.429C916.608 180.405 1006.41 214.386 1099.37 242.559C1192.33 270.732 1305.79 294.699 1414.01 281.152C1538.82 265.522 1608.71 206.706 1718.07 175.697C1847.25 139.072 2032.62 148.392 2140.21 196.942C2200.33 224.073 2234.42 257.958 2323.86 262.686C2324.44 262.724 2325.02 262.744 2325.59 262.763L2325.59 5.67508C2276.83 6.77498 2228.39 10.615 2181.92 17.3109C2032.87 38.7686 1905.62 87.6274 1751.05 98.9159C1600.07 109.953 1446.95 82.919 1319.01 45.5416C1317.74 45.175 1316.44 44.789 1315.17 44.4224C1088.4 -22.363 789.337 -13.1007 585.872 67.2115L419.493 132.878C345.4 162.131 257.064 183.377 161.288 194.511C-37.2615 217.589 -256.146 207.015 -435.035 161.919C-599.294 120.528 -728.956 53.0091 -904.723 22.3662C-978.815 9.45676 -1059.11 3.84143 -1138.54 5.636L-1138.54 262.743C-1041.48 267.587 -935.716 247.904 -845.298 235.091L-845.337 235.111Z" fill="#00A4FF"/>
</svg>
