<svg width="571" height="542" viewBox="0 0 571 542" fill="none" xmlns="http://www.w3.org/2000/svg">
<ellipse cx="285.349" cy="271" rx="284.795" ry="271" fill="#D9D9D9"/>
<path d="M99.2083 259.79C99.2083 263.48 96.0943 266.18 92.7643 266.18C89.4343 266.18 86.3203 263.48 86.3203 259.79C86.3203 256.1 89.4343 253.4 92.7643 253.4C96.0943 253.4 99.2083 256.1 99.2083 259.79ZM88.2643 259.79C88.2643 263.048 90.4963 265.352 92.7643 265.352C95.0323 265.352 97.2643 263.048 97.2643 259.79C97.2643 256.532 95.0323 254.246 92.7643 254.246C90.4963 254.246 88.2643 256.532 88.2643 259.79ZM101.685 259.772L100.101 258.764L103.269 257.54V258.692H103.611C104.259 258.188 105.105 257.72 106.041 257.72C108.147 257.72 109.569 259.358 109.569 261.68C109.569 264.398 107.301 266.18 105.177 266.18C104.511 266.18 103.881 266.09 103.269 265.838V270.32H105.105V271.04H100.389V270.32H101.685V259.772ZM103.269 264.488C103.557 265.064 104.259 265.424 105.123 265.424C106.563 265.424 107.859 264.452 107.859 262.13C107.859 260.024 106.653 258.782 104.853 258.782C104.133 258.782 103.485 259.142 103.269 259.52V264.488ZM117.872 263.498C117.566 265.298 116.252 266.18 114.704 266.18C112.562 266.18 110.942 264.434 110.942 262.04C110.942 259.79 112.688 257.72 114.812 257.72C116.792 257.72 117.98 259.268 117.98 261.104H112.22C112.202 261.212 112.202 261.32 112.202 261.446C112.202 263.426 113.606 264.758 115.262 264.758C116.342 264.758 117.188 264.416 117.872 263.498ZM114.542 258.602C113.552 258.602 112.652 259.25 112.328 260.438H116.324C116.324 259.322 115.604 258.602 114.542 258.602ZM120.286 259.772L118.702 258.764L121.87 257.54V259.124H122.248C123.076 258.368 123.742 257.72 124.516 257.72C125.092 257.72 125.542 258.116 125.542 258.692C125.542 259.178 125.182 259.61 124.696 259.808L123.292 258.962L121.87 260.024V265.28H123.706V266H118.99V265.28H120.286V259.772ZM130.537 260.294C130.537 259.34 130.033 258.35 128.125 258.89V260.546H126.163C126.793 258.998 128.593 257.72 130.195 257.72C131.185 257.72 132.013 258.422 132.013 259.754V263.912C132.013 264.614 132.355 264.92 132.859 264.92C133.201 264.92 133.525 264.794 133.777 264.506C133.777 265.478 132.949 266.144 132.049 266.144C131.221 266.144 130.753 265.658 130.555 265.046H130.231C129.763 265.478 128.989 266.126 127.999 266.126C127.135 266.126 126.289 265.496 126.289 264.452C126.289 263.282 127.387 262.616 128.485 262.184L130.537 261.374V260.294ZM130.537 261.95L129.511 262.382C128.431 262.832 127.855 263.21 127.855 264.038C127.855 264.668 128.341 265.01 128.989 265.01C129.601 265.01 130.105 264.74 130.537 264.326V261.95ZM133.905 258.692L136.893 256.172V258.134H140.007L139.467 259.034H136.893V263.282C136.893 264.488 137.577 264.974 138.405 264.974C139.089 264.974 139.665 264.74 140.241 264.182C139.809 265.496 138.819 266.18 137.577 266.18C136.389 266.18 135.381 265.424 135.381 263.966L135.453 259.286L133.905 258.692ZM142.818 255.47C142.206 255.47 141.72 254.984 141.72 254.39C141.72 253.796 142.206 253.31 142.818 253.31C143.43 253.31 143.916 253.796 143.916 254.39C143.916 254.984 143.43 255.47 142.818 255.47ZM142.188 265.28V259.772L140.604 258.764L143.772 257.54V265.28H145.068V266H140.892V265.28H142.188ZM146.063 261.95C146.063 259.466 148.097 257.72 150.311 257.72C152.525 257.72 154.559 259.466 154.559 261.95C154.559 264.434 152.525 266.18 150.311 266.18C148.097 266.18 146.063 264.434 146.063 261.95ZM147.809 261.95C147.809 264.002 148.997 265.478 150.311 265.478C151.625 265.478 152.813 264.002 152.813 261.95C152.813 259.898 151.625 258.422 150.311 258.422C148.997 258.422 147.809 259.934 147.809 261.95ZM156.918 259.772L155.334 258.764L158.502 257.54V259.088H158.916C159.546 258.476 160.374 257.72 161.58 257.72C163.056 257.72 163.74 258.8 163.74 260.366V265.28H165.036V266H160.86V265.28H162.156V260.816C162.156 259.61 161.508 258.98 160.392 258.98C159.654 258.98 158.97 259.484 158.502 259.934V265.28H159.798V266H155.622V265.28H156.918V259.772ZM166.069 265.262V263.03C166.771 264.668 167.815 265.352 168.787 265.352C169.543 265.352 170.173 264.902 170.173 264.074C170.173 262.13 166.249 262.742 166.249 260.096C166.249 258.656 167.491 257.72 168.787 257.72C169.417 257.72 170.047 258.008 170.407 258.35L171.307 257.72V260.726C170.551 259.448 169.687 258.512 168.751 258.512C168.103 258.512 167.599 258.908 167.599 259.61C167.599 261.428 171.595 260.924 171.595 263.606C171.595 265.064 170.245 266.18 168.589 266.18C167.545 266.18 166.555 265.766 166.069 265.262ZM86.2273 280.628L86.5513 280.7V276.326C85.6993 276.338 85.0453 276.542 84.5893 276.938C84.1453 277.322 83.9233 277.862 83.9233 278.558C83.9233 279.194 84.1213 279.662 84.5173 279.962C84.9253 280.262 85.4953 280.484 86.2273 280.628ZM87.8293 282.014L87.4333 281.942V286.334C88.2253 286.286 88.8673 286.07 89.3593 285.686C89.8513 285.29 90.0973 284.762 90.0973 284.102C90.0973 283.526 89.9173 283.076 89.5573 282.752C89.1973 282.416 88.6213 282.17 87.8293 282.014ZM87.4333 288.854H86.5513V287.198C85.3873 287.09 84.4213 286.67 83.6533 285.938C82.8973 285.194 82.5193 284.192 82.5193 282.932L83.5273 282.842C83.5633 283.85 83.8573 284.654 84.4093 285.254C84.9733 285.842 85.6873 286.19 86.5513 286.298V281.762L85.5613 281.564C84.7693 281.408 84.1213 281.09 83.6173 280.61C83.1133 280.118 82.8613 279.446 82.8613 278.594C82.8613 277.658 83.1913 276.902 83.8513 276.326C84.5233 275.738 85.4233 275.444 86.5513 275.444V273.824H87.4333V275.498C88.5373 275.63 89.4013 276.05 90.0253 276.758C90.6493 277.454 90.9613 278.372 90.9613 279.512L89.9353 279.602C89.9233 278.714 89.6953 277.994 89.2513 277.442C88.8073 276.878 88.2013 276.53 87.4333 276.398V280.88L88.1893 281.024C89.1613 281.216 89.9053 281.54 90.4213 281.996C90.9373 282.44 91.1953 283.112 91.1953 284.012C91.1953 284.96 90.8413 285.722 90.1333 286.298C89.4253 286.862 88.5253 287.168 87.4333 287.216V288.854ZM102.086 275.66L98.1084 281.06L102.518 287H101.168L97.4424 281.996L93.7524 287H92.4564L96.8484 281.15L92.8524 275.66H94.2024L97.4964 280.268L100.808 275.66H102.086ZM104.042 287V285.56H105.482V287.018C105.482 287.57 105.404 288.008 105.248 288.332C105.092 288.668 104.69 288.836 104.042 288.836V288.098C104.354 288.074 104.546 287.984 104.618 287.828C104.702 287.684 104.744 287.408 104.744 287H104.042ZM116.64 275.66L112.662 281.06L117.072 287H115.722L111.996 281.996L108.306 287H107.01L111.402 281.15L107.406 275.66H108.756L112.05 280.268L115.362 275.66H116.64ZM127.6 275.66L123.622 281.06L128.032 287H126.682L122.956 281.996L119.266 287H117.97L122.362 281.15L118.366 275.66H119.716L123.01 280.268L126.322 275.66H127.6ZM138.56 275.66L134.582 281.06L138.992 287H137.642L133.916 281.996L130.226 287H128.93L133.322 281.15L129.326 275.66H130.676L133.97 280.268L137.282 275.66H138.56ZM140.515 287V285.56H141.955V287.018C141.955 287.57 141.877 288.008 141.721 288.332C141.565 288.668 141.163 288.836 140.515 288.836V288.098C140.827 288.074 141.019 287.984 141.091 287.828C141.175 287.684 141.217 287.408 141.217 287H140.515ZM153.114 275.66L149.136 281.06L153.546 287H152.196L148.47 281.996L144.78 287H143.484L147.876 281.15L143.88 275.66H145.23L148.524 280.268L151.836 275.66H153.114ZM164.073 275.66L160.095 281.06L164.505 287H163.155L159.429 281.996L155.739 287H154.443L158.835 281.15L154.839 275.66H156.189L159.483 280.268L162.795 275.66H164.073ZM175.033 275.66L171.055 281.06L175.465 287H174.115L170.389 281.996L166.699 287H165.403L169.795 281.15L165.799 275.66H167.149L170.443 280.268L173.755 275.66H175.033Z" fill="#2C2A2A"/>
<path d="M395.03 254.372V253.58H399.962C402.986 253.58 405.128 254.732 405.128 257.18C405.128 259.376 402.968 260.546 401.024 260.546L399.638 259.88C402.266 259.88 403.364 258.818 403.364 257.126C403.364 255.2 401.942 254.372 399.944 254.372H398.612V265.208H400.916V266H395.03V265.208H396.884V254.372H395.03ZM407.502 259.772L405.918 258.764L409.086 257.54V259.124H409.464C410.292 258.368 410.958 257.72 411.732 257.72C412.308 257.72 412.758 258.116 412.758 258.692C412.758 259.178 412.398 259.61 411.912 259.808L410.508 258.962L409.086 260.024V265.28H410.922V266H406.206V265.28H407.502V259.772ZM413.452 261.95C413.452 259.466 415.486 257.72 417.7 257.72C419.914 257.72 421.948 259.466 421.948 261.95C421.948 264.434 419.914 266.18 417.7 266.18C415.486 266.18 413.452 264.434 413.452 261.95ZM415.198 261.95C415.198 264.002 416.386 265.478 417.7 265.478C419.014 265.478 420.202 264.002 420.202 261.95C420.202 259.898 419.014 258.422 417.7 258.422C416.386 258.422 415.198 259.934 415.198 261.95ZM425.171 265.208H428.897C430.589 265.208 431.723 265.892 431.723 267.278C431.723 269.582 428.951 271.22 426.197 271.22C424.253 271.22 422.615 270.464 422.615 269.078C422.615 267.98 423.821 267.206 424.829 266.756V266.432C424.289 266.234 423.767 265.784 423.767 265.028C423.767 264.308 424.253 263.642 424.955 263.084C424.055 262.58 423.425 261.698 423.425 260.636C423.425 258.962 425.027 257.72 426.791 257.72C427.691 257.72 428.555 258.044 429.185 258.584L431.687 257.486V259.124H429.671C429.977 259.556 430.157 260.078 430.157 260.636C430.157 262.328 428.555 263.552 426.791 263.552C426.215 263.552 425.657 263.426 425.171 263.192V265.208ZM425.081 260.636C425.081 261.896 425.801 262.886 426.791 262.886C427.781 262.886 428.501 261.896 428.501 260.636C428.501 259.376 427.781 258.386 426.791 258.386C425.801 258.386 425.081 259.376 425.081 260.636ZM428.177 266.648H425.711C424.955 266.972 424.199 267.584 424.199 268.61C424.199 269.618 425.189 270.392 427.025 270.392C428.735 270.392 430.355 269.438 430.355 267.998C430.355 266.99 429.473 266.648 428.177 266.648ZM433.641 259.772L432.057 258.764L435.225 257.54V259.124H435.603C436.431 258.368 437.097 257.72 437.871 257.72C438.447 257.72 438.897 258.116 438.897 258.692C438.897 259.178 438.537 259.61 438.051 259.808L436.647 258.962L435.225 260.024V265.28H437.061V266H432.345V265.28H433.641V259.772ZM443.892 260.294C443.892 259.34 443.388 258.35 441.48 258.89V260.546H439.518C440.148 258.998 441.948 257.72 443.55 257.72C444.54 257.72 445.368 258.422 445.368 259.754V263.912C445.368 264.614 445.71 264.92 446.214 264.92C446.556 264.92 446.88 264.794 447.132 264.506C447.132 265.478 446.304 266.144 445.404 266.144C444.576 266.144 444.108 265.658 443.91 265.046H443.586C443.118 265.478 442.344 266.126 441.354 266.126C440.49 266.126 439.644 265.496 439.644 264.452C439.644 263.282 440.742 262.616 441.84 262.184L443.892 261.374V260.294ZM443.892 261.95L442.866 262.382C441.786 262.832 441.21 263.21 441.21 264.038C441.21 264.668 441.696 265.01 442.344 265.01C442.956 265.01 443.46 264.74 443.892 264.326V261.95ZM448.899 259.772L447.315 258.764L450.483 257.54V259.088H450.897C451.527 258.476 452.355 257.72 453.561 257.72C454.659 257.72 455.289 258.332 455.631 259.178H455.955C456.585 258.566 457.593 257.72 458.799 257.72C460.275 257.72 460.959 258.8 460.959 260.366V265.28H462.255V266H458.079V265.28H459.375V260.816C459.375 259.61 458.727 258.98 457.611 258.98C456.873 258.98 456.189 259.484 455.721 259.934V265.28H457.017V266H452.841V265.28H454.137V260.816C454.137 259.61 453.489 258.98 452.373 258.98C451.635 258.98 450.951 259.484 450.483 259.934V265.28H451.779V266H447.603V265.28H448.899V259.772ZM463.288 265.262V263.03C463.99 264.668 465.034 265.352 466.006 265.352C466.762 265.352 467.392 264.902 467.392 264.074C467.392 262.13 463.468 262.742 463.468 260.096C463.468 258.656 464.71 257.72 466.006 257.72C466.636 257.72 467.266 258.008 467.626 258.35L468.526 257.72V260.726C467.77 259.448 466.906 258.512 465.97 258.512C465.322 258.512 464.818 258.908 464.818 259.61C464.818 261.428 468.814 260.924 468.814 263.606C468.814 265.064 467.464 266.18 465.808 266.18C464.764 266.18 463.774 265.766 463.288 265.262ZM389.3 280.628L389.624 280.7V276.326C388.772 276.338 388.118 276.542 387.662 276.938C387.218 277.322 386.996 277.862 386.996 278.558C386.996 279.194 387.194 279.662 387.59 279.962C387.998 280.262 388.568 280.484 389.3 280.628ZM390.902 282.014L390.506 281.942V286.334C391.298 286.286 391.94 286.07 392.432 285.686C392.924 285.29 393.17 284.762 393.17 284.102C393.17 283.526 392.99 283.076 392.63 282.752C392.27 282.416 391.694 282.17 390.902 282.014ZM390.506 288.854H389.624V287.198C388.46 287.09 387.494 286.67 386.726 285.938C385.97 285.194 385.592 284.192 385.592 282.932L386.6 282.842C386.636 283.85 386.93 284.654 387.482 285.254C388.046 285.842 388.76 286.19 389.624 286.298V281.762L388.634 281.564C387.842 281.408 387.194 281.09 386.69 280.61C386.186 280.118 385.934 279.446 385.934 278.594C385.934 277.658 386.264 276.902 386.924 276.326C387.596 275.738 388.496 275.444 389.624 275.444V273.824H390.506V275.498C391.61 275.63 392.474 276.05 393.098 276.758C393.722 277.454 394.034 278.372 394.034 279.512L393.008 279.602C392.996 278.714 392.768 277.994 392.324 277.442C391.88 276.878 391.274 276.53 390.506 276.398V280.88L391.262 281.024C392.234 281.216 392.978 281.54 393.494 281.996C394.01 282.44 394.268 283.112 394.268 284.012C394.268 284.96 393.914 285.722 393.206 286.298C392.498 286.862 391.598 287.168 390.506 287.216V288.854ZM405.159 275.66L401.181 281.06L405.591 287H404.241L400.515 281.996L396.825 287H395.529L399.921 281.15L395.925 275.66H397.275L400.569 280.268L403.881 275.66H405.159ZM407.114 287V285.56H408.554V287.018C408.554 287.57 408.476 288.008 408.32 288.332C408.164 288.668 407.762 288.836 407.114 288.836V288.098C407.426 288.074 407.618 287.984 407.69 287.828C407.774 287.684 407.816 287.408 407.816 287H407.114ZM419.713 275.66L415.735 281.06L420.145 287H418.795L415.069 281.996L411.379 287H410.083L414.475 281.15L410.479 275.66H411.829L415.123 280.268L418.435 275.66H419.713ZM430.672 275.66L426.694 281.06L431.104 287H429.754L426.028 281.996L422.338 287H421.042L425.434 281.15L421.438 275.66H422.788L426.082 280.268L429.394 275.66H430.672ZM441.632 275.66L437.654 281.06L442.064 287H440.714L436.988 281.996L433.298 287H432.002L436.394 281.15L432.398 275.66H433.748L437.042 280.268L440.354 275.66H441.632ZM443.587 287V285.56H445.027V287.018C445.027 287.57 444.949 288.008 444.793 288.332C444.637 288.668 444.235 288.836 443.587 288.836V288.098C443.899 288.074 444.091 287.984 444.163 287.828C444.247 287.684 444.289 287.408 444.289 287H443.587ZM456.186 275.66L452.208 281.06L456.618 287H455.268L451.542 281.996L447.852 287H446.556L450.948 281.15L446.952 275.66H448.302L451.596 280.268L454.908 275.66H456.186ZM467.145 275.66L463.167 281.06L467.577 287H466.227L462.501 281.996L458.811 287H457.515L461.907 281.15L457.911 275.66H459.261L462.555 280.268L465.867 275.66H467.145ZM478.105 275.66L474.127 281.06L478.537 287H477.187L473.461 281.996L469.771 287H468.475L472.867 281.15L468.871 275.66H470.221L473.515 280.268L476.827 275.66H478.105Z" fill="#2C2A2A"/>
</svg>
