<svg width="1440" height="1490" viewBox="0 0 1440 1490" fill="none" xmlns="http://www.w3.org/2000/svg">
<rect x="0.000976562" y="242.992" width="1440" height="1247" fill="#E72B7C"/>
<mask id="mask0_19_34" style="mask-type:alpha" maskUnits="userSpaceOnUse" x="0" y="0" width="1440" height="1233">
<path d="M0 0H1440V1233H0V0Z" fill="#00A4FF"/>
</mask>
<g mask="url(#mask0_19_34)">
<path d="M362 565.26L1450 717V155H897.976L362 565.26Z" fill="#E72B7C"/>
<path d="M1983.44 556.139C1859.54 565.26 1734.98 541.773 1628.52 512.096C1540.35 487.498 1452.73 463.046 1364.62 438.795C1283.03 416.346 1182.17 412.777 1093.57 429.145C894.135 465.978 765.794 578.278 516.149 548.255C422.344 536.985 348.452 504.322 257.102 489.574C160.914 474.043 48.2496 480.543 -35.8989 506.47C-99.9332 526.188 -145.872 555.538 -206.287 577.404C-361.817 633.7 -598.731 630.66 -770.083 584.359C-834.972 566.826 -896.079 543.303 -966.787 533.307V689.049C-966.242 689.067 -965.696 689.104 -965.151 689.122C-880.784 693.583 -848.594 725.572 -791.871 751.153C-690.354 796.962 -515.456 805.774 -393.571 771.199C-290.381 741.94 -224.437 686.446 -106.68 671.698C-4.56372 658.899 102.481 681.53 190.194 708.112C277.907 734.694 362.656 766.756 466.591 776.169C606.408 788.841 718.982 746.966 824.463 713.301C934.472 678.198 1048.74 642.221 1159.89 610.086C1271.59 577.787 1420.27 588.82 1502.18 635.594C1502.72 635.903 1503.27 636.213 1503.82 636.522C1557.92 667.62 1608.53 702.395 1687.48 720.019C1790.83 743.069 1914.94 730.743 2025.09 715.14C2110.4 703.05 2210.19 684.479 2301.78 689.049V533.289C2286.23 531.086 2270.24 529.538 2253.62 528.865C2161.09 525.114 2075.1 549.366 1983.44 556.12V556.139Z" fill="#00A4FF"/>
<path d="M2025.09 715.159C1914.96 730.762 1790.83 743.088 1687.48 720.038C1608.53 702.432 1557.92 667.639 1503.82 636.541C1503.27 636.232 1502.72 635.922 1502.18 635.613C1420.27 588.839 1271.59 577.806 1159.89 610.105C1048.74 642.24 934.49 678.217 824.463 713.32C718.964 746.984 606.408 788.86 466.591 776.188C362.638 766.775 277.907 734.713 190.194 708.131C102.481 681.549 -4.56366 658.936 -106.68 671.717C-224.437 686.465 -290.381 741.959 -393.571 771.218C-515.456 805.775 -690.354 796.981 -791.871 751.172C-848.594 725.573 -880.766 693.602 -965.151 689.141C-965.696 689.105 -966.242 689.086 -966.787 689.068V931.639C-920.776 930.601 -875.073 926.978 -831.226 920.66C-690.591 900.414 -570.524 854.314 -424.687 843.663C-282.233 833.249 -137.761 858.757 -17.0396 894.024C-15.8393 894.37 -14.6207 894.734 -13.4204 895.08C200.542 958.094 482.723 949.355 674.698 873.577L831.683 811.619C901.591 784.017 984.94 763.972 1075.31 753.466C1262.65 731.691 1469.17 741.668 1637.96 784.218C1792.94 823.272 1915.28 886.978 2081.12 915.89C2151.03 928.071 2226.8 933.369 2301.74 931.676V689.086C2210.16 684.516 2110.37 703.088 2025.06 715.177L2025.09 715.159Z" fill="#54B848"/>
<path d="M2025.09 146.524C1914.96 162.127 1790.83 174.453 1687.48 151.403C1608.53 133.797 1557.92 99.0039 1503.82 67.9064C1503.27 67.5969 1502.72 67.2874 1502.18 66.9778C1420.27 20.2042 1271.59 9.1708 1159.89 41.4699C1048.74 73.6052 934.49 109.582 824.463 144.685C718.964 178.35 606.408 220.226 466.591 207.554C362.638 198.141 277.907 166.078 190.194 139.496C102.481 112.914 -4.56366 90.3009 -106.68 103.082C-224.437 117.83 -290.381 173.325 -393.571 202.583C-515.456 237.14 -690.354 228.346 -791.871 182.537C-848.594 156.938 -880.766 124.967 -965.151 120.506C-965.696 120.47 -966.242 120.452 -966.787 120.433V363.004C-920.776 361.967 -875.073 358.343 -831.226 352.026C-690.591 331.78 -570.524 285.68 -424.687 275.029C-282.233 264.614 -137.761 290.122 -17.0396 325.389C-15.8393 325.735 -14.6207 326.099 -13.4204 326.445C200.542 389.459 482.723 380.72 674.698 304.943L831.683 242.984C901.591 215.383 984.94 195.337 1075.31 184.831C1262.65 163.056 1469.17 173.033 1637.96 215.583C1792.94 254.637 1915.28 318.343 2081.12 347.255C2151.03 359.436 2226.8 364.734 2301.74 363.041V120.452C2210.16 115.882 2110.37 134.453 2025.06 146.542L2025.09 146.524Z" fill="#E72B7C"/>
<path d="M-717.197 1087.64C-585.878 1077.97 -453.865 1102.86 -341.031 1134.32C-247.587 1160.39 -154.721 1186.3 -61.3345 1212C25.1321 1235.8 132.03 1239.58 225.937 1222.23C437.304 1183.19 573.326 1064.17 837.91 1095.99C937.33 1107.94 1015.64 1142.56 1112.46 1158.19C1214.4 1174.65 1333.81 1167.76 1423 1140.28C1490.86 1119.38 1539.55 1088.27 1603.58 1065.1C1768.42 1005.43 2019.51 1008.66 2201.12 1057.73C2269.89 1076.31 2334.65 1101.24 2409.59 1111.84L2409.59 946.773C2409.02 946.754 2408.44 946.715 2407.86 946.696C2318.44 941.969 2284.33 908.064 2224.21 880.953C2116.62 832.403 1931.25 823.063 1802.07 859.707C1692.71 890.717 1622.82 949.533 1498.01 965.163C1389.79 978.728 1276.33 954.743 1183.37 926.57C1090.41 898.397 1000.59 864.416 890.434 854.439C742.25 841.009 622.939 885.391 511.145 921.07C394.552 958.274 273.449 996.404 155.641 1030.46C37.2559 1064.69 -120.315 1053 -207.129 1003.43C-207.707 1003.1 -208.285 1002.77 -208.864 1002.44C-266.206 969.485 -319.848 932.629 -403.52 913.95C-513.058 889.52 -644.589 902.584 -761.336 919.121C-851.754 931.934 -957.515 951.616 -1054.58 946.773L-1054.58 1111.85C-1038.1 1114.19 -1021.16 1115.83 -1003.54 1116.54C-905.473 1120.52 -814.342 1094.82 -717.197 1087.66L-717.197 1087.64Z" fill="#7A54A2"/>
<path d="M-761.336 919.103C-644.608 902.566 -513.058 889.502 -403.52 913.931C-319.848 932.591 -266.206 969.467 -208.864 1002.43C-208.285 1002.75 -207.707 1003.08 -207.129 1003.41C-120.315 1052.98 37.2559 1064.68 155.642 1030.44C273.449 996.386 394.533 958.256 511.145 921.052C622.958 885.373 742.25 840.991 890.434 854.421C1000.61 864.397 1090.41 898.379 1183.37 926.552C1276.33 954.724 1389.79 978.691 1498.01 965.145C1622.82 949.514 1692.71 890.699 1802.07 859.689C1931.25 823.064 2116.62 832.384 2224.21 880.935C2284.33 908.066 2318.42 941.95 2407.86 946.678C2408.44 946.717 2409.02 946.736 2409.59 946.755L2409.59 689.667C2360.83 690.767 2312.39 694.607 2265.92 701.303C2116.87 722.761 1989.62 771.62 1835.05 782.908C1684.07 793.946 1530.95 766.911 1403.01 729.534C1401.74 729.167 1400.44 728.781 1399.17 728.415C1172.4 661.629 873.337 670.891 669.873 751.204L503.493 816.87C429.401 846.123 341.065 867.369 245.288 878.503C46.739 901.582 -172.145 891.007 -351.034 845.911C-515.294 804.52 -644.955 737.001 -820.722 706.358C-894.814 693.449 -975.113 687.834 -1054.54 689.628L-1054.54 946.735C-957.477 951.579 -851.716 931.896 -761.298 919.083L-761.336 919.103Z" fill="#F0C31A"/>
</g>
</svg>
