<svg width="1440" height="374" viewBox="0 0 1440 374" fill="none" xmlns="http://www.w3.org/2000/svg">
<path d="M2950.23 137.146C2826.33 146.268 2701.77 122.781 2595.31 93.1038C2507.14 68.5062 2419.52 44.0543 2331.4 19.8026C2249.82 -2.64654 2148.96 -6.2151 2060.35 10.1529C1860.92 46.9856 1732.58 159.286 1482.94 129.263C1389.13 117.993 1315.24 85.3294 1223.89 70.5818C1127.7 55.0513 1015.04 61.5511 930.888 87.4778C866.854 107.196 820.915 136.546 760.5 158.412C604.97 214.708 368.056 211.667 196.704 165.367C131.815 147.834 70.7087 124.31 0 114.315V270.057C0.545592 270.075 1.09118 270.112 1.63677 270.13C86.0034 274.591 118.193 306.58 174.917 332.161C276.433 377.97 451.332 386.782 573.217 352.207C676.406 322.948 742.35 267.453 860.107 252.706C962.224 239.906 1069.27 262.538 1156.98 289.12C1244.69 315.702 1329.44 347.764 1433.38 357.177C1573.2 369.849 1685.77 327.973 1791.25 294.309C1901.26 259.206 2015.52 223.229 2126.68 191.094C2238.38 158.794 2387.05 169.828 2468.97 216.601C2469.51 216.911 2470.06 217.22 2470.6 217.53C2524.71 248.627 2575.32 283.403 2654.27 301.027C2757.62 324.077 2881.72 311.751 2991.88 296.148C3077.19 284.058 3176.98 265.487 3268.57 270.057V114.297C3253.02 112.094 3237.03 110.546 3220.41 109.872C3127.88 106.122 3041.89 130.373 2950.23 137.128V137.146Z" fill="#00A4FF"/>
</svg>
