<svg width="1500" height="346" viewBox="0 0 1500 346" fill="none" xmlns="http://www.w3.org/2000/svg">
<path d="M-443.349 123.524C-333.212 139.127 -209.09 151.453 -105.737 128.403C-26.7896 110.797 23.8232 76.0039 77.9277 44.9064C78.4734 44.5969 79.019 44.2874 79.5645 43.9778C161.476 -2.79579 310.15 -13.8292 421.851 18.4699C533.006 50.6052 647.253 86.5821 757.28 121.685C862.78 155.35 975.335 197.226 1115.15 184.554C1219.11 175.141 1303.84 143.078 1391.55 116.496C1479.26 89.9139 1586.31 67.3009 1688.42 80.0822C1806.18 94.8298 1872.12 150.325 1975.31 179.583C2097.2 214.14 2272.1 205.346 2373.61 159.537C2430.34 133.938 2462.51 101.967 2546.89 97.5062C2547.44 97.4698 2547.98 97.4516 2548.53 97.4334V340.004C2502.52 338.967 2456.82 335.343 2412.97 329.026C2272.33 308.78 2152.27 262.68 2006.43 252.029C1863.98 241.614 1719.5 267.122 1598.78 302.389C1597.58 302.735 1596.36 303.099 1595.16 303.445C1381.2 366.459 1099.02 357.72 907.045 281.943L750.06 219.984C680.152 192.383 596.804 172.337 506.435 161.831C319.097 140.056 112.573 150.033 -56.2151 192.583C-211.199 231.637 -333.539 295.343 -499.381 324.255C-569.29 336.436 -645.054 341.734 -720 340.041V97.4516C-628.413 92.8817 -528.625 111.453 -443.312 123.542L-443.349 123.524Z" fill="#00A4FF"/>
</svg>
