<svg width="648" height="372" viewBox="0 0 648 372" fill="none" xmlns="http://www.w3.org/2000/svg">
<path d="M89.3144 367H81.5744C84.7244 363.904 87.9284 360.916 87.9284 358.522C87.9284 356.992 87.0464 355.948 85.4084 355.948C83.7704 355.948 82.8164 357.01 81.9704 358.288C82.5284 356.074 84.0944 354.4 86.2724 354.4C88.2884 354.4 89.6024 355.912 89.6024 357.838C89.6024 360.304 87.1364 362.572 84.3284 365.11V365.38H90.6104L89.3144 367ZM96.2506 354.4C98.6626 354.4 100.859 357.406 100.859 360.79C100.859 364.174 98.6626 367.18 96.2506 367.18C93.8386 367.18 91.6426 364.174 91.6426 360.79C91.6426 357.406 93.8386 354.4 96.2506 354.4ZM96.2506 366.406C97.8706 366.406 99.0766 363.652 99.0766 360.79C99.0766 357.91 97.8706 355.174 96.2506 355.174C94.6306 355.174 93.4246 357.91 93.4246 360.79C93.4246 363.652 94.6306 366.406 96.2506 366.406ZM109.336 367H101.596C104.746 363.904 107.95 360.916 107.95 358.522C107.95 356.992 107.068 355.948 105.43 355.948C103.792 355.948 102.838 357.01 101.992 358.288C102.55 356.074 104.116 354.4 106.294 354.4C108.31 354.4 109.624 355.912 109.624 357.838C109.624 360.304 107.158 362.572 104.35 365.11V365.38H110.632L109.336 367ZM115.75 354.4V366.208H118.108V367H111.772V366.208H114.13V356.776H111.052L115.75 354.4Z" fill="#99FD89"/>
<path d="M53.5914 173.932L54.5994 173.842C54.6714 175.876 55.8954 177.082 57.6234 177.298V172.762L56.6334 172.564C55.0494 172.24 53.9334 171.304 53.9334 169.594C53.9334 167.74 55.3194 166.48 57.6234 166.444V164.824H58.5054V166.498C60.7194 166.786 62.0334 168.226 62.0334 170.512L61.0074 170.602C60.9714 168.82 60.0534 167.686 58.5054 167.398V171.88L59.2614 172.024C61.2234 172.42 62.2674 173.212 62.2674 175.012C62.2674 176.938 60.6834 178.108 58.5054 178.198V179.854H57.6234V178.18C55.2834 177.982 53.5914 176.488 53.5914 173.932ZM58.9014 173.014L58.5054 172.942V177.334C60.0894 177.244 61.1694 176.434 61.1694 175.102C61.1694 173.95 60.5034 173.338 58.9014 173.014ZM54.9954 169.558C54.9954 170.836 55.8234 171.34 57.2994 171.628L57.6234 171.7V167.326C55.9134 167.362 54.9954 168.172 54.9954 169.558ZM73.1586 166.66L69.1806 172.06L73.5906 178H72.2406L68.5146 172.996L64.8246 178H63.5286L67.9206 172.15L63.9246 166.66H65.2746L68.5686 171.268L71.8806 166.66H73.1586ZM75.1139 178V176.56H76.5539V178.018C76.5539 179.134 76.4099 179.836 75.1139 179.836V179.098C75.7439 179.044 75.8159 178.81 75.8159 178H75.1139ZM87.7125 166.66L83.7345 172.06L88.1445 178H86.7945L83.0685 172.996L79.3785 178H78.0825L82.4745 172.15L78.4785 166.66H79.8285L83.1225 171.268L86.4345 166.66H87.7125ZM98.6721 166.66L94.6941 172.06L99.1041 178H97.7541L94.0281 172.996L90.3381 178H89.0421L93.4341 172.15L89.4381 166.66H90.7881L94.0821 171.268L97.3941 166.66H98.6721ZM109.632 166.66L105.654 172.06L110.064 178H108.714L104.988 172.996L101.298 178H100.002L104.394 172.15L100.398 166.66H101.748L105.042 171.268L108.354 166.66H109.632ZM111.587 178V176.56H113.027V178.018C113.027 179.134 112.883 179.836 111.587 179.836V179.098C112.217 179.044 112.289 178.81 112.289 178H111.587ZM124.186 166.66L120.208 172.06L124.618 178H123.268L119.542 172.996L115.852 178H114.556L118.948 172.15L114.952 166.66H116.302L119.596 171.268L122.908 166.66H124.186ZM135.145 166.66L131.167 172.06L135.577 178H134.227L130.501 172.996L126.811 178H125.515L129.907 172.15L125.911 166.66H127.261L130.555 171.268L133.867 166.66H135.145ZM146.105 166.66L142.127 172.06L146.537 178H145.187L141.461 172.996L137.771 178H136.475L140.867 172.15L136.871 166.66H138.221L141.515 171.268L144.827 166.66H146.105Z" fill="#99FD89"/>
<path d="M277.591 94.932L278.599 94.842C278.671 96.876 279.895 98.082 281.623 98.298V93.762L280.633 93.564C279.049 93.24 277.933 92.304 277.933 90.594C277.933 88.74 279.319 87.48 281.623 87.444V85.824H282.505V87.498C284.719 87.786 286.033 89.226 286.033 91.512L285.007 91.602C284.971 89.82 284.053 88.686 282.505 88.398V92.88L283.261 93.024C285.223 93.42 286.267 94.212 286.267 96.012C286.267 97.938 284.683 99.108 282.505 99.198V100.854H281.623V99.18C279.283 98.982 277.591 97.488 277.591 94.932ZM282.901 94.014L282.505 93.942V98.334C284.089 98.244 285.169 97.434 285.169 96.102C285.169 94.95 284.503 94.338 282.901 94.014ZM278.995 90.558C278.995 91.836 279.823 92.34 281.299 92.628L281.623 92.7V88.326C279.913 88.362 278.995 89.172 278.995 90.558ZM297.159 87.66L293.181 93.06L297.591 99H296.241L292.515 93.996L288.825 99H287.529L291.921 93.15L287.925 87.66H289.275L292.569 92.268L295.881 87.66H297.159ZM299.114 99V97.56H300.554V99.018C300.554 100.134 300.41 100.836 299.114 100.836V100.098C299.744 100.044 299.816 99.81 299.816 99H299.114ZM311.713 87.66L307.735 93.06L312.145 99H310.795L307.069 93.996L303.379 99H302.083L306.475 93.15L302.479 87.66H303.829L307.123 92.268L310.435 87.66H311.713ZM322.672 87.66L318.694 93.06L323.104 99H321.754L318.028 93.996L314.338 99H313.042L317.434 93.15L313.438 87.66H314.788L318.082 92.268L321.394 87.66H322.672ZM333.632 87.66L329.654 93.06L334.064 99H332.714L328.988 93.996L325.298 99H324.002L328.394 93.15L324.398 87.66H325.748L329.042 92.268L332.354 87.66H333.632ZM335.587 99V97.56H337.027V99.018C337.027 100.134 336.883 100.836 335.587 100.836V100.098C336.217 100.044 336.289 99.81 336.289 99H335.587ZM348.186 87.66L344.208 93.06L348.618 99H347.268L343.542 93.996L339.852 99H338.556L342.948 93.15L338.952 87.66H340.302L343.596 92.268L346.908 87.66H348.186ZM359.145 87.66L355.167 93.06L359.577 99H358.227L354.501 93.996L350.811 99H349.515L353.907 93.15L349.911 87.66H351.261L354.555 92.268L357.867 87.66H359.145ZM370.105 87.66L366.127 93.06L370.537 99H369.187L365.461 93.996L361.771 99H360.475L364.867 93.15L360.871 87.66H362.221L365.515 92.268L368.827 87.66H370.105Z" fill="#99FD89"/>
<path d="M501.591 12.932L502.599 12.842C502.671 14.876 503.895 16.082 505.623 16.298V11.762L504.633 11.564C503.049 11.24 501.933 10.304 501.933 8.594C501.933 6.74 503.319 5.48 505.623 5.444V3.824H506.505V5.498C508.719 5.786 510.033 7.226 510.033 9.512L509.007 9.602C508.971 7.82 508.053 6.686 506.505 6.398V10.88L507.261 11.024C509.223 11.42 510.267 12.212 510.267 14.012C510.267 15.938 508.683 17.108 506.505 17.198V18.854H505.623V17.18C503.283 16.982 501.591 15.488 501.591 12.932ZM506.901 12.014L506.505 11.942V16.334C508.089 16.244 509.169 15.434 509.169 14.102C509.169 12.95 508.503 12.338 506.901 12.014ZM502.995 8.558C502.995 9.836 503.823 10.34 505.299 10.628L505.623 10.7V6.326C503.913 6.362 502.995 7.172 502.995 8.558ZM521.159 5.66L517.181 11.06L521.591 17H520.241L516.515 11.996L512.825 17H511.529L515.921 11.15L511.925 5.66H513.275L516.569 10.268L519.881 5.66H521.159ZM523.114 17V15.56H524.554V17.018C524.554 18.134 524.41 18.836 523.114 18.836V18.098C523.744 18.044 523.816 17.81 523.816 17H523.114ZM535.713 5.66L531.735 11.06L536.145 17H534.795L531.069 11.996L527.379 17H526.083L530.475 11.15L526.479 5.66H527.829L531.123 10.268L534.435 5.66H535.713ZM546.672 5.66L542.694 11.06L547.104 17H545.754L542.028 11.996L538.338 17H537.042L541.434 11.15L537.438 5.66H538.788L542.082 10.268L545.394 5.66H546.672ZM557.632 5.66L553.654 11.06L558.064 17H556.714L552.988 11.996L549.298 17H548.002L552.394 11.15L548.398 5.66H549.748L553.042 10.268L556.354 5.66H557.632ZM559.587 17V15.56H561.027V17.018C561.027 18.134 560.883 18.836 559.587 18.836V18.098C560.217 18.044 560.289 17.81 560.289 17H559.587ZM572.186 5.66L568.208 11.06L572.618 17H571.268L567.542 11.996L563.852 17H562.556L566.948 11.15L562.952 5.66H564.302L567.596 10.268L570.908 5.66H572.186ZM583.145 5.66L579.167 11.06L583.577 17H582.227L578.501 11.996L574.811 17H573.515L577.907 11.15L573.911 5.66H575.261L578.555 10.268L581.867 5.66H583.145ZM594.105 5.66L590.127 11.06L594.537 17H593.187L589.461 11.996L585.771 17H584.475L588.867 11.15L584.871 5.66H586.221L589.515 10.268L592.827 5.66H594.105Z" fill="#99FD89"/>
<path d="M312.453 367H304.713C307.863 363.904 311.067 360.916 311.067 358.522C311.067 356.992 310.185 355.948 308.547 355.948C306.909 355.948 305.955 357.01 305.109 358.288C305.667 356.074 307.233 354.4 309.411 354.4C311.427 354.4 312.741 355.912 312.741 357.838C312.741 360.304 310.275 362.572 307.467 365.11V365.38H313.749L312.453 367ZM319.389 354.4C321.801 354.4 323.997 357.406 323.997 360.79C323.997 364.174 321.801 367.18 319.389 367.18C316.977 367.18 314.781 364.174 314.781 360.79C314.781 357.406 316.977 354.4 319.389 354.4ZM319.389 366.406C321.009 366.406 322.215 363.652 322.215 360.79C322.215 357.91 321.009 355.174 319.389 355.174C317.769 355.174 316.563 357.91 316.563 360.79C316.563 363.652 317.769 366.406 319.389 366.406ZM332.475 367H324.735C327.885 363.904 331.089 360.916 331.089 358.522C331.089 356.992 330.207 355.948 328.569 355.948C326.931 355.948 325.977 357.01 325.131 358.288C325.689 356.074 327.255 354.4 329.433 354.4C331.449 354.4 332.763 355.912 332.763 357.838C332.763 360.304 330.297 362.572 327.489 365.11V365.38H333.771L332.475 367ZM341.967 367H334.227C337.377 363.904 340.581 360.916 340.581 358.522C340.581 356.992 339.699 355.948 338.061 355.948C336.423 355.948 335.469 357.01 334.623 358.288C335.181 356.074 336.747 354.4 338.925 354.4C340.941 354.4 342.255 355.912 342.255 357.838C342.255 360.304 339.789 362.572 336.981 365.11V365.38H343.263L341.967 367Z" fill="#99FD89"/>
<path d="M536.787 367H529.047C532.197 363.904 535.401 360.916 535.401 358.522C535.401 356.992 534.519 355.948 532.881 355.948C531.243 355.948 530.289 357.01 529.443 358.288C530.001 356.074 531.567 354.4 533.745 354.4C535.761 354.4 537.075 355.912 537.075 357.838C537.075 360.304 534.609 362.572 531.801 365.11V365.38H538.083L536.787 367ZM543.723 354.4C546.135 354.4 548.331 357.406 548.331 360.79C548.331 364.174 546.135 367.18 543.723 367.18C541.311 367.18 539.115 364.174 539.115 360.79C539.115 357.406 541.311 354.4 543.723 354.4ZM543.723 366.406C545.343 366.406 546.549 363.652 546.549 360.79C546.549 357.91 545.343 355.174 543.723 355.174C542.103 355.174 540.897 357.91 540.897 360.79C540.897 363.652 542.103 366.406 543.723 366.406ZM556.809 367H549.069C552.219 363.904 555.423 360.916 555.423 358.522C555.423 356.992 554.541 355.948 552.903 355.948C551.265 355.948 550.311 357.01 549.465 358.288C550.023 356.074 551.589 354.4 553.767 354.4C555.783 354.4 557.097 355.912 557.097 357.838C557.097 360.304 554.631 362.572 551.823 365.11V365.38H558.105L556.809 367ZM561.819 366.478C563.241 366.28 564.933 365.2 564.933 363.526C564.933 361.762 563.043 360.79 560.163 360.79C562.557 359.512 564.159 358.828 564.159 357.37C564.159 356.326 563.403 355.768 562.287 355.768C561.063 355.768 559.983 356.578 559.281 357.424C559.713 355.948 561.153 354.4 563.133 354.4C564.753 354.4 565.869 355.408 565.869 356.668C565.869 358.108 564.537 358.936 563.115 359.62V359.836C565.149 360.214 566.589 361.096 566.589 362.698C566.589 365.056 563.835 367.18 560.973 367.18C559.767 367.18 558.957 366.604 558.957 365.812C558.957 365.38 559.245 364.894 559.731 364.678L561.819 366.478Z" fill="#99FD89"/>
<rect y="191" width="200" height="149" fill="#F9F8F8"/>
<rect x="224" y="112" width="200" height="228" fill="#F9F8F8"/>
<rect x="448" y="30" width="200" height="310" fill="#99FD89"/>
</svg>
