<svg width="1429" height="883" viewBox="0 0 1429 883" fill="none" xmlns="http://www.w3.org/2000/svg">
<path d="M1782.03 288.559C1748.06 248.934 1701.07 212.032 1642.37 178.889C1560.17 132.483 1456.28 94.1034 1333.59 64.8079C1242.04 42.9449 1140.6 26.3123 1032.1 15.3446C931.725 5.22443 826.71 0.0810547 719.962 0.0810547C613.215 0.0810547 508.2 5.22443 407.82 15.3518C299.325 26.3195 197.88 42.9522 106.335 64.8152C-16.3503 94.1034 -120.233 132.49 -202.433 178.897C-261.143 212.039 -308.138 248.934 -342.105 288.574C-383.858 337.305 -405.03 388.689 -405.03 441.318C-405.03 493.947 -383.858 545.337 -342.098 594.069C-308.13 633.702 -261.143 670.596 -202.425 703.738C-120.225 750.145 -16.3428 788.524 106.342 817.82C197.887 839.683 299.332 856.316 407.827 867.283C508.207 877.425 613.222 882.554 719.97 882.554C826.717 882.554 931.732 877.425 1032.11 867.283C1140.61 856.316 1242.05 839.683 1333.6 817.82C1456.28 788.532 1560.17 750.145 1642.37 703.738C1701.07 670.596 1748.06 633.702 1782.03 594.061C1823.79 545.337 1844.97 493.947 1844.97 441.318C1844.97 388.689 1823.79 337.298 1782.03 288.567V288.559ZM1629.83 511.999C1626.23 517.584 1622.5 522.554 1619.02 526.85C1618.53 531.732 1617.78 537.115 1616.64 542.809C1611.88 566.526 1601.81 587.484 1586.69 605.13C1565.94 629.355 1541.02 641.026 1522.21 647.632C1511.92 663.403 1495.85 683.158 1469.62 697.972C1436.34 716.756 1402.39 722.878 1375.11 727.804C1362.4 730.093 1350.38 732.266 1342.51 735.041C1338.58 736.453 1328.14 742.517 1320.52 746.95C1298.4 759.809 1268.08 777.426 1229.56 786.619C1204 792.719 1180.32 793.422 1164.73 793.422C1155.41 793.422 1146.73 793.146 1138.34 792.871C1131.28 792.639 1124.61 792.422 1118.63 792.422C1112.01 792.422 1106.89 792.712 1103.41 793.255C1097.92 794.139 1085.18 798.898 1074.94 802.723C1050.7 811.786 1020.52 823.058 984.045 826.738C975.367 827.614 966.292 828.063 957.075 828.063C932.482 828.063 910.17 824.999 890.497 822.297C876.54 820.384 863.362 818.581 853.807 818.581C852.795 818.581 851.835 818.602 850.965 818.639C842.415 819.052 827.955 822.5 813.96 825.839C788.22 831.982 756.202 839.618 719.97 839.618C683.737 839.618 651.72 831.975 625.98 825.839C611.992 822.507 597.525 819.052 588.99 818.639C588.112 818.602 587.137 818.581 586.125 818.581C576.57 818.581 563.392 820.384 549.442 822.297C529.762 824.999 507.457 828.063 482.872 828.063C473.647 828.063 464.572 827.614 455.887 826.738C419.415 823.058 389.235 811.786 364.987 802.723C354.75 798.898 342.015 794.139 336.51 793.255C333.045 792.704 327.922 792.422 321.3 792.422C315.322 792.422 308.647 792.646 301.582 792.871C293.197 793.139 284.52 793.422 275.205 793.422C259.612 793.422 235.935 792.719 210.382 786.619C171.847 777.419 141.54 759.809 119.407 746.95C111.787 742.517 101.347 736.468 97.4323 735.041C89.5648 732.266 77.5422 730.1 64.8297 727.804C37.5522 722.885 3.59973 716.764 -29.6778 697.972C-55.9128 683.165 -71.9853 663.403 -82.2678 647.632C-101.07 641.018 -125.993 629.355 -146.753 605.13C-161.873 587.484 -171.945 566.526 -176.7 542.809C-177.848 537.108 -178.583 531.725 -179.078 526.85C-182.558 522.554 -186.293 517.592 -189.893 511.999C-204.188 489.846 -211.44 466.064 -211.44 441.318C-211.44 416.571 -204.188 392.796 -189.893 370.636C-186.293 365.051 -182.558 360.081 -179.078 355.785C-178.583 350.903 -177.848 345.535 -176.7 339.834C-171.945 316.116 -161.873 295.144 -146.753 277.505C-126 253.287 -101.078 241.61 -82.2678 235.01C-71.9778 219.232 -55.9128 199.47 -29.6778 184.663C3.59973 165.879 37.5522 159.758 64.8297 154.831C77.5422 152.542 89.5573 150.369 97.4247 147.595C101.355 146.182 111.795 140.119 119.415 135.685C141.555 122.827 171.87 105.209 210.382 96.0159C235.942 89.9163 259.62 89.2136 275.212 89.2136C284.527 89.2136 293.197 89.4889 301.597 89.7642C308.662 89.996 315.33 90.2133 321.307 90.2133C327.937 90.2133 333.045 89.938 336.532 89.3802C342.022 88.4964 354.757 83.737 364.995 79.9121C389.242 70.8496 419.415 59.5776 455.895 55.8976C464.572 55.021 473.647 54.5719 482.865 54.5719C507.457 54.5719 529.77 57.6362 549.442 60.3383C563.4 62.2507 576.577 64.0545 586.132 64.0545C587.145 64.0545 588.105 64.0328 588.975 63.9966C597.525 63.5836 611.985 60.1354 625.98 56.7958C651.72 50.6528 683.737 43.0174 719.97 43.0174C756.202 43.0174 788.22 50.66 813.96 56.7958C827.947 60.1282 842.415 63.5836 850.95 63.9966C851.835 64.0328 852.787 64.0545 853.807 64.0545C863.37 64.0545 876.54 62.2507 890.497 60.3383C910.177 57.6362 932.482 54.5719 957.075 54.5719C966.285 54.5719 975.36 55.021 984.045 55.8976C1020.52 59.5776 1050.7 70.8496 1074.94 79.9121C1085.18 83.737 1097.92 88.4964 1103.42 89.3802C1106.89 89.938 1112.01 90.2133 1118.63 90.2133C1124.61 90.2133 1131.28 89.9887 1138.35 89.7642C1146.73 89.4961 1155.41 89.2136 1164.73 89.2136C1180.32 89.2136 1204 89.9163 1229.56 96.0159C1268.08 105.216 1298.38 122.827 1320.52 135.685C1328.14 140.119 1338.58 146.182 1342.5 147.595C1350.38 150.369 1362.39 152.542 1375.1 154.831C1402.38 159.75 1436.33 165.872 1469.61 184.663C1495.84 199.47 1511.92 219.232 1522.2 235.01C1541 241.61 1565.92 253.287 1586.68 277.505C1601.8 295.152 1611.88 316.109 1616.63 339.826C1617.78 345.528 1618.51 350.91 1619.01 355.785C1622.49 360.081 1626.22 365.036 1629.82 370.636C1644.12 392.796 1651.37 416.571 1651.37 441.318C1651.37 466.064 1644.12 489.846 1629.82 511.999H1629.83Z" fill="#00A4FF"/>
<path d="M1511.22 397.191C1505.09 383.101 1511.88 360.094 1500.29 346.584C1489.42 333.906 1463.37 334.348 1447.99 322.591C1434.52 312.297 1429.78 287.652 1413.02 278.191C1383.93 261.769 1342.24 262.855 1303.98 249.33C1271.53 237.863 1241.28 210.407 1202.63 201.185C1190.59 198.309 1177.86 197.542 1164.73 197.542C1149.73 197.542 1134.21 198.541 1118.63 198.541C1107.43 198.541 1096.18 198.02 1085.07 196.245C1048.32 190.363 1012.33 167.674 972.382 163.639C967.305 163.132 962.205 162.907 957.067 162.907C923.467 162.907 888.487 172.39 853.792 172.39C850.995 172.39 848.19 172.324 845.392 172.187C804.052 170.216 762.457 151.353 719.947 151.353C677.437 151.353 635.842 170.216 594.502 172.187C591.705 172.324 588.907 172.39 586.102 172.39C551.407 172.39 516.427 162.907 482.828 162.907C477.69 162.907 472.59 163.132 467.512 163.639C427.567 167.674 391.582 190.363 354.825 196.245C343.71 198.02 332.482 198.541 321.262 198.541C305.685 198.541 290.167 197.542 275.167 197.542C262.042 197.542 249.3 198.309 237.262 201.185C198.622 210.414 168.375 237.87 135.915 249.33C97.6499 262.855 55.9649 261.769 26.8724 278.191C10.1174 287.659 5.36991 312.297 -8.10009 322.591C-23.4751 334.355 -49.5301 333.913 -60.3976 346.584C-71.9776 360.094 -65.1901 383.101 -71.3251 397.191C-78.1201 412.795 -99.3301 425.234 -99.3301 441.309C-99.3301 457.383 -78.1201 469.822 -71.3251 485.426C-65.1976 499.516 -71.9851 522.523 -60.3976 536.034C-49.5301 548.711 -23.4751 548.269 -8.10009 560.026C5.36991 570.328 10.1174 594.965 26.8724 604.426C55.9649 620.849 97.6499 619.762 135.915 633.287C168.367 644.754 198.615 672.21 237.262 681.432C249.307 684.308 262.035 685.076 275.167 685.076C290.167 685.076 305.685 684.076 321.27 684.076C332.475 684.076 343.717 684.598 354.817 686.372C391.567 692.255 427.56 714.943 467.505 718.978C472.582 719.486 477.682 719.71 482.828 719.71C516.42 719.71 551.4 710.227 586.095 710.227C588.892 710.227 591.697 710.293 594.495 710.43C635.835 712.401 677.43 731.272 719.94 731.272C762.45 731.272 804.045 712.401 845.385 710.43C848.182 710.293 850.987 710.227 853.785 710.227C888.48 710.227 923.46 719.71 957.06 719.71C962.197 719.71 967.297 719.486 972.375 718.978C1012.32 714.943 1048.3 692.255 1085.06 686.372C1096.18 684.598 1107.42 684.076 1118.62 684.076C1134.2 684.076 1149.72 685.076 1164.72 685.076C1177.85 685.076 1190.59 684.308 1202.62 681.432C1241.27 672.21 1271.51 644.747 1303.97 633.287C1342.24 619.762 1383.92 620.849 1413.02 604.426C1429.77 594.972 1434.52 570.32 1447.99 560.026C1463.36 548.262 1489.42 548.704 1500.28 536.034C1511.86 522.523 1505.08 499.516 1511.21 485.426C1518.01 469.822 1539.22 457.383 1539.22 441.309C1539.22 425.234 1518.01 412.795 1511.21 397.191H1511.22ZM1367.45 513.149C1357.62 526.884 1345.08 538.714 1330.17 548.313C1316.07 557.397 1300.38 564.286 1280.81 569.98C1260.04 576.036 1236.52 580.245 1209.28 585.128C1201.03 586.605 1192.52 588.127 1183.81 589.757C1180.26 590.735 1171.45 594.19 1164.97 596.711C1140.58 606.252 1107.18 619.306 1065.69 623.58C1057.84 624.384 1049.65 624.797 1041.37 624.797C1018.21 624.797 997.747 621.732 979.703 619.023C968.04 617.277 957.03 615.633 949.98 615.618C949.463 615.618 948.997 615.64 948.578 615.655C944.302 616.133 932.835 619.342 924.442 621.689C900.382 628.404 870.45 636.779 834.472 637.764C832.305 637.822 830.092 637.851 827.902 637.851C797.07 637.851 770.107 631.968 748.455 627.238C738.547 625.065 724.987 622.109 719.962 622.109C714.937 622.109 701.377 625.072 691.477 627.238C669.817 631.968 642.862 637.851 612.022 637.851C609.84 637.851 607.635 637.822 605.467 637.764C569.482 636.771 539.542 628.404 515.497 621.689C507.097 619.342 495.637 616.133 491.362 615.655C491.032 615.633 490.567 615.618 489.96 615.618C482.917 615.618 471.9 617.27 460.23 619.023C442.185 621.732 421.717 624.797 398.572 624.797C390.285 624.797 382.095 624.384 374.235 623.58C332.745 619.313 299.347 606.252 274.957 596.718C268.477 594.183 259.672 590.742 256.125 589.749C247.417 588.112 238.905 586.598 230.655 585.12C203.422 580.238 179.902 576.029 159.127 569.973C139.545 564.272 123.855 557.397 109.755 548.305C94.8524 538.707 82.3124 526.877 72.4874 513.142C57.2549 491.866 49.2074 467.025 49.2074 441.309C49.2074 415.592 57.2549 390.759 72.4799 369.475C82.3124 355.74 94.8524 343.91 109.762 334.312C123.862 325.228 139.552 318.338 159.12 312.644C179.895 306.603 203.415 302.379 230.655 297.497C238.89 296.026 247.41 294.498 256.117 292.875C259.68 291.883 268.477 288.442 274.965 285.906C299.347 276.373 332.752 263.312 374.242 259.037C382.095 258.233 390.277 257.82 398.58 257.82C421.725 257.82 442.185 260.892 460.237 263.594C471.9 265.34 482.91 266.999 489.96 266.999C490.477 266.999 490.942 266.992 491.362 266.97C495.637 266.477 507.105 263.268 515.497 260.928C539.557 254.213 569.49 245.839 605.467 244.853C607.635 244.795 609.847 244.766 612.037 244.766C642.877 244.766 669.832 250.649 691.485 255.386C701.392 257.545 714.952 260.508 719.977 260.508C725.002 260.508 738.562 257.545 748.47 255.386C770.122 250.649 797.07 244.766 827.917 244.766C830.1 244.766 832.305 244.795 834.472 244.853C870.457 245.846 900.397 254.213 924.442 260.928C932.842 263.275 944.302 266.484 948.578 266.97C948.907 266.977 949.372 266.999 949.98 266.999C957.022 266.999 968.04 265.347 979.71 263.594C997.755 260.885 1018.22 257.82 1041.37 257.82C1049.65 257.82 1057.84 258.233 1065.7 259.037C1107.19 263.312 1140.59 276.366 1164.98 285.906C1171.46 288.434 1180.27 291.875 1183.81 292.861C1192.52 294.498 1201.03 296.012 1209.28 297.49C1236.52 302.372 1260.04 306.581 1280.81 312.637C1300.4 318.338 1316.09 325.228 1330.19 334.305C1345.09 343.903 1357.64 355.733 1367.47 369.468C1382.69 390.744 1390.74 415.584 1390.74 441.301C1390.74 467.018 1382.69 491.859 1367.47 513.135L1367.45 513.149Z" fill="#00A4FF"/>
<path d="M1159.69 408.952C1129 403.208 1094.67 381.084 1052.71 376.766C1048.99 376.383 1045.2 376.209 1041.36 376.209C1013.09 376.209 981.975 385.38 949.972 385.38C946.935 385.38 943.882 385.3 940.83 385.119C905.775 383.033 869.535 364.249 830.977 363.191C829.95 363.162 828.93 363.155 827.902 363.155C793.087 363.155 756.832 378.896 719.962 378.896C683.092 378.896 646.837 363.155 612.022 363.155C610.995 363.155 609.975 363.162 608.947 363.191C570.39 364.249 534.15 383.033 499.087 385.119C496.035 385.3 492.99 385.38 489.945 385.38C457.95 385.38 426.832 376.209 398.557 376.209C394.725 376.209 390.937 376.383 387.217 376.766C345.262 381.084 310.912 403.201 280.245 408.952C218.58 420.492 171.78 426.128 171.78 441.319C171.78 456.511 218.58 462.147 280.245 473.687C310.927 479.431 345.262 501.555 387.217 505.873C390.945 506.256 394.732 506.43 398.572 506.43C426.84 506.43 457.957 497.259 489.96 497.259C492.997 497.259 496.05 497.339 499.102 497.52C534.157 499.606 570.397 518.39 608.955 519.448C609.982 519.477 611.002 519.499 612.03 519.499C646.845 519.499 683.1 503.75 719.97 503.75C756.84 503.75 793.095 519.499 827.91 519.499C828.937 519.499 829.957 519.477 830.985 519.448C869.542 518.39 905.782 499.606 940.845 497.52C943.897 497.339 946.942 497.259 949.987 497.259C981.982 497.259 1013.1 506.43 1041.37 506.43C1045.21 506.43 1048.99 506.256 1052.71 505.873C1094.67 501.555 1129.02 479.438 1159.69 473.687C1221.35 462.147 1268.15 456.511 1268.15 441.319C1268.15 426.128 1221.35 420.492 1159.69 408.952ZM719.962 460.538C582.592 460.538 471.225 451.939 471.225 441.319C471.225 430.699 582.585 422.101 719.962 422.101C857.34 422.101 968.7 430.699 968.7 441.319C968.7 451.939 857.34 460.538 719.962 460.538Z" fill="#00A4FF"/>
</svg>
